<svg xmlns="http://www.w3.org/2000/svg" width="1.08in" height="0.54in" viewBox="0 0 78 39"><title>2 222</title><path d="M1.29,35.69q8.3-3.48,11.91-10t3.61-18a44.26,44.26,0,0,0-.28-5.16,20,20,0,0,0,5.1.65,10.85,10.85,0,0,0-1.16,5.69A30,30,0,0,0,23.73,23a19.53,19.53,0,0,0,5.08,6.39,33.55,33.55,0,0,0,8.76,4.41,11.8,11.8,0,0,0-3.79,3.71q-6.78-3.7-10-8.1T19,17.48a31.47,31.47,0,0,1-4.42,11.88A35.3,35.3,0,0,1,5,38.56,11.89,11.89,0,0,0,1.29,35.69Z"/><path d="M39.84,26.22q3.87-3.41,6.36-12.66h-3c-.19,0-.59,0-1.2.07l-1.1.06c0-.75.07-1.31.07-1.68s0-1-.07-1.75l1,.08c.72.05,1.31.08,1.75.08h3.27V3.56q0-.33-.09-1.2c0-.23-.06-.57-.1-1a21.06,21.06,0,0,0,3.22.27l.67,0a2.75,2.75,0,0,0-.69,1.86v7h2.36a26,26,0,0,0,2.61-.16c-.06.76-.09,1.35-.09,1.75s0,.93.09,1.68l-1.12-.06c-.76-.05-1.35-.07-1.77-.07H49.87v5.63a6.22,6.22,0,0,0,2.78-1.5c.36.57.61,1,.77,1.22l1.29,2L56,23l.55.9a11.66,11.66,0,0,0-2.88,1.71,24.05,24.05,0,0,0-3.77-6.34V35.23a31.58,31.58,0,0,0,.23,3.5,12,12,0,0,0-1.88-.25,12.53,12.53,0,0,0-1.62.16,24,24,0,0,0,.23-3.3V19.14a44.47,44.47,0,0,1-5.07,10.55A11,11,0,0,0,39.84,26.22Z"/><path d="M51.26,34.66a22.56,22.56,0,0,0,11.39-6.34Q59.26,23,57.49,12.89l-.3-1.75a12.26,12.26,0,0,0,1.65.15A10.77,10.77,0,0,0,60.75,11a29.38,29.38,0,0,0,3.84,15q3.6-6,5-17.29H59.05c-.21,0-.79.07-1.73.19-.33.05-.82.1-1.47.16a13.61,13.61,0,0,0,.21-2,11.31,11.31,0,0,0-.23-1.89l1.81.13c.89.07,1.57.1,2,.1H70.46q.93,0,3.24-.15l-.33,2.13A81.42,81.42,0,0,1,70.61,20a32.1,32.1,0,0,1-4.15,8.49,19.4,19.4,0,0,0,10.25,4.87,11.64,11.64,0,0,0-2.48,3.77,32.31,32.31,0,0,1-9.79-6.45,57.84,57.84,0,0,1-9.2,6.93A10.58,10.58,0,0,0,51.26,34.66Z"/></svg>