<svg xmlns="http://www.w3.org/2000/svg" width="1.07in" height="0.54in" viewBox="0 0 77 39"><title>7 222 copy 5</title><path d="M1,29a29.79,29.79,0,0,0,5.16-1.39V15.05H4a15.76,15.76,0,0,0-2.74.25,17.15,17.15,0,0,0,.17-2,17.31,17.31,0,0,0-.17-1.93A25,25,0,0,0,4,11.62H6.19V3.89A19.51,19.51,0,0,0,5.9.48,14.21,14.21,0,0,0,9.24.92L10,.9a2.57,2.57,0,0,0-.82,1.83l0,1v7.88h2.55c.46,0,1.33,0,2.61-.17a12,12,0,0,0-.25,2.06,14.13,14.13,0,0,0,.19,1.79,13.87,13.87,0,0,0-2.57-.25H9.18V26.72l1.5-.64a22.09,22.09,0,0,0,3.39-1.72,15.82,15.82,0,0,0,.38,3.49A46.86,46.86,0,0,0,2.3,33,11.93,11.93,0,0,0,1,29Z"/><path d="M11.58,35.75q.09-1.06.09-1.71c0-.4-.05-1-.15-1.94a13.39,13.39,0,0,0,2.63.22H33.71a15.51,15.51,0,0,0,3.21-.3c-.08.82-.13,1.44-.13,1.85s.05,1,.13,1.88a11.65,11.65,0,0,0-2.87-.32H14.45A11,11,0,0,0,11.58,35.75Z"/><path d="M15.79,27.22a19.31,19.31,0,0,0,.24-3v-18a34,34,0,0,0-.19-3.51,28.61,28.61,0,0,0,3.47.21H30.75A22.21,22.21,0,0,0,34,2.67a27.7,27.7,0,0,0-.25,3.15V24.17c0,.31,0,.87.1,1.68,0,.3.06.76.09,1.37A25.38,25.38,0,0,0,30.49,27H18.72A23.56,23.56,0,0,0,15.79,27.22Zm3.44-13.41H30.47V5.87H19.23Zm0,10.36H30.49V16.61H19.23Z"/><path d="M40.87,34.32a21.25,21.25,0,0,0,8.7-2.76,6.1,6.1,0,0,0,2.5-2.69,13.8,13.8,0,0,0,.87-4.81h-2.8c-.27,0-.92,0-2,.07s-1.62.06-2,.06l.07-5.73-.07-5.77,2.89.06,3.93.07h3.78V9H45.28c-.72,0-1.86,0-3.4.13,0-.72,0-1.26,0-1.6s0-.94,0-1.68c.31,0,.87,0,1.65.08,1.06.06,1.68.1,1.89.1H56.84V4.29q0-.31-.09-2c0-.91-.08-1.62-.08-2.13A32.19,32.19,0,0,0,60.75,1,3.68,3.68,0,0,0,60,3.09V6H71.53c.91,0,2.17,0,3.77-.16Q75.24,7,75.24,7.53c0,.34,0,.88.06,1.6l-1.53-.06C72.77,9,71.93,9,71.24,9H60v3.82h4.35l3.48-.07L71,12.69,71,18.29l.08,5.9-2.53-.06-3.7-.07H63v7.16a2.13,2.13,0,0,0,.6,1.76,3.94,3.94,0,0,0,2.28.47h3.24a2,2,0,0,0,1.91-1,10,10,0,0,0,.79-3.66A7.4,7.4,0,0,0,75.58,31a2.77,2.77,0,0,1-.13.34c-1,2.43-1.75,3.91-2.36,4.44s-1.82.8-3.62.8H65.38c-2.39,0-3.9-.21-4.52-.62s-.93-1.4-.93-3v-9H56.08c-.2,3.94-.84,6.6-1.92,8S50.48,35,46.35,36.61l-2.38,1A7.64,7.64,0,0,0,40.87,34.32ZM67.39,15.87H49.63v5.58H67.39Z"/></svg>