<svg xmlns="http://www.w3.org/2000/svg" width="0.51in" height="0.53in" viewBox="0 0 37 38"><title>Artboard 56</title><path d="M19,9.27l3.07,0,3.12-.08,2.93-.07c.92,0,1.75-.06,2.49-.11a14.58,14.58,0,0,0-.2,1.77c0,.69-.05,1.63-.05,2.82V26.85a2.61,2.61,0,0,1-.3,1.26,2.71,2.71,0,0,1-1,1,7.9,7.9,0,0,1-2,.77,29.12,29.12,0,0,1-3.24.6,13,13,0,0,0-.5-2.1,7.15,7.15,0,0,0-.87-1.75,18.57,18.57,0,0,0,2.28.13,5.77,5.77,0,0,0,1.44-.19,1.43,1.43,0,0,0,.76-.46,1.08,1.08,0,0,0,.22-.67V12.12H19v17.8c0,1.16,0,2.21,0,3.16s.09,2,.19,3.13H15.43q0-.89.09-1.65c0-.5.06-1,.07-1.51s0-1,0-1.52,0-1,0-1.61V12.12H8V29.59H4.33c.17-1,.29-1.95.35-2.74s.09-1.68.09-2.66V13.57c0-.89,0-1.69,0-2.41S4.64,9.72,4.59,9c.69,0,1.48.08,2.38.11l2.83.07,3,.08,2.85,0c0-1.7,0-3.21-.11-4.55s-.17-2.39-.3-3.18c.67.08,1.37.12,2.11.15a19.86,19.86,0,0,0,2.07,0q.63,0,.69.24c0,.19-.13.38-.5.58a.69.69,0,0,0-.2.33,5,5,0,0,0-.19.61c-.06.23-.11.46-.15.68a4.58,4.58,0,0,0-.05.56Z"/></svg>