<svg xmlns="http://www.w3.org/2000/svg" width="0.51in" height="0.53in" viewBox="0 0 37 38"><title>Artboard 22</title><path d="M34.33,25.83a24.81,24.81,0,0,1-1,3.25,4.46,4.46,0,0,1-1.24,1.81,3.77,3.77,0,0,1-1.91.8,21.69,21.69,0,0,1-3,.17c-1.38,0-2.49-.05-3.34-.13a4.33,4.33,0,0,1-2-.58A2.08,2.08,0,0,1,21,29.88a8.91,8.91,0,0,1-.16-2.24l.7-21.83H11.69c.05,2,.08,3.75.09,5.27s0,2.86,0,4-.1,2.22-.17,3.13-.17,1.78-.3,2.59a21,21,0,0,1-.85,3.63A18.28,18.28,0,0,1,9,27.62a18.41,18.41,0,0,1-2,2.87,27.21,27.21,0,0,1-2.68,2.7,19.94,19.94,0,0,0-1.65-1.13q-.87-.54-2-1.17a16.67,16.67,0,0,0,3-2A12.26,12.26,0,0,0,5.79,26.7a11,11,0,0,0,1.39-2.65A19.41,19.41,0,0,0,8,20.87c.17-1,.31-2,.41-2.91s.15-2.07.16-3.38,0-2.88-.07-4.72-.15-4.15-.28-6.94c1.36.1,2.8.16,4.31.19s3,0,4.57,0,2.93,0,4.18,0,2.56-.06,3.89-.11c-.05.24-.1.52-.15.83s-.09.69-.13,1.15-.08,1-.13,1.62S24.67,8,24.64,8.84l-.59,18.35a2.46,2.46,0,0,0,.09.73.78.78,0,0,0,.45.44,2.8,2.8,0,0,0,1,.22c.44,0,1,.06,1.72.06A8.78,8.78,0,0,0,29,28.51a1.61,1.61,0,0,0,1-.61,3.65,3.65,0,0,0,.59-1.46c.15-.66.32-1.56.52-2.72a15.49,15.49,0,0,0,1.59,1.22A12.23,12.23,0,0,0,34.33,25.83Z"/></svg>