<svg xmlns="http://www.w3.org/2000/svg" width="0.51in" height="0.53in" viewBox="0 0 37 38"><title>Artboard 18</title><path d="M13.17,7q-.08,0-.15.24c0,.14-.13.51-.26,1.13s-.29,1.56-.5,2.83-.5,3-.87,5.35a36.62,36.62,0,0,1-2.73,9.36,22.79,22.79,0,0,1-4.89,7,4.91,4.91,0,0,0-1.46-1.15,9.71,9.71,0,0,0-1.83-.7,33.88,33.88,0,0,0,3.16-3.43,21.54,21.54,0,0,0,2.17-3.27,20.34,20.34,0,0,0,1.46-3.5q.57-1.83,1.05-4.05.38-1.74.63-3.48c.17-1.16.3-2.23.39-3.23s.14-1.88.15-2.65A10.05,10.05,0,0,0,9.4,5.77a13.73,13.73,0,0,0,1.75.32c.58.06,1.19.1,1.84.13.34,0,.53.08.57.25S13.47,6.83,13.17,7Zm21.31,21.5a11.69,11.69,0,0,0-1.68,1.64,9.36,9.36,0,0,0-1.35,2.06,31.15,31.15,0,0,1-5.25-5.31A22.89,22.89,0,0,1,23,21.15a29,29,0,0,1-1.59-6.81A76.11,76.11,0,0,1,21,5.88H17.46c-.32,0-.63,0-.94,0l-1,.07-1.18.11V2.77l1.18.13,1,.1q.48,0,1,0h1.07c1.19,0,2.21,0,3.07,0s1.64-.11,2.33-.21q0,3.48.12,6.33a41.7,41.7,0,0,0,.5,5.22,23.82,23.82,0,0,0,1.09,4.33,15.8,15.8,0,0,0,1.87,3.66,17.45,17.45,0,0,0,2.86,3.22A30.72,30.72,0,0,0,34.48,28.53Z"/></svg>