<svg xmlns="http://www.w3.org/2000/svg" width="0.51in" height="0.53in" viewBox="0 0 37 38"><title>Artboard 127</title><path d="M27.19,25.41c0-.93,0-1.74-.09-2.42a5,5,0,0,0-.28-1.46,16.56,16.56,0,0,0,1.8.18,17.76,17.76,0,0,0,1.79,0c.35,0,.55,0,.59.11s0,.24-.25.41a1.38,1.38,0,0,0-.52.56,1.83,1.83,0,0,0-.11.74v7.21c0,1,0,1.76.05,2.41A13.75,13.75,0,0,0,30.41,35H27.19V33H8.29v2.33H5.07a13.3,13.3,0,0,0,.22-1.45c0-.49.07-1.22.07-2.18v-6.4a15.91,15.91,0,0,0-.26-3.66A16.85,16.85,0,0,0,7,21.94a12,12,0,0,0,1.7,0c.32,0,.51,0,.56.12s0,.23-.26.36a1.74,1.74,0,0,0-.57.51,1.23,1.23,0,0,0-.13.63v6.92h8.06V19.05q-5.15,0-8.77.09c-2.41.06-4.55.17-6.4.32V16.09q2.82.18,6.42.28c2.41.06,5.32.09,8.75.09V9.24H10.06C9.57,10.16,9,11.08,8.4,12s-1.32,1.91-2.11,2.94a6.31,6.31,0,0,0-2.7-1.55,16.73,16.73,0,0,0,2.05-2.63A29.83,29.83,0,0,0,7.36,7.67,30,30,0,0,0,8.71,4.43a28,28,0,0,0,.91-3.07,16.75,16.75,0,0,0,2,.63,12.28,12.28,0,0,0,1.66.3c.37,0,.57.19.59.42s-.11.4-.4.5a2.12,2.12,0,0,0-.82.91,24.61,24.61,0,0,0-1.25,2.5h7l4.09,0,2.94,0c.86,0,1.69,0,2.48-.07l2.7-.17V9.5L28,9.37c-.73,0-1.51-.06-2.31-.07l-2.68,0-3.66,0v7.22c3.18,0,5.93-.06,8.25-.11s4.38-.14,6.18-.26v3.37q-2.7-.2-6.18-.28c-2.32-.06-5.07-.11-8.25-.13V30.48h7.8Z"/></svg>