<svg xmlns="http://www.w3.org/2000/svg" width="0.51in" height="0.53in" viewBox="0 0 37 38"><title>Artboard 113</title><path d="M12.17,19.06l-1.42.07-1.09.07V16.06c.39.05.89.09,1.49.11l2,.09c.72,0,1.45.06,2.19.08h2.11V9.44H8.66c.05,1.38.06,2.77,0,4.16s-.07,2.68-.14,3.86q-.23,3.3-.52,5.68a37.23,37.23,0,0,1-.78,4.33,25.17,25.17,0,0,1-1.2,3.68C5.57,32.31,5,33.53,4.33,34.82l-.72-.34c-.29-.12-.58-.23-.89-.33a7.62,7.62,0,0,0-.94-.24c-.33-.06-.61-.1-.86-.13a21.64,21.64,0,0,0,2-3.09,16.92,16.92,0,0,0,1.28-3.12A25.41,25.41,0,0,0,5,24.07c.17-1.25.29-2.67.37-4.27,0-.94.08-1.95.11-3s0-2.18,0-3.31,0-2.29,0-3.46,0-2.34-.1-3.5c.4,0,.91.09,1.54.11s1.42,0,2.39.06l3.44,0h4.7c-.05-1.23-.11-2.37-.19-3.42S17.09,1.49,17,1c.76.1,1.47.17,2.13.22a18,18,0,0,0,1.94,0q.51,0,.54.15c0,.1-.12.23-.39.4a1.44,1.44,0,0,0-.63.78,2.94,2.94,0,0,0-.19,1v3.1c2.69,0,5.16,0,7.42-.05s4-.09,5.35-.17l-2.56,6.7-3.36-.44L29,9.44H20.42v6.88c.94,0,1.87,0,2.78,0l2.57-.05c.8,0,1.52,0,2.16-.08s1.16-.08,1.56-.13a34.69,34.69,0,0,1-2.72,6.9A22.6,22.6,0,0,1,23,28.19a13.86,13.86,0,0,0,1.86.74,20,20,0,0,0,2.35.6c.89.17,1.9.32,3,.44s2.4.22,3.83.3a7.64,7.64,0,0,0-.93,1.9,15.45,15.45,0,0,0-.59,2.2A49.89,49.89,0,0,1,26,32.63a25,25,0,0,1-5.33-2.55,28.45,28.45,0,0,1-2.48,1.41c-1,.49-1.95,1-3,1.4s-2,.85-3,1.21a23.83,23.83,0,0,1-2.52.79c-.35-.57-.68-1.06-1-1.48a15.38,15.38,0,0,0-1.11-1.29A28,28,0,0,0,13,30.8a25.49,25.49,0,0,0,5.18-2.53,14.46,14.46,0,0,1-3.59-3.87A19.82,19.82,0,0,1,12.17,19.06ZM15,18.94a20.48,20.48,0,0,0,2.4,4.3,16.84,16.84,0,0,0,3.15,3.33,14.75,14.75,0,0,0,2.75-3.19,21.36,21.36,0,0,0,2.13-4.44Z"/></svg>