<svg xmlns="http://www.w3.org/2000/svg" width="0.51in" height="0.53in" viewBox="0 0 37 38"><title>Artboard 147</title><path d="M14.61,5.31a16.71,16.71,0,0,0-.07-1.73,12.14,12.14,0,0,0-.26-1.48,19.74,19.74,0,0,0,2,.16c.59,0,1.21,0,1.85,0a.42.42,0,0,1,.41.23c.07.14,0,.29-.3.44s-.31.4-.41.91-.18,1.12-.26,1.86h11c.37,0,.67,0,.91-.06l.65-.07V8.35l-.65-.08c-.24,0-.54,0-.91,0l-1.37,0H17.57v3.22c1.41,0,2.75,0,4,0s2.51-.06,3.74-.11l3.7-.18,3.9-.26-1.48,6.62L28.27,17l1.07-3.25-10,.11v5c.81-.07,1.66-.16,2.53-.27s1.74-.23,2.59-.36,1.67-.24,2.45-.37,1.48-.24,2.12-.37l.3,3.41c-.32,0-.81,0-1.46.05l-2.31.17c-.89.07-1.87.17-2.93.28s-2.16.24-3.29.39v1.77A7.05,7.05,0,0,0,19.46,25a1.14,1.14,0,0,0,.56.78,3.36,3.36,0,0,0,1.36.33c.62.05,1.47.08,2.56.08.86,0,1.66,0,2.38-.06s1.43-.09,2.1-.15,1.31-.14,2-.24,1.29-.22,2-.37A5.54,5.54,0,0,0,31.76,27a6.16,6.16,0,0,0,0,1.72c-.89.12-2,.21-3.26.26S25.68,29,23.9,29s-3.12-.05-4.11-.15a5.41,5.41,0,0,1-2.23-.59,1.89,1.89,0,0,1-.95-1.22,9.34,9.34,0,0,1-.18-2V22.22c-.55.08-1.17.15-1.87.23l-2.15.24-2.05.24c-.64.07-1.19.14-1.63.22l-.15-3.44c.4,0,.92,0,1.58,0s1.35-.06,2.1-.11,1.5-.1,2.24-.17l1.93-.16V13.9l-8.55-.11C8,15.32,8,16.73,8,18s0,2.6-.15,3.91-.18,2.33-.33,3.44a30.31,30.31,0,0,1-.63,3.29,28,28,0,0,1-1,3.31c-.44,1.12-1,2.32-1.58,3.57a5.16,5.16,0,0,0-1.27-1A3.8,3.8,0,0,0,1.37,34,31.41,31.41,0,0,0,3,31.07a19,19,0,0,0,1.11-2.91,23.57,23.57,0,0,0,.68-3.33,38.67,38.67,0,0,0,.31-4.12c.05-1.33.05-2.82,0-4.44s-.17-3.31-.32-5c1.58,0,3.18.1,4.81.13s3.31.06,5,.06Z"/></svg>