<svg xmlns="http://www.w3.org/2000/svg" width="0.51in" height="0.53in" viewBox="0 0 37 38"><title>Artboard 71</title><path d="M8.88,18.92c-.44,0-.91.1-1.41.13L6,19.18V16L8.08,16l2.61.05,2.78,0,2.7,0V11c-1.53,0-2.94,0-4.22,0l-3.57.07-3.07.1c-.95,0-1.87.08-2.76.13V8.08c1.75.1,3.71.18,5.87.22s4.74.09,7.75.12c0-1.56,0-2.81-.08-3.76a8.74,8.74,0,0,0-.29-1.94,14,14,0,0,0,2,.28,9.21,9.21,0,0,0,1.87-.1c.39,0,.61,0,.66.19s-.08.36-.41.55a1,1,0,0,0-.4.47,2.07,2.07,0,0,0-.11.79V8.42q4.66,0,8-.08c2.22-.05,4.2-.13,6-.26v3.3c-.89-.08-1.83-.13-2.82-.17s-2-.07-3.18-.09-2.35,0-3.66-.06l-4.29,0v5.11c.81,0,1.66,0,2.53,0L24.51,16,26.92,16l1.94-.1a31.46,31.46,0,0,1-1.78,4,31.28,31.28,0,0,1-2,3.29,24.9,24.9,0,0,1-2.28,2.74c-.8.83-1.63,1.61-2.5,2.35a22.66,22.66,0,0,0,6.07,2.16,32.18,32.18,0,0,0,7.51.69,11.1,11.1,0,0,0-1,2.07,14.79,14.79,0,0,0-.67,2.14,48.53,48.53,0,0,1-7.45-2,33.36,33.36,0,0,1-6.87-3.29c-.86.54-1.85,1.1-3,1.67s-2.3,1.11-3.55,1.64-2.52,1-3.83,1.48S4.92,35.7,3.74,36a14.47,14.47,0,0,0-1.1-1.78,13.71,13.71,0,0,0-1.53-1.81A24.15,24.15,0,0,0,5,32a39.46,39.46,0,0,0,3.85-1c1.25-.4,2.42-.83,3.53-1.3a24.52,24.52,0,0,0,2.89-1.4,23.69,23.69,0,0,1-3.55-4.11A26.94,26.94,0,0,1,8.88,18.92Zm3.18-.14A25.93,25.93,0,0,0,14.52,23a22.17,22.17,0,0,0,3.24,3.6,27.58,27.58,0,0,0,4-3.88,16.48,16.48,0,0,0,2.44-3.92Z"/></svg>