<svg xmlns="http://www.w3.org/2000/svg" width="0.51in" height="0.53in" viewBox="0 0 37 38"><title>Artboard 186</title><path d="M22.57,14.29c2.24,0,4.3,0,6.16-.09s3.51-.15,4.94-.28v3.29c-1-.07-2-.12-3-.16s-2.2-.08-3.47-.11-2.71-.06-4.3-.08H12.06c-1.58,0-3,0-4.33.08s-2.48.07-3.53.11-2,.09-2.91.16V13.92l2.08.15,2.48.13c.86,0,1.73.06,2.62.07s1.73,0,2.52,0h8.88a16.93,16.93,0,0,0,1.07-2.55,14.34,14.34,0,0,0,.63-2.63,16.89,16.89,0,0,0,1.89.76,18.59,18.59,0,0,0,1.85.54c.29.05.45.15.46.29s-.09.27-.31.37a4.9,4.9,0,0,0-1.36,1.06A11.6,11.6,0,0,0,22.57,14.29ZM19.72,6.08c2.54,0,4.77-.06,6.68-.11s3.61-.13,5.09-.22V9q-2.67-.18-6.09-.29c-2.28-.08-5-.12-8.23-.12s-6,0-8.22.12S4.69,8.87,3,9V5.75C4.59,5.87,6.45,6,8.55,6s4.6.08,7.51.08a15.58,15.58,0,0,0-.39-1.67q-.24-.81-.54-1.62l3.78-.52c.07.56.18,1.19.33,1.87S19.55,5.46,19.72,6.08ZM9.47,33.83v2.63H6.07c.1-.72.17-1.45.22-2.21s.07-1.41.07-2V23c0-.54,0-1.1-.05-1.66a13.45,13.45,0,0,0-.24-1.74c.93.1,2.3.18,4.09.24s4.15.09,7.08.09,5.24,0,7-.09,3.15-.14,4.19-.24a17.19,17.19,0,0,0-.3,3.4v9.36c0,.54,0,1.11.05,1.7s.12,1.3.25,2.11H25V33.83Zm1.37-19.72a13.34,13.34,0,0,0-1.7-3.52l3.33-1.07c.27.54.55,1.13.85,1.76s.6,1.22.92,1.79ZM25,25.65V22.36H9.47v3.29Zm0,5.7V28H9.47v3.37Z"/></svg>