<svg xmlns="http://www.w3.org/2000/svg" width="0.51in" height="0.53in" viewBox="0 0 37 38"><title>Artboard 168</title><path d="M20,23.4c1.4,0,2.6,0,3.6,0l2.63-.05c.75,0,1.42-.06,2-.1s1.17-.09,1.74-.16v3.14l-1.61-.09c-.58,0-1.26-.06-2-.07l-2.7,0L20,26v6a46.35,46.35,0,0,0,5.73.36,48.85,48.85,0,0,0,7.18-.48,9,9,0,0,0-.74,1.71c-.15.49-.28,1.07-.41,1.73-3.87,0-7.18-.17-9.91-.44a27.18,27.18,0,0,1-5.78-1,12.8,12.8,0,0,1-3.81-2,11.08,11.08,0,0,1-2.74-3.28,20.64,20.64,0,0,1-4.92,7.59,4.69,4.69,0,0,0-1.07-1.35A5.88,5.88,0,0,0,2,33.91a12.65,12.65,0,0,0,4.5-5.14,15.55,15.55,0,0,0,1.46-7,13.61,13.61,0,0,0,1.68.3,10.94,10.94,0,0,0,1.76.07c.32,0,.5.06.52.24s-.1.36-.37.54a2.81,2.81,0,0,0-.78.76,4.08,4.08,0,0,0-.55,1.46,10.32,10.32,0,0,0,1.22,2A12.62,12.62,0,0,0,13.12,29a11.47,11.47,0,0,0,1.9,1.4,10,10,0,0,0,2,.93V18.78q-3,.66-6.18,1.22T4.66,21a3.42,3.42,0,0,0-.31-1.46,6.94,6.94,0,0,0-.8-1.32A100.68,100.68,0,0,0,18.7,15.89a56.87,56.87,0,0,0,11.71-4,14.11,14.11,0,0,0,.95,1.46,8,8,0,0,0,1,1.17.56.56,0,0,1,.21.57c-.06.19-.27.24-.61.17a5.89,5.89,0,0,0-1.46,0A14.47,14.47,0,0,0,27.9,16c-1.11.35-2.33.7-3.67,1.06s-2.73.7-4.21,1.05ZM25.83,4.57c.29.24.41.46.35.65s-.28.25-.65.2a6.13,6.13,0,0,0-1.7.11,11.2,11.2,0,0,0-2,.55c-.72.28-1.66.58-2.82.91s-2.43.68-3.83,1-2.86.71-4.42,1.05-3.07.67-4.55,1A7.47,7.47,0,0,0,5.7,8.69a5.69,5.69,0,0,0-1-1.24q3.6-.56,6.48-1.12t5.22-1.21c1.55-.42,2.95-.86,4.18-1.33A29.9,29.9,0,0,0,24,2.27a14.11,14.11,0,0,0,.91,1.32A5.57,5.57,0,0,0,25.83,4.57ZM29.38,9.3a.62.62,0,0,1,.24.56c0,.2-.23.26-.58.18a4.64,4.64,0,0,0-1.31.08A17.69,17.69,0,0,0,24.9,11a79.71,79.71,0,0,1-8.6,2.66q-4.47,1.11-9.46,2a4.14,4.14,0,0,0-.55-1.55,3.58,3.58,0,0,0-1-1.08c2-.22,4.08-.54,6.25-1s4.26-.92,6.27-1.46,3.86-1.13,5.54-1.76a23.47,23.47,0,0,0,4.07-1.9,6.35,6.35,0,0,0,.87,1.29A6.78,6.78,0,0,0,29.38,9.3Z"/></svg>