<svg xmlns="http://www.w3.org/2000/svg" width="0.51in" height="0.53in" viewBox="0 0 37 38"><title>Artboard 172</title><path d="M18.83,31.25q4.84,0,8.57-.12t6.49-.25v3.36q-3-.23-7-.31c-2.69-.06-5.81-.1-9.36-.1s-6.79,0-9.49.1-5,.16-6.94.31V30.88q2.7.18,6.31.25c2.4.05,5.2.09,8.38.12V26.66q-3.81,0-6.7.14T4,27.1V23.77c1.51.12,3.21.22,5.11.3s4.12.12,6.66.14V20.4c-2,0-3.66,0-5,0l-3.22.09-1.9.11-1,.1c.08-1.41.12-2.82.13-4.22s0-2.79,0-4.14,0-2.93,0-4.35-.06-2.75-.11-4c.35.07.76.14,1.24.2S7.08,4.36,8,4.4s2.15.06,3.66.08H17.5c2.32,0,4.23,0,5.74,0s2.71-.06,3.64-.1,1.63-.08,2.13-.12a9.41,9.41,0,0,0,1.18-.19c-.05,1.26-.09,2.58-.11,4s0,2.84,0,4.35c0,1.28,0,2.62.06,4s.08,2.84.13,4.35q-.37-.07-1-.15c-.4-.05-1-.09-1.82-.11s-1.9,0-3.27-.06l-5.35,0v3.81c2.57,0,4.81-.07,6.74-.14s3.59-.18,5-.3V27.1c-1.4-.12-3.08-.22-5-.3s-4.18-.12-6.72-.14ZM15.8,6.9H7.88v4.4H15.8Zm0,6.77H7.88v4.4H15.8Zm3-2.37h8.1V6.9h-8.1Zm0,6.77h8.1v-4.4h-8.1Z"/></svg>