<svg xmlns="http://www.w3.org/2000/svg" width="0.51in" height="0.53in" viewBox="0 0 37 38"><title>Artboard 207</title><path d="M6.4,28.16c-.17.76-.33,1.42-.46,2l-.39,1.55c-.12.48-.25,1-.39,1.45s-.29,1-.46,1.61l-3-.52a16.93,16.93,0,0,0,1.7-6.51ZM12.73,6.51a10.35,10.35,0,0,0,.55-2,11.63,11.63,0,0,0,.15-1.85,9.76,9.76,0,0,0,1.83.46,12.82,12.82,0,0,0,2,.17c.35,0,.53.1.56.31s-.1.36-.37.46a2,2,0,0,0-.89.74,8.83,8.83,0,0,0-.89,1.7h6.59q2,0,3.42,0c.95,0,1.94-.06,3-.11a10.24,10.24,0,0,0-.24,1.85c0,.66-.06,1.38-.06,2.14v3.56c0,.78,0,1.52.06,2.2a9.13,9.13,0,0,0,.24,1.79c-1.06-.05-2.14-.09-3.24-.11s-2.18,0-3.24,0H8.58v1.63H25.9c1.31,0,2.57,0,3.79,0s2.4-.09,3.54-.22v2.78c-.57-.08-1.11-.13-1.61-.17s-1.05-.06-1.61-.07l-1.84,0-2.27,0H8.58v2h17.8q2.14,0,3.42,0c.85,0,1.64-.07,2.35-.12,0,.42-.1.9-.16,1.45s-.12,1.17-.17,1.88c-.1,1.21-.19,2.23-.26,3.06s-.15,1.5-.22,2-.15,1-.22,1.28a4.74,4.74,0,0,1-.23.74A3.88,3.88,0,0,1,29,36a12.77,12.77,0,0,1-3.57,1.11A5,5,0,0,0,25,35.6a10.93,10.93,0,0,0-1.31-2.11,6.2,6.2,0,0,0,3.48.15A2,2,0,0,0,28.53,32c.07-.47.14-.93.2-1.39s.12-.92.17-1.39.09-1,.13-1.5.06-1.11.09-1.75H14.5c-2.09,0-3.85,0-5.25.05s-2.57.12-3.48.24c.08-1.06.11-2.39.11-4V10.36c0-.74,0-1.45,0-2.12s0-1.31-.09-1.87c.94,0,2,.08,3.16.11S11.37,6.51,12.73,6.51ZM25.64,9H8.58v2.08H25.64Zm0,4.3H8.58v2.1H25.64ZM9.47,34.08a8.39,8.39,0,0,0,.06-1.28c0-.48,0-1-.1-1.48s-.12-1-.22-1.51-.21-1-.33-1.43l3-.11c.15,1,.27,1.91.37,2.76s.2,1.78.3,2.79Zm6.25-.78a11.13,11.13,0,0,0-.05-1.16c0-.39-.09-.77-.17-1.17a11.22,11.22,0,0,0-.31-1.24c-.14-.43-.3-.92-.5-1.46l2.92-.41c.2.72.41,1.51.65,2.37s.45,1.72.65,2.56Zm6.48-.63a13.07,13.07,0,0,0-.46-2.57,13.66,13.66,0,0,0-1-2.35l3.14-.33c.17.52.33,1,.48,1.37s.29.78.41,1.15.23.73.33,1.09.21.74.34,1.16Z"/></svg>