<svg xmlns="http://www.w3.org/2000/svg" width="0.51in" height="0.53in" viewBox="0 0 37 38"><title>Artboard 86</title><path d="M29,24.17c.67,0,1.39,0,2.17-.07a18,18,0,0,0,2.13-.26v3c-.69-.05-1.42-.09-2.19-.11s-1.46,0-2.11,0a30,30,0,0,1-.4,3.52,5.37,5.37,0,0,1-.91,2.22,4,4,0,0,1-1.79,1.29,16.3,16.3,0,0,1-3.07.78,8.49,8.49,0,0,0-.56-1.94,5.81,5.81,0,0,0-1-1.69,12.13,12.13,0,0,0,2.24.15,2,2,0,0,0,1.35-.48,2.59,2.59,0,0,0,.69-1.33,15,15,0,0,0,.28-2.41H17.39a12.19,12.19,0,0,1-3.59,4.91,20.69,20.69,0,0,1-2.92,2c-1.11.64-2.38,1.3-3.81,2A6.9,6.9,0,0,0,5.9,34.1a6.18,6.18,0,0,0-1.53-1.2c1.25-.39,2.38-.79,3.38-1.2a20,20,0,0,0,2.66-1.3,10.07,10.07,0,0,0,2-1.53,8.86,8.86,0,0,0,1.5-2L9.49,27c-1.42,0-2.83.09-4.24.16l.63-10.47c-1.8.05-3.49.16-5.07.34V13.62c.82.1,1.66.18,2.54.25L6,14,6.7,3.45l3,.13c.91,0,1.78.06,2.62.07l2.5,0,2.61,0,3.14,0c1.09,0,2.17,0,3.24-.07l3.13-.13,2.81-.15L29.38,14l2.46-.14c.8,0,1.58-.13,2.35-.23v3.45c-1.51-.18-3.15-.29-4.92-.34ZM9,16.7l-.37,7.47H15.1a26.52,26.52,0,0,0,.66-3.31c.17-1.22.32-2.61.45-4.16ZM16.35,14c0-1.13.08-2.34.1-3.61s0-2.63.09-4.08h-7L9.17,14ZM19.2,16.7c-.1,1.48-.22,2.83-.37,4.07a30.28,30.28,0,0,1-.59,3.4h7.62l.22-7.47Zm7-2.67.26-7.69H19.68c-.07,1.43-.14,2.78-.2,4.07s-.12,2.49-.17,3.62Z"/></svg>