<svg xmlns="http://www.w3.org/2000/svg" width="0.51in" height="0.53in" viewBox="0 0 37 38"><title>Artboard 117</title><path d="M19.24,16.84q4.7,0,8.1-.1t6-.24v3.59c-1.77-.1-3.77-.17-6-.22s-4.86-.09-7.94-.11A20.6,20.6,0,0,0,22.33,24a17.47,17.47,0,0,0,3.09,2.8,15.62,15.62,0,0,0,1.57,1q.8.42,1.74.81c.63.26,1.32.52,2.09.78s1.67.52,2.7.79a19.35,19.35,0,0,0-1,2,13.65,13.65,0,0,0-.72,2c-1.06-.42-2-.83-2.88-1.24s-1.67-.82-2.41-1.25-1.42-.88-2-1.34a15.9,15.9,0,0,1-1.8-1.5,16.87,16.87,0,0,1-2.51-3.18,27.45,27.45,0,0,1-2.19-4.22,23.31,23.31,0,0,1-2,4.26,17.31,17.31,0,0,1-2.78,3.46,22.52,22.52,0,0,1-3.85,2.94,45.61,45.61,0,0,1-5.18,2.7,5.73,5.73,0,0,0-1.07-1.46,9.73,9.73,0,0,0-1.59-1.31A34.63,34.63,0,0,0,7,29.69a21.27,21.27,0,0,0,4-2.83,14,14,0,0,0,2.7-3.29,14.46,14.46,0,0,0,1.55-3.81c-3,0-5.59.07-7.75.13s-4.1.13-5.83.2V16.58l2.82.13c1,0,2.05.06,3.2.07l3.71,0,4.37,0q.22-1.66.33-3.48c.08-1.21.14-2.56.19-4H9.84c-.37,1-.78,1.92-1.24,2.85S7.67,14,7.18,14.76A4.23,4.23,0,0,0,5.79,14a6.6,6.6,0,0,0-1.68-.35A33.76,33.76,0,0,0,7.2,7.23,31.06,31.06,0,0,0,8.66,1a15.6,15.6,0,0,0,2.12.65,13.48,13.48,0,0,0,2.1.35c.29,0,.45.11.48.26s-.1.32-.37.52a2.25,2.25,0,0,0-.41.46c-.17.24-.36.52-.56.85s-.39.71-.59,1.11-.38.82-.55,1.24h7.17c.92,0,1.95,0,3.09,0s2.27-.05,3.37-.09,2.1-.07,3-.11,1.6-.08,2.07-.13V9.47L27.71,9.4c-.76,0-1.58,0-2.46-.06l-2.74,0H19.79c0,1.39-.08,2.73-.16,4S19.41,15.82,19.24,16.84Z"/></svg>