<svg xmlns="http://www.w3.org/2000/svg" width="0.51in" height="0.53in" viewBox="0 0 37 38"><title>Artboard 106</title><path d="M8.47,11.77c-.44.86-.94,1.78-1.5,2.75s-1.11,1.9-1.68,2.76a8.9,8.9,0,0,0-1.65-.7,9,9,0,0,0-1.83-.41,21.1,21.1,0,0,0,4-6A29.88,29.88,0,0,0,8,2.89a14.61,14.61,0,0,0,2.09.87,15.65,15.65,0,0,0,1.76.5c.91.14,1,.4.18.77a1.11,1.11,0,0,0-.29.26,4.72,4.72,0,0,0-.37.61l-.58,1.15-.9,1.87h7.51V5.62c0-.22,0-.53,0-.92s0-.81,0-1.24,0-.85-.07-1.26-.07-.72-.09-.94c.64.07,1.32.13,2,.17s1.38.05,1.94.05c.32,0,.51.06.56.19s0,.25-.3.4a1.55,1.55,0,0,0-.55.45,1.25,1.25,0,0,0-.15.7V8.88c1.36,0,2.55,0,3.59,0l2.87-.05q1.3,0,2.46-.06c.76,0,1.54-.06,2.33-.11V12c-1,0-2-.1-2.94-.13s-1.84-.07-2.72-.08l-2.71,0c-.91,0-1.87,0-2.88,0v6.8c2,0,3.63-.06,5-.11s2.59-.13,3.77-.26v3.52c-1.18-.12-2.44-.22-3.77-.28s-3-.1-5-.13v7.92c1.45,0,2.76,0,3.9,0l3.18-.07c1,0,1.9-.06,2.76-.11l2.63-.15v3.7c-1-.07-2-.14-3-.18s-2.08-.1-3.25-.13-2.49-.07-3.94-.08l-5.07,0c-1.95,0-3.66,0-5.13,0s-2.8.06-4,.09-2.3.08-3.31.13-2,.11-3,.19V28.9c1,.07,2,.13,3,.16l3.22.1,3.85.05c1.41,0,3,0,4.9,0V21.31c-1.09,0-2.07,0-3,0s-1.71.06-2.46.09l-2.11.11c-.65,0-1.29.1-1.91.17V18.2l1.91.15c.65,0,1.36.09,2.11.11l2.46.08c.89,0,1.87,0,3,0v-6.8Z"/></svg>