<svg xmlns="http://www.w3.org/2000/svg" width="0.51in" height="0.53in" viewBox="0 0 37 38"><title>Artboard 93</title><path d="M15,7.78q-1.74.15-3.18.24l-2.33.13v7.66a40.65,40.65,0,0,1-.35,5.51,31.87,31.87,0,0,1-1,4.7,28,28,0,0,1-1.61,4.14A39.33,39.33,0,0,1,4.4,34a8.41,8.41,0,0,0-1.63-.85,10.6,10.6,0,0,0-1.88-.59,20.83,20.83,0,0,0,4-6.59,27.4,27.4,0,0,0,1.61-8.8c0-1.21,0-2.41.06-3.59s0-2.3,0-3.33-.06-2-.11-2.8a19.46,19.46,0,0,0-.19-1.94q3.6,0,6.55-.18c2-.13,3.84-.3,5.59-.54S21.8,4.28,23.46,4s3.35-.72,5.1-1.17a17,17,0,0,0,1,1.74A12.82,12.82,0,0,0,30.6,6c.29.35.4.6.31.76s-.34.19-.76.09c-.14,0-.37,0-.66-.07s-.65,0-1.06,0l-1.31,0-1.37,0c-.05,1.66,0,3.29,0,4.91s.17,3.13.33,4.55.37,2.7.61,3.85A15.88,15.88,0,0,0,27.56,23a19,19,0,0,0,2.61,4.34,13.33,13.33,0,0,0,3.94,3.32,9.06,9.06,0,0,0-1.77,1.51A11.8,11.8,0,0,0,30.93,34a21.6,21.6,0,0,1-3.42-3.86A23.32,23.32,0,0,1,25,25.61a18.2,18.2,0,0,1-.91-2.88,39,39,0,0,1-.66-3.93c-.19-1.5-.33-3.21-.45-5.14s-.17-4.11-.2-6.55l-2.22.22c-.76.08-1.54.14-2.33.19V28.68c0,.57,0,1.08,0,1.54s0,.91,0,1.37.06.92.1,1.39.08,1,.13,1.59H14.72c0-.6.1-1.13.13-1.59s.07-.94.1-1.39,0-.91.05-1.37,0-1,0-1.54Z"/></svg>