<svg xmlns="http://www.w3.org/2000/svg" width="0.51in" height="0.53in" viewBox="0 0 37 38"><title>Artboard 91</title><path d="M14.54,11.11a52,52,0,0,1-1.61,7,27,27,0,0,1-2.26,5.33,19.45,19.45,0,0,1-3,4,25.76,25.76,0,0,1-3.8,3.17,7.07,7.07,0,0,0-1.25-1.3,6.15,6.15,0,0,0-1.74-.89,21,21,0,0,0,3.55-2.29A15.15,15.15,0,0,0,7.2,23.23a19.23,19.23,0,0,0,2.09-3.91,34,34,0,0,0,1.55-5.21c-1.23,0-2.31,0-3.22,0s-1.71.06-2.39.11L3.5,14.4a11.76,11.76,0,0,0-1.28.19V11.11a23.29,23.29,0,0,0,2.48.2q1.41.06,3.66.06c1.23,0,2.37,0,3.41-.06S13.73,11.21,14.54,11.11ZM22,15.73a39,39,0,0,0,3.67-3.62A46,46,0,0,0,29,8a6.67,6.67,0,0,0,.72.85c.31.33.63.64,1,.95s.66.6,1,.87.58.48.78.63.31.3.26.39-.31.14-.78.16a2.91,2.91,0,0,0-1,.24,6.33,6.33,0,0,0-1.31.76q-1.08.78-2.7,2.13t-3.67,3.12a23.08,23.08,0,0,0,4.69,5.54,20.19,20.19,0,0,0,6.19,3.53,10.45,10.45,0,0,0-1.79,1.68,7.82,7.82,0,0,0-1.24,1.91,22.6,22.6,0,0,1-6.85-5.94,31.82,31.82,0,0,1-4.81-9.31V32.12a4.21,4.21,0,0,1-.2,1.43,1.9,1.9,0,0,1-.85,1,6.89,6.89,0,0,1-1.89.69,33.17,33.17,0,0,1-3.31.55,6.75,6.75,0,0,0-.46-1.85A7,7,0,0,0,11.58,32c1,.08,1.74.11,2.35.1a6,6,0,0,0,1.41-.17A1.09,1.09,0,0,0,16,31.5a1.53,1.53,0,0,0,.17-.74V9.11c0-2.12-.05-3.73-.13-4.83a19.59,19.59,0,0,0-.32-2.5,15.27,15.27,0,0,0,2,.25c.68,0,1.28,0,1.8,0,1.2-.05,1.4.26.59.93a2,2,0,0,0-.56.57,1.63,1.63,0,0,0-.15.76V8.44c.35,1.29.75,2.57,1.21,3.85S21.54,14.72,22,15.73Z"/></svg>