<svg xmlns="http://www.w3.org/2000/svg" viewBox="0 0 37 38"><title>radical</title><g id="Layer_6" data-name="Layer 6"><path d="M15.66,17.27l-1.38.2c-.4.06-.77.13-1.1.2s-.66.15-1,.23l-1.05.31c-.12-.48-.27-1-.45-1.57a9.55,9.55,0,0,0-.56-1.42,6.43,6.43,0,0,0,1.53-1,8.22,8.22,0,0,0,1.55-1.92A33.62,33.62,0,0,0,15,8.9q1-2.1,2.29-5.38a17.36,17.36,0,0,0,1.94.9A16.3,16.3,0,0,0,21.17,5c.41.1.61.22.61.36s-.17.28-.5.4a1.87,1.87,0,0,0-.52.4,10.45,10.45,0,0,0-1.05,1.27c-.47.64-1.08,1.54-1.85,2.7s-1.77,2.72-3,4.67l5.51-.29,1.11-1.68c.32-.46.58-.88.8-1.24s.39-.69.54-1,.27-.6.39-.92A16.53,16.53,0,0,0,25.15,11a11.77,11.77,0,0,0,1.6.78c.34.12.5.25.5.39s-.18.25-.54.33a1.16,1.16,0,0,0-.41.18,3.12,3.12,0,0,0-.63.54c-.26.26-.61.64-1,1.13s-1,1.16-1.7,2-1.54,1.87-2.53,3.09-2.18,2.7-3.55,4.43c1.15-.07,2.39-.18,3.71-.34s2.81-.38,4.46-.67a5.81,5.81,0,0,0-.47,1.46A10,10,0,0,0,24.41,26l-7.78.83c-.28,0-.61.06-1,.11s-.75.1-1.13.18l-1.08.21c-.34.07-.62.15-.86.22a10.59,10.59,0,0,0-.45-1.73,7.58,7.58,0,0,0-.74-1.58,7.47,7.47,0,0,0,1.4-.6,7.61,7.61,0,0,0,1.53-1.17,19.67,19.67,0,0,0,1.91-2.12c.71-.89,1.55-2,2.54-3.42Zm11,11.81a11.78,11.78,0,0,0-.18,3.28c-3.67.48-6.69,1-9,1.55a21.74,21.74,0,0,0-5.06,1.65c-.26-.77-.52-1.46-.76-2.09s-.55-1.33-.93-2.12c.81,0,1.8-.09,2.95-.2s2.41-.26,3.78-.47,2.83-.43,4.39-.7S25,29.42,26.64,29.08Z"/></g></svg>