<svg xmlns="http://www.w3.org/2000/svg" viewBox="0 0 37 38"><title>radical</title><g id="Layer_2" data-name="Layer 2"><path d="M9.14,8.59,7.77,10.48c-.42.57-.86,1.13-1.31,1.7s-1,1.15-1.47,1.74-1.11,1.26-1.77,2a7.78,7.78,0,0,0-.58-.65,3.79,3.79,0,0,0-.61-.5,5.26,5.26,0,0,0-.75-.41l-1-.4A29.69,29.69,0,0,0,6,7.93,22.84,22.84,0,0,0,9.1,1.67a17.24,17.24,0,0,0,2.11,1,8.55,8.55,0,0,0,1.85.57c.25.05.37.13.37.25s-.1.22-.3.35A7.68,7.68,0,0,0,12,4.74,13.06,13.06,0,0,0,11,6h15.1l2.33,0,1.68,0c.48,0,.91-.07,1.3-.13s.76-.13,1.12-.21V8.81l-1-.09c-.36,0-.77-.06-1.24-.07l-1.68,0-2.39,0Zm25.57,21c-.45,1.73-.84,3.06-1.19,4a4,4,0,0,1-1.13,1.85,1.28,1.28,0,0,1-1.4,0,10.65,10.65,0,0,1-2-1.38,11,11,0,0,1-3.44-5.3,29.55,29.55,0,0,1-1.11-8.95H9.73c-1,0-2.07,0-3.11.11s-1.95.19-2.74.33V17c.47.05,1,.09,1.67.11s1.45,0,2.44.06l3.61,0h5.23c1.8,0,3.33,0,4.57,0s2.3-.06,3.15-.1,1.53-.07,2-.11a11.48,11.48,0,0,0,1.21-.13,26.34,26.34,0,0,0-.39,7.66,13.25,13.25,0,0,0,1.87,5.66,7.07,7.07,0,0,0,1.07,1.37c.29.27.54.31.72.11a2.61,2.61,0,0,0,.43-1.33,24.73,24.73,0,0,0,.14-3,6.32,6.32,0,0,0,1.45,1.5A4.6,4.6,0,0,0,34.71,29.57ZM28.64,14.25l-1.26-.07-2-.06H13.26c-1,0-1.8,0-2.42,0s-1.11,0-1.48.08l-1.07.07v-3l1.05.13c.36,0,.86.07,1.52.09s1.51,0,2.57,0h4.22l4.59,0,3.07,0c.81,0,1.48,0,2-.07s1-.08,1.33-.13Z"/></g></svg>