<svg xmlns="http://www.w3.org/2000/svg" viewBox="0 0 37 38"><title>radical</title><g id="Layer_2" data-name="Layer 2"><path d="M11.06,9.58,9.77,12.06c-.45.84-.9,1.66-1.37,2.46S7.46,16.08,7,16.79a20.27,20.27,0,0,1-1.37,1.89,7.45,7.45,0,0,0-1.48-.89,8.5,8.5,0,0,0-1.74-.55,33.39,33.39,0,0,0,3.19-4.13A32.72,32.72,0,0,0,8.32,8c.5-1.16.93-2.26,1.3-3.3s.69-2.07,1-3.11a16.11,16.11,0,0,0,2.15.67A21,21,0,0,0,15,2.66c.35,0,.53.15.54.29s-.17.29-.54.41a2.93,2.93,0,0,0-1,.91,15.52,15.52,0,0,0-1.5,2.5H26.05a52.76,52.76,0,0,0,6.55-.34c-.05.74-.1,1.44-.15,2.09l-.15,2L31.45,29A8.41,8.41,0,0,1,31,31.31,3.75,3.75,0,0,1,29.8,33a6.66,6.66,0,0,1-2.33,1.11,19,19,0,0,1-3.75.55c-.13-.52-.25-1-.37-1.31a6.48,6.48,0,0,0-1-1.83c-.21-.28-.47-.57-.76-.89a18.26,18.26,0,0,0,3.05.09,6.55,6.55,0,0,0,2-.41,2.36,2.36,0,0,0,1.11-.87,2.72,2.72,0,0,0,.39-1.29L29,9.58Z"/></g></svg>