<svg xmlns="http://www.w3.org/2000/svg" viewBox="0 0 37 38"><title>radical</title><g id="Layer_2" data-name="Layer 2"><path d="M7.29,15.07V35.35H3.92c.08-.55.13-1.05.17-1.5s.06-.91.07-1.35,0-.93,0-1.45,0-1.11,0-1.77V17.84c0-.76,0-1.43,0-2s0-1.08,0-1.54,0-.87-.07-1.24S4,12.34,4,12l1.37.15c.52,0,1.21.08,2.09.11s2,0,3.36.05,3.12,0,5.24,0V8L11,8q-2.09,0-3.72.06c-1.08,0-2.07.05-2.94.09s-1.77.09-2.68.16V5c1,.07,2,.13,2.92.16s2,.07,3.22.1l4.11,0c1.55,0,3.42,0,5.62,0s4.19,0,5.75,0l4.13,0c1.18,0,2.24-.06,3.16-.1S32.41,5,33.37,5V8.33l-2.75-.14c-.95,0-2-.09-3.11-.11S25.13,8,23.75,8l-4.7,0v4.33c2.05,0,3.77,0,5.15,0s2.53,0,3.46-.07,1.67-.07,2.24-.11,1-.08,1.4-.13c-.05.32-.09.65-.13,1s-.06.72-.07,1.16,0,1,0,1.56,0,1.31,0,2.14V32.57a5.7,5.7,0,0,1-.13,1.33,1.61,1.61,0,0,1-.7,1,5.35,5.35,0,0,1-1.74.73c-.78.2-1.86.43-3.24.68a5.75,5.75,0,0,0-.16-1.66,9.11,9.11,0,0,0-.91-2.08,14.15,14.15,0,0,0,1.94.13,4,4,0,0,0,1.13-.16,1,1,0,0,0,.54-.41,1.38,1.38,0,0,0,.13-.59V15.07H19.05V27.61c0,.62,0,1.19,0,1.72s0,1.05.06,1.54.05,1,.09,1.5.08,1,.13,1.57H15.72c0-.54.1-1.07.13-1.57s.07-1,.1-1.5,0-1,.05-1.54,0-1.1,0-1.72V15.07ZM12.5,30.54a24.51,24.51,0,0,0-1.86-2.37C10,27.4,9.27,26.7,8.58,26.06l2.11-1.74c.69.64,1.41,1.34,2.17,2.09s1.4,1.44,1.94,2.05Zm.3-7.48c-.22-.32-.48-.68-.78-1.07s-.61-.8-.94-1.2S10.4,20,10,19.6s-.71-.74-1-1.09l2.37-1.63c.64.64,1.31,1.35,2,2.11s1.3,1.51,1.85,2.22Zm11.1,6.77a14.22,14.22,0,0,0-1.57-2.33,15.5,15.5,0,0,0-2.06-2.07l2.23-1.81c.64.64,1.31,1.34,2,2.11s1.32,1.45,1.83,2.07Zm.22-7.21a10.84,10.84,0,0,0-.72-1.11c-.28-.4-.58-.79-.9-1.19s-.67-.77-1-1.14-.7-.71-1-1l2.22-1.85c.67.64,1.34,1.35,2,2.14a26.59,26.59,0,0,1,1.78,2.22Z"/></g></svg>