<svg xmlns="http://www.w3.org/2000/svg" viewBox="0 0 37 38"><title>radical</title><g id="Layer_2" data-name="Layer 2"><path d="M10.32,21.4c.22.05.35.13.37.24s-.12.23-.44.36a8.21,8.21,0,0,0-1.89,2.05c-1,1.24-2.18,3-3.66,5.23a8.17,8.17,0,0,0-1.54-1,6.75,6.75,0,0,0-1.72-.52A8.89,8.89,0,0,0,2.9,26.43a23.64,23.64,0,0,0,1.58-2c.51-.71,1-1.45,1.46-2.22a22.67,22.67,0,0,0,1.13-2.14,3.27,3.27,0,0,0,.7.44,8.54,8.54,0,0,0,.92.41,7.57,7.57,0,0,0,.93.29A5.33,5.33,0,0,0,10.32,21.4Zm5.77-11.32q-4.1,0-7,.08c-1.93.05-3.67.12-5.2.22V7.16c1.56.12,3.3.2,5.24.24s4.26,0,7,0c0-1.13-.06-2.11-.11-2.92S15.87,3,15.8,2.46a27.18,27.18,0,0,0,3.62.22q1,0,.15.63a1.33,1.33,0,0,0-.35.72,7.63,7.63,0,0,0-.13,1.68V7.45q4.07,0,7-.09c1.92,0,3.66-.1,5.21-.2v3.22c-1.55-.1-3.29-.17-5.21-.21l-7-.09v4.37l4.48,0c1.35,0,2.61,0,3.77-.06s2.23-.06,3.22-.11l2.81-.15v3.26c-1.3-.07-2.7-.14-4.2-.19s-3.2-.08-5.12-.11V30.84a20.4,20.4,0,0,1-.11,2.37,2.31,2.31,0,0,1-.63,1.35,3.93,3.93,0,0,1-1.63.81c-.74.21-1.79.44-3.14.68A10.17,10.17,0,0,0,18,34.17a12.77,12.77,0,0,0-.92-1.89c.88,0,1.58.06,2.09,0a3.35,3.35,0,0,0,1.14-.21.82.82,0,0,0,.5-.46,2,2,0,0,0,.11-.74V17H15.8c0,1.92-.05,3.62-.15,5.08A26.93,26.93,0,0,1,15.13,26a12.84,12.84,0,0,1-1,3,11.49,11.49,0,0,1-1.72,2.5,17.89,17.89,0,0,1-2.54,2.27c-1,.75-2.16,1.53-3.51,2.37a16.21,16.21,0,0,0-1.21-1.42,8.77,8.77,0,0,0-1.46-1.24,31.44,31.44,0,0,0,4.79-2.65,9.11,9.11,0,0,0,2.83-3.05,12,12,0,0,0,1.34-4.33,47.36,47.36,0,0,0,.29-6.44c-2.32,0-4.36.07-6.14.11s-3.38.12-4.81.19V14.11c.89.05,1.83.1,2.83.13l3.22.1,3.72.07c1.33,0,2.79,0,4.36,0Zm14.29,19a44.51,44.51,0,0,0-2.22-4.48,27.18,27.18,0,0,0-2.59-3.77l2.85-1.19c.93,1.21,1.84,2.49,2.71,3.83a48.19,48.19,0,0,1,2.43,4.17Z"/></g></svg>