<svg xmlns="http://www.w3.org/2000/svg" viewBox="0 0 37 38"><title>radical</title><g id="Layer_2" data-name="Layer 2"><path d="M5.14,9.36c0-.76,0-1.47,0-2.13S5,6.09,5,5.77a6,6,0,0,0,.83.11c.31,0,.72,0,1.24.06L9.08,6H25.62l2,0c.48,0,.86,0,1.13-.06a8,8,0,0,0,.82-.11c-.05.32-.1.81-.15,1.46s-.08,1.34-.08,2.06V28.68q1.41,0,2.7-.12c.87,0,1.66-.11,2.37-.18v3.29q-3.07-.26-7.27-.37t-9.93-.11c-1.93,0-3.68,0-5.28,0s-3.05.05-4.38.09-2.56.09-3.68.15l-3.2.2V28.38c.76.07,1.51.14,2.24.18s1.48.09,2.27.12Zm3-.81V28.68h4.18V8.55Zm7,0V28.68h4.15V8.55Zm11.18,0H22.09V28.68h4.22Z"/></g></svg>