<svg xmlns="http://www.w3.org/2000/svg" viewBox="0 0 37 38"><title>radical</title><g id="Layer_2" data-name="Layer 2"><path d="M10.14,37H6.84c.08-.57.14-1.39.19-2.48s.07-2.19.07-3.33v-16c-.61.84-1.19,1.58-1.72,2.22s-1.11,1.32-1.76,2A7.59,7.59,0,0,0,1,17.1a15.23,15.23,0,0,0,2.91-2.59,37.8,37.8,0,0,0,2.94-3.73A39.87,39.87,0,0,0,9.32,6.6,21.7,21.7,0,0,0,11,2.67a9,9,0,0,0,3.74,2c.27.07.41.16.41.26s-.14.24-.41.44a9.17,9.17,0,0,0-1.43,1.33c-.53.6-1.25,1.52-2.16,2.78h10l4.44,0,3.24-.05c.92,0,1.73-.06,2.42-.1s1.37-.08,2-.13v3.11l-1.89-.15c-.64,0-1.38-.08-2.22-.11L26.19,12c-1.11,0-2.44,0-4,0v4.48l3,0c.86,0,1.65,0,2.35-.06s1.34,0,1.92-.09l1.65-.13v3.07c-1.06-.1-2.32-.17-3.77-.2S24.15,19,22.2,19v4.37c1.95,0,3.65-.06,5.11-.09S30,23.12,31.08,23V26.1c-1.06-.1-2.32-.17-3.77-.21s-3.16-.07-5.11-.09v4.74q3.91,0,6.92-.06T34,30.24V33.5c-.67,0-1.4-.1-2.2-.13s-1.71-.07-2.72-.1l-3.42-.05-4.32,0H10.14Zm0-20.53h9V12H10.14Zm0,6.84h9V19H10.14Zm0,7.22h9V25.8H10.14ZM20.35,8.93c-.1-.3-.24-.64-.41-1s-.37-.78-.59-1.2l-.68-1.28c-.24-.43-.48-.83-.73-1.2l3.22-1.37c.42.89.82,1.71,1.21,2.46s.78,1.52,1.2,2.31Z"/></g></svg>