<svg xmlns="http://www.w3.org/2000/svg" viewBox="0 0 37 38"><title>radical</title><g id="Layer_2" data-name="Layer 2"><path d="M20,17.48c.49-1.18.91-2.3,1.25-3.35s.68-2.2,1-3.46c.23.1.52.21.89.34l1.13.35,1,.29a2.62,2.62,0,0,0,.61.13c.27,0,.4.11.4.24s-.11.28-.33.43a2,2,0,0,0-.59.61c-.25.33-.53.73-.83,1.2s-.63,1-1,1.56-.63,1.12-.9,1.66c1,0,1.93,0,2.92-.05l2.87-.12,2.62-.11c.83,0,1.55-.08,2.17-.13v3.3c-.86-.08-1.78-.13-2.76-.17l-3.2-.11c-1.16,0-2.43-.06-3.83-.07s-2.93,0-4.6,0v5.4c1.2,0,2.39,0,3.57,0s2.29-.05,3.36-.09l3-.11c.91,0,1.72-.08,2.41-.13v3.29c-.69-.05-1.5-.09-2.41-.13l-3-.11Q24.24,28,22.48,28c-1.18,0-2.37,0-3.57,0v2.26c0,.91,0,1.92.13,3s.19,2.22.31,3.33H15.17q.22-1.66.33-3.33c.08-1.11.11-2.12.11-3V28c-2.59,0-5,.06-7.14.11s-4,.14-5.47.26V25c1.52.12,3.37.21,5.53.26s4.52.09,7.08.11V20c-1.72,0-3.27,0-4.64,0l-3.72.08c-1.11,0-2.11.06-3,.11l-2.58.15v-3.3q2.52.2,5.74.3t6.81.11ZM31.38,10.6q-2.52-.18-5.87-.3t-8-.11l-4.34,0c-1.32,0-2.55,0-3.69.07l-3.14.12c-1,0-1.86.09-2.7.16V7.2q1.26.1,2.7.18l3.14.15c1.14,0,2.37.08,3.69.11s2.76,0,4.34,0q4.71,0,8.05-.15t5.87-.33ZM11,17.11a20.58,20.58,0,0,0-.59-2.61A16.13,16.13,0,0,0,9.51,12l3.4-.85c.27.81.54,1.62.82,2.42s.58,1.63.92,2.47Zm5.11-9.66a20.43,20.43,0,0,0-.63-2.31,14.52,14.52,0,0,0-.85-1.94l3.59-1c.22.69.46,1.37.7,2l.82,2.16Z"/></g></svg>