<svg xmlns="http://www.w3.org/2000/svg" viewBox="0 0 37 38"><title>radical</title><g id="Layer_2" data-name="Layer 2"><path d="M54.61,12.49a13.84,13.84,0,0,1-2.07,2.43,34.32,34.32,0,0,1-3.28,2.73,47.64,47.64,0,0,1-4.32,2.85q-2.43,1.42-5.28,2.76c-.12-.2-.28-.43-.48-.7s-.42-.55-.66-.84-.51-.56-.78-.83a5.48,5.48,0,0,0-.78-.66,19.9,19.9,0,0,0,5.4-1.78,27.64,27.64,0,0,0,4.83-3A25.32,25.32,0,0,0,51,11.81a18,18,0,0,0,2.5-3.72,14.37,14.37,0,0,0,1.87,1A7,7,0,0,0,57,9.68c.27.05.42.15.46.3s-.14.29-.54.44l-.2.11-.28.15A18.41,18.41,0,0,0,59.55,14a19.32,19.32,0,0,0,3.57,2.35A22.49,22.49,0,0,0,67.26,18a39.91,39.91,0,0,0,4.78,1,11.33,11.33,0,0,0-1.15,1.87,13.56,13.56,0,0,0-.78,1.94,38.13,38.13,0,0,1-4.82-1.85A32.49,32.49,0,0,1,61,18.5a25.9,25.9,0,0,1-3.62-2.83A17.82,17.82,0,0,1,54.61,12.49ZM52.39,4.76c.22,0,.31.17.26.35s-.22.33-.52.43a2.81,2.81,0,0,0-.76.44c-.33.25-.83.67-1.49,1.26S48.35,8.65,47.29,9.7s-2.41,2.4-4,4.05A4.79,4.79,0,0,0,42.6,13a7.13,7.13,0,0,0-.83-.7,8.06,8.06,0,0,0-.89-.59,3.51,3.51,0,0,0-.77-.37,18.82,18.82,0,0,0,2.77-1.82,29.34,29.34,0,0,0,2.57-2.25A30.21,30.21,0,0,0,47.6,4.93a19.56,19.56,0,0,0,1.5-2.09A10.74,10.74,0,0,0,51,4.13,6.51,6.51,0,0,0,52.39,4.76ZM47.88,35.84H44.55c.12-.86.21-1.67.26-2.41s.07-1.52.07-2.36V21.26H64.23c0,.37-.09.78-.11,1.24s0,.93,0,1.43V31c0,.84,0,1.56.08,2.15s.13,1.28.26,2.07H61V33H47.88ZM61,23.78H47.88V30.4H61Zm5.55-11.44a46.44,46.44,0,0,0-4.2-3.83,32.42,32.42,0,0,0-4.35-3l2.08-2.37c.88.57,1.71,1.11,2.48,1.63s1.51,1,2.23,1.55L67,7.94c.74.54,1.51,1.14,2.33,1.78Z"/></g><g id="Layer_6" data-name="Layer 6"><path d="M20.77,32.83c-.7.6-1.27,1.1-1.71,1.51a15.24,15.24,0,0,0-1.42,1.51,17.7,17.7,0,0,0-.92-1.78,10.93,10.93,0,0,0-1-1.49l.8-.56a2,2,0,0,0,.5-.54,2.18,2.18,0,0,0,.25-.69,5.31,5.31,0,0,0,.07-1V15.69h-4.1c-.53,0-1,0-1.42,0l-1.57.11V12.92c.67.05,1.45.09,2.32.13s1.84,0,2.9,0,2.08,0,3.06,0S20.33,13,21,12.92A18.32,18.32,0,0,0,20.64,15a19.38,19.38,0,0,0-.16,2.52v11.7c1.08-.84,2-1.65,2.86-2.41a28.35,28.35,0,0,0,2.29-2.38c.22.6.44,1.14.67,1.62a15,15,0,0,0,.7,1.33ZM19.65,10.26a17.83,17.83,0,0,0-1.72-3A24.74,24.74,0,0,0,15.26,4l2.63-1.91C19,3.39,20,4.47,20.75,5.36s1.44,1.74,2,2.56Z"/></g></svg>