<svg xmlns="http://www.w3.org/2000/svg" viewBox="0 0 37 38"><title>radical</title><g id="Layer_2" data-name="Layer 2"><path d="M20.68,24.87a24.2,24.2,0,0,0,1.65-2.11,14.15,14.15,0,0,0,1.18-2.07,12.66,12.66,0,0,0,.82-2.29c.21-.82.4-1.73.57-2.74H14c-.42.86-.85,1.67-1.3,2.42a26.28,26.28,0,0,1-1.44,2.22c-.52.73-1.09,1.45-1.7,2.17s-1.3,1.47-2,2.25a7.56,7.56,0,0,0-1.24-1,9.12,9.12,0,0,0-1.57-.78,23,23,0,0,0,2.79-2.63A19.39,19.39,0,0,0,9.86,17a27.47,27.47,0,0,0,2-4.14A38.5,38.5,0,0,0,13.39,7.7q-3.33,0-5.88.15t-4.59.3V4.71q2.67.25,6.25.37t8.59.11q4.95,0,8.51-.11t6.21-.37V8.15c-.93-.08-1.9-.14-2.9-.2s-2.11-.12-3.33-.15-2.59-.07-4.11-.1-3.25,0-5.2,0Q16,10.78,15,13.11H25.36c.46,0,.88,0,1.28,0L27.77,13a10.44,10.44,0,0,0,1.09-.09,39.45,39.45,0,0,1-2.59,9,18.39,18.39,0,0,1-4,5.9,26,26,0,0,1-6.73,4.37,52.06,52.06,0,0,1-11.1,3.55A6.32,6.32,0,0,0,3.79,34a6.64,6.64,0,0,0-1.27-1.65,34.68,34.68,0,0,0,4.79-.63,40.61,40.61,0,0,0,4.42-1.16,27.77,27.77,0,0,0,3.81-1.58,17.8,17.8,0,0,0,3-1.85c-.94-.93-2-1.85-3.05-2.74s-2.23-1.76-3.39-2.62l1.92-2c1.12.74,2.24,1.55,3.39,2.42S19.62,23.94,20.68,24.87Z"/></g></svg>