<svg xmlns="http://www.w3.org/2000/svg" viewBox="0 0 37 38"><title>radical</title><g id="Layer_6" data-name="Layer 6"><path d="M8.47,3.24l2.88.12c.89,0,1.74.06,2.56.07l2.43,0,2.54,0c2,0,3.79,0,5.49-.07s3.45-.15,5.27-.29L29.39,14.9l2.68-.16c.88-.06,1.72-.14,2.54-.24v3.64c-1.61-.17-3.37-.28-5.29-.32l-.15,7.88c.79,0,1.61-.07,2.45-.13a12.49,12.49,0,0,0,1.87-.23v3.49a12.92,12.92,0,0,0-1.38-.11c-.64,0-1.64,0-3,0A11.77,11.77,0,0,1,28.79,31a3,3,0,0,1-.86,1.49,4.64,4.64,0,0,1-1.74,1,28.28,28.28,0,0,1-2.92.78,4.22,4.22,0,0,0-.6-1.84A8.45,8.45,0,0,0,21,30.6c1,.11,1.87.19,2.5.21a3.74,3.74,0,0,0,1.5-.18,1.23,1.23,0,0,0,.73-.68,3.81,3.81,0,0,0,.24-1.3H16.14l-2.59,0c-.79,0-1.57,0-2.32.07L9,28.87l-2.31.18.79-11.23c-1.7,0-3.31.15-4.82.32V14.5c.77.1,1.57.18,2.41.24s1.71.1,2.6.12Zm2,14.54-.5,8H26l.15-8ZM26.26,14.9l.14-8.64H11.28l-.57,8.64ZM18.7,19.11c.4.63.82,1.3,1.26,2s.86,1.51,1.29,2.35l-3,1.48a12.4,12.4,0,0,0-1-2.29,14.28,14.28,0,0,0-1.51-2.14ZM18.84,8c.41.63.82,1.27,1.22,1.93s.84,1.37,1.3,2.14l-2.81,2c-.38-.82-.8-1.61-1.24-2.39a24.73,24.73,0,0,0-1.42-2.22Z"/></g></svg>