<svg xmlns="http://www.w3.org/2000/svg" viewBox="0 0 37 38"><title>radical</title><g id="Layer_2" data-name="Layer 2"><path d="M10.62,13.49a4.55,4.55,0,0,0-1.19,2.26c-.29.94-.64,1.9-1,2.89s-.81,1.94-1.24,2.88-.88,1.84-1.35,2.7A26.5,26.5,0,0,1,4.4,26.55a9.24,9.24,0,0,0-1.55-.64,12.49,12.49,0,0,0-1.74-.39,33.28,33.28,0,0,0,3.72-6.66A33.33,33.33,0,0,0,7,11.49a15,15,0,0,0,1.94.61,12.18,12.18,0,0,0,1.61.32c.49.05.75.17.77.37S11.09,13.22,10.62,13.49ZM19.9,3.54a1.28,1.28,0,0,0-.64.89A7.44,7.44,0,0,0,19.13,6V30.59A8.48,8.48,0,0,1,19,32.47a2,2,0,0,1-.83,1.17,5.58,5.58,0,0,1-2,.74c-.87.18-2.05.37-3.55.57a10.25,10.25,0,0,0-.47-1.81,9.67,9.67,0,0,0-1-2c1.06.05,1.9.05,2.51,0A5.19,5.19,0,0,0,15.06,31a1,1,0,0,0,.61-.5,2.39,2.39,0,0,0,.13-.84V8.53c0-1.4,0-2.62-.08-3.64a18,18,0,0,0-.22-2.31,16.93,16.93,0,0,0,2,.11c.79,0,1.5,0,2.14-.08.35,0,.54.08.58.3A.67.67,0,0,1,19.9,3.54ZM30.38,26.15C30,25,29.52,23.9,29,22.72s-1.07-2.33-1.65-3.47S26.18,17,25.57,15.9s-1.24-2.1-1.85-3l3-1.26q.88,1.34,1.83,2.91c.63,1.05,1.26,2.13,1.88,3.26s1.24,2.26,1.84,3.42,1.14,2.29,1.66,3.4Z"/></g></svg>