<svg xmlns="http://www.w3.org/2000/svg" viewBox="0 0 37 38"><title>radical</title><g id="Layer_2" data-name="Layer 2"><path d="M5.14,10.27a15.14,15.14,0,0,0-.29-3.36c.27,0,.58.09.94.13l1.39.09,2.09.07c.82,0,1.84,0,3.05,0,.32-1,.57-2,.74-2.83s.31-1.7.41-2.54c.71.23,1.37.4,2,.54s1.21.25,1.83.35c.37.05.56.14.57.26s-.2.38-.65.78a5.19,5.19,0,0,0-.59.89c-.27.46-.71,1.32-1.33,2.55h7.33l2.88,0q1.19,0,2-.06a12.92,12.92,0,0,0,1.32-.11l.92-.14a13.37,13.37,0,0,0-.15,1.48c0,.56,0,1.19,0,1.88V29.73c.88,0,1.76-.06,2.62-.11s1.52-.09,2-.14v3.4c-2-.15-4.36-.25-7.08-.31s-6-.1-9.72-.1l-5.19,0c-1.57,0-3,0-4.35.08s-2.57.07-3.7.12-2.2.12-3.18.19v-3.4a17.26,17.26,0,0,0,1.85.16q1.14.06,2.4.09ZM8.29,10V29.73h3.92V10ZM15,10V29.73h4.19V10Zm11.47,0H22V29.73h4.47Z"/></g></svg>