<svg xmlns="http://www.w3.org/2000/svg" viewBox="0 0 37 38"><title>radical</title><g id="Layer_2" data-name="Layer 2"><path d="M18.09,11c.64.32,1.33.69,2.07,1.09s1.48.84,2.22,1.3,1.46.92,2.15,1.39,1.3.9,1.81,1.29l-2,2.74a17.85,17.85,0,0,0-1.51-1.48c-.59-.52-1.22-1-1.89-1.52s-1.34-1-2-1.4-1.31-.84-1.9-1.19a16,16,0,0,1-2.89,3.55,29.3,29.3,0,0,1-3.59,2.78,6.92,6.92,0,0,0-2.36-2.29,16.75,16.75,0,0,0,5.58-4.52,9.61,9.61,0,0,0,1.41-3H7.1v24.9H3.59c.1-.69.18-1.31.26-1.87S4,31.71,4,31.22s.07-1,.08-1.46,0-1,0-1.5V13.2c0-1.38,0-2.62-.1-3.72a26.88,26.88,0,0,0-.27-2.75C5,6.85,6.58,6.94,8.58,7s4.38.09,7.14.09c0-.4,0-.86.06-1.39s0-1.07,0-1.63,0-1.09-.09-1.63-.08-1-.13-1.46a20.47,20.47,0,0,0,2.22.37,18.34,18.34,0,0,0,2.11.15c.27,0,.42.06.44.19s-.08.26-.33.4a1.4,1.4,0,0,0-.19.35c-.07.19-.14.41-.22.67s-.13.53-.18.81-.09.54-.11.76l-.15,1.19c-.05.39-.1.8-.15,1.22l3.59,0c1.18,0,2.31,0,3.38-.06S28,7,29,6.91s1.73-.11,2.43-.18A44,44,0,0,0,31,13.2V30.82a11.73,11.73,0,0,1-.15,2.09,1.93,1.93,0,0,1-.77,1.25,5.05,5.05,0,0,1-1.95.74c-.87.19-2.1.38-3.68.58a10.69,10.69,0,0,0-.61-2,7.42,7.42,0,0,0-1.09-1.93,14.4,14.4,0,0,0,2.52.43,4.16,4.16,0,0,0,1.59-.15,1.36,1.36,0,0,0,.83-.68A2.54,2.54,0,0,0,28,30V9.76H18.46c-.05.2-.1.4-.16.61S18.17,10.79,18.09,11ZM16.83,22.9a37.24,37.24,0,0,1-2.25,3.33,38.26,38.26,0,0,1-2.82,3.25,6.4,6.4,0,0,0-1.27-1A9.81,9.81,0,0,0,9,27.67,19.81,19.81,0,0,0,12,25a17.24,17.24,0,0,0,2.31-3.12,13.59,13.59,0,0,0,1.93-5.4,14.23,14.23,0,0,0,1.59.66l1.59.56c.54.15.58.34.11.59a1,1,0,0,0-.32.31l-.39.69c-.14.29-.29.57-.44.83s-.28.53-.41.8c.5.29,1.11.67,1.84,1.12L22,23.49c.75.49,1.48,1,2.2,1.48s1.32.94,1.81,1.33L24,29q-.66-.66-1.59-1.47t-1.92-1.65l-2-1.61C17.86,23.71,17.3,23.27,16.83,22.9Z"/></g></svg>