<svg xmlns="http://www.w3.org/2000/svg" viewBox="0 0 37 38"><title>radical</title><g id="Layer_2" data-name="Layer 2"><path d="M18.5,17.76A28.79,28.79,0,0,1,16,22a33.62,33.62,0,0,1-3.18,3.79,39.59,39.59,0,0,1-4,3.59q-2.25,1.76-5,3.6a7.68,7.68,0,0,0-2.3-2.44c1.19-.59,2.41-1.28,3.67-2.07a33.5,33.5,0,0,0,3.73-2.74,35.23,35.23,0,0,0,3.63-3.53,35.34,35.34,0,0,0,3.36-4.46c-1.75,0-3.31,0-4.69,0s-2.64.05-3.78.09L4.31,18l-2.5.09v-3c.91.05,1.92.09,3,.13l3.75.11c1.41,0,3,.07,4.78.09s3.79,0,6.06,0c-1.4-1.11-2.79-2.14-4.16-3.07s-2.66-1.78-3.87-2.52L13.62,8c.69.46,1.42,1,2.21,1.44s1.6,1,2.41,1.55l7.18-4.88H15.24l-2.94,0-2.44,0c-.75,0-1.49.07-2.2.13l-2.22.21V3.18c.66,0,1.48.1,2.44.13s2,.06,3.13.08l3.53,0c1.23,0,2.47,0,3.7,0q3.71,0,6.73,0c2,0,3.9-.11,5.63-.21V6.62a8.1,8.1,0,0,0-2,.48,9.39,9.39,0,0,0-2,1l-6.22,4.18,1.17.8c.38.26.74.52,1.09.79l-2.26,1.56,4.52,0q2,0,3.51-.06c1,0,2-.06,2.81-.11l2.41-.15-2,7.74-3.37-.56,1.59-4.55H21.72V32.38c0,.83-.52,1.44-1.56,1.81a23.48,23.48,0,0,1-5,.92,8.94,8.94,0,0,0-1.66-3.4,12.93,12.93,0,0,0,3.81-.2c.89-.24,1.33-.56,1.33-1V17.76Z"/></g></svg>