<svg xmlns="http://www.w3.org/2000/svg" viewBox="0 0 37 38"><title>radical</title><g id="Layer_2" data-name="Layer 2"><path d="M18.79,10.77c-.24,1.85-.51,3.48-.81,4.9a41.41,41.41,0,0,1-1.07,4.09,21.21,21.21,0,0,1-1.67,3.85A20.17,20.17,0,0,1,12.82,27a26.64,26.64,0,0,1-3.28,3.14,50,50,0,0,1-4.18,3.08A11.13,11.13,0,0,0,3.88,32a9,9,0,0,0-1.81-1,23.92,23.92,0,0,0,6.73-4.4,19.86,19.86,0,0,0,4.52-6.63c.3-.69.55-1.34.78-2a17.38,17.38,0,0,0,.57-2c.16-.69.3-1.45.41-2.29s.21-1.83.31-3c-1.26,0-2.45,0-3.59,0l-3.14.05c-1,0-1.81.06-2.54.11s-1.3.1-1.72.15V7.66C6,7.86,9.75,8,15.58,8c.09-1.33.17-2.46.22-3.38s.09-1.71.13-2.33S16,1.15,16,.78s0-.67,0-.89a13,13,0,0,0,1.92.57,14.53,14.53,0,0,0,2.29.32c.35,0,.54.12.58.29s-.11.36-.43.56a1,1,0,0,0-.26.31,4.24,4.24,0,0,0-.24.83c-.08.42-.18,1-.29,1.85S19.28,6.56,19.13,8C21.2,8,23,8,24.51,8l3.92,0,2.74-.09c.73,0,1.32-.1,1.76-.17L31,27a11.33,11.33,0,0,1-.5,2.59,3.72,3.72,0,0,1-1.22,1.74,7.23,7.23,0,0,1-2.46,1.19,40.27,40.27,0,0,1-4.22,1,13.43,13.43,0,0,0-.55-2,7.75,7.75,0,0,0-1-1.94,26.1,26.1,0,0,0,3.31-.12,4.89,4.89,0,0,0,2-.59,2.45,2.45,0,0,0,1.05-1.22,7.18,7.18,0,0,0,.43-2.07l1.48-14.76Z"/></g></svg>