<svg xmlns="http://www.w3.org/2000/svg" viewBox="0 0 37 38"><title>radical</title><g id="Layer_6" data-name="Layer 6"><path d="M14.51,11.87l-3.49,0-2.54,0L6.66,12l-1.3.05a17.09,17.09,0,0,0,.2-1.94c0-.72.05-1.5.05-2.34s0-1.42-.07-2.16-.1-1.36-.18-1.84l2.15.13L9.74,4l2.73,0,3.73,0,4.34,0L23.7,4,26,3.9c.64,0,1.22-.08,1.75-.13-.08.53-.13,1.15-.17,1.87s-.05,1.43-.05,2.13,0,1.53.05,2.21.09,1.37.17,2.07L26.26,12c-.56,0-1.25,0-2.07-.06l-2.92,0-4,0v2.38l4.29,0c1.24,0,2.34,0,3.29-.06s1.78-.05,2.49-.09S28.63,14,29.16,14c-.1.48-.18,1-.25,1.71a19.27,19.27,0,0,0-.11,2v5.83c0,.32,0,.67,0,1.07s0,.79.07,1.18.05.78.09,1.14a6.11,6.11,0,0,0,.12.86q-.54-.08-1.38-.12c-.57,0-1.31-.06-2.23-.08l-3.41,0-4.86,0v2.38A2.9,2.9,0,0,0,17.41,31a1.18,1.18,0,0,0,.77.63,7.41,7.41,0,0,0,1.84.29c.81,0,1.94.06,3.38,0a30.21,30.21,0,0,0,3.54-.21,4.89,4.89,0,0,0,2-.65,2.32,2.32,0,0,0,1-1.32,11.5,11.5,0,0,0,.35-2.21,4.59,4.59,0,0,0,1.55,1,10.15,10.15,0,0,0,1.91.56c-.29.91-.55,1.67-.79,2.28a7,7,0,0,1-.81,1.55,3,3,0,0,1-1.12,1,5.55,5.55,0,0,1-1.69.51,20.12,20.12,0,0,1-2.52.2c-1,0-2.2,0-3.62,0-2.11,0-3.75,0-4.91-.11A7.87,7.87,0,0,1,15.68,34a1.6,1.6,0,0,1-1-1.12,9.62,9.62,0,0,1-.16-2V27.53H6.59v2.95H3.71c.09-.84.16-1.61.2-2.3S4,26.75,4,26V17.7c0-.62,0-1.3,0-2A8.58,8.58,0,0,0,3.74,14c.87.09,2.25.16,4.14.2l6.63.09Zm0,4.57H6.59v3.35h7.92Zm0,5.58H6.59V25.3h7.92ZM8.35,9.46H24.66V6.33H8.35Zm8.89,10.33H26V16.44H17.24Zm0,5.51H26V22H17.24Z"/></g></svg>