<svg xmlns="http://www.w3.org/2000/svg" viewBox="0 0 37 38"><title>radical</title><g id="Layer_6" data-name="Layer 6"><path d="M14,7c-2,0-3.87,0-5.72.06s-3.47.1-4.86.2V4q1.11.11,2.52.18c.94,0,2,.09,3.24.13l4.18.09c1.56,0,3.35,0,5.4,0,2.3,0,4.26,0,5.86,0s3,0,4.14-.07,2.16-.08,3-.14L34.19,4V7.29c-.58,0-1.21-.09-1.89-.13S30.84,7.1,30,7.09l-3,0L23.13,7v5c.75,0,1.51,0,2.29,0l2.25-.05,2-.07c.64,0,1.19-.06,1.64-.11a8,8,0,0,0-.11.86c0,.34,0,.69-.05,1.07l0,1.11c0,.37,0,.72,0,1v8.64c0,1.65,0,3.29.09,4.89s.13,2.94.23,4H28.17V30.76H9V34H5.78c0-.53,0-1.16.09-1.91s.07-1.54.11-2.39S6,27.93,6.05,27s0-1.76,0-2.57V15.82c0-.63,0-1.34-.07-2.14s-.1-1.45-.15-1.93c.46.05,1,.08,1.61.11l2,.07,2.21.05c.77,0,1.53,0,2.3,0Zm2.67,7.46a21.87,21.87,0,0,1-.4,3.63A13.15,13.15,0,0,1,15.29,21a12.17,12.17,0,0,1-1.5,2.41,25.58,25.58,0,0,1-2,2.27,4.87,4.87,0,0,0-1-1,6.78,6.78,0,0,0-1.37-.82,12.66,12.66,0,0,0,2-1.82A9.79,9.79,0,0,0,12.78,20a10,10,0,0,0,.85-2.45,15.9,15.9,0,0,0,.32-3H9V28.2H28.17V14.49h-5V20a2.52,2.52,0,0,0,.18,1,1,1,0,0,0,.63.56,2.87,2.87,0,0,0,1.23.09,17.72,17.72,0,0,0,2-.32,6,6,0,0,0-.38,1.4,6.66,6.66,0,0,0-.05,1.33c-.24,0-.55.05-.92.06l-1.13,0h-2a2.33,2.33,0,0,1-1.74-.67,2.86,2.86,0,0,1-.49-1.85v-7.2ZM20.43,7H16.62v5h3.81Z"/></g></svg>