<svg xmlns="http://www.w3.org/2000/svg" viewBox="0 0 37 38"><title>radical</title><g id="Layer_3" data-name="Layer 3"><path d="M8.27,17.52C7.72,18.74,7.21,20,6.74,21.19s-.87,2.41-1.2,3.56L2.33,23.6a27.62,27.62,0,0,0,1.86-3.51,32.58,32.58,0,0,0,1.2-3.29Zm3.82,6.55C12,23,12,22,11.82,21a27.9,27.9,0,0,0-.6-3.09l2.92-.47c.14,1.05.32,2.07.52,3.06s.45,2,.74,3Zm8.24-.47c-.26-1.13-.53-2.18-.81-3.17s-.6-2-1-3.09l2.85-.76c.33,1.13.66,2.18,1,3.17s.69,2,1.09,3.09Zm9.18.07c-.48-1.1-1-2.25-1.64-3.45s-1.2-2.28-1.78-3.24L29,15.93C29.6,17,30.21,18,30.81,19s1.28,2,2.05,3.06Z"/></g></svg>