<svg xmlns="http://www.w3.org/2000/svg" viewBox="0 0 37 38"><title>radical</title><g id="radical-9" data-name="radical-9"><path d="M18,16.8Q16.6,19.26,15,21.66a13,13,0,0,0-1.25-1.58,4,4,0,0,0-1.09-.83,20.58,20.58,0,0,0,1.51-1.62,21,21,0,0,0,1.31-1.78,22.55,22.55,0,0,0,1.21-2.07c.38-.74.77-1.58,1.15-2.52s.75-1.84,1-2.57.49-1.4.65-2,.28-1.18.37-1.73a17.73,17.73,0,0,0,.22-1.8c.72.29,1.4.53,2,.74a9.37,9.37,0,0,0,1.57.38c.34,0,.51.13.52.25s-.12.23-.41.32a2.2,2.2,0,0,0-.49.74,9.73,9.73,0,0,0-.56,1.31q-.28.84-.72,1.89c-.28.71-.62,1.46-1,2.25V28.76c0,1.56,0,2.83.05,3.83s.1,1.94.2,2.83H17.76c.09-.89.16-1.83.19-2.83s.06-2.27.06-3.83Z"/></g></svg>
