<svg xmlns="http://www.w3.org/2000/svg" viewBox="0 0 37 38"><title>radical</title><g id="radical-11" data-name="radical-11"><path d="M18.39,10.54c-.35,1.41-.72,2.69-1.11,3.83A33.09,33.09,0,0,1,16,17.56a28.59,28.59,0,0,1-1.48,2.75,27.78,27.78,0,0,1-1.76,2.56,39.21,39.21,0,0,1-4.55,5,32.8,32.8,0,0,1-4.73,3.66A9.42,9.42,0,0,0,2.13,30,9.16,9.16,0,0,0,.44,28.93,29.75,29.75,0,0,0,5.7,25.57a29.06,29.06,0,0,0,4.51-4.7A30.75,30.75,0,0,0,14,14.45a40.81,40.81,0,0,0,2.56-8.2q-3.63,0-6.11.15a29.31,29.31,0,0,0-3.55.3V3.29c.37,0,.83.1,1.39.13s1.14.06,1.75.08l1.78,0c.57,0,1,0,1.41,0s1,0,1.68,0l1.94,0,1.76-.09a9.13,9.13,0,0,0,1.13-.13,44.86,44.86,0,0,0,1.81,9.25,30,30,0,0,0,3.22,7,21.08,21.08,0,0,0,4.4,5,22.34,22.34,0,0,0,5.37,3.24c-.37.34-.69.67-1,1s-.51.61-.73.9a10.45,10.45,0,0,0-.62.91,10.24,10.24,0,0,0-.53,1.05A28.53,28.53,0,0,1,27.06,28a24.93,24.93,0,0,1-3.71-4.59,32.47,32.47,0,0,1-2.87-5.75A47.1,47.1,0,0,1,18.39,10.54Z"/></g></svg>
