<svg xmlns="http://www.w3.org/2000/svg" viewBox="0 0 37 38"><title>radical</title><g id="Layer_2" data-name="Layer 2"><path d="M13.58,22.42l-2.22,1.22c-.82.44-1.64.92-2.48,1.42L6.34,26.6c-.85.52-1.64,1-2.38,1.55a9.78,9.78,0,0,0-.72-1.79,14,14,0,0,0-1.13-1.87,60.16,60.16,0,0,0,6.58-2.61q2.93-1.38,4.89-2.57V7.17H10.17c-.91,0-1.7,0-2.38,0l-1.87.07c-.57,0-1.17.08-1.81.15V3.92q1.47.18,3,.24c1,0,2.11,0,3.22,0s2.21,0,3.31-.07,2.15-.14,3.16-.26c0,.57-.08,1.18-.11,1.83s0,1.52,0,2.61V31a5.37,5.37,0,0,1-.19,1.5,1.85,1.85,0,0,1-.91,1,7.77,7.77,0,0,1-2.14.8q-1.42.34-3.87.72A9,9,0,0,0,7.66,31a10,10,0,0,0,4.51,0c.94-.32,1.41-.83,1.41-1.52Zm-6.7-4.3a22.7,22.7,0,0,0-.76-3.68,18.22,18.22,0,0,0-1.2-3.12l3-1.15c.42,1,.84,2.1,1.25,3.35s.77,2.42,1,3.53Zm22.65,3.37q-2.12,1.11-4.65,2.61t-5,3a9.24,9.24,0,0,0-.68-1.76,14.44,14.44,0,0,0-1.09-1.86c1.26-.42,2.39-.82,3.4-1.21s2-.77,2.85-1.18,1.75-.85,2.57-1.31,1.69-1,2.58-1.59V7L25.9,7l-2.65,0c-.75,0-1.43,0-2,.07l-1.83.13V3.77c1.3.1,2.55.17,3.73.22s2.34.07,3.44.07,2.21,0,3.3-.07,2.09-.12,3-.22c-.07.49-.13,1.07-.16,1.74s-.06,1.55-.06,2.66V30.89a5.36,5.36,0,0,1-.22,1.65,2.31,2.31,0,0,1-1,1.18,5.78,5.78,0,0,1-2.09.79,29.55,29.55,0,0,1-3.66.49,5.53,5.53,0,0,0-.5-1.78,9.23,9.23,0,0,0-1.28-2,12.85,12.85,0,0,0,2.65.2,5.3,5.3,0,0,0,1.7-.32,2,2,0,0,0,.93-.66,1.54,1.54,0,0,0,.28-.85Zm-7.33-4a28.14,28.14,0,0,0-.78-3.68,15.85,15.85,0,0,0-1.18-3.13l3.11-1c.42,1,.82,2.1,1.22,3.32s.72,2.4,1,3.53Z"/></g></svg>