<svg xmlns="http://www.w3.org/2000/svg" viewBox="0 0 37 38"><title>radical</title><g id="Layer_3" data-name="Layer 3"><path d="M17.73,13.55c-.77,0-1.44,0-2,0l-1.54.06c-.46,0-.87,0-1.23.07l-1,.13v-3.5l1,.13c.35,0,.75.07,1.19.09l1.55.07c.59,0,1.28,0,2.07,0V7.9c0-.75,0-1.37,0-1.86s0-.92-.05-1.28-.06-.68-.11-1-.11-.61-.18-1a15.28,15.28,0,0,0,1.78.23,11.73,11.73,0,0,0,1.57,0c.62,0,1,0,1,.2s-.09.4-.45.74a1.93,1.93,0,0,0-.68,1.4v5.26l2.11-.06c.54,0,1,0,1.36,0a9.11,9.11,0,0,0,.94-.09l.77-.13v3.5a13.54,13.54,0,0,0-2-.2q-1.2-.06-3.18-.06v5.26c.91-.33,1.8-.68,2.66-1a16.22,16.22,0,0,0,2.13-1,9.19,9.19,0,0,0,.07,1.66A10.78,10.78,0,0,0,25.76,20l-2.38.79c-.93.31-1.86.63-2.77,1v9.76a8.54,8.54,0,0,1-.14,1.69,1.87,1.87,0,0,1-.72,1.08,4.91,4.91,0,0,1-1.68.72c-.73.19-1.73.39-3,.61a5.55,5.55,0,0,0-.32-1.64,11.2,11.2,0,0,0-1-2,17.36,17.36,0,0,0,2.16.23,3.24,3.24,0,0,0,1.2-.14.85.85,0,0,0,.54-.54,2.89,2.89,0,0,0,.13-1V22.87c-1.15.48-2.21.95-3.17,1.39s-1.75.84-2.37,1.2a11.67,11.67,0,0,0-.33-1.9c-.17-.68-.36-1.31-.57-1.91.91-.22,1.92-.48,3-.79s2.25-.65,3.4-1Z"/></g></svg>