<svg xmlns="http://www.w3.org/2000/svg" viewBox="0 0 37 38"><title>radical</title><g id="Layer_6" data-name="Layer 6"><path d="M34.87,28.45c-.31,1.3-.58,2.33-.81,3.1a11.26,11.26,0,0,1-.65,1.76,2.34,2.34,0,0,1-.56.81.84.84,0,0,1-.54.2,2.71,2.71,0,0,1-1.24-.4,6.18,6.18,0,0,1-1.51-1.2,10.33,10.33,0,0,1-1.49-2.09,11.65,11.65,0,0,1-1.15-3.08,19.41,19.41,0,0,1-.51-2.79,37,37,0,0,1-.2-3.91q0-2.34.09-5.67c.07-2.22.21-4.9.4-8H8.84q.08,2.27.09,4.14t0,3.63c0,1.18,0,2.36-.07,3.53s-.09,2.45-.16,3.82a26.1,26.1,0,0,1-.47,3.6,24.83,24.83,0,0,1-1,3.44,21.73,21.73,0,0,1-1.41,3.09,15.26,15.26,0,0,1-1.74,2.54,5.12,5.12,0,0,0-.4-.76c-.17-.26-.35-.52-.54-.79a5.42,5.42,0,0,0-.63-.72,7.17,7.17,0,0,0-.66-.54,11.4,11.4,0,0,0,1.49-2A16.27,16.27,0,0,0,4.6,27.55a21.5,21.5,0,0,0,.82-2.86,20.64,20.64,0,0,0,.43-3c.08-1.18.13-2.4.17-3.66s0-2.58,0-4S6,11.21,5.91,9.62s-.15-3.3-.27-5.15c.57,0,1.3.09,2.18.11l2.88.07c1,0,2.16,0,3.34.06l3.62,0,3.78,0c1.23,0,2.37,0,3.44-.06l2.9-.07c.86,0,1.58-.06,2.16-.11-.07.84-.15,1.79-.24,2.83s-.16,2.09-.23,3.15q-.25,4.14-.32,7c0,1.9,0,3.53,0,4.88a23.21,23.21,0,0,0,.43,3.49,19,19,0,0,0,.87,2.83,7.43,7.43,0,0,0,.57,1.21c.17.25.33.3.47.14a2.88,2.88,0,0,0,.42-1.15c.13-.61.28-1.5.45-2.65a6.28,6.28,0,0,0,.54.88,3.87,3.87,0,0,0,.52.6,2.68,2.68,0,0,0,.61.43A8,8,0,0,0,34.87,28.45ZM19.75,19.67c.46.62.94,1.29,1.46,2s1,1.45,1.51,2.18,1,1.46,1.42,2.18.87,1.38,1.23,2l-2.81,1.51c-.62-1.22-1.29-2.45-2-3.69s-1.48-2.47-2.32-3.69q-.54.75-1.26,1.71c-.48.64-1,1.3-1.57,2s-1.14,1.36-1.72,2S12.54,29.11,12,29.64a6.2,6.2,0,0,0-1.28-1,7,7,0,0,0-1.42-.72,27.64,27.64,0,0,0,3.42-3.35,55.56,55.56,0,0,0,3.78-4.82Q15.22,18,13.67,16.23T10.61,13l2.05-1.66c.84.89,1.7,1.84,2.59,2.86s1.8,2.11,2.74,3.26a30.21,30.21,0,0,0,1.63-3.35,38.28,38.28,0,0,0,1.57-4.46c.48.33.94.62,1.37.86l1.58.87a.56.56,0,0,1,.31.43c0,.17-.09.29-.31.36a.8.8,0,0,0-.29.23,6.64,6.64,0,0,0-.61,1c-.29.5-.71,1.24-1.26,2.23S20.69,17.94,19.75,19.67Z"/></g></svg>