<svg xmlns="http://www.w3.org/2000/svg" viewBox="0 0 37 38"><title>radical</title><g id="Layer_6" data-name="Layer 6"><path d="M21.63,15.4c.57-.84,1.13-1.66,1.67-2.48l1.51-2.32c.47-.73.88-1.41,1.24-2s.65-1.15.87-1.58l3.31,2.48c-.5.36-1,.72-1.4,1.08s-.9.8-1.41,1.3S26.35,13,25.71,13.69s-1.41,1.68-2.32,2.83c.58.36,1.18.75,1.82,1.17s1.28.84,1.92,1.28,1.29.86,1.91,1.29l1.77,1.23-2.31,3Q27.83,23.79,27,23c-.56-.54-1.15-1.09-1.76-1.66l-1.87-1.69L21.52,18c0,.34.06.68.11,1s.09.69.14,1c.17,1,.35,2,.54,2.87A20.39,20.39,0,0,0,23,25.36a11.11,11.11,0,0,0,.9,2A8,8,0,0,0,25.15,29a8.48,8.48,0,0,0,2,1.51,1.86,1.86,0,0,0,1.51.2,2.38,2.38,0,0,0,1.2-1.17,12.62,12.62,0,0,0,1.05-2.66,5,5,0,0,0,1.53,1.4,6.36,6.36,0,0,0,1.64.72,22.28,22.28,0,0,1-1.66,3.06,7.1,7.1,0,0,1-1.46,1.66,2.65,2.65,0,0,1-1.4.59,4.58,4.58,0,0,1-1.46-.12,9.87,9.87,0,0,1-5.51-3.59,18.13,18.13,0,0,1-3.2-7,33.28,33.28,0,0,1-.78-6.3c-.1-2.52-.12-5.49,0-8.93H11.26c-1.87,0-3.59,0-5.15.06s-2.75.08-3.56.12V5.21q2.4.23,10.26.22,1.68,0,3.24,0c1,0,1.95-.06,2.77-.1s1.5-.07,2.07-.12l1.17-.11c-.12,1.2-.22,2.3-.31,3.3s-.15,2-.2,2.86c0,.55,0,1.17-.07,1.85s-.05,1.41-.07,2.18A1.21,1.21,0,0,1,21.63,15.4Z"/></g></svg>