<svg xmlns="http://www.w3.org/2000/svg" viewBox="0 0 37 38"><title>radical</title><g id="Layer_2" data-name="Layer 2"><path d="M27.19,8.68A8.46,8.46,0,0,0,27,6.42a15.72,15.72,0,0,0,1.72.13,14,14,0,0,0,1.69,0c.29,0,.46,0,.51.11s-.06.23-.33.41-.33.43-.33.92v9.25c0,.4,0,.87,0,1.41s.06,1.11.11,1.7H27.19v-2H19V29.4c0,.42,0,.91,0,1.46s0,1.14.07,1.74.08,1.21.13,1.8.1,1.14.15,1.66H15.5c.05-.44.09-1,.13-1.55s.08-1.2.11-1.82.06-1.21.08-1.79,0-1.08,0-1.5V18.3H7.62v2.59H4a21.8,21.8,0,0,0,.3-2.53c.07-1.05.11-2,.11-3V11.31c0-.64,0-1.41-.09-2.29s-.16-1.67-.28-2.34a16.48,16.48,0,0,0,2.09.19,18,18,0,0,0,2,0c.34,0,.53,0,.55.15s-.07.25-.29.37a1.56,1.56,0,0,0-.67.72,2.89,2.89,0,0,0-.15,1v6.58h8.21v-8c0-1.28,0-2.43-.11-3.46a11.76,11.76,0,0,0-.29-2.16,16.78,16.78,0,0,0,1.81.26c.59.05,1.31.07,2.15.07.42,0,.67.06.76.19s-.09.31-.5.55a1.32,1.32,0,0,0-.47.8A8.17,8.17,0,0,0,19,5.87v9.8h8.17Z"/></g></svg>