<svg xmlns="http://www.w3.org/2000/svg" viewBox="0 0 37 38"><title>radical</title><g id="Layer_6" data-name="Layer 6"><path d="M21.42,7.22c.43,0,1,0,1.64,0l2.05,0q1.07,0,2-.09L28.65,7l-5.79,6.77,2.23,0c.67,0,1.34,0,2-.07l2-.15,2.23-.19c-.05,1-.09,2.26-.11,3.63s0,2.77,0,4.19,0,2.83,0,4.2.06,2.57.11,3.6l-1.53-.07c-.47,0-1,0-1.46-.06H26.69l-2.05,0-2.74,0H14.24l-2.74,0-2.16.05-2.21.11a53.94,53.94,0,0,0,.21-5.44V14.06c-.33.27-.65.54-1,.81s-.62.55-1,.81a8.58,8.58,0,0,0-1.26-1.17,8,8,0,0,0-1.33-.81A38.91,38.91,0,0,0,9.05,9a26.05,26.05,0,0,0,4.52-5.58,10,10,0,0,0,1.48.82,7.85,7.85,0,0,0,1.4.51c.34.07.49.2.47.38s-.19.34-.51.48a10.1,10.1,0,0,0-.93.65,5.53,5.53,0,0,0-1,1Zm12.24,28L30.72,35c-1-.06-2.13-.11-3.33-.14s-2.51-.07-3.94-.09-3,0-4.77,0-3.35,0-4.79,0-2.76.05-4,.09S7.58,35,6.55,35l-2.95.2V31.67c.93.07,1.92.13,2.95.19S8.7,32,9.92,32l4,.09c1.44,0,3,0,4.79,0s3.34,0,4.77,0L27.39,32q1.8-.06,3.33-.15l2.94-.19ZM22.71,9.6H12.2c-.69.69-1.42,1.38-2.18,2.07S8.49,13,7.7,13.74h12Zm-5,6.48H10v3.85h7.66Zm0,6.12H10v4.14h7.66Zm10.62-6.12H20.41v3.85h7.88Zm0,6.12H20.41v4.14h7.88Z"/></g></svg>