<svg xmlns="http://www.w3.org/2000/svg" viewBox="0 0 37 38"><title>radical</title><g id="Layer_6" data-name="Layer 6"><path d="M13.19,30.36a11.55,11.55,0,0,0,1.26-.79l1.48-1.06c.5-.37,1-.74,1.44-1.1s.83-.67,1.11-.94A4.27,4.27,0,0,0,18.7,28a3.44,3.44,0,0,0,.72,1.24L16.25,31.5c-.91.63-1.71,1.2-2.39,1.71s-1.26.95-1.73,1.35A9.21,9.21,0,0,0,11,35.65a14.61,14.61,0,0,0-1.16-1.71c-.4-.51-.8-1-1.18-1.38a4.63,4.63,0,0,0,.68-.9,4.63,4.63,0,0,0,.45-1.21A10,10,0,0,0,10,28.78c.05-.65.08-1.42.08-2.31V19.13c-1.06,0-2,0-2.76,0l-2.07,0c-.6,0-1.11,0-1.55.07l-1.15.09V16.21a11.55,11.55,0,0,0,1.15.11c.44,0,.95,0,1.55.06l2.09.05c.79,0,1.7,0,2.74,0V10.2c0-1.63,0-3.07,0-4.32S10,3.73,10,3.18l1,.15L12,3.42l.91,0a3.32,3.32,0,0,0,.58,0c.29,0,.49,0,.59.12s.07.33-.12.59a5,5,0,0,0-.76,2.92v9.4H24l3.8,0,2.84,0c.8,0,1.49,0,2-.07s1.06-.08,1.5-.13v3.17c-.8-.09-2-.16-3.55-.19s-3.8-.06-6.68-.06H21.18a12.7,12.7,0,0,0,2.24,4.19,16.48,16.48,0,0,0,3.33,3.14,18.28,18.28,0,0,0,3.88,2.1,17.27,17.27,0,0,0,3.87,1.05A6,6,0,0,0,32,33.24a35.86,35.86,0,0,1-4.68-2.37,20.81,20.81,0,0,1-3.8-3,19.25,19.25,0,0,1-2.93-3.82,23.49,23.49,0,0,1-2.13-4.95H13.19ZM30.36,4.91q.69.25-.21.72a9.11,9.11,0,0,0-1.37.92A15,15,0,0,0,27,8.26c-.29.34-.72.78-1.3,1.33s-1.21,1.14-1.89,1.76-1.38,1.25-2.09,1.88-1.36,1.16-2,1.62a8.28,8.28,0,0,0-1.12-1,9.58,9.58,0,0,0-1.58-1,25.82,25.82,0,0,0,3.19-2.23,30.58,30.58,0,0,0,2.8-2.61A27.06,27.06,0,0,0,25.31,5.4,17.2,17.2,0,0,0,26.8,3a12.75,12.75,0,0,0,1.62,1C29.09,4.33,29.74,4.65,30.36,4.91Z"/></g></svg>