<svg xmlns="http://www.w3.org/2000/svg" viewBox="0 0 37 38"><title>radical</title><g id="Layer_2" data-name="Layer 2"><path d="M31.71,3.66a22,22,0,0,0-.22,2.46c0,1-.08,2.48-.08,4.31V30.15a19.5,19.5,0,0,1-.11,2.44A2,2,0,0,1,30.62,34a4,4,0,0,1-1.78.7c-.8.15-1.93.3-3.38.45a6.42,6.42,0,0,0-.38-1.67,7.89,7.89,0,0,0-1-1.81c1,.1,1.74.15,2.33.15a3,3,0,0,0,1.35-.24,1.26,1.26,0,0,0,.63-.76,4.88,4.88,0,0,0,.16-1.41V6.73H6.62V34.48H3.25c.1-.64.18-1.24.25-1.8s.11-1.1.14-1.64.07-1.08.1-1.61,0-1.11,0-1.72V10.39c0-1.55,0-2.87,0-3.94a25.09,25.09,0,0,0-.24-2.79q.63.1,1.74.18C6,3.89,6.89,3.93,8,4s2.48.07,4.05.09,3.41,0,5.53,0,4.16,0,5.75,0,2.94,0,4-.09,2-.08,2.66-.13S31.29,3.73,31.71,3.66ZM12.91,16.42a34.85,34.85,0,0,0,1-3.7c.26-1.21.49-2.44.68-3.7a5.24,5.24,0,0,0,1.48.63,10.34,10.34,0,0,0,1.6.3c.29,0,.44.09.46.2s-.09.23-.32.35a2.41,2.41,0,0,0-.77,1.06,12.2,12.2,0,0,0-.63,1.61c-.3,1-.63,1.94-1,2.94s-.75,2-1.17,3.05c.57,1.16,1.09,2.24,1.55,3.24s.83,1.78,1.08,2.35L14.69,26c-.2-.59-.43-1.23-.71-1.92s-.57-1.41-.92-2.15c-.72,1.56-1.43,3-2.15,4.28s-1.37,2.37-2,3.23A9.32,9.32,0,0,0,6.73,28c.4-.54.82-1.16,1.26-1.85S8.88,24.78,9.32,24s.88-1.54,1.3-2.35.8-1.63,1.15-2.45c-.4-.81-.79-1.6-1.19-2.36s-.78-1.48-1.15-2.15-.72-1.26-1-1.79-.61-1-.83-1.28l2.18-1.07c.35.56.8,1.37,1.37,2.42S12.27,15.19,12.91,16.42Zm9.18.78a30.63,30.63,0,0,0,1.18-4,29.94,29.94,0,0,0,.63-3.85,5.54,5.54,0,0,0,1.44.59,7.17,7.17,0,0,0,1.71.3c.27,0,.41.09.42.2s-.08.23-.28.35a2,2,0,0,0-.66.82,11.49,11.49,0,0,0-.67,1.89c-.27,1-.61,2-1,3.07S24,18.79,23.46,19.9c.71,1.48,1.34,2.84,1.88,4.07s.95,2.23,1.22,3l-2.33,1.18c-.22-.74-.51-1.58-.87-2.53s-.74-2-1.16-3Q21.09,24.82,20,26.67a23.5,23.5,0,0,1-2,2.92A8.1,8.1,0,0,0,16.76,29c-.47-.19-.91-.35-1.33-.48a27.92,27.92,0,0,0,2.94-3.88A38.79,38.79,0,0,0,21,19.86c-.64-1.4-1.28-2.72-1.91-4a26.77,26.77,0,0,0-1.76-3l1.89-1c.47.82.95,1.68,1.43,2.59S21.59,16.26,22.09,17.2Z"/></g></svg>