<svg xmlns="http://www.w3.org/2000/svg" viewBox="0 0 37 38"><title>radical</title><g id="Layer_6" data-name="Layer 6"><path d="M7.42,35.84H4.29A27.18,27.18,0,0,0,4.54,33c0-1,.08-2,.08-2.77V17.63c0-.92,0-1.85-.08-2.79a20.27,20.27,0,0,0-.18-2.18c.36.05.79.08,1.28.11s1.13,0,1.91.05l2.86,0c1.13,0,2.51,0,4.14,0V7c0-.81,0-1.61-.09-2.39s-.12-1.4-.2-1.86c.24,0,.53.09.87.13s.67.06,1,.07l.95,0h.74c.29,0,.45,0,.5.11s0,.24-.25.43a2.61,2.61,0,0,0-.68,2.09v.93h9.09l1.83,0c.57,0,1.09,0,1.59-.07l1.49-.13V9.38l-1.49-.12c-.5,0-1-.06-1.57-.08l-1.8,0-2.2,0H17.4v3.78l5.43,0c1.47,0,2.67,0,3.6-.05l2.16-.07a9.92,9.92,0,0,0,1.15-.11c0,.31-.09.68-.12,1.1s-.06.85-.07,1.31,0,.91,0,1.35,0,.85,0,1.21V30.08c0,.94,0,1.91.07,2.92a25.51,25.51,0,0,0,.26,2.66H26.61V33.57H7.42Zm19.19-20.3H7.42V31.13H26.61Zm-9,5.87A21.69,21.69,0,0,0,19.45,19a24.53,24.53,0,0,0,1.65-2.92,7.13,7.13,0,0,0,1.1,1.19,4.48,4.48,0,0,0,1.32.76c.21.09.31.21.28.36s-.16.27-.43.39a5.2,5.2,0,0,0-.59.47,12.8,12.8,0,0,0-1.1,1.15c-.36.41-.73.81-1.1,1.19L19.3,23C21,24.44,22.66,26,24.42,27.74L22,29.65c-.74-.86-1.48-1.7-2.23-2.5s-1.5-1.58-2.27-2.32c-1.12,1.1-2.22,2.1-3.27,3s-2,1.64-2.81,2.22c-.46-.51-.83-.89-1.13-1.16a6.86,6.86,0,0,0-1.21-.79,20.85,20.85,0,0,0,3.31-1.91,26.6,26.6,0,0,0,3.46-2.91A48.48,48.48,0,0,0,10.48,19l2.09-1.69c.84.65,1.68,1.32,2.5,2S16.74,20.69,17.58,21.41Z"/></g></svg>