<svg xmlns="http://www.w3.org/2000/svg" viewBox="0 0 37 38"><title>radical</title><g id="Layer_2" data-name="Layer 2"><path d="M5.22,7.28l-1.93.1c-.69,0-1.33.08-1.92.12V4.25q2.88.18,7.1.24c2.81,0,5.95,0,9.4,0q4.62,0,8.45-.07c2.56,0,4.72-.12,6.5-.22V7.5l-2.37-.09-2.68-.09L25,7.26H8.14V27.08a7.22,7.22,0,0,0,.13,1.55,1.48,1.48,0,0,0,.48.89,1.92,1.92,0,0,0,1,.39,13.43,13.43,0,0,0,1.74.09h6.77c2.64,0,4.84,0,6.6,0s3.22,0,4.37-.07L32,29.8a13.69,13.69,0,0,0,1.63-.17V33c-.87-.1-2-.17-3.46-.22s-3.11-.08-5-.08H10.36a17.83,17.83,0,0,1-2.72-.16,2.77,2.77,0,0,1-1.55-.71,2.74,2.74,0,0,1-.71-1.55,17.52,17.52,0,0,1-.16-2.68Z"/></g></svg>