<svg xmlns="http://www.w3.org/2000/svg" viewBox="0 0 37 38"><title>radical</title><g id="Layer_6" data-name="Layer 6"><path d="M12.52,22.08A24.62,24.62,0,0,1,11,29.73,20.85,20.85,0,0,1,7.44,35.9a8.32,8.32,0,0,0-1.69-1,14.5,14.5,0,0,0-1.94-.74,20.46,20.46,0,0,0,2.57-2.88A14.27,14.27,0,0,0,8.13,28a19,19,0,0,0,1-4,35.27,35.27,0,0,0,.33-5.11V11.42c0-.64,0-1.17,0-1.58a6.3,6.3,0,0,0-.18-1.22l1.69.07,2.16.05,3.26,0h10l3.3,0c.87,0,1.59,0,2.16-.05l1.6-.07a6.61,6.61,0,0,0-.22,1.11,14.92,14.92,0,0,0-.07,1.69v8.75c0,.77,0,1.53,0,2.29a20.91,20.91,0,0,0,.21,2.39H29.94V22.08Zm17.42-2.7V11.46H12.55v7.92ZM19.9,7.93a21.29,21.29,0,0,0-.79-2.27,19,19,0,0,0-1.05-2.05L21.48,2.5q.51,1,1,2.07c.3.68.65,1.41,1.06,2.17Z"/></g></svg>