<svg xmlns="http://www.w3.org/2000/svg" viewBox="0 0 37 38"><title>radical</title><g id="Layer_2" data-name="Layer 2"><path d="M19.46,12.24c2.25,0,4.16-.06,5.75-.11s3.06-.14,4.39-.26v3.78c-1.33-.1-2.79-.18-4.39-.25s-3.5-.1-5.75-.13V28.85q4.66,0,8-.11c2.22,0,4.21-.13,6-.26v3.78c-1-.08-2-.13-3.09-.17L26.73,32c-1.29,0-2.71-.06-4.23-.07s-3.21,0-5,0-3.49,0-5,0-2.92,0-4.22.07l-3.59.11c-1.1,0-2.13.09-3.09.17V28.48l2.89.15,3.26.13c1.15,0,2.41.06,3.77.08h4.44V15.27c-2.52,0-4.64,0-6.38.12s-3.3.16-4.68.26V11.87c1.43.12,3,.22,4.73.28s3.84.09,6.33.09c0-1.73,0-3.19,0-4.4s0-2.21-.07-3S15.74,3.43,15.71,3s-.09-.79-.13-1c.54.09,1.22.17,2,.24s1.54.09,2.18.09.69.2.15.59a1.21,1.21,0,0,0-.35.57,2.21,2.21,0,0,0-.13.73Z"/></g></svg>