<svg xmlns="http://www.w3.org/2000/svg" viewBox="0 0 37 38"><title>radical</title><g id="Layer_2" data-name="Layer 2"><path d="M8.73,35.22H5.18c.12-.94.21-1.89.26-2.87s.07-2,.07-3.13V9.91c0-.64,0-1.23,0-1.78s-.06-1-.11-1.4c.5,0,1.35.09,2.56.13s2.61.07,4.21.09A16.23,16.23,0,0,0,13,4.14c.24-1,.41-2,.54-2.92.27.09.6.19,1,.29l1.16.3,1.13.26c.36.07.65.12.87.14s.49.12.5.21-.14.26-.46.53a8.83,8.83,0,0,0-1,1.34c-.49.74-1,1.62-1.59,2.66h6l2.83,0,2.44,0,1.91-.08c.54,0,1,0,1.26-.07-.05.37-.09.79-.11,1.27s0,1.12,0,1.91V29.22c0,1.09,0,2,.07,2.83s.14,1.66.26,2.58H26.16V31.52H8.73ZM26.16,9.5H8.73v4.67H26.16Zm0,7.22H8.73V21.2H26.16Zm0,7H8.73v5.07H26.16Z"/></g></svg>