<svg xmlns="http://www.w3.org/2000/svg" viewBox="0 0 37 38"><title>radical</title><g id="Layer_2" data-name="Layer 2"><path d="M21.83,12h5.42c.6,0,1.1,0,1.5-.06l1.11-.07c-.05.49-.09,1-.11,1.63s0,1.2,0,1.84V29.67c0,.63,0,1.23,0,1.8s0,1.14.05,1.74.07,1.29.11,2.1H26.68v-2H8V35.5H4.7c0-.79.09-1.46.13-2s.06-1.11.07-1.66,0-1.16,0-1.81,0-1.48,0-2.47V15.33c0-.64,0-1.25,0-1.84s-.06-1.14-.11-1.63l1.11.07c.42,0,.93,0,1.53.06H12.8V7.53q-3.29,0-6.05,0c-1.84,0-3.53.11-5.09.21V4.42c.82.07,1.69.14,2.61.2s2,.11,3.24.15,2.66.07,4.27.09,3.51,0,5.68,0,4.07,0,5.68,0,3-.05,4.26-.09,2.3-.08,3.23-.15l2.71-.2V7.79c-1.58-.1-3.3-.17-5.15-.21s-4,0-6.36,0Zm-6.37,2.63A15,15,0,0,1,14,19.55a13.15,13.15,0,0,1-3.33,4.26,7.19,7.19,0,0,0-2.18-2.26,9.6,9.6,0,0,0,2.83-3,10.22,10.22,0,0,0,1.35-4H8V25H26.68V22c-1.88.1-3.33.14-4.37.11A6.47,6.47,0,0,1,20,21.79a1.38,1.38,0,0,1-.89-1A8.6,8.6,0,0,1,19,19V14.63ZM8,30.65H26.68v-3H8ZM19,12V7.53H15.61V12Zm7.7,2.63H21.83v4.18a1.08,1.08,0,0,0,.09.48c.06.13.25.22.56.28a7.53,7.53,0,0,0,1.44.08l2.76-.1Z"/></g></svg>