<svg xmlns="http://www.w3.org/2000/svg" viewBox="0 0 37 38"><title>radical</title><g id="Layer_2" data-name="Layer 3"><path d="M34.67,16.94c.27.27.37.46.31.59s-.24.18-.52.13a8.77,8.77,0,0,0-1.32-.14,20.93,20.93,0,0,0-2.18,0c-.93.05-2.16.14-3.67.27s-3.45.32-5.83.56c-2.54.27-5,.44-7.42.54s-4.65.13-6.76.11a10.37,10.37,0,0,0-.47-1.5,6.79,6.79,0,0,0-.72-1.24,51.25,51.25,0,0,0,5.49.2q3.43,0,8.48-.38c.79-.05,1.77-.14,3-.29s2.38-.3,3.62-.48,2.41-.38,3.52-.6,2-.42,2.69-.61a9.68,9.68,0,0,0,.84,1.57A6.68,6.68,0,0,0,34.67,16.94ZM12.06,25.51a22.78,22.78,0,0,0-1.26-2.14,14.09,14.09,0,0,0-1.29-1.71l2.63-1.41.7.92c.2.28.41.56.61.85s.41.58.61.9l.7,1Zm7.64-.4a18,18,0,0,0-.63-2.27,17.49,17.49,0,0,0-.89-1.9L21,20c.33.7.63,1.36.88,2s.51,1.35.77,2.16Zm4.46,1.44c.79-1.08,1.46-2,2-2.84s1-1.54,1.35-2.16.62-1.18.82-1.66a9.9,9.9,0,0,0,.49-1.37c.26.2.51.36.74.51a6.8,6.8,0,0,0,.7.38c.24.1.5.21.77.3s.6.19,1,.29c.19.05.29.13.3.23s-.09.2-.3.27a1.3,1.3,0,0,0-.43.33c-.2.19-.48.51-.85,1s-.85,1-1.42,1.78-1.29,1.7-2.13,2.85Z"/></g></svg>