<svg xmlns="http://www.w3.org/2000/svg" viewBox="0 0 37 38"><title>radical</title><g id="Layer_2" data-name="Layer 2"><path d="M8,25.29H4.51a15.46,15.46,0,0,0,.24-2.12q.06-1.07.06-2V11.05c0-.67,0-1.32-.06-2a11.06,11.06,0,0,0-.13-1.37c1.71.15,5.27.22,10.7.22,0-1.13,0-2.06,0-2.79s0-1.32,0-1.78,0-.81,0-1.05-.05-.45-.08-.59q.48.1,1.08.18A11.39,11.39,0,0,0,17.35,2c.37,0,.71,0,1,0a3.75,3.75,0,0,0,.68,0c.32,0,.52,0,.58.12s-.05.3-.32.55a1.94,1.94,0,0,0-.57,1,10.33,10.33,0,0,0-.13,2V7.94q4.18,0,7-.07t4.14-.15c-.05.32-.09.79-.13,1.42s-.06,1.27-.06,1.91v7.73q0,1.86.06,2.94c0,.73.09,1.35.17,1.87H26.31V22h-7.7v8.32l8.07-.59c-.35-.61-.71-1.21-1.08-1.79l-1.07-1.69,2.55-1.37c.45.65.93,1.36,1.45,2.13s1,1.57,1.55,2.39,1,1.6,1.46,2.37.86,1.44,1.2,2l-3.1,1.67c-.2-.47-.42-1-.67-1.47l-.78-1.57-8.8.71c-2.45.19-4.52.37-6.22.51L9,34.08l-2.76.3c-.73.08-1.35.18-1.84.28L2.85,35a18.7,18.7,0,0,0-.21-2.09,16.78,16.78,0,0,0-.42-2.05l3.33.05c1.13,0,2.27,0,3.4,0s2.24-.05,3.31-.09,2.09-.09,3.06-.16V22H8ZM8,10.68v8.7h7.33v-8.7Zm18.32,0h-7.7v8.7h7.7Z"/></g></svg>