<svg xmlns="http://www.w3.org/2000/svg" viewBox="0 0 37 38"><title>radical</title><g id="Layer_2" data-name="Layer 6"><path d="M16.79,30.92a7.87,7.87,0,0,1-1.32,2.38,7.17,7.17,0,0,1-2,1.66,13,13,0,0,1-2.81,1.13A37.29,37.29,0,0,1,7,36.9a8.47,8.47,0,0,0-.79-1.19A7.85,7.85,0,0,0,5.05,34.6a18,18,0,0,0,5.64-1.07,4.89,4.89,0,0,0,2.93-2.61l-3.11,0-3,0c-.92,0-1.75,0-2.48.07l-1.71.09V28.66c.94.09,2.7.18,5.29.25s6,.11,10.26.11l5.94,0c1.71,0,3.18,0,4.43-.07s2.3-.08,3.17-.13l2.16-.14v2.48c-1-.05-2.18-.09-3.58-.12l-4.09-.1v3.64c0,.41,0,.79,0,1.15s.08.69.13,1H23.88a12.24,12.24,0,0,0,.18-2.13V30.92ZM19.2,18.29h4.21c1.23,0,2.33,0,3.31,0l2.67-.05c.79,0,1.56,0,2.3-.09q-.07.64-.12,1.35c0,.47-.06.94-.06,1.42v3.74c0,.51,0,1,.06,1.46s.07.91.12,1.32l-2.25-.08-2.68-.07q-1.47,0-3.33,0H15q-1.86,0-3.33,0L9,27.32l-2.27.08c.07-.39.12-.82.16-1.3s0-1,0-1.51V20.92c0-.48,0-1,0-1.43a10.63,10.63,0,0,0-.18-1.38c.77.05,1.55.08,2.36.09l2.68.05c1,0,2.08,0,3.29,0Zm-5-12.85a10.05,10.05,0,0,0,.33-1.34q.11-.64.18-1.29a16.19,16.19,0,0,0,1.8.27,9.13,9.13,0,0,0,1.51,0c.31,0,.47.05.47.22s-.14.32-.4.47a3.08,3.08,0,0,0-.68.54,8.67,8.67,0,0,0-.87,1.08H24l1.79,0,1.76,0,1.53,0c.46,0,.82,0,1.08-.06-.07.94-.11,2.05-.11,3.35v4.5c0,.65,0,1.27,0,1.87a13.77,13.77,0,0,0,.09,1.48l-1.19,0-1.89,0H12c-1.82,0-3.08,0-3.8.07A14.34,14.34,0,0,0,8.24,15c0-.59,0-1.22,0-1.89V8.64c0-1.3,0-2.41-.11-3.35.24,0,.59,0,1.06.07s1,0,1.53.06l1.75,0ZM17.8,20H9.3v1.8h8.5Zm0,3.49H9.3v1.91h8.5Zm-7-16.42V8.6H27.52V7.09Zm0,4.54H27.52V10.08H10.78Zm0,3.09H27.52V13.18H10.78ZM28.92,20H20.1v1.8h8.82Zm0,3.49H20.1v1.91h8.82Z"/></g></svg>