<svg xmlns="http://www.w3.org/2000/svg" viewBox="0 0 37 38"><title>radical</title><g id="Layer_2" data-name="Layer 2"><path d="M20,11.62c1.06,0,2.05,0,3-.08s1.73-.12,2.42-.22L24.16,28.23a8.21,8.21,0,0,0,0,1,.78.78,0,0,0,.26.56,1.35,1.35,0,0,0,.68.25,8.1,8.1,0,0,0,1.24.08A6.79,6.79,0,0,0,27.86,30a1.63,1.63,0,0,0,.93-.63,4.54,4.54,0,0,0,.61-1.48c.16-.65.33-1.56.53-2.72a7,7,0,0,0,1.65,1.22,8,8,0,0,0,1.61.67c-.35,1.43-.65,2.54-.91,3.33a3.86,3.86,0,0,1-1.07,1.76,3.32,3.32,0,0,1-1.87.68c-.79.07-1.87.11-3.26.11a25,25,0,0,1-3-.13,2.88,2.88,0,0,1-1.54-.55A1.71,1.71,0,0,1,21,31.06a17.3,17.3,0,0,1,0-2l1-14.62H11.54L9.14,29.05a71.72,71.72,0,0,0,9.51-2.67,7.89,7.89,0,0,0-.24,1.69,8.72,8.72,0,0,0,.05,1.38L9,32c-.27.07-.61.18-1,.31l-1.26.45-1.24.48q-.6.24-1,.42a15.82,15.82,0,0,0-.6-1.85,11.42,11.42,0,0,0-.74-1.62l2.67-.45L9.36,6.81c-1.73,0-3.27,0-4.63.09a27,27,0,0,0-2.92.24V3.77c.37,0,.9.1,1.59.13S5,4,6.21,4s2.66.06,4.41.07l6.36,0,6.42,0c1.79,0,3.28,0,4.48-.06S30,4,30.69,3.92s1.17-.1,1.46-.15V7.14L30.8,7.05l-2.2-.11c-.84,0-1.76-.07-2.77-.09s-2,0-3.11,0h-10L12,11.62ZM14.61,23.79c0-1.26-.14-2.36-.27-3.31a20.06,20.06,0,0,0-.65-2.87l3.4-.4c.13.86.27,1.77.45,2.73s.39,2,.66,3.22Z"/></g></svg>