<svg xmlns="http://www.w3.org/2000/svg" viewBox="0 0 37 38"><title>radical</title><g id="Layer_2" data-name="Layer 6"><path d="M17,22.15a21.08,21.08,0,0,1-1.84,3.64,23.88,23.88,0,0,1-2.57,3.33A29.25,29.25,0,0,1,9.42,32a31,31,0,0,1-3.55,2.43A12.46,12.46,0,0,0,4.68,33a12.28,12.28,0,0,0-1.4-1.32A20.77,20.77,0,0,0,10,28a20.07,20.07,0,0,0,4.86-5.76c-2.14,0-4.08.06-5.85.11s-3.23.1-4.41.18V19.63c1.47.12,3.3.2,5.51.24l7.31.09V16.18q-1.59,0-2.88,0l-2.4.07-2.08.09-1.93.09v-2.8c.65,0,1.3.09,2,.12s1.36.07,2.09.09l2.38.07c.85,0,1.8,0,2.86,0v-3.6q-4,0-6.79.11c-1.86,0-3.54.12-5.06.21V7.86L8,8l2.68.09,3.11.07q1.68,0,3.66,0c0-1.08-.06-2-.11-2.73a16.67,16.67,0,0,0-.25-2.05A17.24,17.24,0,0,0,19,3.63a8.32,8.32,0,0,0,1.53,0c.41,0,.65,0,.72.22s-.07.38-.43.57a1.05,1.05,0,0,0-.5,1V8.18c2.71,0,5,0,7-.07S30.9,8,32.44,7.86V10.7c-1.54-.09-3.26-.16-5.18-.21s-4.24-.09-7-.11V14l3.11,0,2.47-.05L28,13.82c.64,0,1.3-.09,2-.16v2.8l-2-.12c-.65,0-1.35-.07-2.09-.09s-1.57,0-2.47-.06H20.31V20q4.07,0,7.47-.09c2.26-.06,4.16-.15,5.67-.27v2.8c-1.3-.09-2.86-.16-4.7-.19s-3.87-.06-6.1-.06a16.75,16.75,0,0,0,4.68,4.75,20.89,20.89,0,0,0,7,3.06,11.16,11.16,0,0,0-1.19,1.64,12.31,12.31,0,0,0-.8,1.57A22,22,0,0,1,25,28.47a15.47,15.47,0,0,1-4-6.32h-.72v6.77c0,1.08,0,2.15.09,3.22s.16,2.25.3,3.55H17c.14-1.32.25-2.52.32-3.6s.11-2.14.11-3.17V22.15Z"/></g></svg>