<svg xmlns="http://www.w3.org/2000/svg" viewBox="0 0 37 38"><title>radical</title><g id="Layer_2" data-name="Layer 6"><path d="M18.6,14.59c2.6,0,4.89,0,6.9-.09s3.69-.15,5.06-.27v3.31c-1.37-.12-3.06-.21-5.06-.27s-4.3-.09-6.9-.09v4.39l4.13,0c1.42,0,2.77-.06,4-.11l3.35-.14q1.45-.08,2.1-.18l-.36,6.62a13.6,13.6,0,0,1-.29,2.46,2.65,2.65,0,0,1-.91,1.5,5.25,5.25,0,0,1-2,.9c-.89.22-2.11.43-3.67.65a11.2,11.2,0,0,0-.43-1.91,18.58,18.58,0,0,0-.83-2c1,.12,1.87.19,2.52.2a4.54,4.54,0,0,0,1.49-.16,1.15,1.15,0,0,0,.71-.56,2.6,2.6,0,0,0,.21-1l.18-3.53H18.6v4.65q0,1.91.09,3.33c.06.94.15,2,.27,3H15.08c.12-1.08.21-2.09.27-3s.09-2.06.09-3.35V24.27l-3.82,0c-1.3,0-2.51,0-3.65.06l-3,.07c-.87,0-1.52,0-1.92.07V21.14c.38.05,1,.1,1.87.16s1.87.11,3,.15l3.69.09,3.84,0V17.18c-2,0-3.8.06-5.4.11s-3,.13-4.11.25V14.23c1.15.12,2.53.2,4.12.25s3.39.09,5.39.11V10.23c-2.52,0-4.79,0-6.79.09s-3.73.15-5.17.27V7.28q2.16.18,5.19.27t6.77.13c0-1.44,0-2.65-.09-3.64a10.75,10.75,0,0,0-.24-2c.63.12,1.24.22,1.86.29a16.56,16.56,0,0,0,1.89.11c.74,0,.82.24.25.72a1.89,1.89,0,0,0-.4.45,1.09,1.09,0,0,0-.11.52V7.68c3.1,0,5.85,0,8.27-.11S31.32,7.4,33,7.28v3.31q-2.52-.18-6.13-.27c-2.42-.06-5.17-.09-8.27-.09Z"/></g></svg>