<svg xmlns="http://www.w3.org/2000/svg" viewBox="0 0 37 38"><title>radical</title><g id="Layer_2" data-name="Layer 6"><path d="M20.15,16.53q4.68,0,8.17-.08c2.33,0,4.36-.13,6.09-.25v3.39q-2.59-.18-6.09-.26c-2.33,0-5.05-.07-8.17-.07v9.29c0,.82,0,1.73.09,2.74s.15,2,.27,3H16.62c.1-.86.18-1.84.24-2.92s.09-2,.09-2.84V19.26l-8,.09q-3.44.06-6,.24V16.2c1.73.12,3.74.21,6,.25s5,.08,8,.08V6.81c-2.48,0-4.63.06-6.47.1s-3.43.13-4.8.22V3.78C7.19,3.9,9,4,11,4s4.49.08,7.29.08,5.25,0,7.31-.08S29.46,3.9,31,3.78V7.13C29.63,7,28.08,7,26.31,6.91s-3.83-.08-6.16-.1Z"/></g></svg>