<svg xmlns="http://www.w3.org/2000/svg" viewBox="0 0 37 38"><title>radical</title><g id="Layer_2" data-name="Layer 2"><path d="M20.83,7.33l4.7,0c1.28,0,2.37,0,3.26-.07l2.14-.1A12.65,12.65,0,0,0,32.26,7v3L30.76,10c-.62,0-1.35-.05-2.16-.06l-2.66,0-3,0H7q0,4-.06,7.05c0,2-.1,3.84-.19,5.4s-.21,3-.37,4.19a34.46,34.46,0,0,1-.61,3.42A28.23,28.23,0,0,1,4.83,33c-.36,1-.77,2.06-1.24,3.2A8.4,8.4,0,0,0,.41,34a15.37,15.37,0,0,0,1.81-3.7,28.68,28.68,0,0,0,1.22-5.48,62.87,62.87,0,0,0,.5-7.62Q4,12.81,3.62,7c.42,0,1,.1,1.61.15s1.51.09,2.56.11,2.33,0,3.85,0h5.49a11.07,11.07,0,0,0-.67-1.91,12.27,12.27,0,0,0-.92-1.68l3.74-.89c.19.64.43,1.36.7,2.17S20.53,6.59,20.83,7.33ZM12,18.91a4.86,4.86,0,0,0-.31,1.83c-.09,1.1-.16,2.56-.21,4.39a15.82,15.82,0,0,1-.18,2,17.61,17.61,0,0,1-.45,2A23.53,23.53,0,0,1,10,31.45c-.3.82-.68,1.73-1.12,2.74a3.89,3.89,0,0,0-1.06-.92,4.13,4.13,0,0,0-1.46-.52,23.52,23.52,0,0,0,1.83-3.87A16.44,16.44,0,0,0,9,25.72a20.27,20.27,0,0,0,.18-2.28c0-.8,0-1.57,0-2.31s-.05-1.42-.11-2.05S9,18,8.92,17.58a8.24,8.24,0,0,0,1.29.31A13.71,13.71,0,0,0,11.8,18c.27,0,.43.1.46.3S12.2,18.71,12,18.91Zm3.44-5.11c.79,0,1.54,0,2.26-.07a15.49,15.49,0,0,0,1.7-.19v2.89a20.14,20.14,0,0,0-4-.26V29.79q0,1.47.06,3.33c0,1.23.1,2.45.2,3.66H12.73c.12-1.21.21-2.43.26-3.66s.07-2.35.07-3.33V17.39c0-.42,0-.82,0-1.22l-1.22,0c-.47,0-.94,0-1.4.06l-1.35.07L8,16.39V13.47l1.09.15,1.35.13c.47,0,.93.06,1.39.07l1.13,0q0-1.14-.09-1.89c0-.49-.1-1-.17-1.62.57.07,1.07.11,1.5.13a11.33,11.33,0,0,0,1.39-.06q.48-.08.57.18c.06.18-.08.42-.43.75a1.41,1.41,0,0,0-.33,1Zm4.07,5.48a1.2,1.2,0,0,0-.17.41,4.71,4.71,0,0,0-.14.76c0,.28-.07.56-.1.85s0,.51,0,.68v3.11c0,.84,0,1.57,0,2.18s.08,1.3.15,2H16.5a14.14,14.14,0,0,0,.22-1.85c0-.55,0-1.1,0-1.67V23c0-.57,0-1.06,0-1.48s0-.8,0-1.15-.06-.68-.1-1-.09-.68-.16-1.07a11.83,11.83,0,0,0,1.38.13,11.17,11.17,0,0,0,1.39-.06c.42-.05.66,0,.7.21S19.81,19,19.46,19.28Zm4.07-.37a2.82,2.82,0,0,0-.24,1.2c-.06.71-.09,1.76-.09,3.17a20.89,20.89,0,0,1-.78,5.49,21.75,21.75,0,0,1-2.29,5.42,4.26,4.26,0,0,0-1-.91,3.84,3.84,0,0,0-1.43-.53,14.14,14.14,0,0,0,2.26-4,16.39,16.39,0,0,0,.92-4.09c.05-.66.08-1.32.1-2s0-1.27,0-1.87-.09-1.12-.15-1.61-.13-.89-.2-1.24a8.92,8.92,0,0,0,1.24.15c.4,0,.92,0,1.53,0,.27,0,.43.07.47.2S23.78,18.69,23.53,18.91Zm3.37-5.29c1.16,0,2.23,0,3.22-.08a19.65,19.65,0,0,0,2.37-.22v2.93c-.23,0-.54-.05-.93-.08l-1.35-.07c-.51,0-1.05-.05-1.63-.06L26.9,16V30.08c0,1,0,2.1.07,3.33s.13,2.46.22,3.67h-3c.13-1.21.22-2.43.28-3.67s.09-2.34.09-3.33V17.41c0-.48,0-.95,0-1.42h-1l-1.21.06-1.22.09-1,.1V13.32a19.64,19.64,0,0,0,2.15.22c.81.05,1.54.08,2.18.08,0-.45,0-.84,0-1.19s0-.65-.06-.92-.05-.54-.09-.8-.07-.52-.09-.79a10.19,10.19,0,0,0,1.59.16A7.43,7.43,0,0,0,27.08,10c.32,0,.51,0,.58.18s-.08.42-.43.75a1.41,1.41,0,0,0-.33,1Zm7.18,19.94a23.33,23.33,0,0,1-3,.09,4,4,0,0,1-1.74-.38,1.69,1.69,0,0,1-.82-1,6.56,6.56,0,0,1-.2-1.78V22.87c0-.62,0-1.32-.05-2.11s-.08-1.62-.13-2.48a5.08,5.08,0,0,0,.64.13,7,7,0,0,0,.8.07c.27,0,.53,0,.78,0H31c.2,0,.3,0,.31.19s-.13.36-.42.63a.64.64,0,0,0-.13.44c0,.22,0,.66,0,1.3v8.1a4.93,4.93,0,0,0,.13,1.31.87.87,0,0,0,.54.63,2.51,2.51,0,0,0,1.16.09,16.64,16.64,0,0,0,2.05-.37,8.49,8.49,0,0,0-.35,1.41C34.18,32.65,34.12,33.09,34.08,33.56Z"/></g></svg>