<svg xmlns="http://www.w3.org/2000/svg" viewBox="0 0 37 38"><title>radical</title><g id="Layer_2" data-name="Layer 2"><path d="M19.39,14.66h4.92c1.33,0,2.46,0,3.38,0s1.7,0,2.32-.05l1.7-.08v3.07L30,17.51l-2.23-.06H19.94A38,38,0,0,0,21,21.15a32.36,32.36,0,0,0,1.31,3.32,20,20,0,0,0,1.5,2.7,9.18,9.18,0,0,0,1.61,1.88A8,8,0,0,0,27,30.16a1.12,1.12,0,0,0,1.11.08,2,2,0,0,0,.72-1.2,15.4,15.4,0,0,0,.46-2.69,6.56,6.56,0,0,0,1.56,1.43,7.88,7.88,0,0,0,1.85.94,33.72,33.72,0,0,1-1.28,3.81,4.21,4.21,0,0,1-1.28,1.83,1.87,1.87,0,0,1-1.62.28,14.12,14.12,0,0,1-2.34-.85,10.58,10.58,0,0,1-2.88-2.07,19.58,19.58,0,0,1-2.76-3.48,27.05,27.05,0,0,1-2.35-4.79,33.27,33.27,0,0,1-1.62-6H7.69v11.8c1.24-.79,2.38-1.57,3.43-2.35a31.56,31.56,0,0,0,2.61-2.13,8.13,8.13,0,0,0,.31,2,4.06,4.06,0,0,0,.65,1.3L7.14,33.57c-.47.34-.91.69-1.33,1a15.48,15.48,0,0,0-1.3,1.28,19.92,19.92,0,0,0-1-2.07,6.2,6.2,0,0,0-1.19-1.56l1.06-.53,1.09-.58V10.78c0-.45,0-.93,0-1.47s0-1-.07-1.55-.08-1-.11-1.41a9.93,9.93,0,0,0-.13-1c3.28-.1,6.09-.24,8.45-.43s4.42-.4,6.18-.65,3.32-.51,4.68-.79,2.66-.59,3.92-.91a8.94,8.94,0,0,0,.48,1.06c.2.35.4.69.6,1s.38.57.55.79a2.28,2.28,0,0,0,.41.44c.29.28.4.47.31.58s-.36.13-.83.05c-.2,0-.46,0-.78-.05s-.83,0-1.53.05l-2.87.24-4.77.47c0,1.38,0,2.7.11,4A31.12,31.12,0,0,0,19.39,14.66Zm-3.22,0c-.15-1.26-.26-2.48-.32-3.68s-.08-2.36,0-3.5L14,7.65l-2.13.17L9.66,8c-.72.06-1.37.11-2,.13v6.55Z"/></g></svg>