<svg xmlns="http://www.w3.org/2000/svg" viewBox="0 0 37 38"><title>radical</title><g id="Layer_2" data-name="Layer 2"><path d="M5.33,16c1-1.14,1.91-2.25,2.77-3.35s1.67-2.21,2.41-3.33,1.43-2.28,2.09-3.46,1.27-2.44,1.87-3.77a11.94,11.94,0,0,0,1.68.9,12.89,12.89,0,0,0,1.53.61c.52.15.78.34.78.56s-.28.42-.85.59a4.35,4.35,0,0,0-.83.74,11.09,11.09,0,0,0-1.43,2c-.24.37-.62.9-1.12,1.57s-1.08,1.42-1.73,2.22-1.31,1.63-2,2.46-1.37,1.61-2,2.3l3.37,0L15,16l2.49,0c.72,0,1.24-.05,1.56-.08Q20.91,13.2,22.29,11A25,25,0,0,0,24.2,7.54a16.38,16.38,0,0,0,1.72,1.25,12.66,12.66,0,0,0,1.72,1c.39.2.57.39.53.56s-.26.31-.68.41a2.36,2.36,0,0,0-.5.33,11,11,0,0,0-.91.81c-.34.35-.72.76-1.14,1.22a18.85,18.85,0,0,0-1.22,1.52c-.6.84-1.4,1.88-2.43,3.11s-2.14,2.52-3.35,3.87-2.43,2.67-3.66,4S11.92,28.05,10.91,29l3.56-.09,3.79-.13c1.27,0,2.52-.1,3.75-.17l3.48-.16c-.89-1.51-1.66-2.73-2.33-3.67a28.77,28.77,0,0,0-2-2.55l2.48-1.66q1.92,2.25,3.94,5.16a71,71,0,0,1,3.79,6.12l-3,2.26c-.22-.52-.46-1.06-.72-1.63s-.54-1.13-.83-1.7l-11.55.85L11.32,32c-1.13.1-2.11.21-2.94.32s-1.52.22-2.07.33-1,.21-1.39.31A17.56,17.56,0,0,0,4.62,31a10,10,0,0,0-.55-1.9h2.7Q8,28,9.53,26.53c1-1,2-2,3-3s1.88-2,2.73-3,1.55-1.78,2.1-2.5l-8.26.52c-.37,0-.75.06-1.14.11s-.79.11-1.19.18-.76.16-1.09.26l-.87.26a6,6,0,0,0-.35-1.76A8.53,8.53,0,0,0,3.66,16Z"/></g></svg>