<svg xmlns="http://www.w3.org/2000/svg" viewBox="0 0 37 38"><title>radical</title><g id="Layer_2" data-name="Layer 6"><path d="M17.12,7.43c0-.31,0-.7,0-1.15s0-.93-.06-1.41S17,4,16.94,3.54a6.14,6.14,0,0,0-.14-.9,15,15,0,0,0,2,.24,15.34,15.34,0,0,0,1.93,0c.36,0,.57,0,.63.16s-.08.27-.42.41a1,1,0,0,0-.28.24,1.5,1.5,0,0,0-.26.54,6.91,6.91,0,0,0-.18,1c0,.41-.07.92-.07,1.55q4,0,6.73-.09c1.83-.06,3.41-.14,4.76-.24V9.48c-1.35-.09-2.93-.17-4.74-.23s-4.06-.09-6.75-.09v4.32c3.22,0,6,0,8.37-.07s4.45-.14,6.25-.26v3.1q-2.92-.18-6.82-.25c-2.61-.05-5.72-.07-9.35-.07s-6.73,0-9.34.07-4.88.13-6.82.25v-3.1l2.83.13,3.25.13V9.34c0-1,0-1.8-.05-2.52A7.8,7.8,0,0,0,8.2,5.13,9.75,9.75,0,0,0,10,5.34c.62,0,1.31,0,2,0s.76.12.18.43a1.53,1.53,0,0,0-.5.84,4.15,4.15,0,0,0-.22,1.32v5.58h5.65ZM27.71,33.31q-6.41.18-11.58.36t-9.66.44a15.29,15.29,0,0,0,.27-1.84c.06-.67.09-1.55.09-2.63v-6.8c0-1.11,0-1.93-.06-2.49A10,10,0,0,0,6.61,19c.75.12,1.41.21,2,.27a8.9,8.9,0,0,0,1.71,0c.34,0,.53,0,.59.17s0,.25-.19.37a1.82,1.82,0,0,0-.8,1,5,5,0,0,0-.18,1.39v9.14l18-.72V22.87q0-1.14-.06-2.25a22.45,22.45,0,0,0-.23-2.32,17.23,17.23,0,0,0,2.07.24,15.13,15.13,0,0,0,1.64,0c.38,0,.61,0,.68.13s0,.23-.29.38a1.3,1.3,0,0,0-.64.83,6.25,6.25,0,0,0-.15,1.58V31.84c0,.62,0,1.28.06,2s.09,1.31.16,1.89H27.71ZM18.17,22.84c-.65,1.1-1.39,2.23-2.23,3.38a35.13,35.13,0,0,1-2.52,3.1,14.56,14.56,0,0,0-3-1.62,16.56,16.56,0,0,0,2.7-2.38,20.43,20.43,0,0,0,2.15-2.77,16.51,16.51,0,0,0,1.49-2.93,12.85,12.85,0,0,0,.76-2.9c.55.19,1.13.38,1.74.56s1.17.33,1.68.45.67.22.72.37-.14.3-.54.42a1.74,1.74,0,0,0-.81.65,10.36,10.36,0,0,0-1.14,1.76l2,1.28c.69.44,1.37.9,2,1.37s1.29.92,1.89,1.36,1.13.86,1.59,1.25l-1.95,2.48c-.31-.38-.71-.82-1.19-1.3s-1-1-1.6-1.47-1.2-1-1.85-1.55S18.84,23.32,18.17,22.84Z"/></g></svg>