<svg xmlns="http://www.w3.org/2000/svg" viewBox="0 0 37 38"><title>radical</title><g id="Layer_2" data-name="Layer 6"><path d="M27.44,29.63c-1.48-.07-3.22-.12-5.2-.14s-4.37,0-7.18,0-5.16,0-7.13,0-3.71.07-5.22.14V26.68l2.52.07c.87,0,1.79,0,2.77.06h7.06q4.24,0,7.22,0c2,0,3.7-.06,5.16-.11Zm-12.52-23c.26-.77.49-1.53.68-2.3A16.22,16.22,0,0,0,16,2.52a6.51,6.51,0,0,0,.81.22l1,.2,1,.16a5.07,5.07,0,0,0,.79.07c.34,0,.53.13.58.31s-.05.35-.29.52a5.63,5.63,0,0,0-1,1,9.11,9.11,0,0,0-1.08,1.58h9.14a20.91,20.91,0,0,0,2.23-.07c-.07.89-.13,2.09-.19,3.62s-.15,3.17-.27,4.95A10.65,10.65,0,0,1,28.33,17a2.4,2.4,0,0,1-.85,1.26,5.27,5.27,0,0,1-1.91.82,31.3,31.3,0,0,1-3.42.62,7.73,7.73,0,0,0-.34-1.64A6.26,6.26,0,0,0,21,16.42a19.72,19.72,0,0,0,2.3.07,3.34,3.34,0,0,0,1.35-.27,1.18,1.18,0,0,0,.65-.7,4.14,4.14,0,0,0,.2-1.19l.18-5.18H10.88v12H27.41c1.32,0,2.51,0,3.56,0s1.86,0,2.41-.09c0,.46-.07,1.13-.14,2s-.16,1.83-.25,2.86S32.79,28,32.68,29s-.21,1.89-.3,2.61a11.73,11.73,0,0,1-.45,2.13,2.45,2.45,0,0,1-1,1.26,5.44,5.44,0,0,1-2.09.68c-.91.14-2.16.29-3.75.43a7.13,7.13,0,0,0-.25-1.85A6.76,6.76,0,0,0,24,32.55c1.23.09,2.19.14,2.9.14a4.8,4.8,0,0,0,1.62-.21,1.31,1.31,0,0,0,.76-.65,3.81,3.81,0,0,0,.27-1.15l.61-6.92H12.4c-1.23,0-2.18,0-2.87.06A17.39,17.39,0,0,0,7.79,24c.07-.72.11-1.33.12-1.84s0-1,0-1.4v-11q0-.9,0-1.68c0-.51-.06-1-.11-1.49l.93.05c.36,0,.82,0,1.37,0h4.83Zm3,10.48c-.19-.36-.42-.76-.69-1.19s-.54-.87-.84-1.31-.61-.89-.94-1.32-.64-.81-1-1.15l2.23-1.51A21,21,0,0,1,18.8,13a29.65,29.65,0,0,1,1.8,2.59Z"/></g></svg>