<svg xmlns="http://www.w3.org/2000/svg" viewBox="0 0 37 38"><title>radical</title><g id="Layer_2" data-name="Layer 6"><path d="M27.8,14.15h1.84l1.28,0,.88-.05.68-.07v5.76H29.85V16.31H5.12v3.38H2.42V14c.41,0,1,.08,1.62.1s1.54,0,2.59,0v-6c0-1.63,0-2.9-.1-3.81a9.31,9.31,0,0,0,1.17.09l1.81,0c.77,0,1.75,0,2.94,0h9.43c1.28,0,2.33,0,3.13,0l1.84,0a7.37,7.37,0,0,0,1.06-.09c-.07.84-.11,2.11-.11,3.81ZM9.91,35.43H6.81c.08-.82.13-1.57.17-2.25s0-1.5,0-2.43V22c0-1.44,0-2.52-.11-3.24.24,0,.58.05,1,.06l1.8,0c.77,0,1.75,0,2.95,0h9.18c1.25,0,2.27,0,3.06,0l1.82,0a8.86,8.86,0,0,0,1-.06c-.07.72-.1,1.8-.1,3.24V31.9a10,10,0,0,1-.15,1.94A1.75,1.75,0,0,1,26.69,35a5.07,5.07,0,0,1-1.84.63c-.82.14-2,.28-3.42.43A6.33,6.33,0,0,0,21,34.22a9.66,9.66,0,0,0-1.19-2c1.06.21,1.91.36,2.54.43a4,4,0,0,0,1.48,0,1,1,0,0,0,.68-.58,3,3,0,0,0,.16-1.1v-.9H9.91ZM25,14.15V6.77H9.37V9.18h11v5Zm-7.45,0v-3H9.37v3Zm7.05,7H9.91V23.4H24.63ZM9.91,27.9H24.63V25.42H9.91Z"/></g></svg>