<svg xmlns="http://www.w3.org/2000/svg" viewBox="0 0 37 38"><title>radical</title><g id="Layer_2" data-name="Layer 2"><path d="M14.24,20.26V32c.94-.42,1.84-.86,2.69-1.32s1.56-.87,2.12-1.24a7.93,7.93,0,0,0,.3,1.41c.15.49.28.91.41,1.26q-1,.4-2.13,1c-.78.37-1.56.76-2.35,1.16s-1.54.83-2.26,1.26-1.33.85-1.85,1.24a9.8,9.8,0,0,0-.76-1.57,7.25,7.25,0,0,0-.94-1.32c.32-.09.65-.21,1-.33l1.07-.37V20.26H8.21A33.27,33.27,0,0,1,6.77,27.6a35.76,35.76,0,0,1-2.89,6.53,13,13,0,0,0-1.7-.87,13.11,13.11,0,0,0-1.74-.57,18.2,18.2,0,0,0,2-2.57,15,15,0,0,0,1.45-3.07,23.64,23.64,0,0,0,.94-3.93A49.61,49.61,0,0,0,5.29,18c0-1,.09-2.09.13-3.3s.06-2.44.07-3.7,0-2.49,0-3.7S5.54,5,5.51,4c.64.08,1.33.13,2.06.17s1.59.07,2.6.09,2.22.05,3.61.06l5.09,0,4.83,0,3.38,0q1.44,0,2.61-.09c.78,0,1.61-.11,2.5-.19V7.38l-2.35-.13c-.68,0-1.34-.06-2-.07l-2,0-2.4,0H8.66L8.4,17.74H20.65l5.43,0c1.41,0,2.57,0,3.48,0s1.66-.06,2.24-.1,1.14-.09,1.68-.16v3.14c-.54-.05-1.17-.09-1.9-.13S30,20.35,29,20.33l-3.61-.06H20.46a14,14,0,0,0,1.22,3.2,15.19,15.19,0,0,0,1.85,2.75A16.11,16.11,0,0,0,26,23.94,27.7,27.7,0,0,0,28.3,21c.57.5,1.12.93,1.65,1.32s.89.63,1.09.75.45.34.46.49-.24.25-.75.33a6.59,6.59,0,0,0-1.76,1,47,47,0,0,0-3.79,2.94,14.57,14.57,0,0,0,4,2.15,33.34,33.34,0,0,0,5.35,1.4,7.38,7.38,0,0,0-2,3.56c-1-.37-2-.79-3-1.24s-1.92-1-2.81-1.47a23.67,23.67,0,0,1-2.48-1.64,12,12,0,0,1-1.92-1.8,24.12,24.12,0,0,1-3-4.27,17.83,17.83,0,0,1-1.68-4.27Zm16-6.37c-1.19-.12-2.53-.21-4-.28s-3.35-.09-5.54-.09-4.11,0-5.59.09-2.83.16-4,.28V10.75c1.21.1,2.56.17,4,.22s3.34.07,5.59.07,4,0,5.54,0,2.85-.12,4-.24Z"/></g></svg>