<svg xmlns="http://www.w3.org/2000/svg" viewBox="0 0 37 38"><title>radical</title><g id="Layer_2" data-name="Layer 2"><path d="M18.83,30.59q1.37-2.09,2.52-4.2a25.06,25.06,0,0,0,1.7-3.8,6.51,6.51,0,0,0,.87.48c.36.18.72.34,1.09.49l1,.38a2.5,2.5,0,0,0,.7.17c.22,0,.34.09.37.19s-.07.21-.3.33a5.81,5.81,0,0,0-.7.55,14.69,14.69,0,0,0-1,1.08c-.4.47-.87,1-1.4,1.75s-1.14,1.56-1.83,2.58q3.39,0,6.32-.12c1.95-.07,3.63-.17,5-.29v3.55c-1.84-.1-4.07-.17-6.67-.22s-5.63-.08-9.09-.08-6.47,0-9,.08-4.8.12-6.64.22V30.18c1.47.12,3.14.22,5,.29s3.93.12,6.25.12ZM32,8Q29.42,7.83,26,7.74c-2.3-.06-5.1-.09-8.38-.09H13l-3.85.06c-1.18,0-2.27.06-3.27.11L3.07,8V4.83L5.92,5c1,0,2.1.09,3.27.11s2.45,0,3.83.06l4.55,0c3.28,0,6.08,0,8.38-.08S30.29,5,32,4.83ZM28,22.26c-1.3-.1-2.79-.18-4.45-.24s-3.75-.09-6.24-.09c-1.26,0-2.39,0-3.4,0S12,22,11.15,22s-1.63.08-2.35.13l-2.07.15c.1-.82.18-1.73.23-2.74S7,17.5,7,16.41s0-2-.07-3S6.83,11.69,6.73,11q1,.11,2.07.18c.72.05,1.5.09,2.35.13s1.79.06,2.8.07,2.14,0,3.4,0c2.49,0,4.57,0,6.24-.11S26.74,11.1,28,11c-.09.71-.17,1.54-.22,2.47s-.07,1.93-.07,3,0,2.09.05,3S27.92,21.3,28,22.26ZM11.62,30.07a19,19,0,0,0-1.43-2.85,26.72,26.72,0,0,0-1.68-2.48l2.66-1.3c.57.7,1.17,1.5,1.8,2.41a24.67,24.67,0,0,1,1.64,2.7ZM24.49,13.9H10.1v5.59H24.49Z"/></g></svg>