<svg xmlns="http://www.w3.org/2000/svg" viewBox="0 0 37 38"><title>radical</title><g id="radical-60" data-name="Layer 2"><path d="M21.35,36.57H17.87c.12-1,.21-2,.26-2.94s.07-1.93.07-3V21.07c-2.07,1.33-3.92,2.47-5.55,3.4S9.73,26.1,8.77,26.55a3.89,3.89,0,0,0-.54-.73c-.23-.25-.49-.51-.76-.77a10.29,10.29,0,0,0-.81-.71,8.82,8.82,0,0,0-.74-.5A20.5,20.5,0,0,0,9,22.77c1.17-.49,2.39-1.06,3.64-1.72s2.51-1.37,3.76-2.14a39.07,39.07,0,0,0,3.46-2.43q.89-.7,1.59-1.35c.47-.43.9-.86,1.29-1.28a11.85,11.85,0,0,0,1.11-1.33c.35-.47.69-1,1-1.51a15.25,15.25,0,0,0,1.39,1.16A17,17,0,0,0,28,13.26c.72.4.69.67-.07.82a1.77,1.77,0,0,0-.56.22,11.38,11.38,0,0,0-1,.68q-.7.51-1.89,1.41c-.79.6-1.81,1.4-3.07,2.39ZM25.57,4.83c.32.19.47.37.46.51s-.19.25-.54.3a6,6,0,0,0-2.16.89c-.48.29-1.06.69-1.74,1.18S20.1,8.84,19.17,9.6c-.75.59-1.54,1.2-2.39,1.83s-1.73,1.24-2.65,1.83-1.81,1.16-2.7,1.7a27.92,27.92,0,0,1-2.55,1.41,4.93,4.93,0,0,0-.52-.81,9.73,9.73,0,0,0-.7-.84L6.92,14a4.24,4.24,0,0,0-.71-.52,20.27,20.27,0,0,0,2.39-.7A17,17,0,0,0,11,11.69,30.3,30.3,0,0,0,13.74,10q1.5-1,3.5-2.66a25.72,25.72,0,0,0,3-2.8,10.76,10.76,0,0,0,1.67-2.24,19,19,0,0,0,1.63,1.26C24.23,4,24.9,4.43,25.57,4.83Z"/></g></svg>