<svg xmlns="http://www.w3.org/2000/svg" viewBox="0 0 37 38"><title>radical</title><g id="radical-75" data-name="Layer 2"><path d="M16.09,10.41c0-1.2,0-2.23,0-3.09S16,5.73,16,5.1s-.08-1.17-.15-1.62-.13-.9-.2-1.32a17.68,17.68,0,0,0,1.91.13,15,15,0,0,0,1.79,0c.37-.05.59,0,.65.18s-.08.42-.43.74a1.08,1.08,0,0,0-.33.45,1.71,1.71,0,0,0-.07.55v6.25q4.24,0,7.51-.13c2.17-.06,4.05-.14,5.66-.24v3.37c-1.43-.1-3.08-.17-4.94-.22L21.05,13a58.29,58.29,0,0,0,2.63,5.37,35.58,35.58,0,0,0,3,4.53,21.71,21.71,0,0,0,3.42,3.48A13.92,13.92,0,0,0,34,28.65q-.78.86-1.44,1.74a12,12,0,0,0-1.15,1.85,22.3,22.3,0,0,1-4.13-3.31A25,25,0,0,1,24,24.71a33.87,33.87,0,0,1-2.66-5.25A60.84,60.84,0,0,1,19.17,13V29.28q0,1.48.09,3.3c.06,1.21.15,2.43.28,3.66H15.72c.13-1.21.22-2.42.28-3.64s.09-2.33.09-3.32V13a43.54,43.54,0,0,1-2,5.46,43.55,43.55,0,0,1-2.78,5.23A45.15,45.15,0,0,1,7.9,28.51,33.55,33.55,0,0,1,4,32.58a16.78,16.78,0,0,0-1.41-1.39A15.15,15.15,0,0,0,1,30a24.48,24.48,0,0,0,3.66-3.26,47.46,47.46,0,0,0,3.63-4.33,55.63,55.63,0,0,0,3.2-4.75,41.26,41.26,0,0,0,2.39-4.53q-3.63,0-6.44.11c-1.88.05-3.54.11-5,.18V10q2.59.2,5.92.28T16.09,10.41Z"/></g></svg>