<svg xmlns="http://www.w3.org/2000/svg" viewBox="0 0 37 38"><title>radical</title><g id="radical-201" data-name="Layer 6"><path d="M20.25,17.6c2.21,0,4.09,0,5.64-.07s2.92-.12,4.12-.21c-.05.84-.1,1.8-.14,2.88s-.06,2.19,0,3.34,0,2.23.05,3.3.08,2,.13,2.9l-2.14-.09-2.49-.11c-.9,0-1.88-.06-2.93-.07s-2.23,0-3.53,0c-2.57,0-4.7,0-6.41.07s-3.21.12-4.53.22c.07-.84.12-1.8.16-2.88s0-2.2,0-3.35,0-2.28,0-3.37-.07-2-.14-2.86c1.25.1,2.62.17,4.12.22s3.35.08,5.56.1V15q-5.61,0-9.2.14c-2.38.07-4.08.14-5.09.22V12.6c.55.05,1.24.09,2.05.13l2.58.1c.9,0,1.78.06,2.66.08H13V9.54c-1.2,0-2.48,0-3.85.07s-2.58.13-3.64.25V7.16c1.06.12,2.27.21,3.64.26s2.65.07,3.85.07c0-1-.05-1.84-.09-2.41a9.08,9.08,0,0,0-.16-1.37,12.07,12.07,0,0,0,1.58.18,10.43,10.43,0,0,0,1.52,0c.26-.05.41,0,.45.13s-.05.26-.24.38a.94.94,0,0,0-.32.34,1.48,1.48,0,0,0-.11.66V7.49h7c0-1.13,0-2-.07-2.67a10.63,10.63,0,0,0-.21-1.54,9.37,9.37,0,0,0,1.58.16,11.5,11.5,0,0,0,1.51-.06c.27,0,.42,0,.45.13s0,.26-.23.38a.72.72,0,0,0-.31.36,1.87,1.87,0,0,0-.09.68V7.49l1.89,0,2,0c.66,0,1.3-.06,1.93-.11l1.69-.15v2.7L31,9.72c-.63-.05-1.27-.08-1.93-.11l-2,0-1.89,0v3.38h2.31c.84,0,1.68,0,2.52-.06s1.65-.06,2.44-.11,1.49-.09,2.09-.14v2.74q-1.62-.15-5.13-.24c-2.34-.06-5.4-.1-9.2-.12ZM17,32.15c.32.17.45.31.42.43s-.28.2-.74.25a5.15,5.15,0,0,0-.77.18c-.3.1-.89.33-1.75.69-.43.19-1,.4-1.64.64s-1.38.5-2.16.76L8,35.89c-.82.27-1.6.49-2.34.69-.22-.34-.48-.71-.79-1.1a11.69,11.69,0,0,0-1.08-1.17c1.31-.29,2.5-.59,3.56-.9a27.36,27.36,0,0,0,2.88-1,24.84,24.84,0,0,0,2.36-1.13,22.06,22.06,0,0,0,2-1.28,5.7,5.7,0,0,0,.55.61q.35.33.69.63l.66.56A3.55,3.55,0,0,0,17,32.15Zm.65-12.42h-6.8v2.7h6.8Zm0,4.71h-6.8v2.88h6.8Zm4.93-14.9h-7v3.38h7ZM20.25,22.43h6.88v-2.7H20.25Zm0,4.89h6.88V24.44H20.25Zm11.13,9.11c-.65-.36-1.37-.73-2.14-1.11s-1.59-.75-2.42-1.08-1.65-.65-2.46-.94A19.3,19.3,0,0,0,22,32.62l1.83-2.13c.8.24,1.62.51,2.47.79l2.57.87c.87.29,1.7.58,2.51.88s1.54.59,2.21.88Z"/></g></svg>