<svg xmlns="http://www.w3.org/2000/svg" viewBox="0 0 37 38"><title>radical</title><g id="radical-184" data-name="Layer 6"><path d="M16.64,11.46c-.48,1.17-1,2.34-1.6,3.49s-1.13,2.14-1.64,2.95a5.83,5.83,0,0,0-.9-1.46,10.58,10.58,0,0,0-1.11-1.17,32.06,32.06,0,0,0,3-5.88,36.6,36.6,0,0,0,1.75-6.32,11.46,11.46,0,0,0,1.22.38l1.44.36,1.19.3a2,2,0,0,1,.51.18,2.92,2.92,0,0,0-.72.8,15.48,15.48,0,0,0-.87,1.4c-.33.6-.74,1.4-1.22,2.41h3.85q1.26,0,2.16,0A12.67,12.67,0,0,0,25,8.76l-2.09,7.09-3-.4,1.23-4Zm3,22.89a11.9,11.9,0,0,0-.8.89c-.26.32-.52.69-.79,1.09q-.44-.6-1.17-1.44a11.78,11.78,0,0,0-1.46-1.4,4,4,0,0,0,.51-.52,2.58,2.58,0,0,0,.29-.51,1.89,1.89,0,0,0,.12-.61c0-.23,0-.52,0-.88V21.75c0-1.48,0-2.57,0-3.25s-.06-1.23-.1-1.64c.45.05.88.08,1.29.11s.82,0,1.23,0a3.17,3.17,0,0,0,.43,0h.43c.38,0,.58.09.58.28s-.09.24-.26.36a2,2,0,0,0-.59.69,2.06,2.06,0,0,0-.16.86V30.57c.69-.6,1.42-1.29,2.18-2.07S22.69,27,23.2,26.36a7.45,7.45,0,0,0,.55,1.75,4.56,4.56,0,0,0,.89,1.31Z"/></g></svg>