<svg xmlns="http://www.w3.org/2000/svg" viewBox="0 0 37 38"><title>radical</title><g id="Layer_2" data-name="Layer 2"><path d="M12.54,6.23A14.12,14.12,0,0,0,13.36,4a15.16,15.16,0,0,0,.4-2.17L14.82,2c.38.09.76.16,1.13.23l1,.16.78.11c.34.05.52.14.54.26s-.17.25-.54.37a1.06,1.06,0,0,0-.28.19c-.11.1-.26.26-.46.48s-.44.52-.74.9l-1.15,1.5h7c.4,0,.85,0,1.36,0l1.49,0,1.47-.08c.48,0,.9-.06,1.27-.11a22.11,22.11,0,0,0-.26,3.78v9.51a26.92,26.92,0,0,0,2.07-2.08,15.9,15.9,0,0,0,1.37-1.7,2.26,2.26,0,0,0,.43.47c.18.16.38.32.59.48s.42.31.63.44a3.3,3.3,0,0,0,.57.31q.6.3.63.45c0,.1-.12.23-.44.41a4.33,4.33,0,0,0-.76.48l-1.13.85-1.57,1.22c-.63.49-1.42,1.11-2.39,1.85v10.1A3.66,3.66,0,0,1,27.21,34a2,2,0,0,1-1,1,7.37,7.37,0,0,1-2.07.64c-.9.18-2.09.35-3.57.52a7.56,7.56,0,0,0-.5-1.92,4.42,4.42,0,0,0-1.24-1.7,14.54,14.54,0,0,0,2.64.22,7.22,7.22,0,0,0,1.71-.24,2,2,0,0,0,.92-.54,1.1,1.1,0,0,0,.28-.74V24.73c-1.75,1.26-3.59,2.44-5.51,3.56s-3.81,2.12-5.66,3.05S9.65,33.08,8,33.78,5,35,3.81,35.43A13.82,13.82,0,0,0,2.7,33.89a9.11,9.11,0,0,0-1.48-1.42,50,50,0,0,0,9.18-2.85,77.85,77.85,0,0,0,9.84-4.92q-4.36,0-7.35,0c-2,0-3.65.06-5,.1s-2.44.08-3.29.13-1.6.11-2.24.18V22c1.87.15,3.55.22,5,.22V9.75c0-.72,0-1.4-.07-2A15.7,15.7,0,0,0,7.1,6c.37,0,.79.09,1.24.11l1.43.08,1.46,0C11.71,6.23,12.15,6.23,12.54,6.23Zm11.88,5.4V8.56H10.32v3.07Zm-14.1,2.22V17h14.1V13.85Zm14.1,5.37H10.32v3.07H23.9l.26-.2.26-.21Z"/></g></svg>