<svg xmlns="http://www.w3.org/2000/svg" viewBox="0 0 37 38"><title>radical</title><g id="radical-7" data-name="radical-7"><path d="M33,29.38c-1-.08-2-.13-3.05-.17l-3.5-.11c-1.26,0-2.63-.06-4.11-.07s-3.1,0-4.88,0-3.4,0-4.88,0-2.85,0-4.11.07L5,29.21c-1.07,0-2.09.09-3,.17V25.6c1,.08,2,.13,3.05.17l3.5.11c1.26,0,2.63.06,4.11.08h9.76c1.48,0,2.85,0,4.11-.08l3.5-.11c1.07,0,2.09-.09,3.05-.17Zm-3.59-21c-1.48-.1-3.17-.16-5.07-.2s-4.22-.06-6.95-.06-5.06,0-7,.06-3.59.1-5.07.2V4.85c1.48.1,3.17.16,5.07.2s4.22.06,7,.06,5.05,0,7-.06S28,5,29.45,4.85Z"/></g></svg>
