<svg xmlns="http://www.w3.org/2000/svg" viewBox="0 0 37 38"><title>radical</title><g id="radical-186" data-name="Layer 2"><path d="M16,7.48q-3.3.3-5.83.41T5.47,8a4.68,4.68,0,0,0-.35-1.33,9.11,9.11,0,0,0-.83-1.52c.69.07,1.55.13,2.59.17s2.17,0,3.41,0,2.52-.06,3.88-.14,2.7-.22,4-.39,2.39-.3,3.31-.45S23.25,4.12,24,4s1.33-.29,1.88-.45,1.09-.33,1.61-.53c.35.59.76,1.21,1.22,1.85a17.43,17.43,0,0,0,1.08,1.37c.22.24.3.42.24.53s-.21.15-.43.1a11.94,11.94,0,0,0-1.92-.32,11.76,11.76,0,0,0-2,.06L22.11,7c-1.1.11-2.17.2-3.2.28v3.4l5,0,3.9,0c1.15,0,2.16,0,3-.07l2.46-.13v2.92c-1.48-.12-3.16-.19-5-.22s-3.94,0-6.23,0a14.34,14.34,0,0,0,5,4.17,21.71,21.71,0,0,0,7.48,2A9.71,9.71,0,0,0,33.34,21a8.75,8.75,0,0,0-.74,1.77,30.53,30.53,0,0,1-4.85-2,7.86,7.86,0,0,0-.09,1.1c0,.43,0,1,0,1.6v7.89c0,.84,0,1.62,0,2.35s.08,1.48.15,2.27H24.57V33.83H10.06v2.63H7c0-.87.08-1.65.11-2.34s0-1.45,0-2.29V23.5c0-.49,0-.91,0-1.27s0-.7,0-1q-1.82,1-4.07,2A10,10,0,0,0,1.83,21.8,8.62,8.62,0,0,0,.41,20.66c1.25-.37,2.39-.77,3.42-1.19a25,25,0,0,0,3-1.5A30.86,30.86,0,0,0,10,15.9q1.59-1.2,3.67-2.9C11.2,13,9,13,7.1,13s-3.66.14-5.21.26V10.37l2.4.13c.86,0,1.85.06,3,.07l3.79,0,4.91,0Zm0,5.92a47.11,47.11,0,0,1-4,4.2,27.53,27.53,0,0,1-4.11,3.13H16Zm8.62,9.7H10.06V26H24.57Zm0,5.36H10.06v2.89H24.57ZM18.91,13v7.7h8.58a18.78,18.78,0,0,1-8-7.7Z"/></g></svg>