<svg xmlns="http://www.w3.org/2000/svg" viewBox="0 0 37 38"><title>radical</title><g id="radical-95" data-name="Layer 2"><path d="M13.58,9.33l-4.31,0c-1.2,0-2.25,0-3.15.08s-1.69.07-2.37.11-1.32.08-1.94.13V6.15l2.54.15c.87,0,1.88.09,3,.13s2.47.06,4,.07,3.25,0,5.27,0a16.15,16.15,0,0,0-.7-2,14.36,14.36,0,0,0-1.07-2l4-.89a38.44,38.44,0,0,0,1.41,4.81q4.14,0,7.3-.09c2.11-.06,4-.16,5.61-.28V9.67c-.89-.08-1.77-.13-2.63-.17s-1.94-.07-3.22-.11-2.9-.06-4.86-.08H14.87a8.8,8.8,0,0,0,1.15.79,3.32,3.32,0,0,0,.93.39c.56.12.83.32.81.59s-.4.47-1.11.59a1.16,1.16,0,0,0-.39.19,7.92,7.92,0,0,0-.81.76c-.41.4-1,1-1.78,1.88L10.43,18l9.11-.34q1.32-1.55,2.25-2.79a20.87,20.87,0,0,0,1.59-2.42c.25.15.53.3.84.46l.9.46c.3.15.58.29.85.41s.48.21.63.26c.49.17.71.36.65.55s-.3.34-.72.41a2.64,2.64,0,0,0-.85.61c-.42.38-1,1-1.82,1.8Q20.61,20.88,17.28,24t-6.4,5.81l14-1.11c-.54-.81-1.07-1.58-1.59-2.29a25.55,25.55,0,0,0-1.63-2l3-1.81c1,1.33,2.13,2.84,3.33,4.51l3.59,5-3.4,2.11c-.57-1-1.12-2-1.67-3L12,32.68c-.94.1-1.74.19-2.41.28s-1.25.18-1.75.29-1,.23-1.33.34A8.15,8.15,0,0,0,5.4,34a11.09,11.09,0,0,0-.48-1.73,14.23,14.23,0,0,0-.81-1.85l2.77-.23c.77-.64,1.51-1.27,2.22-1.9s1.47-1.32,2.26-2.07S13,24.58,14,23.61s2.07-2.1,3.33-3.44L11,20.69c-.45,0-.94.11-1.47.19S8.51,21,8,21.15s-1,.23-1.43.36a8.44,8.44,0,0,0-1.11.37A5.79,5.79,0,0,0,5.22,20a9.25,9.25,0,0,0-.71-1.7l2.22-.07A34.29,34.29,0,0,0,10,14.55Q11.62,12.44,13.58,9.33Z"/></g></svg>