<svg xmlns="http://www.w3.org/2000/svg" viewBox="0 0 37 38"><title>radical</title><g id="radical-33" data-name="Layer 2"><path d="M15.69,16.53q-4.59,0-7.92.13t-5.85.24V13.2c1.73.13,3.69.21,5.89.26s4.82.09,7.88.11c0-1.85,0-3.43,0-4.75s0-2.44-.08-3.35-.07-1.65-.11-2.22-.08-1-.13-1.37c.55.08,1.23.14,2.06.19s1.57.07,2.24.07c.29,0,.46.06.51.19s0,.25-.25.4a1.59,1.59,0,0,0-.56.65,2.55,2.55,0,0,0-.15,1v9.21q4.64,0,8-.11c2.22-.05,4.19-.13,5.92-.26v3.7q-2.59-.18-5.92-.26t-8-.11V30c2.49,0,4.63-.06,6.4-.11s3.37-.14,4.78-.26v3.66Q28,33.11,25.07,33t-7.31-.1q-4.29,0-7.29.1c-2,.06-3.76.15-5.29.27V29.63c1.36.12,2.87.21,4.53.26s3.66.09,6,.11Z"/></g></svg>