<svg xmlns="http://www.w3.org/2000/svg" viewBox="0 0 37 38"><title>radical</title><g id="radical-41" data-name="Layer 2"><path d="M25.23,10.35c2,0,3.73,0,5.18-.11a23.33,23.33,0,0,0,3-.3v3.52c-.6-.08-1.61-.14-3.06-.19s-3.16-.07-5.16-.07V32.25a5.41,5.41,0,0,1-.16,1.46,1.62,1.62,0,0,1-.87.95,8.34,8.34,0,0,1-2.13.63c-.95.17-2.26.35-3.94.55A13,13,0,0,0,17.67,34a14.15,14.15,0,0,0-.87-2c1.23,0,2.2,0,2.92,0a7,7,0,0,0,1.61-.25,1.1,1.1,0,0,0,.68-.42,1.22,1.22,0,0,0,.15-.63V13.2H7.05l-2.32,0c-.71,0-1.35,0-1.9.08l-1.31.09V9.94c.32.05.76.1,1.33.15s1.2.09,1.9.13,1.47.07,2.3.09,1.67,0,2.53,0H22.16c0-2.2,0-4-.05-5.41S22,2.56,21.94,2c.62.1,1.22.17,1.81.21s1.16,0,1.71,0c.78,0,.87.24.25.7a1.47,1.47,0,0,0-.48,1.23ZM10.58,16.27c.94,1.23,1.85,2.56,2.74,4S15,23,15.58,24.15l-3.37,1.7a28.85,28.85,0,0,0-2-4.35,24.63,24.63,0,0,0-2.48-3.6Z"/></g></svg>