<svg xmlns="http://www.w3.org/2000/svg" viewBox="0 0 37 38"><title>radical</title><g id="radical-206" data-name="Layer 2"><path d="M13.91,37.08V28.46H9.32a9.66,9.66,0,0,1-.57,2.62,11.46,11.46,0,0,1-1.22,2.39,12,12,0,0,1-1.78,2.07,12.22,12.22,0,0,1-2.24,1.65,6.94,6.94,0,0,0-1.09-1.08,15.49,15.49,0,0,0-1.46-1A10.57,10.57,0,0,0,4.9,32.58a6.55,6.55,0,0,0,1.8-4.12c-.87,0-1.67.06-2.41.11s-1.42.11-2,.18V26c.78.1,1.65.17,2.59.22s2.08.07,3.44.07h5.62V23.05H4.37V15.14c0-1,0-2.09-.08-3.15s-.11-1.87-.18-2.44q.81.1,1.59.15c.51,0,1,0,1.51,0,.25,0,.39,0,.43.16s0,.29-.24.47a.94.94,0,0,0-.24.5,8,8,0,0,0-.06,1.23v8.88H17c0,.23-.05.5-.07.84s-.05.68-.08,1,0,.71,0,1.06,0,.66,0,1v7.51c0,.89,0,1.71.06,2.48s.09,1.52.16,2.26ZM26.9,19,25.6,19c-.44,0-1-.05-1.61-.06l-2.27,0H18.46l-3.29,0-2.28,0c-.63,0-1.16,0-1.61.07L10,19.09c.1-.74.17-1.47.2-2.2s.06-1.53.06-2.42V8.88c0-.81,0-1.61-.08-2.38S10.06,5,10,4.41c.44,0,1,.08,1.63.11l2.09.07c.75,0,1.53,0,2.35.06l2.4,0,2.48,0c.84,0,1.64,0,2.39-.06l2.07-.07c.63,0,1.13-.06,1.5-.11a39.62,39.62,0,0,0-.22,4.47v5.59c0,1.11,0,2,.05,2.68S26.82,18.45,26.9,19Zm-3-12.21H12.8V9H23.86Zm0,4H12.8V13H23.86Zm0,4H12.8V17H23.86Zm-.48,11.14h7.81c.49,0,.91,0,1.24,0l.85-.07c.23,0,.49-.06.76-.11v2.77c-.4,0-.78-.08-1.17-.09l-1.68-.06v3.37c0,1.16,0,2.2.07,3.11s.1,1.55.15,1.92H28.16a13.77,13.77,0,0,0,.16-1.9c0-.9.06-1.94.06-3.13V28.34h-5v8.55h-3c.07-.69.13-1.39.17-2.11s.05-1.59.05-2.62V24.83c0-.72,0-1.44-.05-2.16s-.1-1.34-.17-1.84h9.18v-6.1c0-.52,0-1,0-1.57s0-1.05-.06-1.54-.05-.95-.09-1.39-.07-.79-.09-1.09c.54.08,1.07.13,1.61.17a13.13,13.13,0,0,0,1.53,0c.25,0,.4,0,.46.18s0,.3-.27.45a.56.56,0,0,0-.23.4,7.36,7.36,0,0,0-.07,1.3V23.09H23.38Z"/></g></svg>