<svg xmlns="http://www.w3.org/2000/svg" viewBox="0 0 37 38"><title>radical</title><g id="radical-67" data-name="Layer 2"><path d="M16.32,7.94a25.2,25.2,0,0,0-1.85-4.59l4-.93c.1.79.25,1.68.46,2.67s.45,1.93.72,2.85c2.86,0,5.34-.07,7.42-.12s4-.13,5.64-.26v3.56c-1-.08-2.14-.13-3.33-.17l-3.92-.13A35.43,35.43,0,0,1,23,19.7a22.24,22.24,0,0,1-3.83,6,24.14,24.14,0,0,0,14.88,4.59,15.31,15.31,0,0,0-1.24,1.07,6.66,6.66,0,0,0-.85,1,6.3,6.3,0,0,0-.6,1A6.76,6.76,0,0,0,31,34.32a28.91,28.91,0,0,1-4-1A38.69,38.69,0,0,1,23,31.8c-1.24-.57-2.42-1.17-3.51-1.81a25.34,25.34,0,0,1-2.91-2,34.65,34.65,0,0,1-3,1.94c-1.11.65-2.25,1.27-3.44,1.85S7.85,32.91,6.7,33.35a23.78,23.78,0,0,1-3.15,1,4.7,4.7,0,0,0-.81-2A6.37,6.37,0,0,0,.92,30.76,29.41,29.41,0,0,0,8.23,29a25.49,25.49,0,0,0,6-3.16,18.86,18.86,0,0,1-2.4-3.37A35.77,35.77,0,0,1,10,18.63a34.17,34.17,0,0,1-1.39-4,30.86,30.86,0,0,1-.81-3.79c-1.26,0-2.44.06-3.55.11s-2.16.11-3.15.19V7.56q2.85.2,6.46.28C9.93,7.9,12.86,7.94,16.32,7.94Zm-5.41,2.84a25.45,25.45,0,0,0,.65,3.13,27.62,27.62,0,0,0,1.2,3.48,28.93,28.93,0,0,0,1.74,3.42,14,14,0,0,0,2.3,2.92,18,18,0,0,0,1.74-2.14A15,15,0,0,0,20,18.85a25.33,25.33,0,0,0,1.13-3.53,36.46,36.46,0,0,0,.77-4.54Z"/></g></svg>