<svg xmlns="http://www.w3.org/2000/svg" viewBox="0 0 37 38"><title>radical</title><g id="radical-6" data-name="radical-6"><path d="M19.31,1.63a1.33,1.33,0,0,0-.46.79,8.2,8.2,0,0,0-.17,2V25.9A48.15,48.15,0,0,1,18.5,31a2,2,0,0,1-.78,1.32,4.82,4.82,0,0,1-1.89.74c-.83.17-2,.33-3.51.48a8.48,8.48,0,0,0-.43-2,6.47,6.47,0,0,0-1.2-2.11c1.11.2,2,.32,2.59.37a2.42,2.42,0,0,0,1.39-.2,1.29,1.29,0,0,0,.57-1,20.06,20.06,0,0,0,.19-2.07V6.18c0-1.21,0-2.23-.08-3.07S15.22,1.42,15.1.55a13.7,13.7,0,0,0,2,.28,17.61,17.61,0,0,0,2,.06q.7,0,.78.18C19.88,1.22,19.71,1.41,19.31,1.63Z"/></g></svg>
