<svg xmlns="http://www.w3.org/2000/svg" viewBox="0 0 37 38"><title>radical</title><g id="radical-79" data-name="Layer 2"><path d="M9,19.62H7.29c-.52,0-1,0-1.41,0V16.77l2.61.06,2.91,0c1,0,2,0,2.95,0H20c1,0,2,0,3,0l2.9,0,2.61-.06q-1,2.37-1.9,4.18a31.17,31.17,0,0,1-1.89,3.2,19.29,19.29,0,0,1-1.92,2.42,14.45,14.45,0,0,1-2.06,1.82,24,24,0,0,0,6.13,1.74,42.09,42.09,0,0,0,7.41.48,8.13,8.13,0,0,0-1.68,2,6.53,6.53,0,0,0-.72,2.17,70,70,0,0,1-8.18-2,30.52,30.52,0,0,1-5.88-2.55,42.87,42.87,0,0,1-6,2.52,53,53,0,0,1-8.51,2,8.87,8.87,0,0,0-1-2A11.14,11.14,0,0,0,.78,31.05a44.6,44.6,0,0,0,7.36-.76,35.19,35.19,0,0,0,6.88-2,20.3,20.3,0,0,1-3.31-3.68A21.29,21.29,0,0,1,9,19.62Zm23.71-7.7a10.32,10.32,0,0,0-.37,1.76,6.25,6.25,0,0,0,0,1.5c-1.68.12-3.08.2-4.22.24a24.7,24.7,0,0,1-2.81,0,5.56,5.56,0,0,1-1.7-.35,1.83,1.83,0,0,1-.85-.65,1.93,1.93,0,0,1-.3-.9c0-.35,0-.74,0-1.19V6.56H12.88a23.19,23.19,0,0,1-.25,3.61,5.79,5.79,0,0,1-1.09,2.62,7.42,7.42,0,0,1-2.51,2,25.4,25.4,0,0,1-4.55,1.74,6,6,0,0,0-.69-1.78,6,6,0,0,0-1.2-1.48,24,24,0,0,0,4.27-.89,4.5,4.5,0,0,0,2.31-1.51A4.67,4.67,0,0,0,10,8.2a32.57,32.57,0,0,0-.24-4.45l1.07.07,1.5.06H23.2l1.51-.06,1.08-.07a27.76,27.76,0,0,0-.48,5.18c0,1,0,1.72,0,2.29A1.26,1.26,0,0,0,26,12.4a4.22,4.22,0,0,0,2.2.19C29.23,12.49,30.75,12.27,32.74,11.92ZM12.28,19.58a20.19,20.19,0,0,0,2.24,4,14.71,14.71,0,0,0,3.39,3.27,14.48,14.48,0,0,0,3.36-3.12,15.8,15.8,0,0,0,2.41-4.17H17.3C15.43,19.54,13.76,19.56,12.28,19.58Z"/></g></svg>