<svg xmlns="http://www.w3.org/2000/svg" viewBox="0 0 37 38"><title>radical</title><g id="radical-203" data-name="Layer 2"><path d="M7.55,30.64c-.13.37-.3.81-.52,1.33S6.57,33,6.31,33.56s-.53,1.07-.8,1.57-.52.94-.74,1.28L1.55,34.93a12.86,12.86,0,0,0,1.83-2.44A11.43,11.43,0,0,0,4.59,29.6Zm11.5-4.7q4.66,0,8.18-.06t6.18-.2v3q-2.85-.11-6.73-.17c-2.59,0-5.62,0-9.07,0s-6.51,0-9.08.07-4.82.11-6.72.19v-3q2.67.15,6.22.2t8.29.06V23.13q-3.71,0-6.48.05c-1.85,0-3.48.11-4.88.21V20.65c1.43.1,3.06.17,4.9.2s4,.06,6.46.06V17.84q-3.81,0-6.48.05c-1.77,0-3.37.11-4.77.21.1-.79.16-1.77.2-2.93s.06-2.37.06-3.62,0-2.47-.06-3.63S5.17,5.79,5.07,5c1.53.1,3.3.16,5.31.2s4.49.06,7.45.06,5.44,0,7.44-.06S29,5.1,30.56,5c-.1.79-.17,1.76-.2,2.92s-.06,2.37-.06,3.63c0,1.48,0,2.74.06,3.79s.1,2,.2,2.76q-2.14-.15-4.86-.21c-1.82,0-4-.05-6.65-.05v3.07q3.6,0,6.31-.06c1.82,0,3.41-.1,4.79-.2v2.74c-1.38-.1-3-.17-4.79-.21s-3.91-.05-6.31-.05ZM16.32,7.66H8.18v7.88h8.14Zm-5.15,6.55A19.75,19.75,0,0,0,10.75,12a10.84,10.84,0,0,0-.69-1.89L13,9.4c.12.57.29,1.2.5,1.89s.44,1.38.68,2.07Zm1,21.87a7.9,7.9,0,0,0,.09-2.63A10.53,10.53,0,0,0,11.69,31l3.18-.78c.17.84.34,1.74.5,2.69s.29,1.82.39,2.61Zm6.88-20.54h8.37V7.66H19.05ZM20.5,36.08a8.71,8.71,0,0,0-.11-1.26c-.08-.47-.16-.94-.26-1.42s-.21-.94-.34-1.37-.24-.82-.37-1.17l3-.63c.2.77.42,1.59.67,2.46s.49,1.71.74,2.5Zm5.44-25.72a5.08,5.08,0,0,0-.5.63,7.2,7.2,0,0,0-.43.72c-.15.29-.31.63-.5,1l-.72,1.61L21,13.4c.47-1,.82-1.75,1.07-2.37a13.79,13.79,0,0,0,.63-2Zm3.51,26a23.61,23.61,0,0,0-1.16-2.78c-.51-1-1-2-1.5-2.81l2.85-1.15c.44.82,1,1.71,1.55,2.69s1.17,1.89,1.74,2.75Z"/></g></svg>