<svg xmlns="http://www.w3.org/2000/svg" viewBox="0 0 37 38"><title>radical</title><g id="Layer_2" data-name="Layer 2"><path d="M17.43,12.92c2.46-.29,4.55-.57,6.27-.81s3.26-.51,4.64-.78l.33,3.15c-.71,0-1.46.06-2.25.11l-2.56.18-3,.28c-1.06.11-2.22.25-3.47.42V20.4l4.81-.63c1.45-.2,2.8-.39,4-.58l3.44-.53,3-.52.3,3.22c-1.9.12-4.12.33-6.66.61s-5.53.66-8.95,1.13V29a4.1,4.1,0,0,0,.13,1.17,1,1,0,0,0,.64.62,4.84,4.84,0,0,0,1.58.24c.7,0,1.67,0,2.9,0a33.4,33.4,0,0,0,3.39-.13,3.59,3.59,0,0,0,1.9-.65,3,3,0,0,0,1-1.57,27.12,27.12,0,0,0,.7-2.94,9.74,9.74,0,0,0,1.78,1.3,6.81,6.81,0,0,0,1.7.7c-.3,1-.55,1.9-.78,2.61a7.57,7.57,0,0,1-.77,1.75,3.21,3.21,0,0,1-1.09,1.08,5.45,5.45,0,0,1-1.71.55,16.26,16.26,0,0,1-2.59.22c-1,0-2.27,0-3.75,0-2,0-3.5,0-4.59,0a7.62,7.62,0,0,1-2.41-.37,1.4,1.4,0,0,1-.92-1,8.89,8.89,0,0,1-.15-1.85V23.54l-3.77.54-3.17.46L4.68,25l-2.57.45-.3-3.22c1.68-.12,3.52-.3,5.52-.52s4.35-.5,7.06-.85v-5c-2.14.27-4,.53-5.53.78s-2.94.49-4.2.74l-.33-3.11c1.35-.07,2.82-.19,4.4-.35s3.47-.38,5.66-.65V8.19c-1.8.24-3.51.45-5.12.62s-3.09.31-4.42.41a14.92,14.92,0,0,0-.61-1.59,9.17,9.17,0,0,0-.87-1.52c.66,0,1.51,0,2.55-.05S8.08,6,9.29,5.87s2.46-.19,3.75-.33,2.55-.29,3.76-.46c.81-.13,1.72-.29,2.74-.48s2-.42,3.05-.67,2-.5,2.87-.76,1.61-.5,2.18-.72c.1.22.23.49.39.8s.32.61.5.9.33.58.5.84a3.56,3.56,0,0,0,.38.53c.4.47.36.7-.11.7a15.91,15.91,0,0,0-1.9.06c-.71.06-1.66.19-2.87.39s-2.37.39-3.55.57l-3.55.54Z"/></g></svg>