<svg xmlns="http://www.w3.org/2000/svg" viewBox="0 0 37 38"><title>radical</title><g id="radical-176" data-name="Layer 2"><path d="M15.69,7.78q-4.74,0-8.18.09c-2.29.06-4.33.16-6.11.28v-3q2.93.21,6.81.29t9.33.08q5.43,0,9.27-.08t6.75-.29v3C32.67,8.08,31.73,8,30.73,8l-3.26-.11c-1.17,0-2.43-.06-3.79-.07l-4.44,0c-.17.84-.36,1.66-.56,2.46s-.42,1.62-.66,2.46c1.63,0,3.08,0,4.36,0l3.48,0c1,0,2-.06,2.8-.11L31,12.37c-.08.59-.14,1.29-.19,2.09s-.07,1.56-.07,2.27V29.94c0,.42,0,.88,0,1.37s0,1,.05,1.52.06,1,.11,1.52.1.93.15,1.33H27.75V33.79H7.1v2.29H4c.12-.86.21-1.76.26-2.7s.07-1.82.07-2.66V16.81c0-1,0-1.88-.07-2.59S4.09,12.87,4,12.33l2.49.15c.83,0,1.68.09,2.56.11l2.79.07c1,0,2.07,0,3.26,0,.17-.86.3-1.71.38-2.53S15.64,8.54,15.69,7.78ZM7.1,15.18v16h4.44v-16Zm7.14,0v3.55h6.15V15.18Zm0,9.51h6.15V21.1H14.24Zm6.15,6.47V27.09H14.24v4.07Zm7.36-16H23.2v16h4.55Z"/></g></svg>