<svg xmlns="http://www.w3.org/2000/svg" viewBox="0 0 37 38"><title>radical</title><g id="Layer_2" data-name="Layer 2"><path d="M6.92,12.81c1.85,0,3.46,0,4.83-.05s2.65-.1,3.86-.17v3.22c-1.23-.08-2.51-.14-3.84-.19s-2.95-.07-4.85-.07V29.9l8.54-3.81a13.24,13.24,0,0,0,.19,1.65A4.38,4.38,0,0,0,16,28.91L6.66,33.09a14.69,14.69,0,0,0-2.09,1.13,8.68,8.68,0,0,0-1.46,1.12,14.16,14.16,0,0,0-1-2A7.2,7.2,0,0,0,1,32a29.06,29.06,0,0,0,2.92-.82v-24c0-.81,0-1.57,0-2.27a11.51,11.51,0,0,0-.25-1.91,9.84,9.84,0,0,0,1.65.26,10.69,10.69,0,0,0,1.43,0c.54,0,.85,0,.92.13s0,.32-.29.57a1.24,1.24,0,0,0-.41,1ZM21.57,29.24a3.52,3.52,0,0,0,.11,1,.91.91,0,0,0,.5.54,3.59,3.59,0,0,0,1.18.24c.53,0,1.26.05,2.17.05a15.5,15.5,0,0,0,2-.11,2,2,0,0,0,1.26-.65,4.51,4.51,0,0,0,.87-1.64c.25-.74.53-1.78.85-3.11a8,8,0,0,0,1.57,1.4A6.11,6.11,0,0,0,34,27.8a22,22,0,0,1-1.36,3.4A5.24,5.24,0,0,1,31,33.12a5.53,5.53,0,0,1-2.46.87,28.15,28.15,0,0,1-3.81.21A24.65,24.65,0,0,1,21.29,34a3.86,3.86,0,0,1-1.87-.7,2.39,2.39,0,0,1-.79-1.5,15.68,15.68,0,0,1-.17-2.53V5c0-.54,0-1,0-1.41s0-.73-.07-1a8.62,8.62,0,0,0-.11-.87,14.81,14.81,0,0,0,2,.24A11.17,11.17,0,0,0,22,2c.32,0,.5,0,.54.11s-.07.32-.31.67a3.12,3.12,0,0,0-.52,1.14,9.79,9.79,0,0,0-.15,2v9.58c.81-.52,1.63-1.06,2.44-1.63s1.58-1.12,2.3-1.68,1.36-1.09,2-1.61,1.09-1,1.51-1.4A12,12,0,0,0,31,10.79,7.68,7.68,0,0,0,32.48,12c.47.3.35.53-.36.71a8,8,0,0,0-1.26.57c-.64.33-1.44.77-2.39,1.3s-2,1.14-3.22,1.85-2.42,1.44-3.68,2.23Z"/></g></svg>