<svg xmlns="http://www.w3.org/2000/svg" viewBox="0 0 37 38"><title>radical</title><g id="Layer_2" data-name="Layer 2"><path d="M18.72,29.82c.59-1.41,1.14-2.86,1.65-4.37s1-3,1.37-4.44.74-2.85,1-4.18.47-2.53.6-3.59c.29.15.64.3,1,.46l1.19.47c.39.14.77.27,1.14.38a7.11,7.11,0,0,0,1,.24.56.56,0,0,1,.37.21c.05.08-.06.2-.33.35a2.45,2.45,0,0,0-.74.87,16.31,16.31,0,0,0-1.11,2.35c-.44,1.08-1,2.53-1.57,4.35S23,27,22.16,29.78c1,0,2,0,3.07,0s2.09,0,3.09-.09l2.83-.11c.89,0,1.66-.08,2.3-.13V33c-.67-.08-1.38-.14-2.13-.19s-1.71-.09-2.87-.13-2.61-.06-4.36-.07-4,0-6.63,0-4.86,0-6.6,0-3.2,0-4.37.07-2.12.08-2.87.13S2.18,33,1.52,33V29.41l2.29.17c.86.06,1.79.11,2.77.14s2,.07,3.08.08l3.18,0ZM31.78,12.24c-.59-.07-1.27-.13-2.05-.18S28,12,26.9,11.93s-2.41-.06-3.91-.08l-5.19,0-5.18,0c-1.48,0-2.78,0-3.89.08s-2.05.08-2.83.13-1.46.11-2.05.18V8.69l2.07.15c.79.05,1.73.09,2.83.13S11.14,9,12.62,9l5.18,0L23,9c1.5,0,2.8,0,3.91-.07s2.05-.08,2.83-.13l2.05-.15ZM11.58,27.56a62.13,62.13,0,0,0-1.33-6.42Q9.44,18.08,8.4,15.2l3.18-1L12.43,17c.32,1,.65,2.11,1,3.22s.66,2.21,1,3.31.62,2.12.89,3.09ZM17.2,8c-.34-1.11-.68-2.08-1-2.91s-.71-1.64-1.13-2.46l3.7-1.26c.22.77.5,1.61.85,2.54a22.72,22.72,0,0,0,1.26,2.79Z"/></g></svg>