<svg xmlns="http://www.w3.org/2000/svg" viewBox="0 0 37 38"><title>radical</title><g id="radical-94" data-name="Layer 3"><path d="M17.72,13c-1.06.91-2,1.69-2.79,2.32S13.36,16.5,12.64,17a8.13,8.13,0,0,0-1-1.23,7.6,7.6,0,0,0-1.28-1c.58-.31,1.1-.61,1.58-.9s.95-.58,1.39-.88.88-.62,1.3-1,.87-.71,1.35-1.12c-.51-.57-1.06-1.14-1.66-1.71s-1.18-1.06-1.73-1.49L15,5.64c.48.45,1,1,1.53,1.54s1.05,1.14,1.53,1.7c.72-.77,1.31-1.46,1.78-2.07a18.2,18.2,0,0,0,1.31-2,18,18,0,0,0,1.64,1.23q.92.62,1.68,1.08c.19.12.27.23.25.32s-.15.16-.36.18a2.57,2.57,0,0,0-.56.2,5.65,5.65,0,0,0-.86.54c-.35.25-.78.59-1.3,1s-1.13,1-1.85,1.65a18.47,18.47,0,0,1,1.72,3.57,22.89,22.89,0,0,1,1.08,4.26A32.28,32.28,0,0,1,23,23.73,37.82,37.82,0,0,1,22.65,29,11.87,11.87,0,0,1,22,31.84a4.72,4.72,0,0,1-1.26,1.86,6.26,6.26,0,0,1-2.23,1.2,32.62,32.62,0,0,1-3.56.94,7.31,7.31,0,0,0-.31-2A9,9,0,0,0,13.72,32a18.61,18.61,0,0,0,2.77-.11,5.47,5.47,0,0,0,1.75-.49,2.15,2.15,0,0,0,1-.91A4.29,4.29,0,0,0,19.63,29a43.92,43.92,0,0,0,.46-5.21,27.5,27.5,0,0,0-.25-4.77c-1.25,1.8-2.44,3.39-3.6,4.76a43.79,43.79,0,0,1-3.34,3.56,15.68,15.68,0,0,0-1.66-2.95A21.6,21.6,0,0,0,15.15,21a33.78,33.78,0,0,0,3.9-5.22A11.93,11.93,0,0,0,17.72,13Z"/></g></svg>