<svg xmlns="http://www.w3.org/2000/svg" viewBox="0 0 37 38"><title>radical</title><g id="Layer_2" data-name="Layer 2"><path d="M9.25,35.47H5.84c.13-1,.21-2,.26-2.94s.08-1.93.08-3V21.19c-.55.61-1.09,1.22-1.65,1.81L2.92,24.74A8.1,8.1,0,0,0,.78,22a27.81,27.81,0,0,0,3.09-2.75,25.7,25.7,0,0,0,2.75-3.35c.69-1,1.28-1.92,1.78-2.72a24.39,24.39,0,0,0,1.29-2.39l.74.56q.4.3.84.57c.28.19.56.36.83.52s.5.29.7.39.48.33.46.46-.19.24-.53.32a5.62,5.62,0,0,0-1.17,1,20.92,20.92,0,0,0-2.31,2.79ZM12.1,4.32c.34.14.5.29.48.44s-.21.26-.56.33a1.71,1.71,0,0,0-.44.19,5,5,0,0,0-.65.48,11.27,11.27,0,0,0-.92.92c-.36.4-.79.89-1.28,1.48-.22.28-.53.62-.92,1s-.83.86-1.3,1.33-1,.93-1.44,1.39l-1.3,1.2a5.5,5.5,0,0,0-1-1.16,8.35,8.35,0,0,0-1.24-.91A16,16,0,0,0,4.05,8.9a25.1,25.1,0,0,0,2.2-2.66A21.33,21.33,0,0,0,7.82,4a20,20,0,0,0,1-1.85c.22.2.48.4.76.61s.58.41.89.61l.89.56A5,5,0,0,0,12.1,4.32ZM27.67,31.4a5.92,5.92,0,0,1-.24,1.81,2.24,2.24,0,0,1-1,1.22,6.41,6.41,0,0,1-2.2.73,34.82,34.82,0,0,1-3.8.35,5.31,5.31,0,0,0-.48-1.78,14.28,14.28,0,0,0-1.26-2.11,21.91,21.91,0,0,0,2.91.21,6.41,6.41,0,0,0,1.76-.23,1.64,1.64,0,0,0,.87-.55,1.4,1.4,0,0,0,.24-.8v-13c-2.35,0-4.31,0-5.89.09s-3,.14-4.21.24V14.19c.61.05,1.27.1,2,.13l2.28.1,2.68.05,3.2,0,3.13,0,2.53-.05,2.13-.1c.65,0,1.3-.08,1.94-.13V17.6c-1-.1-1.94-.17-3-.2s-2.2-.07-3.59-.1ZM31.86,8.09c-.94-.12-2-.21-3.26-.26s-2.7-.07-4.4-.07-3.18,0-4.42.07-2.34.14-3.28.26V4.69c.94.12,2,.2,3.28.24S22.5,5,24.2,5s3.17,0,4.4-.05,2.32-.12,3.26-.24Z"/></g></svg>