<svg xmlns="http://www.w3.org/2000/svg" viewBox="0 0 37 38"><title>radical</title><g id="radical-109" data-name="Layer 2"><path d="M9.51,33.93H6.1a26.47,26.47,0,0,0,.24-2.7c0-.86.06-1.85.06-3V7.92c0-.32,0-.68,0-1.07s0-.8,0-1.21-.06-.8-.1-1.18-.08-.72-.13-1q.68.08,1.8.15c.75.05,1.61.09,2.57.13s2,.07,3.15.09,2.3,0,3.51,0,2.43,0,3.66,0,2.39-.06,3.46-.11l2.85-.13c.83,0,1.43-.08,1.8-.13q-.12.78-.21,2c-.06.84-.09,1.65-.09,2.44V28.19c0,1.11,0,2.1.06,3a26.41,26.41,0,0,0,.24,2.71H25.46V31H9.51Zm16-27.38H9.51v5.51h16ZM9.51,20.31h16V14.65H9.51Zm0,8.14h16V22.9H9.51Z"/></g></svg>