<svg xmlns="http://www.w3.org/2000/svg" viewBox="0 0 37 38"><title>radical</title><g id="radical-77" data-name="Layer 2"><path d="M20.31,13l4.2,0c1.15,0,2.12,0,2.92-.08s1.48-.07,2-.11a14.6,14.6,0,0,0,1.48-.16V16.1c-.42,0-.9-.06-1.44-.11s-1.22-.08-2-.11l-3-.07c-1.16,0-2.55,0-4.18,0V30.05q4.74,0,8.16-.13c2.28-.08,4.09-.19,5.42-.31v3.85c-.69-.05-1.51-.1-2.46-.13s-2.08-.08-3.4-.11-2.85-.07-4.59-.1-3.76,0-6.05,0-4.37,0-6.09,0-3.2,0-4.47.07l-3.28.11c-.91,0-1.74.09-2.48.17V29.61c1,.12,1.94.21,2.93.26S5.92,30,6.81,30V14.36a26.68,26.68,0,0,0-.34-4.84c.28.05.59.08,1,.11l1.11,0,1.09,0,.85,0c.3,0,.46.07.5.22s-.08.29-.35.41a.82.82,0,0,0-.41.48,2.57,2.57,0,0,0-.11.78V30.05H17V9.52c0-1.53,0-2.8-.13-3.79A23.67,23.67,0,0,0,16.5,3c.32.05.69.09,1.09.13s.82.06,1.24.07l1.24,0c.41,0,.76,0,1.06,0s.53,0,.57.22-.12.35-.46.52a1.41,1.41,0,0,0-.67.74,2.79,2.79,0,0,0-.26,1.18Z"/></g></svg>