<svg xmlns="http://www.w3.org/2000/svg" viewBox="0 0 37 38"><title>radical</title><g id="radical-199" data-name="Layer 6"><path d="M16.56,9.05c-1.41,0-2.7,0-3.85,0l-3.13,0c-.94,0-1.8.05-2.57.09s-1.51.09-2.18.16V6.46c.69.07,1.43.12,2.21.16l2.56.09,3.09,0c1.14,0,2.42,0,3.84,0,0-.81-.06-1.55-.11-2.21a7,7,0,0,0-.22-1.46c.6.05,1.19.08,1.77.11a13.53,13.53,0,0,0,1.69,0q1.18-.08.36.54a.68.68,0,0,0-.2.34c-.06.18-.11.38-.16.6s-.09.43-.13.66a4.59,4.59,0,0,0-.05.52v.94c1.58,0,3,0,4.21,0l3.26,0c.95,0,1.79-.06,2.54-.11l2.05-.14V9.37c-.67,0-1.39-.09-2.14-.12s-1.6-.07-2.54-.09l-3.2-.08c-1.2,0-2.6,0-4.18,0v2.81l3.8,0q1.63,0,2.91-.06c.85,0,1.61-.06,2.25-.1l1.8-.15v2.92l-1.89-.13-2.25-.09-2.88-.07c-1.08,0-2.32,0-3.74,0V17h5c1.45,0,2.74,0,3.88-.06s2.15-.06,3-.11,1.68-.09,2.43-.14V19.6l-2.74-.15c-.93-.05-2-.08-3.29-.11l-4.45-.05-6.12,0c-.29.43-.57.86-.86,1.26s-.6.82-.94,1.23h14c-.63,1.08-1.21,2-1.75,2.86A26.65,26.65,0,0,1,26,26.89a21.42,21.42,0,0,1-1.78,1.89,21.41,21.41,0,0,1-2.13,1.69,18.28,18.28,0,0,0,5,1.19,41.72,41.72,0,0,0,6.44.1,9.28,9.28,0,0,0-1,3.5c-1.68-.15-3.19-.32-4.54-.53s-2.55-.43-3.61-.68a21.7,21.7,0,0,1-2.85-.85,16.37,16.37,0,0,1-2.21-1c-.77.36-1.65.72-2.63,1.08s-2,.7-3.17,1-2.32.61-3.56.87-2.51.46-3.78.63a8.78,8.78,0,0,0-.79-1.39A13.69,13.69,0,0,0,4.18,33a28,28,0,0,0,3.08-.27c1.11-.16,2.25-.35,3.4-.58s2.27-.48,3.35-.77a27,27,0,0,0,2.91-.94A33,33,0,0,1,14,27.7a17.78,17.78,0,0,1-1.89-2.38,28.82,28.82,0,0,1-5.55,4,7.36,7.36,0,0,0-1-1.1,7.44,7.44,0,0,0-1.33-.84,21.81,21.81,0,0,0,5.2-3.24A31.79,31.79,0,0,0,14,19.27c-2.64,0-4.86.06-6.66.11S4,19.5,2.63,19.6V16.68q1.23.11,2.61.18c.93.05,1.94.08,3,.09L12,17h4.59V14.13H13.34q-1.42,0-2.61.06c-.79,0-1.52.06-2.18.1l-1.85.15V11.53c.6.07,1.23.13,1.89.16s1.39.07,2.18.09,1.65.05,2.59.06l3.2,0Zm3,20.09a18,18,0,0,0,2.91-2.33A13.65,13.65,0,0,0,24.56,24H14.22a25.72,25.72,0,0,0,2.6,3A19,19,0,0,0,19.52,29.14Z"/></g></svg>