<svg xmlns="http://www.w3.org/2000/svg" viewBox="0 0 37 38"><title>radical</title><g id="radical-150" data-name="Layer 2"><path d="M17.61,12.49a13.84,13.84,0,0,1-2.07,2.43,34.32,34.32,0,0,1-3.28,2.73A47.64,47.64,0,0,1,7.94,20.5q-2.43,1.42-5.28,2.76c-.12-.2-.28-.43-.48-.7s-.42-.55-.66-.84S1,21.16.74,20.89A5.48,5.48,0,0,0,0,20.23a19.9,19.9,0,0,0,5.4-1.78,27.64,27.64,0,0,0,4.83-3A25.32,25.32,0,0,0,14,11.81a18,18,0,0,0,2.5-3.72,14.37,14.37,0,0,0,1.87,1A7,7,0,0,0,20,9.68c.27.05.42.15.46.3s-.14.29-.54.44l-.2.11-.28.15A18.41,18.41,0,0,0,22.55,14a19.32,19.32,0,0,0,3.57,2.35A22.49,22.49,0,0,0,30.26,18a39.91,39.91,0,0,0,4.78,1,11.33,11.33,0,0,0-1.15,1.87,13.56,13.56,0,0,0-.78,1.94,38.13,38.13,0,0,1-4.82-1.85A32.49,32.49,0,0,1,24,18.5a25.9,25.9,0,0,1-3.62-2.83A17.82,17.82,0,0,1,17.61,12.49ZM15.39,4.76c.22,0,.31.17.26.35s-.22.33-.52.43a2.81,2.81,0,0,0-.76.44c-.33.25-.83.67-1.49,1.26S11.35,8.65,10.29,9.7s-2.41,2.4-4,4.05A4.79,4.79,0,0,0,5.6,13a7.13,7.13,0,0,0-.83-.7,8.06,8.06,0,0,0-.89-.59,3.51,3.51,0,0,0-.77-.37A18.82,18.82,0,0,0,5.88,9.53,29.34,29.34,0,0,0,8.45,7.28,30.21,30.21,0,0,0,10.6,4.93a19.56,19.56,0,0,0,1.5-2.09A10.74,10.74,0,0,0,14,4.13,6.51,6.51,0,0,0,15.39,4.76ZM10.88,35.84H7.55c.12-.86.21-1.67.26-2.41s.07-1.52.07-2.36V21.26H27.23c-.05.37-.09.78-.11,1.24s0,.93,0,1.43V31c0,.84,0,1.56.08,2.15s.13,1.28.26,2.07H24V33H10.88ZM24,23.78H10.88V30.4H24Zm5.55-11.44a46.44,46.44,0,0,0-4.2-3.83,32.42,32.42,0,0,0-4.35-3l2.08-2.37c.88.57,1.71,1.11,2.48,1.63s1.51,1,2.23,1.55L30,7.94c.74.54,1.51,1.14,2.33,1.78Z"/></g></svg>