<svg xmlns="http://www.w3.org/2000/svg" viewBox="0 0 37 38"><title>radical</title><g id="radical-128" data-name="Layer 2"><path d="M26.79,26l3.27-.28c1.1-.09,2.24-.19,3.42-.31a6.9,6.9,0,0,0-.27,1.33,8.67,8.67,0,0,0-.06,1.52l-3.27.2-3.09.2c0,1,.06,2.15.11,3.35s.11,2.39.18,3.57H23.35c0-1.13.09-2.28.13-3.44s.05-2.24.05-3.26l-8.32.61L9.08,30c-1.71.15-3.14.29-4.27.41l-2.74.33a9.74,9.74,0,0,0-.17-1.83,9.75,9.75,0,0,0-.42-1.64q3,0,6.62-.11V7.54c-.42,0-.81,0-1.18,0l-1.17.07-1.33.1L2.7,7.88V4.58c.54,0,1,.09,1.54.11l1.55.08,1.83.05,2.39,0,3.25,0h4.42l6,0q2.36,0,4-.06c1.07,0,2,0,2.74-.09l2.31-.13v3.3c-1.31-.13-2.42-.21-3.33-.26s-1.76-.08-2.55-.08ZM11.25,7.54V12.2H23.53V7.54Zm12.28,7.11H11.25v4.84H23.53ZM11.25,27,17,26.65c2-.11,4.2-.25,6.49-.42V21.94H11.25Z"/></g></svg>