<svg xmlns="http://www.w3.org/2000/svg" viewBox="0 0 37 38"><title>radical</title><g id="radical-68" data-name="Layer 2"><path d="M25.16,27.77c0,.81,0,1.58,0,2.31s0,1.44.07,2.13.08,1.39.11,2.11.1,1.48.17,2.29h-4c.07-.81.14-1.58.18-2.29s.08-1.42.1-2.11,0-1.4,0-2.13,0-1.5,0-2.31V24.62l-5.71.63c-1.92.22-3.75.44-5.52.67s-3.41.45-4.94.68l-4,.61V23.59c1.21-.05,2.59-.13,4.16-.23s3.22-.22,5-.38,3.56-.34,5.44-.54,3.73-.41,5.58-.63V8.53c0-1.61,0-2.9-.09-3.89a10.55,10.55,0,0,0-.39-2.44,14.63,14.63,0,0,0,1.89.2c.69,0,1.4.06,2.15.06.44,0,.69.07.75.22s-.1.32-.5.52a.93.93,0,0,0-.44.44,2,2,0,0,0-.11.71v17c1.68-.19,3.16-.39,4.46-.57s2.5-.38,3.6-.57V23.7c-1.15.05-2.38.11-3.68.2s-2.75.22-4.38.39ZM12.91,20.63c-.52-.52-1.11-1.06-1.77-1.63s-1.35-1.12-2.06-1.65-1.41-1-2.12-1.5S5.59,15,5,14.63L7.1,12.15q1.89,1.08,4,2.59t4.14,3.15Zm3.44-7.37c-.37-.37-.85-.82-1.46-1.35S13.64,10.83,13,10.27s-1.39-1.12-2.09-1.65S9.53,7.64,9,7.27L11.25,5l1.68,1.14L15,7.58c.71.51,1.38,1,2,1.5s1.19.91,1.61,1.26Z"/></g></svg>