<svg xmlns="http://www.w3.org/2000/svg" viewBox="0 0 37 38"><title>radical</title><g id="radical-193" data-name="Layer 6"><path d="M17.43,8.42c-1.7,0-3.25,0-4.64,0L9,8.49c-1.17,0-2.25.06-3.24.11l-2.83.14V5.68c.94.07,1.89.13,2.88.16L9,6c1.17,0,2.44.06,3.82.07s2.92,0,4.62,0,3.23,0,4.63,0S24.75,6,25.93,6l3.26-.11c1,0,1.93-.09,2.82-.16v3l-2.82-.09c-1,0-2.09-.06-3.26-.07l-3.87,0C20.66,8.42,19.11,8.42,17.43,8.42ZM4.19,23.29a13.07,13.07,0,0,0-.29-3.06c1.15.07,2.22.12,3.22.16l3,.11c1,0,2,.06,3.06.07l3.44,0q4.35,0,8-.11T31,20.19a10.46,10.46,0,0,0-.25,1.39,15.48,15.48,0,0,0-.07,1.67V33.51A7.55,7.55,0,0,1,30.52,35a1.45,1.45,0,0,1-.68.94,5.15,5.15,0,0,1-1.72.59c-.76.16-1.82.31-3.16.45a5.52,5.52,0,0,0-.34-1.69,8.5,8.5,0,0,0-1.1-1.84,22.06,22.06,0,0,0,2.23.15A3.43,3.43,0,0,0,27,33.44a.94.94,0,0,0,.56-.56,3.34,3.34,0,0,0,.12-1v-9H7.1V36.14H3.9c.12-1,.2-1.82.23-2.43s.06-1.23.06-1.86Zm13.24-12.5h3.51c1,0,2,0,2.87-.08l2.39-.1c.73,0,1.42-.09,2.07-.17A13.53,13.53,0,0,0,28,12.2c-.06.69-.09,1.43-.09,2.19s0,1.55.09,2.25a17.47,17.47,0,0,0,.23,1.89L26,18.39c-.76-.05-1.55-.08-2.38-.11l-2.73-.05-3.41,0q-3.78,0-6.3.07c-1.68,0-3.16.12-4.46.22A22.26,22.26,0,0,0,7,14.39c0-.76,0-1.5-.07-2.19a10.58,10.58,0,0,0-.25-1.77c1.25.12,2.72.21,4.43.27S14.91,10.79,17.43,10.79ZM18.12,28a10.55,10.55,0,0,0,1.2-2.16,17.8,17.8,0,0,0,.85-2.45c.81.27,1.5.48,2,.63a9,9,0,0,0,1.51.31c.24.05.36.11.35.18s-.22.17-.6.29a2,2,0,0,0-.38.2,3.17,3.17,0,0,0-.54.48c-.23.24-.51.56-.86,1s-.79.91-1.31,1.56l2.08-.07L24,27.86l1.13-.07c.32,0,.67-.06,1-.11v2.91c-.85-.09-1.88-.18-3.1-.25s-2.65-.12-4.28-.14v2.12c0,.63,0,1.16,0,1.6s.06,1,.11,1.61H15.78c.09-.63.15-1.17.18-1.64s0-1,0-1.57V30.2c-1.6,0-3,.06-4.12.11s-2.22.13-3.26.25V27.68c1.28.12,2.65.2,4.13.25S16,28,18.12,28ZM9.77,16H25.14V13H9.77Zm4.06,7.46c.27.43.57.91.92,1.45s.69,1,1,1.5l-2.7,1.15c-.22-.43-.47-.9-.76-1.4s-.59-1-.9-1.44Z"/></g></svg>