<svg xmlns="http://www.w3.org/2000/svg" viewBox="0 0 37 38"><title>radical</title><g id="Layer_2" data-name="Layer 2"><path d="M15.72,17.16a35.67,35.67,0,0,1-1.92,4.48,26.58,26.58,0,0,1-2.37,3.77,29.2,29.2,0,0,1-3,3.43,46.47,46.47,0,0,1-3.92,3.34,8.64,8.64,0,0,0-1.23-1.44,7.78,7.78,0,0,0-1.7-1.18c1.56-1,2.9-2,4-2.87a30.67,30.67,0,0,0,3.05-2.76,26.39,26.39,0,0,0,2.51-3q1.17-1.63,2.43-3.7c-2.39,0-4.49.07-6.29.13s-3.44.14-4.92.24V14.24c1.72.12,3.68.21,5.86.26s4.78.08,7.79.11V9.72c0-1,0-1.94,0-2.71S16,5.55,16,5s-.06-1.09-.1-1.53-.08-.88-.13-1.3c.65.07,1.24.12,1.8.15s1.11,0,1.68,0c.37,0,.59,0,.65.18s-.08.39-.43.71a1,1,0,0,0-.33.44,1.78,1.78,0,0,0-.07.56V14.61q4.77,0,8.16-.09c2.25-.06,4.27-.16,6-.28v3.33c-1.56-.12-3.28-.21-5.17-.26s-4.1-.09-6.64-.11A30.21,30.21,0,0,0,23.53,21,13.88,13.88,0,0,0,26,23.79a15.09,15.09,0,0,0,3.18,2.05,28.24,28.24,0,0,0,4.28,1.61,10,10,0,0,0-1.32,2.05,7.09,7.09,0,0,0-.61,1.83,21.83,21.83,0,0,1-4.29-2.22,15.88,15.88,0,0,1-3.27-3,18.61,18.61,0,0,1-2.5-3.9,34.56,34.56,0,0,1-2-5.09H19V28c0,1.31,0,2.48,0,3.52s.09,2.14.19,3.33H15.8c.07-1.19.13-2.3.16-3.35S16,29.29,16,28V17.16ZM9.8,13.54A19.25,19.25,0,0,0,9,11.67q-.48-1-1-2C7.55,9,7.15,8.39,6.71,7.78S5.86,6.63,5.44,6.14L8.58,4.62c.35.52.72,1.09,1.11,1.72s.79,1.27,1.17,1.92.75,1.3,1.11,2,.68,1.23,1,1.77ZM29.71,6.65a3.79,3.79,0,0,0-.76.63c-.28.3-.64.72-1.07,1.26s-1,1.25-1.59,2.11S24.9,12.59,24,13.87a5.29,5.29,0,0,0-1.16-.72,6.86,6.86,0,0,0-1.47-.54,19.8,19.8,0,0,0,2.56-3.83,28.24,28.24,0,0,0,1.85-4.42,16.58,16.58,0,0,0,1.94.94A14.72,14.72,0,0,0,29.56,6C30.15,6.15,30.2,6.38,29.71,6.65Z"/></g></svg>