<svg xmlns="http://www.w3.org/2000/svg" viewBox="0 0 37 38"><title>radical</title><g id="radical-18" data-name="Layer 3"><path d="M15.4,8.92A2.22,2.22,0,0,0,15.08,10c-.05.49-.07,1.19-.07,2.1V21.7c0,.68,0,1.4.05,2.18s.1,1.65.2,2.61H11.77c.09-1,.16-1.85.2-2.61s0-1.48,0-2.18V13.93c0-1.35,0-2.5-.09-3.48a17.13,17.13,0,0,0-.27-2.32,10.34,10.34,0,0,0,1.66.22,9.06,9.06,0,0,0,1.58-.07c.43-.08.68-.06.76,0S15.64,8.61,15.4,8.92ZM23.11,4.1a1.32,1.32,0,0,0-.36,1.08V31.32A8.08,8.08,0,0,1,22.6,33a1.87,1.87,0,0,1-.73,1.13,5.28,5.28,0,0,1-1.77.76,30.23,30.23,0,0,1-3.22.59,6.18,6.18,0,0,0-.45-1.85,9,9,0,0,0-1.2-2c1,.12,1.78.19,2.39.2a4.75,4.75,0,0,0,1.4-.13,1,1,0,0,0,.65-.47,1.88,1.88,0,0,0,.16-.86V9.07c0-.65,0-1.23,0-1.75s0-1-.08-1.46-.08-.9-.14-1.33-.13-.9-.2-1.4a13.38,13.38,0,0,0,3.42.21c.41,0,.63,0,.67.18S23.4,3.86,23.11,4.1Z"/></g></svg>