<svg xmlns="http://www.w3.org/2000/svg" viewBox="0 0 37 38"><title>radical</title><g id="radical-192" data-name="Layer 2"><path d="M31.45,7.25a1,1,0,0,0-.32.37,3,3,0,0,0-.2.73,10.34,10.34,0,0,0-.11,1.2c0,.49,0,1.11,0,1.85v5.81c0,1.16,0,2.11,0,2.85s.06,1.44.11,2.11c-.27,0-.6-.05-1-.06l-2,0H10.65l-3.9,0c-1,0-1.71,0-2.2,0l-1.41.05c.08-.64.13-1.31.17-2s.06-1.66.06-2.87V9.44c0-.54,0-1,0-1.33s-.05-.65-.08-.89a7.69,7.69,0,0,0-.11-.78c.84.15,1.51.25,2,.31a5.66,5.66,0,0,0,1.42,0c.35,0,.55,0,.6.08s0,.22-.3.37a1.1,1.1,0,0,0-.35.39,2.26,2.26,0,0,0-.2.72,11.28,11.28,0,0,0-.1,1.24c0,.5,0,1.14,0,1.9v8.22H27.82V11.47c0-1.13,0-2.1-.05-2.9s-.08-1.5-.13-2.09c.79.15,1.46.25,2,.31a6.92,6.92,0,0,0,1.5,0q.53,0,.6.09C31.79,7,31.7,7.11,31.45,7.25ZM10,32.23a1.87,1.87,0,0,0,.18.87,1.52,1.52,0,0,0,1,.55,13.45,13.45,0,0,0,2.5.28c1.12,0,2.68.08,4.68.08s3.49,0,4.63-.12a7.49,7.49,0,0,0,2.68-.57A3.33,3.33,0,0,0,27.16,32a13.57,13.57,0,0,0,1-2.53,8.19,8.19,0,0,0,1.63.77,7.89,7.89,0,0,0,1.63.37c-.37,1-.71,1.78-1,2.45a6.21,6.21,0,0,1-1.09,1.66,4.59,4.59,0,0,1-1.5,1.06,8.08,8.08,0,0,1-2.24.57,29.22,29.22,0,0,1-3.33.22c-1.3,0-2.88,0-4.73,0-2.57,0-4.55-.05-6-.15a10.73,10.73,0,0,1-3.13-.57,1.89,1.89,0,0,1-1.22-1.22A9.25,9.25,0,0,1,7,32.49V26c0-.52,0-1,0-1.35s0-.72-.07-1,0-.56-.08-.84a16.87,16.87,0,0,0,1.89.28,8.19,8.19,0,0,0,1.63,0c.34,0,.54,0,.57.11s0,.21-.28.34c-.39.22-.61,1.61-.66,4.18a103.25,103.25,0,0,0,11.28-2.17,39,39,0,0,0,6.15-2,10.74,10.74,0,0,0,1.81,2.81c.22.17.29.32.22.44s-.3.17-.66.15a14.3,14.3,0,0,0-2.34.13c-.88.11-2,.3-3.25.57-.94.2-1.94.4-3,.59l-3.33.61-3.48.63L10,30.08ZM19.2,11.55c1.31,1,2.55,1.89,3.74,2.79S25.15,16,26,16.69c-.39.3-.77.6-1.13.92l-1,.93c-.37-.39-.75-.79-1.16-1.18s-.87-.82-1.37-1.26l-1.68-1.46c-.62-.53-1.34-1.13-2.15-1.8-1.41,1.06-2.79,2-4.14,2.92S10.79,17.38,9.73,18A6.46,6.46,0,0,0,8.86,17a10,10,0,0,0-1.17-.85C8.36,16,9,15.7,9.62,15.43s1.25-.58,1.9-.94,1.34-.78,2.06-1.26,1.49-1,2.33-1.68q-2-1.56-3.78-2.85A36,36,0,0,0,9,6.63a7.35,7.35,0,0,0,.81-.71,6.53,6.53,0,0,0,.74-.85l3.08,2.3,3.88,2.88c.76-.61,1.44-1.18,2-1.68s1.13-1,1.62-1.5,1-1,1.45-1.54,1-1.11,1.51-1.75c.37.34.76.67,1.15,1a4.32,4.32,0,0,0,.85.57c.27.12.42.26.44.41s-.09.26-.37.33-.46.15-.66.22a3.52,3.52,0,0,0-.65.35,10,10,0,0,0-.81.65c-.31.27-.69.62-1.13,1s-1.17,1.05-1.8,1.59S19.87,11,19.2,11.55Zm-10.36,2a10,10,0,0,0,0-2.2,8.13,8.13,0,0,0-.4-1.72l2.44-.22A12.71,12.71,0,0,0,11,11.2c.08.62.2,1.31.35,2.05ZM16,8.07a18.88,18.88,0,0,0-.18-2.31,7.9,7.9,0,0,0-.37-1.61L18.06,4a8.9,8.9,0,0,0,.09,1.74,21.59,21.59,0,0,0,.42,2.18Zm.08,10.51A13.5,13.5,0,0,0,16,16.82a7.27,7.27,0,0,0-.41-1.57L18.2,15a11.48,11.48,0,0,0,.28,1.6c.14.56.29,1.11.46,1.62Zm7.66-5.29c0-.77-.08-1.41-.15-1.93A13.27,13.27,0,0,0,23.2,9.7l2.22-.37c.1.71.2,1.34.31,1.88a19.39,19.39,0,0,0,.5,1.89Z"/></g></svg>