<svg xmlns="http://www.w3.org/2000/svg" viewBox="0 0 37 38"><title>radical</title><g id="radical-104" data-name="Layer 2"><path d="M8.18,17.21c0-.67,0-1.45,0-2.35S8.12,13,8.08,12s-.08-2-.13-3-.1-2-.14-2.94c.46,0,1,.09,1.7.14S11,6.34,12,6.36s2.11,0,3.46.06l4.79,0c-.2-.82-.42-1.63-.66-2.44s-.47-1.5-.67-2l3.51-.48c.13.64.28,1.41.45,2.29s.33,1.78.48,2.67c1.5,0,2.81,0,3.92,0l2.89-.07,2.07-.09c.57,0,1.07-.08,1.52-.13v3.1c-.47-.05-1-.09-1.67-.13L29.6,9,26,8.94c-1.42,0-3.15,0-5.2,0H10.88q.07,3.91.09,6.84c0,2,0,3.67-.09,5.15s-.2,2.8-.37,3.95a22,22,0,0,1-.74,3.26,22.58,22.58,0,0,1-1.22,3c-.5,1-1.09,2.13-1.78,3.33a6.83,6.83,0,0,0-1.39-.88,18.39,18.39,0,0,0-1.87-.78A21.16,21.16,0,0,0,5.44,30.3a13.27,13.27,0,0,0,1.35-2.75,19.72,19.72,0,0,0,.85-3.35,40.93,40.93,0,0,0,.46-4.33C7,20.56,6,21.21,5.1,21.81S3.39,23,2.63,23.64q-.3-1-.63-1.83a15,15,0,0,0-.74-1.61c1.11-.39,2.3-.86,3.59-1.4S7.24,17.72,8.18,17.21ZM3,15.65c0-1.21.06-2.3,0-3.27s-.1-2-.23-3L5.44,9c.1,1.06.17,2.09.22,3.09s.1,2.06.15,3.2Z"/></g></svg>