<svg xmlns="http://www.w3.org/2000/svg" viewBox="0 0 37 38"><title>radical</title><g id="radical-139" data-name="Layer 2"><path d="M5.14,13.27c-.27.2-.53.37-.77.52a6.64,6.64,0,0,0-.78.55,5.22,5.22,0,0,0-2.22-2.7,27.78,27.78,0,0,0,3.57-1.9,26.64,26.64,0,0,0,3.2-2.39,21.22,21.22,0,0,0,2.64-2.74,14.71,14.71,0,0,0,1.91-3,11,11,0,0,0,2,.65,8.82,8.82,0,0,0,1.92.24c.27,0,.42.12.44.35s-.16.42-.55.54a3.57,3.57,0,0,0-.46.2,3.06,3.06,0,0,0-.52.36c-.19.14-.41.34-.67.57s-.56.52-.91.87h7.33l2,0,1.92,0,1.61,0c.48,0,.86,0,1.13-.08l-6.92,7.92L26.18,13c1.41-.05,2.59-.12,3.53-.22-.15,1.9-.22,3.79-.22,5.66,0,1.29,0,2.43,0,3.42s.1,2,.2,3.06c-.52-.08-1.1-.13-1.76-.17s-1.4-.07-2.25-.09-1.82,0-2.89-.06l-3.68,0H8.32v2.89a14.94,14.94,0,0,0,.12,2.13,2,2,0,0,0,.61,1.26,3.08,3.08,0,0,0,1.51.66,22.15,22.15,0,0,0,2.8.32c.66.05,1.54.07,2.62.07s2.25,0,3.48-.05,2.46-.1,3.68-.17,2.3-.17,3.24-.3A8.34,8.34,0,0,0,28.1,31a2.85,2.85,0,0,0,1.13-.65,2.8,2.8,0,0,0,.68-1.13,10.89,10.89,0,0,0,.43-1.85,5.82,5.82,0,0,0,1.59,1.17,7.37,7.37,0,0,0,1.67.61,20.28,20.28,0,0,1-.8,2.24,4.54,4.54,0,0,1-1,1.42,3.61,3.61,0,0,1-1.46.83,12,12,0,0,1-2.22.43c-.67.07-1.45.15-2.35.22s-1.85.13-2.85.17l-3.07.11c-1.05,0-2.07.06-3.06.07s-1.91,0-2.77,0-1.59,0-2.18-.09a25,25,0,0,1-3.52-.37,3.89,3.89,0,0,1-2-.89,3,3,0,0,1-.85-1.72,18.58,18.58,0,0,1-.19-2.94V17.12A28.69,28.69,0,0,0,5.14,13.27Zm6.44-5.4L10.16,9.2c-.51.47-1,.94-1.6,1.41S7.45,11.52,6.9,12s-1.09.83-1.61,1.2l12.32,0,4.48-5.25Zm4.51,7.84H8.32v6.22h7.77Zm2.85,6.22h7.55V15.71H18.94Z"/></g></svg>