<svg xmlns="http://www.w3.org/2000/svg" viewBox="0 0 37 38"><title>radical</title><g id="Layer_2" data-name="Layer 2"><path d="M5.88,5.18c-.34.25-.52,1.25-.52,3v21.9c0,.42,0,.91,0,1.46s0,1.14.06,1.74.06,1.21.11,1.8.1,1.15.15,1.66H2.26c.05-.44.09-1,.13-1.55s.07-1.2.11-1.81.06-1.22.07-1.8,0-1.08,0-1.5V10c0-.93,0-1.72,0-2.35s0-1.15,0-1.57a9,9,0,0,0-.12-1,4.75,4.75,0,0,0-.18-.68c.66.07,1.25.12,1.76.13a15.82,15.82,0,0,0,1.64-.06c.4-.05.62,0,.67.19S6.2,5,5.88,5.18Zm4.18,3.11-2,.07-1.59.12V5.74l1.08.13c.32,0,.66.07,1,.09s.78,0,1.26,0H13.1c.42,0,.8,0,1.14,0s.68-.06,1-.09l1.08-.13V8.48l-1-.08-.85-.07a7.75,7.75,0,0,0-.84,0h-1V12h1l.8-.06.72-.07.79-.12v2.74l-.79-.11-.72-.07a6.8,6.8,0,0,0-.8,0h-1v4.22h1a7.75,7.75,0,0,0,.84,0l.85-.05c.29,0,.63-.05,1-.1V20.8l-1.17-.08-1-.07c-.33,0-.7,0-1.11,0H9.79c-.49,0-.91,0-1.26,0l-1,.07L6.4,20.8V18.24l.89.08.81.05.87,0,1.09,0V14.21H8.93a7.1,7.1,0,0,0-.83,0l-.72.07-.83.11V11.69l.74.13.72.1c.26,0,.55,0,.89,0h1.16Zm11.29,0-1.89.07-1.66.12V5.74l1.09.13c.33,0,.69.07,1.07.09s.82,0,1.31,0h3.28c.41,0,.79,0,1.15,0s.7-.06,1.05-.09l1.18-.13V8.48L26.88,8.4,26,8.33a9,9,0,0,0-.92,0H24V12l1.81-.07c.49,0,1-.06,1.55-.11v2.55c-.54,0-1.06-.09-1.55-.11L24,14.17v4.18h1.86l.87-.06c.3,0,.63-.06,1-.11V20.8l-1.2-.08-1-.07c-.33,0-.7,0-1.09,0H21.24c-.47,0-.89,0-1.26,0l-1.06.07-1.12.08V18.17c.61,0,1.16.09,1.64.11s1.12,0,1.91.07V14.17l-1.8.08c-.48,0-1,.06-1.53.11V11.81c.54,0,1.05.08,1.53.11l1.8.07Zm11-3a1.25,1.25,0,0,0-.52,1.15v26a8.26,8.26,0,0,1-.19,1.94,2.24,2.24,0,0,1-.81,1.3,4.71,4.71,0,0,1-1.81.78,22.55,22.55,0,0,1-3.18.42c0-.47,0-.87,0-1.22a4.72,4.72,0,0,0-.17-.92,2.44,2.44,0,0,0-.41-.78,6.52,6.52,0,0,0-.68-.78,17.17,17.17,0,0,0,2.29.17,3.6,3.6,0,0,0,1.31-.21,1,1,0,0,0,.6-.55,3.06,3.06,0,0,0,.13-.93V10.33c0-1.41,0-2.6,0-3.58a19.32,19.32,0,0,0-.15-2.2,16.62,16.62,0,0,0,3.37.12c.34,0,.55,0,.61.16S32.63,5.13,32.34,5.33Z"/></g></svg>