<svg xmlns="http://www.w3.org/2000/svg" viewBox="0 0 37 38"><title>radical</title><g id="radical-21" data-name="Layer 2"><path d="M8.06,27.08a3.69,3.69,0,0,0,.15,1.15,1.2,1.2,0,0,0,.65.68,4.72,4.72,0,0,0,1.48.35c.65.07,1.54.12,2.65.15.81,0,1.64,0,2.47,0s1.66,0,2.45-.06,1.53-.05,2.24-.09,1.32-.09,1.86-.17a15,15,0,0,0,2.11-.35,2.77,2.77,0,0,0,1.28-.68,3.53,3.53,0,0,0,.81-1.37c.21-.59.44-1.4.69-2.41a3.71,3.71,0,0,0,.66.65,6.15,6.15,0,0,0,.89.57,9.76,9.76,0,0,0,1,.47,7.45,7.45,0,0,0,.95.31,26.91,26.91,0,0,1-1.24,3.15,4.64,4.64,0,0,1-1.45,1.75,5.21,5.21,0,0,1-2.25.82c-.93.13-2.17.24-3.72.31l-2.07.08-2.43.05-2.46,0H12.58c-1.83,0-3.26-.1-4.31-.22a5.48,5.48,0,0,1-2.35-.72,2.33,2.33,0,0,1-1-1.54,14,14,0,0,1-.21-2.74V6.77c0-1,0-1.89,0-2.54S4.64,3,4.59,2.62l1,.15c.37,0,.74.09,1.11.11l1,.06a7.15,7.15,0,0,0,.84,0A.39.39,0,0,1,9,3.08c.07.14,0,.34-.18.61a5,5,0,0,0-.54,1,2.46,2.46,0,0,0-.21,1V15.94q2.59-1.11,5.19-2.35c1.72-.82,3.35-1.66,4.88-2.5s2.92-1.65,4.16-2.46a30.56,30.56,0,0,0,3-2.16,11.6,11.6,0,0,0,1.13,1.66,8,8,0,0,0,1.09,1.19q.41.33.27.66c-.08.23-.35.36-.79.41a1.86,1.86,0,0,0-.43.11c-.21.08-.5.2-.88.37s-.87.41-1.45.71-1.29.66-2.13,1.11-1.6.8-2.66,1.29S17.25,15,16,15.53s-2.53,1.1-3.9,1.65S9.4,18.27,8.06,18.79Z"/></g></svg>