<svg xmlns="http://www.w3.org/2000/svg" viewBox="0 0 37 38"><title>radical</title><g id="radical-154" data-name="Layer 6"><path d="M19.68,12.31a3.15,3.15,0,0,0-.42,1A6.63,6.63,0,0,0,19,14.83c0,1-.08,2-.16,3.08s-.19,2.05-.31,3-.28,1.87-.47,2.71a14.44,14.44,0,0,1-.65,2.16,12.38,12.38,0,0,1-1.67,2.87,17.68,17.68,0,0,1-2.56,2.66,22.46,22.46,0,0,1-3.38,2.37,31.72,31.72,0,0,1-4.09,2,5.86,5.86,0,0,0-.88-1.36A5.8,5.8,0,0,0,3.4,33.09a23.42,23.42,0,0,0,4.67-2,19.63,19.63,0,0,0,3.58-2.55,14.55,14.55,0,0,0,2.45-2.88,9.68,9.68,0,0,0,1.26-3,17,17,0,0,0,.34-2.25c.08-.93.15-1.92.2-3s.06-2.13,0-3.21-.07-2.07-.14-3a4.43,4.43,0,0,0,.72.1l1,.08,1,0a6.85,6.85,0,0,0,.83,0c.31,0,.51,0,.58.13S19.92,12,19.68,12.31Zm5.79,13V8H10.17V26.28H6.82c0-.55.09-1.12.11-1.71s0-1.19,0-1.82V8c0-1.18,0-2.11-.11-2.81a8.85,8.85,0,0,0,1.33.11l2.4.07c.94,0,2,0,3.24.06h3.83q4.07,0,6.84,0c1.85,0,3.28-.1,4.28-.22-.07.7-.1,1.63-.1,2.81V21.82c0,.62,0,1.23,0,1.81s.06,1.16.11,1.72Zm3.89,10a18.9,18.9,0,0,0-1.93-2c-.87-.79-1.82-1.6-2.84-2.43s-2-1.61-3.06-2.35S19.65,27.27,19,26.86l1.87-2.2c.77.46,1.66,1,2.68,1.68s2,1.35,3.1,2.08,2.05,1.47,3,2.2,1.82,1.39,2.52,2Z"/></g></svg>