<svg xmlns="http://www.w3.org/2000/svg" viewBox="0 0 37 38"><title>radical</title><g id="radical-35" data-name="Layer 2"><path d="M18.65,27.93a25.93,25.93,0,0,1-7.13,4.25,49.07,49.07,0,0,1-9.41,2.67,10.94,10.94,0,0,0-.52-2,7.79,7.79,0,0,0-1-1.8,46.64,46.64,0,0,0,4.87-.7A33.13,33.13,0,0,0,9.54,29.3a23.83,23.83,0,0,0,3.52-1.48,22.89,22.89,0,0,0,3.11-2,48.58,48.58,0,0,1-4.39-4.7,37.75,37.75,0,0,1-3.64-5.37c-.57.65-1.14,1.27-1.72,1.89s-1.15,1.18-1.72,1.7A8,8,0,0,0,3.94,18a10.49,10.49,0,0,0-1.17-1.35A19.81,19.81,0,0,0,4.83,15c.65-.6,1.29-1.23,1.9-1.89-.47-1-.89-1.94-1.27-2.92s-.75-2-1.09-3l2.84-1a31.79,31.79,0,0,0,1.56,4.37,30.93,30.93,0,0,0,2.14-3.79,28.27,28.27,0,0,0,1.63-4.31c.3.24.56.46.8.64a5.22,5.22,0,0,0,.68.47c.22.12.46.24.7.35a7.6,7.6,0,0,0,.86.31c.37.13.54.3.53.54s-.28.5-.79.79a3,3,0,0,0-.87.82A24.61,24.61,0,0,0,13,8.62H21.2c2.24,0,4.18,0,5.79-.12a31.94,31.94,0,0,0,3.5-.29c-.82,2.27-1.58,4.25-2.3,5.94A48.45,48.45,0,0,1,26,18.68a33.75,33.75,0,0,1-2.31,3.66A38.6,38.6,0,0,1,21,25.64,30.82,30.82,0,0,0,27.34,29a26.26,26.26,0,0,0,7.07,1.68,10,10,0,0,0-1.7,4.11,37.26,37.26,0,0,1-7.48-2.74A38,38,0,0,1,18.65,27.93Zm-.11-4.14a26.45,26.45,0,0,0,2.25-2.5,27.42,27.42,0,0,0,1.95-2.85,32.32,32.32,0,0,0,1.7-3.33c.53-1.2,1-2.5,1.57-3.9H11.43c-.17.32-.36.64-.57,1s-.46.71-.76,1.12A38.25,38.25,0,0,0,13.86,19,35.62,35.62,0,0,0,18.54,23.79Z"/></g></svg>