<svg xmlns="http://www.w3.org/2000/svg" viewBox="0 0 37 38"><title>radical</title><g id="Layer_2" data-name="Layer 2"><path d="M24.2,15.13c-.57-.57-1.14-1.11-1.72-1.63s-1.19-1-1.84-1.52l2.74-1.63c1,.82,1.82,1.56,2.56,2.22s1.4,1.28,2,1.84,1.13,1.07,1.61,1.57,1,1,1.43,1.48L28.3,19.94c-.34-.47-.69-.92-1-1.33l-1-1.26c-1.33.1-2.58.18-3.73.24s-2.26.13-3.3.2v5c2.17,0,4-.06,5.59-.11s3-.13,4.22-.22v3.29c-1.26-.1-2.67-.17-4.22-.22s-3.42-.09-5.59-.11V30q4.77,0,8.18-.11c2.27-.05,4.29-.13,6.07-.26v3.59c-1-.07-2-.13-3.11-.18s-2.31-.09-3.61-.13-2.71-.06-4.23-.08h-5c-3.6,0-6.68,0-9.23.11s-4.78.17-6.68.29V29.59c1.8.13,3.86.22,6.16.28S12.78,30,16,30V25.38c-4.44,0-8,.11-10.58.33V22.42c1.36.12,2.87.21,4.55.25s3.69.08,6,.08V18c-2,.12-3.74.23-5.08.33s-2.43.18-3.26.26-1.44.14-1.85.2a5.36,5.36,0,0,0-.83.17,9.65,9.65,0,0,0-.3-1.61,9.12,9.12,0,0,0-.59-1.61H5.62c.52,0,1,0,1.56,0a40.8,40.8,0,0,0,4.27-4.25A20.66,20.66,0,0,0,14.13,7.5,13.2,13.2,0,0,0,16,8.21a12.37,12.37,0,0,0,1.48.37c.49.07.75.19.76.35s-.27.36-.83.61a4.85,4.85,0,0,0-.93.65,13.92,13.92,0,0,0-1.29,1.16c-.55.57-1.19,1.21-1.93,1.91s-1.63,1.49-2.66,2.35q2.66-.07,5.9-.19T24.2,15.13ZM17.28,7.32c-3.18,0-5.9,0-8.14.09s-4.22.16-5.92.28V4.32c1.72.13,3.71.22,5.95.28s4.95.09,8.11.09c1.6,0,3.08,0,4.44,0s2.61,0,3.75-.07l3.19-.11c1,0,1.89-.09,2.75-.17V7.69c-.86-.07-1.77-.13-2.72-.17l-3.14-.11c-1.15,0-2.4-.06-3.76-.07Z"/></g></svg>