<svg xmlns="http://www.w3.org/2000/svg" viewBox="0 0 37 38"><title>radical</title><g id="radical-73" data-name="Layer 2"><path d="M7.88,32.91H4.4c.13-1.26.21-2.41.24-3.46s.06-2.16.06-3.35V11.67c0-1,0-2-.08-2.9a17.4,17.4,0,0,0-.25-2.28l1.94.13c.68,0,1.51.06,2.51.08l3.65,0c1.43,0,3.2,0,5.33,0s3.87,0,5.32,0l3.7,0c1,0,1.85,0,2.52-.08s1.27-.08,1.81-.13c0,.27-.08.61-.11,1S31,8.32,31,8.79s0,1-.06,1.44,0,1,0,1.44v15c0,1,0,2,.08,2.89s.13,1.87.26,3H27.71v-2H7.88ZM27.71,9.82H7.88v6.85H27.71ZM7.88,19.74v7.62H27.71V19.74Z"/></g></svg>