<svg xmlns="http://www.w3.org/2000/svg" viewBox="0 0 37 38"><title>radical</title><g id="Layer_2" data-name="Layer 2"><path d="M15.21,27.28A30,30,0,0,1,11,23.19,22.45,22.45,0,0,1,8.1,18.84l2.56-1.22a34.22,34.22,0,0,0,3.21,4.63,19.87,19.87,0,0,0,3.7,3.44A21.44,21.44,0,0,0,21.42,22a30.88,30.88,0,0,0,3-4.5,12.71,12.71,0,0,0,1.59,1,12.49,12.49,0,0,0,1.52.72c.49.2.72.39.68.59s-.26.32-.68.37a1.57,1.57,0,0,0-.74.43,13.66,13.66,0,0,0-1.19,1.24,33.2,33.2,0,0,1-2.77,2.94c-.91.85-1.83,1.63-2.74,2.35a28.6,28.6,0,0,0,6.05,2A40.09,40.09,0,0,0,34,30a5.82,5.82,0,0,0-1.31,1.88A11.09,11.09,0,0,0,32,34.05a49.82,49.82,0,0,1-7.79-2,34.42,34.42,0,0,1-6.61-3.09,40.91,40.91,0,0,1-6.71,3.41A43.18,43.18,0,0,1,3.37,34.6a11.67,11.67,0,0,0-1-1.81A13.85,13.85,0,0,0,1,31.09a26.31,26.31,0,0,0,7.1-.87A27.41,27.41,0,0,0,15.21,27.28Zm2.66-15.8c-1.16.74-2.16,1.37-3,1.89s-1.71,1-2.59,1.46-1.82.92-2.84,1.38-2.28,1-3.76,1.67a4.27,4.27,0,0,0-1-1.55A7.2,7.2,0,0,0,2.7,15,36.67,36.67,0,0,0,6.84,14,23.81,23.81,0,0,0,10,12.74C11.7,11.87,13.42,11,15.09,10c-1.45-.76-2.94-1.5-4.45-2.2S7.55,6.35,5.92,5.63L8,3.52c1.92.92,3.67,1.76,5.23,2.54s3.06,1.52,4.46,2.24c1.56-1.06,3-2.11,4.22-3.13s2.35-2,3.29-2.9A16.19,16.19,0,0,0,26.9,3.41c.61.37,1.1.64,1.44.82s.62.38.59.55-.32.29-.89.33a1.8,1.8,0,0,0-.59.19c-.27.12-.57.28-.9.46s-.66.38-1,.58l-.82.51c-.32.25-.87.63-1.64,1.15L20.53,9.74q2.7,1.44,5.17,2.87t5.16,3.09l-2.33,2.7A95.09,95.09,0,0,0,17.87,11.48Z"/></g></svg>