<svg xmlns="http://www.w3.org/2000/svg" viewBox="0 0 37 38"><title>radical</title><g id="Layer_6" data-name="Layer 6"><path d="M17.71,18.45c0-.79,0-1.45,0-2s0-1-.06-1.39a7.28,7.28,0,0,0-.11-1,3.7,3.7,0,0,0-.21-.76,15.13,15.13,0,0,0,1.85.22c.57,0,1.15,0,1.75,0s.73,0,.75.21-.14.35-.5.54c-.12.08-.21.32-.29.72a13,13,0,0,0-.11,2v1.44h3.57c1,0,1.85,0,2.59-.08l1.93-.1,1.56-.13v3.06l-1.53-.13C28.35,21,27.71,21,27,21l-2.61,0c-1,0-2.19,0-3.59,0v5.47q4.11,0,7.17-.11t5.43-.21v3.09C31.79,29.09,30,29,27.94,29s-4.43-.09-7.17-.11c0,1,0,1.89,0,2.66s0,1.44.06,2,0,1.07.09,1.49.07.8.12,1.14h-3.6a14.57,14.57,0,0,0,.22-2.54q0-1.76,0-4.77-4.89,0-8.4.07t-6.18.25V26.09q2.7.18,6.2.25c2.32.05,5.12.07,8.38.07V20.94c-2.73,0-5,.08-6.82.18a30.54,30.54,0,0,0-4.16.43A6.47,6.47,0,0,0,6.27,20a8.62,8.62,0,0,0-.79-1.46A5.28,5.28,0,0,0,6.72,18,5.48,5.48,0,0,0,8,16.94a17.73,17.73,0,0,0,1.66-2.12c.62-.91,1.39-2.15,2.3-3.71l-2.57,0-2.18,0c-.67,0-1.31.06-1.91.11l-1.76.14V8.23l1.71.14c.56.05,1.2.09,1.92.11s1.58,0,2.58.06h3.65a30.51,30.51,0,0,0,1.46-3c.39-1,.72-1.9,1-2.81.62.29,1.31.58,2,.88s1.32.51,1.73.63q.36.07.39.24c0,.11-.09.22-.36.34A4.89,4.89,0,0,0,18.54,6a30.8,30.8,0,0,0-1.76,2.53h8.85c2.6,0,5.07-.1,7.42-.32v3.2q-3.52-.31-7.42-.32H15.23Q14,13.17,12.69,15c-.85,1.23-1.7,2.38-2.54,3.43Z"/></g></svg>