<svg xmlns="http://www.w3.org/2000/svg" viewBox="0 0 37 38"><title>radical</title><g id="Layer_2" data-name="Layer 2"><path d="M11,18.93a35.37,35.37,0,0,1-1.32,9.73,19,19,0,0,1-3.94,7.18L2.37,34.21a22.47,22.47,0,0,0,2.31-2.83,14.74,14.74,0,0,0,1.55-2.9,16.65,16.65,0,0,0,.93-3.22,25.77,25.77,0,0,0,.39-3.7c.12-3.28.18-6.29.16-9s-.08-5.27-.2-7.59c.62,0,1.3.1,2,.13s1.6.07,2.58.1l3.4,0c1.3,0,2.79,0,4.5,0q3.51,0,6.58,0t6-.25a7.41,7.41,0,0,0-.23,1.58c0,.58,0,1.36,0,2.35v8.36c0,.81,0,1.51,0,2.09a17.44,17.44,0,0,0,.24,1.87h-3.4V18.93Zm18.24-2.74V8.05H11v8.14Z"/></g></svg>