<svg xmlns="http://www.w3.org/2000/svg" viewBox="0 0 37 38"><title>radical</title><g id="Layer_2" data-name="Layer 2"><path d="M16.54,7.54c-1.75.22-3.41.43-5,.61s-2.91.34-4.07.47A5.55,5.55,0,0,0,7,7.21a8.62,8.62,0,0,0-1-1.7,15.68,15.68,0,0,0,2.19,0c.93,0,2-.13,3.16-.24S13.76,5,15.1,4.84s2.66-.36,4-.55,2.33-.39,3.22-.56,1.66-.34,2.31-.5a14.71,14.71,0,0,0,1.74-.52c.51-.18,1-.38,1.54-.61.1.23.24.5.42.82l.59,1c.21.33.42.64.63.92a5.27,5.27,0,0,0,.5.61c.2.23.27.4.23.52s-.19.16-.41.11a5.49,5.49,0,0,0-1.19,0c-.49,0-1.23.09-2.22.22l-3.4.44-3.51.48v6.44l4.84,0,3.68,0c1.08,0,2,0,2.85-.07l2.35-.13v3.22Q31,16.39,28,16.33t-6.23-.06a15.32,15.32,0,0,0,1.88,4,17.53,17.53,0,0,0,2.95,3.42,17.12,17.12,0,0,0,3.68,2.54,14.59,14.59,0,0,0,4.1,1.38A8.2,8.2,0,0,0,33,29.58a11,11,0,0,0-.78,1.86,17.34,17.34,0,0,1-4.66-2.31,15.87,15.87,0,0,1-3.46-3.33,19.48,19.48,0,0,1-2.48-4.31,37.56,37.56,0,0,1-1.76-5.22h-.29v14.8c0,.57,0,1.21,0,1.91s.05,1.45.1,2.24h-3.3c.08-.82.13-1.57.15-2.26s0-1.32,0-1.89V16.5a27,27,0,0,1-2.17,4.42,35.62,35.62,0,0,1-2.94,4.16A41.56,41.56,0,0,1,8,28.87a40.53,40.53,0,0,1-3.73,3.24,9.92,9.92,0,0,0-1.48-1.52A9.12,9.12,0,0,0,.67,29.3a29.18,29.18,0,0,0,4-2.37,35.23,35.23,0,0,0,3.81-3.09,29.45,29.45,0,0,0,3.28-3.61,21.81,21.81,0,0,0,2.44-4H10.73c-1.06,0-2.05,0-3,0s-1.79.06-2.63.11l-2.48.15V13.35l2.39.13c.83,0,1.78.06,2.85.07l3.7,0,4.94,0Z"/></g></svg>