<svg xmlns="http://www.w3.org/2000/svg" viewBox="0 0 37 38"><title>radical</title><g id="radical-39" data-name="Layer 2"><path d="M19.39,16.93c3.11,0,5.76-.06,8-.11s4.2-.13,6-.26v3.59q-2.67-.15-6-.24c-2.21-.06-4.86-.1-8-.13V31.25a3.24,3.24,0,0,1-.34,1.52,2.75,2.75,0,0,1-1.14,1.13,7.15,7.15,0,0,1-2.17.72,21.25,21.25,0,0,1-3.38.3A6.53,6.53,0,0,0,12,33.23a11.31,11.31,0,0,0-.94-2,21.94,21.94,0,0,0,2.61.11,5.27,5.27,0,0,0,1.51-.24,1.32,1.32,0,0,0,.73-.56,1.78,1.78,0,0,0,.18-.83V19.78q-4.84,0-8.31.09c-2.3.07-4.36.16-6.16.28V16.56q2.75.2,6.18.28t8.29.09v-5c.72-.32,1.36-.63,1.94-.94s1.16-.64,1.72-1S21,9.19,21.55,8.74s1.28-1,2-1.61h-13c-1.18,0-2.18,0-3,0s-1.64.06-2.48.11V4l2.56.13c.79,0,1.64.06,2.57.07l3.11,0,4.16,0,5,0,3.48,0c1,0,1.73,0,2.33-.07S29.45,4.07,29.9,4V7.24a5.51,5.51,0,0,0-3,1l-7.47,5.33Z"/></g></svg>