<svg xmlns="http://www.w3.org/2000/svg" viewBox="0 0 37 38"><title>radical</title><g id="radical-163" data-name="Layer 2"><path d="M31.71,29.62c-.47,1.13-.88,2-1.22,2.66a3.88,3.88,0,0,1-1.3,1.46,5.1,5.1,0,0,1-2,.69c-.84.12-2,.23-3.41.33-.79.05-1.76.09-2.92.13s-2.36.06-3.59.06-2.45,0-3.64,0-2.24-.06-3.13-.11c-1.68-.1-3-.21-3.92-.34a5.21,5.21,0,0,1-2.09-.61,1.77,1.77,0,0,1-.85-1.16,9.81,9.81,0,0,1-.17-2V20c0-1.08,0-1.95,0-2.59a16.56,16.56,0,0,0-.15-1.81c.33,0,.71.09,1.15.13s1.12.06,2,.09,2.11,0,3.62.05,3.53,0,6,0c2.29,0,4.19,0,5.69,0s2.73,0,3.67-.05l2.13-.07a8.69,8.69,0,0,0,1.09-.12c-.05.55-.08,1.27-.1,2.19s0,1.85,0,2.81v1.52c0,.51,0,1,0,1.46s0,.87,0,1.24a8.91,8.91,0,0,0,.06.89c-.18,0-.52-.05-1-.08l-1.89-.05-2.46,0-2.75,0h-14V30a3.35,3.35,0,0,0,.11.92,1,1,0,0,0,.6.59,5.24,5.24,0,0,0,1.42.36,24.75,24.75,0,0,0,2.57.16c.69,0,1.53,0,2.5.06l3,0c1,0,1.94,0,2.83,0s1.62,0,2.18-.07c1.36-.05,2.41-.12,3.17-.2a4.15,4.15,0,0,0,1.77-.56,2.58,2.58,0,0,0,1-1.28,20,20,0,0,0,.74-2.4,6.48,6.48,0,0,0,1.59,1.22A11.08,11.08,0,0,0,31.71,29.62ZM27.45,13.15c-1.35-.05-2.93-.08-4.71-.11s-4,0-6.61,0L9.47,13c-1.82,0-3.4.05-4.73.1q.1-.85.18-2C5,10.29,5,9.46,5,8.6S5,6.88,4.92,6,4.81,4.47,4.74,3.9C6.09,4,7.68,4,9.49,4.05s4,0,6.64,0,4.84,0,6.61,0S26.07,4,27.45,3.9c-.05.57-.09,1.27-.13,2.11s-.05,1.7-.05,2.59,0,1.71.05,2.54S27.4,12.63,27.45,13.15ZM14.06,18.29H6.47v4.78h7.59ZM24.2,6.64H8.07v4H24.2ZM17,23.07h8.47V18.29H17Z"/></g></svg>