<svg xmlns="http://www.w3.org/2000/svg" viewBox="0 0 37 38"><title>radical</title><g id="Layer_3" data-name="Layer 3"><path d="M18.93,19.82c-.31-.29-.67-.59-1.09-.92S17,18.26,16.52,18s-.92-.6-1.38-.87-.91-.49-1.32-.68l2-2.7c.87.62,1.72,1.21,2.56,1.76s1.62,1,2.34,1.44Zm3.21,4.32c-.12.34-.23.65-.33.95l-.34,1.1c-.13.43-.28.95-.45,1.55s-.38,1.36-.65,2.27-.6,2.1-.86,3.13-.53,2.1-.79,3.2a17.46,17.46,0,0,0-1.87-1c-.56-.25-1.16-.5-1.8-.74a30.55,30.55,0,0,0,1.33-2.84c.43-1.06.85-2.18,1.26-3.35l.63-1.89c.18-.54.33-1.05.45-1.51s.23-.93.32-1.39.18-1,.25-1.48a5.38,5.38,0,0,0,1.26,1.21A6.63,6.63,0,0,0,22.14,24.14Zm-1.59-13a11.19,11.19,0,0,0-.93-1c-.39-.38-.8-.76-1.24-1.13S17.47,8.23,17,7.89A15.92,15.92,0,0,0,15.59,7l2.26-2.63c.77.7,1.62,1.4,2.54,2.12A23.11,23.11,0,0,0,23,8.23Z"/></g></svg>