<svg xmlns="http://www.w3.org/2000/svg" viewBox="0 0 37 38"><title>radical</title><g id="radical-113" data-name="Layer 3"><path d="M16.43,22a30.23,30.23,0,0,1-2.58,2.41,22.31,22.31,0,0,1-2.61,1.91,7.89,7.89,0,0,0-.83-1.55A5.28,5.28,0,0,0,9.15,23.5a23.85,23.85,0,0,0,6.14-4.42A23.19,23.19,0,0,0,20,12.52h-4c-.65,0-1.36,0-2.14.08a18.4,18.4,0,0,0-2.21.25V9.46a26.47,26.47,0,0,0,2.68.27q1.56.09,3.33.09c1.7,0,3.08,0,4.14-.07a26.17,26.17,0,0,0,2.73-.25c-.29.77-.57,1.48-.86,2.12s-.62,1.31-1,2-.82,1.36-1.33,2.12-1.15,1.64-1.89,2.65V29.41c0,1.13,0,2.17.07,3.13s.13,2,.25,3.13H16.21c.1-1.15.15-2.2.18-3.15s0-2,0-3.11Zm1.83-13.4a15.6,15.6,0,0,0-.94-2.37A16.4,16.4,0,0,0,16.1,4l3.17-1.12c.26.55.61,1.18,1,1.89S21.19,6.25,21.72,7Zm5.19,16.2c-.58-.93-1.16-1.84-1.73-2.71s-1.18-1.7-1.8-2.47l2.27-1.66c.55.8,1.15,1.63,1.81,2.51s1.33,1.69,2,2.46Z"/></g></svg>