<svg xmlns="http://www.w3.org/2000/svg" viewBox="0 0 37 38"><title>radical</title><g id="radical-208" data-name="Layer 2"><path d="M6,32.9q1.41-.52,2.76-1.08a21.71,21.71,0,0,0,2.46-1.18,8.31,8.31,0,0,0-.06,1.53,2.37,2.37,0,0,0,.21.91l-6,2.74a7.8,7.8,0,0,0-1.11.65,3.65,3.65,0,0,0-.92.83,6.94,6.94,0,0,0-.41-.82c-.17-.29-.36-.59-.55-.88S2,35,1.78,34.78s-.37-.44-.52-.59c.66-.12,1.32-.27,2-.44V23.54c0-1.31,0-2.3,0-3A9.9,9.9,0,0,0,3,18.91a10.56,10.56,0,0,0,1.59.26,11.36,11.36,0,0,0,1.51,0c.4,0,.61.05.65.22a.4.4,0,0,1-.24.44,1.55,1.55,0,0,0-.37.35.91.91,0,0,0-.15.54Zm.15-22.61H8.92c.79,0,1.49,0,2.11,0l1.64-.07c.48,0,1-.06,1.43-.11v2.66c-.47-.05-.95-.09-1.43-.11L11,12.55c-.62,0-1.32,0-2.11,0H6.14V15H25.46V12.32H22.4c-.87,0-1.64,0-2.31,0l-1.79.07c-.54,0-1,.07-1.5.12V9.88c.47,0,1,.09,1.5.11l1.79.08q1,0,2.31,0h3.06V7.4c-4.45,0-7.52.08-9.22.22v-3c.5,0,1.08.08,1.74.11l2.44,0,3.44,0,4.74,0a11.44,11.44,0,0,0-.17,1.44c0,.62-.05,1.19-.05,1.71v4.84c0,.69,0,1.48.07,2.35s.13,1.75.22,2.61q-4.29-.15-7.47-.2c-2.12,0-4.05-.06-5.77-.06s-3.69,0-5.66.06-4.25.1-6.81.2c.12-.79.22-1.62.29-2.48s.12-1.61.12-2.26V8.4c0-.57,0-1.13-.08-1.68a12.48,12.48,0,0,0-.18-1.35,20.65,20.65,0,0,0,2.25,0c.84,0,1.71-.11,2.59-.23a24.51,24.51,0,0,0,2.61-.46A12.71,12.71,0,0,0,12.84,4a17.05,17.05,0,0,0,.74,1.56,5.23,5.23,0,0,0,.7,1c.27.28.39.47.35.58s-.21.13-.53,0a13.19,13.19,0,0,0-2.46,0q-1.87.13-5.5.54Zm4.44,19A12.12,12.12,0,0,0,9,27.85a19.67,19.67,0,0,0-1.81-1.21l1.85-2A21.94,21.94,0,0,1,10.93,26a8.55,8.55,0,0,1,1.43,1.31Zm.26-5.37c-.47-.51-1-1-1.46-1.48a17.13,17.13,0,0,0-1.5-1.22l1.74-1.81c.62.49,1.16,1,1.63,1.39a15.78,15.78,0,0,1,1.22,1.27Zm5.88,8.26q1.59-.45,2.94-.93c.9-.32,1.79-.68,2.65-1.07a5.59,5.59,0,0,0,0,1.46,10.33,10.33,0,0,0,.22,1.2l-5.88,2a11.17,11.17,0,0,0-1.34.57,5.83,5.83,0,0,0-1.07.65,6.46,6.46,0,0,0-.68-1.67,5.37,5.37,0,0,0-.95-1.29l.67-.15.63-.15v-9.4c0-1.25,0-2.22-.06-2.9a7.82,7.82,0,0,0-.24-1.72,11.55,11.55,0,0,0,1.8.24c.65,0,1.11.05,1.38.05s.56.07.65.19,0,.28-.31.48a1,1,0,0,0-.35.37,1.07,1.07,0,0,0-.1.52Zm4.44-2.85a15.48,15.48,0,0,0-1.59-1.39,16.73,16.73,0,0,0-1.81-1.24l1.66-2L21.35,26a14.24,14.24,0,0,1,1.7,1.29Zm-.07-5.63a16.09,16.09,0,0,0-1.35-1.39,10.18,10.18,0,0,0-1.61-1.16l1.81-2a14.21,14.21,0,0,1,1.7,1.28,10,10,0,0,1,1.26,1.27Zm12.65,7.66a16.3,16.3,0,0,1-1.79,4c-.58.82-1.08,1.21-1.5,1.16a3.7,3.7,0,0,1-1.87-.79,10,10,0,0,1-1.76-2.06A7.81,7.81,0,0,1,26,32.23q-.39-.88-.72-1.89c-.23-.66-.42-1.32-.58-2a12.42,12.42,0,0,1-.31-1.72c-.17-1.48-.3-2.88-.37-4.2s-.13-2.51-.15-3.57l.83.15c.31.05.61.09.89.11a7.51,7.51,0,0,0,.8,0H27c.77-.05.91.16.45.63a1.77,1.77,0,0,0-.23.76q-.11.64-.18,1.53T26.92,24A9.72,9.72,0,0,0,27,25.75a16.78,16.78,0,0,0,.35,1.95,18.94,18.94,0,0,0,.56,1.92,10.81,10.81,0,0,0,.68,1.63,4.39,4.39,0,0,0,.7,1,1.42,1.42,0,0,0,.45.34c.12,0,.24,0,.37-.22a4.65,4.65,0,0,0,.39-1.06c.13-.51.3-1.23.49-2.16A3.62,3.62,0,0,0,33.74,31.34Z"/></g></svg>