<svg xmlns="http://www.w3.org/2000/svg" viewBox="0 0 37 38"><title>radical</title><g id="radical-92" data-name="Layer 2"><path d="M24.23,15.47c1.85,0,3.6,0,5.26-.09s3-.15,4.14-.28v3.45a34.77,34.77,0,0,0-3.53-.26c-1.44-.05-3.4-.09-5.87-.11V31.83A4.24,4.24,0,0,1,24,33.31a1.85,1.85,0,0,1-.92,1,6.46,6.46,0,0,1-2,.56,32.28,32.28,0,0,1-3.44.25,12.29,12.29,0,0,0-.5-1.81,10.23,10.23,0,0,0-.83-1.7c1.06.07,1.9.11,2.53.11a4.19,4.19,0,0,0,1.41-.17.93.93,0,0,0,.59-.51,3,3,0,0,0,.13-.95V18.18h-.22a31.62,31.62,0,0,1-2.69,4.32,30.39,30.39,0,0,1-3.51,4,42.2,42.2,0,0,1-4.64,3.81,66.63,66.63,0,0,1-6.07,3.82,10,10,0,0,0-1.13-1.47,14.49,14.49,0,0,0-1.39-1.27,41.73,41.73,0,0,0,9.51-5.79A45.82,45.82,0,0,0,18,18.18c-1.56,0-3,.05-4.24.09s-2.41.08-3.42.15-1.93.13-2.74.2-1.55.15-2.22.22a9,9,0,0,0-.35-1.35,8.15,8.15,0,0,0-.61-1.39,2.43,2.43,0,0,0,.94-.57,6,6,0,0,0,1-1.24,18.3,18.3,0,0,0,1.13-2.14c.41-.89.86-2,1.35-3.34a16,16,0,0,0,1.87.47l1.83.31c.32.05.49.13.5.24s-.14.26-.46.43a3.67,3.67,0,0,0-.91.94A15.83,15.83,0,0,0,10.51,13c-.47.84-1,1.66-1.52,2.44H21V6.71H11.69c-1.36,0-2.69,0-4,.07S5.13,6.92,3.92,7V3.6c.59.07,1.24.13,1.94.16l2.59.12c1,0,2.25.06,3.67.07l5.16,0,5.66,0c1.48,0,2.71,0,3.68-.06s1.77-.06,2.39-.11,1.2-.11,1.77-.18V7c-.79-.1-1.69-.17-2.72-.2s-2.3-.07-3.83-.1Z"/></g></svg>