<svg xmlns="http://www.w3.org/2000/svg" viewBox="0 0 37 38"><title>radical</title><g id="radical-194" data-name="Layer 2"><path d="M15.58,21.61a23.3,23.3,0,0,1-1.3,4.64,16.6,16.6,0,0,1-2.27,4,21,21,0,0,1-3.5,3.48,32.51,32.51,0,0,1-5,3.2,6.37,6.37,0,0,0-1.26-1.22A10.3,10.3,0,0,0,.48,34.6a44.65,44.65,0,0,0,5.38-3.09A20.82,20.82,0,0,0,9.54,28.4a12.55,12.55,0,0,0,2.23-3.26,12.69,12.69,0,0,0,1-3.53H7.44V24.2H4.07c.12-.86.2-1.6.24-2.2s.06-1.22.06-1.83v-9.1q0-1.38-.06-2.22c0-.57-.11-1.14-.2-1.71a7.68,7.68,0,0,0,1,.17c.38,0,.87.07,1.46.09l2.19.08q1.29,0,3.18,0a21.49,21.49,0,0,0,.66-2.4,19.35,19.35,0,0,0,.41-2.52,12.32,12.32,0,0,0,2,.47,14.12,14.12,0,0,0,2,.16c.27,0,.41.06.41.19s-.21.28-.63.48a1.75,1.75,0,0,0-.29.28,3.31,3.31,0,0,0-.45.61c-.17.27-.39.63-.65,1.09s-.57,1-.94,1.68c2.05,0,3.85,0,5.42,0s2.92,0,4.07-.09,2.1-.08,2.85-.13,1.35-.1,1.79-.15c-.05.28-.09.53-.13.78s-.06.51-.09.8,0,.61,0,1v7.91c0,.87,0,1.64,0,2.32a15.76,15.76,0,0,0,.24,2c-.67-.05-1.39-.1-2.18-.13s-1.7-.07-2.74-.1l-3.57-.05ZM7.44,9.84v3.67h7V9.84Zm0,5.81v3.67h7V15.65Zm12.17,7.52c.32-.08.52-.07.59,0s0,.26-.18.48a2,2,0,0,0-.54,1,10.32,10.32,0,0,0-.13,2V31.6a1.75,1.75,0,0,0,.15.76,1.06,1.06,0,0,0,.65.5,5.85,5.85,0,0,0,1.48.26c.65.05,1.53.07,2.64.07,1.33,0,2.46,0,3.37-.13a7,7,0,0,0,2.24-.52,2.77,2.77,0,0,0,1.31-1.14,5.49,5.49,0,0,0,.63-2,9.06,9.06,0,0,0,1.31,1.26,2.84,2.84,0,0,0,1.35.59,9.1,9.1,0,0,1-.87,2.4A3.23,3.23,0,0,1,32,35a9.37,9.37,0,0,1-2.94.63c-1.23.1-2.86.15-4.88.15q-2.52,0-4-.09a6.81,6.81,0,0,1-2.31-.48,1.9,1.9,0,0,1-1.05-1.19,7.39,7.39,0,0,1-.24-2.16V26.68c0-.52,0-1,0-1.35s0-.71,0-1,0-.52-.07-.74-.08-.44-.13-.67a2,2,0,0,0,.68.17q.46.06,1,.09c.34,0,.66,0,1,0A2.8,2.8,0,0,0,19.61,23.17Zm5.73-9.66V9.84h-7.8v3.67Zm0,5.81V15.65h-7.8v3.67ZM27.82,28a15.42,15.42,0,0,0-1.29-2.18L28.45,25a26.66,26.66,0,0,1,1.45,2.33A21,21,0,0,1,31,29.68l-2.11,1.4a14.63,14.63,0,0,0-.44-1.51l-4.63.77L22,30.69a13.08,13.08,0,0,0-1.59.43,9.47,9.47,0,0,0-.26-1.31,3.85,3.85,0,0,0-.56-1.21l1.3-.07c.34-.57.68-1.17,1-1.79s.64-1.23.91-1.8.5-1.08.69-1.53a10.57,10.57,0,0,0,.38-1.1c.6.2,1.16.37,1.69.52s.93.25,1.2.3.49.13.52.26-.14.26-.48.4a2.57,2.57,0,0,0-.61.45,6,6,0,0,0-.76.92l-.72,1q-.32.43-.6.78c-.18.24-.37.46-.55.68l-.65.78Z"/></g></svg>