<svg xmlns="http://www.w3.org/2000/svg" viewBox="0 0 37 38"><title>radical</title><g id="radical-214" data-name="Layer 2"><path d="M17.8,5c-.67.57-1.49,1.22-2.46,2s-2.06,1.51-3.24,2.3c.64,0,1.38.08,2.22.11s1.77,0,2.81,0h1.92c.55,0,1,0,1.45,0l1.13-.06a7.93,7.93,0,0,0,1-.09v2.52l-.93-.1c-.32,0-.69-.06-1.11-.07l-1.46,0-2,0a49.68,49.68,0,0,0-5.48.23V9.54q-1.55,1-3.18,2.07c-1.08.69-2.17,1.36-3.25,2l.57,0,.63,0H11l.65,0,.66-.06c0,.5,0,1.06,0,1.71s0,1.28,0,1.92,0,1.28,0,1.92,0,1.21,0,1.71l-.64,0-.65,0H6.34l-.64,0-.67,0c0-.5,0-1.06.06-1.71s0-1.28,0-1.92,0-1.2,0-1.83,0-1.18-.06-1.65c-.32.2-.64.38-1,.56l-.93.51A6.57,6.57,0,0,0,.85,12.17a23.66,23.66,0,0,0,4.94-1.85,37.42,37.42,0,0,0,5.79-3.7,30.62,30.62,0,0,0,2.94-2.43A10.53,10.53,0,0,0,16.24,2.1a12.4,12.4,0,0,0,1.82.48,17.3,17.3,0,0,0,1.84.3c.25,0,.35.1.3.22s-.38.36-1,.71a34.11,34.11,0,0,0,4,2.72A33.53,33.53,0,0,0,26.9,8.36a24.53,24.53,0,0,0,3.59,1.16,35.6,35.6,0,0,0,3.62.69A11.54,11.54,0,0,0,33,12.06a11.32,11.32,0,0,0-.59,1.66q-3.36-1.37-5.64-2.44a39.92,39.92,0,0,1-3.9-2.07,21,21,0,0,1-2.8-2A26.55,26.55,0,0,1,17.8,5ZM7.73,35.85H5c0-.22,0-.45.06-.67s0-.48,0-.77,0-.65,0-1.06V24.79c0-.4,0-.74,0-1s0-.53,0-.74A6,6,0,0,0,5,22.42c.25,0,.61,0,1.1.07s1.19,0,2.12.06l3.7,0c1.53,0,3.47,0,5.81,0h5.53c1.45,0,2.63,0,3.56,0L29,22.51c.53,0,1,0,1.46-.09l-.06.68q0,.36,0,.87c0,.35,0,.76,0,1.24v7.12a9.17,9.17,0,0,1-.09,1.46,1.59,1.59,0,0,1-.52.91,3.37,3.37,0,0,1-1.33.61c-.61.16-1.44.34-2.5.54a5.86,5.86,0,0,0-1-3,8.31,8.31,0,0,0,1.48,0,2.26,2.26,0,0,0,.85-.22.73.73,0,0,0,.37-.46,3.1,3.1,0,0,0,.08-.74V29.59H22.46c0,1.09,0,2.05,0,2.89a13.94,13.94,0,0,0,.11,1.7H19.79a13.67,13.67,0,0,0,.11-1.68c0-.83,0-1.79,0-2.91H14.8c0,1.14,0,2.15,0,3A15,15,0,0,0,15,34.41H12.13q.07-.52.12-1.8c0-.85,0-1.86,0-3H7.73ZM7.18,19h3V15.46h-3Zm.55,5.77v2.7h4.55v-2.7Zm10-11.32h2.39l.68,0,.67-.06c0,.5,0,1.06-.06,1.7s0,1.29,0,1.93V18.9a16.88,16.88,0,0,0,.08,1.7h-.7c-.2,0-.43,0-.69,0h-4.7c-.26,0-.49,0-.7,0H14c0-.49,0-1.06.06-1.7s0-1.28,0-1.92,0-1.28,0-1.93,0-1.2-.06-1.7l.67.06.69,0h2.38ZM14.8,24.75v2.7h5.14v-2.7Zm1.33-6h3.18V15.24H16.13Zm11.51,6H22.46v2.7h5.18Zm-.7-11.51h2.38c.26,0,.49,0,.7,0l.69-.05c0,.49,0,1.06-.06,1.7s0,1.28,0,1.92,0,1.29,0,1.93,0,1.21.06,1.7H30l-.7,0-.94,0H24.55l-.7,0-.69,0c0-.49,0-1.06.06-1.7s0-1.29,0-1.93,0-1.28,0-1.92,0-1.21-.06-1.7l.65.05c.21,0,.45,0,.72,0h2.41Zm-1.63,5.29h3.25V15.05H25.31Z"/></g></svg>