<svg xmlns="http://www.w3.org/2000/svg" viewBox="0 0 37 38"><title>radical</title><g id="Layer_2" data-name="Layer 2"><path d="M8.36,29A27.31,27.31,0,0,1,6,31.77c-.86.91-1.73,1.75-2.59,2.52a8.82,8.82,0,0,0-1.26-1.17,7.49,7.49,0,0,0-1.33-.83,41.8,41.8,0,0,0,3.44-2.92,17.8,17.8,0,0,0,2.29-2.71c-.71-1-1.33-1.91-1.84-2.77s-1-1.76-1.45-2.7l2.52-1.07a14.3,14.3,0,0,0,.83,2,16.85,16.85,0,0,0,1.28,2.17A19.34,19.34,0,0,0,9.06,21a30.2,30.2,0,0,0,.67-3.33H7.51a13.3,13.3,0,0,0-1.41.09A12,12,0,0,0,4.66,18a7.84,7.84,0,0,0-.31-1.63,5.46,5.46,0,0,0-.65-1.4l.78-.41a2.84,2.84,0,0,0,.57-.43,3.81,3.81,0,0,0,.48-.59q.24-.35.54-.87l3-5.29H6.21c-.59,0-1.16,0-1.72.07s-1,.12-1.46.19v-3l1.21.06,1.18,0c.41,0,.84,0,1.31,0H8.32c.79,0,1.46,0,2,0l1.41,0q.58,0,1-.06c.28,0,.57-.06.87-.11L7.84,15.05H10.4c.44,0,.93,0,1.48-.08s.95-.1,1.22-.15A38.76,38.76,0,0,1,12,21.3a24.19,24.19,0,0,1-2.17,5.36,12,12,0,0,0,1.92,1.58,10.54,10.54,0,0,0,2.41,1.14,18.29,18.29,0,0,0,3.15.74,34.9,34.9,0,0,0,4.18.37c1.6.07,3.44.07,5.51,0s4.44-.18,7.1-.35c-.32.45-.58.82-.77,1.11a4.68,4.68,0,0,0-.47.87,4.51,4.51,0,0,0-.24.85c-.05.29-.08.63-.11,1q-5.66,0-9.62-.24a48.68,48.68,0,0,1-6.73-.81,18,18,0,0,1-4.61-1.54A11.86,11.86,0,0,1,8.36,29Z"/></g></svg>