<svg xmlns="http://www.w3.org/2000/svg" viewBox="0 0 37 38"><title>radical</title><g id="radical-162" data-name="Layer 6"><path d="M6.91,17.2H4.83c-.65,0-1.17,0-1.55,0a9.51,9.51,0,0,0-1,.11V14.14l.79.13c.24,0,.51.06.81.07l1,0H6.2c1,0,1.76,0,2.34-.05a14.31,14.31,0,0,0,1.65-.2c-.07.36-.12.71-.16,1s-.07.65-.09,1,0,.68,0,1.06,0,.83,0,1.34V28.4a6.34,6.34,0,0,1,1.35.49A20.8,20.8,0,0,1,13.07,30,10.5,10.5,0,0,0,15.59,31a19.68,19.68,0,0,0,3.91.59c1.62.11,3.63.13,6.05.06s5.39-.24,8.94-.51a8.67,8.67,0,0,0-1,2.11,8.15,8.15,0,0,0-.29,1.78q-4.06,0-7,0c-2,0-3.67-.07-5.11-.16s-2.66-.2-3.66-.34a15.53,15.53,0,0,1-2.6-.58,11.17,11.17,0,0,1-2-.86,17.58,17.58,0,0,1-1.89-1.22,9.46,9.46,0,0,0-1.58-.94,1.58,1.58,0,0,0-1.26,0A4,4,0,0,0,6.7,32c-.5.6-1.15,1.45-1.94,2.55-.29-.36-.54-.65-.76-.88s-.43-.43-.63-.61a6.14,6.14,0,0,0-.65-.49L2,32.14c.65-.6,1.21-1.11,1.69-1.53s.91-.76,1.29-1A8.63,8.63,0,0,1,6,28.9c.32-.16.63-.31.91-.43ZM8.07,11A24.36,24.36,0,0,0,4.54,5.43L7.45,3.67c.24.41.52.84.83,1.29l1,1.41c.32.48.65,1,1,1.42l.93,1.31Z"/></g></svg>