<svg xmlns="http://www.w3.org/2000/svg" viewBox="0 0 37 38"><title>radical</title><g id="radical-134" data-name="Layer 2"><path d="M7,17l3,0,2.18,0c.63,0,1.19,0,1.68-.07l1.45-.13v3.11c-.47-.05-1-.1-1.45-.13s-1-.07-1.68-.1L10,19.58l-3,0v9.29H28.16V19.56l-3.26,0-2.42,0c-.71,0-1.33,0-1.87.07s-1.07.09-1.59.17V16.67c.49,0,1,.1,1.57.13s1.18.07,1.89.08l2.42,0c.91,0,2,0,3.26,0V8.39H24.81q-1.35,0-2.37,0l-1.87.08-1.85.07V5.46c.72.08,1.65.14,2.79.19s2.34.07,3.57.07,2.51,0,3.67-.07,2.09-.11,2.81-.19c0,.2,0,.53-.07,1s0,1-.06,1.54,0,1.11,0,1.68,0,1,0,1.41V27.88c0,.87,0,1.88.07,3s.13,2.51.26,4.07H28.16V31.7H7v3.62H3.29c.17-1.45.29-2.81.35-4.07s.1-2.3.1-3.14v-17c0-.55,0-1.08,0-1.61s0-1-.06-1.5-.05-.88-.09-1.24l-.09-.83a14.6,14.6,0,0,0,2.24-.19A25.8,25.8,0,0,0,8.31,5.2c.9-.22,1.81-.49,2.75-.81s1.86-.68,2.78-1.07c.29.56.63,1.16,1,1.77A9.63,9.63,0,0,0,16,6.57c.27.3.38.49.35.58s-.23.11-.58.09a7.49,7.49,0,0,0-1,0c-.38,0-.9,0-1.55.09s-1.48.13-2.48.24L7,8Z"/></g></svg>