<svg xmlns="http://www.w3.org/2000/svg" viewBox="0 0 37 38"><title>radical</title><g id="radical-66" data-name="Layer 2"><path d="M9.17,17l-.92.06q-.48,0-1.11.09V14.23c.39,0,.81.09,1.24.12s.91.07,1.44.1,1.14,0,1.82,0h2.42v-8c0-1.08,0-1.91-.08-2.48a6.33,6.33,0,0,0-.33-1.59l1.2.13c.36,0,.69.06,1,.08h1l1.07,0c.69,0,.78.08.26.4a2.59,2.59,0,0,0-.74.6,1.34,1.34,0,0,0-.15.74V7.9h6.64c.38,0,.74,0,1.08,0s.66-.05,1-.09.7-.09,1.14-.17v3.18c-.42-.07-.79-.13-1.11-.16l-1-.1-1.09,0-1.4,0H17.24v4h2.3l1.94-.06c.6,0,1.18-.06,1.72-.09l1.7-.13c-.35,1.65-.7,3.15-1.07,4.49a33.78,33.78,0,0,1-1.26,3.76A34.73,34.73,0,0,1,21,25.75a31.5,31.5,0,0,1-1.9,3.13,13.28,13.28,0,0,0,2.07,1.18,22.56,22.56,0,0,0,2.57,1,28.72,28.72,0,0,0,2.87.76,27.13,27.13,0,0,0,3,.46,10.1,10.1,0,0,0-1.39,1.8,6.77,6.77,0,0,0-.83,2.09,39.59,39.59,0,0,1-5.74-2,18.41,18.41,0,0,1-4.62-2.87,24.91,24.91,0,0,1-2,1.59,23.87,23.87,0,0,1-2.35,1.46,27.25,27.25,0,0,1-2.55,1.24,25.1,25.1,0,0,1-2.57.93,6.54,6.54,0,0,0-.89-1.59,13.63,13.63,0,0,0-1.33-1.52,32.4,32.4,0,0,0,5.34-1.89,17.4,17.4,0,0,0,4-2.48,28.22,28.22,0,0,1-3.42-5.64A31.19,31.19,0,0,1,9.17,17Zm3-.07a23.57,23.57,0,0,0,1.76,5.34,23.72,23.72,0,0,0,2.79,4.46,16.37,16.37,0,0,0,2.74-4.53,24.11,24.11,0,0,0,1.44-5.27Z"/></g></svg>