<svg xmlns="http://www.w3.org/2000/svg" viewBox="0 0 37 38"><title>radical</title><g id="Layer_6" data-name="Layer 6"><path d="M20.27,10.26a1.62,1.62,0,0,0-.36.45,4.24,4.24,0,0,0-.29,1.08c-.09.54-.19,1.31-.29,2.32s-.22,2.39-.39,4.14a29.26,29.26,0,0,1-.52,3,14.36,14.36,0,0,1-1,2.85,14.77,14.77,0,0,1-1.64,2.64,13.91,13.91,0,0,1-2.47,2.43c-.53.41-1.13.84-1.82,1.3a25.15,25.15,0,0,1-2.16,1.29c-.75.41-1.51.8-2.28,1.16s-1.5.66-2.2.9A8.54,8.54,0,0,0,4,32.09a8,8,0,0,0-1.37-1.64,20.5,20.5,0,0,0,3-.75,20.54,20.54,0,0,0,2.88-1.21A19.15,19.15,0,0,0,11.05,27a12.65,12.65,0,0,0,2-1.73,10.47,10.47,0,0,0,1.39-1.89,10,10,0,0,0,1-2.34,21.27,21.27,0,0,0,.6-2.95c.14-1.09.24-2.32.28-3.69q0-1,.06-1.71c0-.49,0-.92,0-1.3s0-.7,0-1,0-.56-.07-.82l1,.12c.38,0,.76.06,1.13.07l1.07,0a3.72,3.72,0,0,0,.72,0q.29,0,.36.15C20.53,10,20.46,10.14,20.27,10.26Zm5.4,12.63V7H11.13V22.86H7.63q.15-1.16.24-2.52c.06-.92.09-1.95.09-3.1V7.05c0-.77,0-1.35,0-1.74s-.06-.79-.11-1.17l1.61.07,2.7.07,3.2,0c1.12,0,2.14,0,3.08,0s2,0,3.09,0l3.24,0,2.74-.07L29,4.14c-.05.36-.09.74-.11,1.15s0,1,0,1.76V17.28c0,1.17,0,2.21.08,3.11a22.73,22.73,0,0,0,.25,2.5Zm9.14,4.86c-.36,1.25-.68,2.24-1,3a4.92,4.92,0,0,1-1,1.68,2.88,2.88,0,0,1-1.4.77,12.85,12.85,0,0,1-2.16.27l-1.17,0-1.82,0-1.89,0-1.42,0a16.53,16.53,0,0,1-2.09-.15,1.9,1.9,0,0,1-1.11-.46,1.77,1.77,0,0,1-.44-1.1c0-.49-.07-1.18-.07-2.07v-7.2c0-.48,0-1,0-1.44s0-.88,0-1.19c.17,0,.41,0,.74.06H22.5c.27,0,.43,0,.49.09s0,.23-.24.42a1.17,1.17,0,0,0-.28.9v7.13a8.08,8.08,0,0,0,.05,1.11,1.18,1.18,0,0,0,.23.61.89.89,0,0,0,.53.29,5.79,5.79,0,0,0,.95.11l1,.05c.39,0,.78,0,1.17,0s.77,0,1.1,0,.6,0,.79-.05a4.8,4.8,0,0,0,1-.2,1.21,1.21,0,0,0,.65-.59,6.15,6.15,0,0,0,.52-1.41c.17-.62.36-1.5.58-2.62a4.51,4.51,0,0,0,.79.68,8.64,8.64,0,0,0,1,.59,9.13,9.13,0,0,0,1,.47A5,5,0,0,0,34.81,27.75Z"/></g></svg>