<svg xmlns="http://www.w3.org/2000/svg" viewBox="0 0 37 38"><title>radical</title><g id="radical-185" data-name="Layer 2"><path d="M22.12,8.37,27,8.3l3.31-.08c.9,0,1.66-.05,2.26-.09s1.15-.08,1.65-.13v3.33l-1.83-.13c-.66,0-1.53-.07-2.63-.09L25.55,11Q23,11,19.09,11a20.91,20.91,0,0,1-1.15,3.18c1.16,0,2.3,0,3.43,0l3.14-.05c1,0,1.85-.06,2.63-.11s1.41-.1,1.9-.15a16.56,16.56,0,0,0-.22,1.85c-.05.74-.07,1.45-.07,2.14V30c0,1,0,2,.07,3.05s.13,2,.22,3H25.53v-2.7H9.32v2.77H6a60.57,60.57,0,0,0,.34-6.18v-12c0-.87,0-1.62-.06-2.26A12.56,12.56,0,0,0,6,13.85c.94.07,2.2.14,3.79.2s3.35.11,5.27.13A11.45,11.45,0,0,0,15.87,11l-5.36,0-4,.05c-1.16,0-2.19.06-3.09.11l-2.61.15V8c1,.07,2.06.13,3.22.17L8,8.3l4.94,0c1.83,0,3.9,0,6.22,0q.56-.78,1.05-1.59c.34-.54.63-1.07.89-1.59s.48-1,.67-1.48a5.77,5.77,0,0,0,.35-1.26,4.94,4.94,0,0,0,.83.41l.93.35.88.3a4.69,4.69,0,0,0,.73.16c.22.05.33.15.35.28s-.12.3-.39.5a7.88,7.88,0,0,0-1.33,1.31A27.54,27.54,0,0,0,22.12,8.37Zm3.41,8.22H9.32v3H25.53Zm0,5.47H9.32v3.11H25.53Zm0,5.55H9.32v3.3H25.53ZM12,8.22A14.58,14.58,0,0,0,9.51,3.67l3.11-1a20.4,20.4,0,0,0,1.11,2.27,23.42,23.42,0,0,0,1.33,2.17Z"/></g></svg>