<svg xmlns="http://www.w3.org/2000/svg" viewBox="0 0 37 38"><title>radical</title><g id="radical-179" data-name="Layer 2"><path d="M22.35,16.88c1.28,0,2.37,0,3.27,0l2.31-.05,1.67-.09,1.33-.13v3.1l-1.33-.13c-.47,0-1-.06-1.67-.07l-2.31,0H22.35V24L26,24c1,0,1.78,0,2.44-.06s1.23-.05,1.69-.09l1.38-.13V27c-.47-.08-.93-.13-1.38-.17s-1-.06-1.69-.07l-2.44,0-3.66,0v5.18l2.7,0,3.12,0c1,0,2-.06,3-.11l2.39-.15v3.29c-.67,0-1.51-.1-2.54-.15s-2.09-.08-3.2-.11l-3.25-.05c-1.06,0-2,0-2.7,0H13.1c-.74,0-1.64,0-2.7,0s-2.15,0-3.26.07l-3.2.11c-1,0-1.87.08-2.54.13V31.5c.6.05,1.32.08,2.19.11l2.74.09q1.44.06,2.88.09c1,0,1.84,0,2.63,0V26.72l-3.44,0-2.24,0c-.61,0-1.12,0-1.54.07s-.86.1-1.33.17V23.8l1.33.13C5,24,5.55,24,6.16,24s1.35.05,2.24.06l3.44,0V19.51l-3.05,0-2.19,0c-.6,0-1.13,0-1.59.08a11.49,11.49,0,0,0-1.27.17V16.66c.39.05.82.09,1.27.13s1,.06,1.59.07l2.19,0,3.05,0V12.44l-3.48,0-2.5,0c-.7,0-1.3,0-1.81.07l-1.42.13V9.56l1.42.13c.51,0,1.11.06,1.81.07l2.5,0,3.48,0c0-1,0-1.86,0-2.52s0-1.22-.05-1.67-.06-.8-.1-1.09-.08-.57-.13-.87a14.16,14.16,0,0,0,1.65.19c.53,0,1.05,0,1.57,0,.84,0,1,.3.34.92a.86.86,0,0,0-.21.46,7.84,7.84,0,0,0-.05,1.17V31.83h4.62V10.07c0-1.06,0-1.93,0-2.6s0-1.26-.05-1.72-.06-.87-.1-1.21-.09-.69-.16-1.09c.61.08,1.21.13,1.77.15s1.11,0,1.63,0c.84,0,.91.29.22.88a1.08,1.08,0,0,0-.29.58,3.47,3.47,0,0,0-.11.94V9.45l3.84,0c1.07,0,2,0,2.74-.06s1.41,0,1.95-.09l1.49-.13v3.22c-.46-.08-1-.13-1.49-.17s-1.18-.06-1.95-.07l-2.74,0-3.84,0Z"/></g></svg>