<svg xmlns="http://www.w3.org/2000/svg" viewBox="0 0 37 38"><title>radical</title><g id="Layer_2" data-name="Layer 2"><path d="M24.94,9.3q-9.4,0-14.58.08t-6.74.29V6.12l1.78.15c.67.05,1.48.09,2.44.11s2.12,0,3.48.06l4.89,0,4.86,0c1.32,0,2.43,0,3.33-.06s1.65-.06,2.24-.11l1.63-.15c-.05.69-.09,1.5-.11,2.43s0,2.18,0,3.79V30.21l3-.06c.87,0,1.61,0,2.2-.09v3.48c-1-.1-2.11-.17-3.37-.22s-2.64-.08-4.14-.08H8.21c-1,0-2.1,0-3.27.08s-2.25.12-3.24.22V30.06l1.2.07q.62,0,1.35.06l1.67,0h19V20.74H17.26c-2,0-3.71,0-5.11,0s-2.62.07-3.68.13l-3.4.24V17.63c1.06.07,2.09.13,3.09.17l3.61.09,5.21.05c2.07,0,4.73,0,8,0Z"/></g></svg>