<svg xmlns="http://www.w3.org/2000/svg" viewBox="0 0 37 38"><title>radical</title><g id="radical-114" data-name="Layer 2"><path d="M19.65,22.13c1.45-.08,2.83-.19,4.14-.34-.44-1.06-.88-2.06-1.31-3s-.86-1.8-1.28-2.59l2.44-1,1.19,2.17,1.25,2.33c.45.83.92,1.74,1.41,2.74s1.06,2.13,1.7,3.38l-3.11,1.45c-.19-.52-.4-1-.62-1.58l-.67-1.57q-3.7.22-6.09.43c-1.59.13-2.88.27-3.86.42a16.44,16.44,0,0,0-2.3.47,10.53,10.53,0,0,0-1.37.49,18.87,18.87,0,0,0-.74-1.83,11.42,11.42,0,0,0-.92-1.61c2.54-.05,4.89-.12,7.07-.22V11.4H10.75c-.63,0-1.17,0-1.63,0H7.66v23H4.25c.13-.89.21-1.87.26-2.93s.08-2.3.08-3.73V11.54A21.1,21.1,0,0,0,2,11.66V8.36a24.09,24.09,0,0,0,2.48.11c0-.34,0-.77-.07-1.27s-.11-1-.19-1.46A15.89,15.89,0,0,0,6.14,6,13.82,13.82,0,0,0,8,6.07c.44,0,.69,0,.76.18s-.11.34-.5.56a1.07,1.07,0,0,0-.43.65A3.57,3.57,0,0,0,7.7,8.58c1.13,0,2.42,0,3.86,0h5c0-.94,0-2-.12-3.22s-.17-2.48-.29-3.81q.81.07,1.83.09c.68,0,1.34,0,2,0,.34,0,.54.08.59.25s-.1.39-.44.63a1.34,1.34,0,0,0-.35.74,6.15,6.15,0,0,0-.13,1.41V8.62H23.9c1.14,0,2.17,0,3.09,0s1.84-.05,2.74-.09l3.2-.13c0,.42-.09.9-.13,1.43s-.06,1.14-.06,1.83V31.23a4,4,0,0,1-.22,1.44,2.25,2.25,0,0,1-.85,1,5.67,5.67,0,0,1-1.78.74,23.43,23.43,0,0,1-3,.52,6.21,6.21,0,0,0-.51-1.87,8.53,8.53,0,0,0-1.11-1.91,15.6,15.6,0,0,0,2.2.17,5.42,5.42,0,0,0,1.31-.15,1,1,0,0,0,.65-.41,1.17,1.17,0,0,0,.17-.61V11.4h-10Z"/></g></svg>