<svg xmlns="http://www.w3.org/2000/svg" viewBox="0 0 37 38"><title>radical</title><g id="radical-49" data-name="Layer 2"><path d="M8.14,18.93v9.69a3.54,3.54,0,0,0,.24,1.43,1.78,1.78,0,0,0,1.22.83,12.71,12.71,0,0,0,2.94.39c1.31.06,3.12.09,5.44.09s4,0,5.31-.13a7.81,7.81,0,0,0,3-.66,3.24,3.24,0,0,0,1.53-1.65,20.59,20.59,0,0,0,1-3.11c.34.3.65.55.92.76l.78.58c.24.17.5.33.76.48s.54.29.87.44c-.33,1-.62,1.91-.89,2.61a6.29,6.29,0,0,1-1,1.76,4.16,4.16,0,0,1-1.48,1.09,9.2,9.2,0,0,1-2.3.59,30.55,30.55,0,0,1-3.46.24c-1.36,0-3,0-5,0-3.14,0-5.58,0-7.35-.13a19.67,19.67,0,0,1-3.94-.5,2.29,2.29,0,0,1-1.59-1.06A4.38,4.38,0,0,1,4.85,31V19.23c0-.89,0-1.56,0-2a8,8,0,0,0-.19-1.3c.4.05.8.08,1.22.1l1.78,0c.77,0,1.78,0,3.05,0h13.6V8.05H14.76q-4.69,0-7.56.15t-4.35.33V4.69A42.65,42.65,0,0,0,7.23,5q2.91.09,7.68.09c3.16,0,5.82,0,8-.11s3.81-.17,4.92-.29c-.05.49-.08,1-.11,1.49s0,1.08,0,1.72V15q0,1.56.06,2.91c0,.9.09,1.85.17,2.86H24.27V18.93Z"/></g></svg>