<svg xmlns="http://www.w3.org/2000/svg" viewBox="0 0 37 38"><title>radical</title><g id="radical-169" data-name="Layer 6"><path d="M8.18,12.43a1.65,1.65,0,0,0-.18.76q0,.57,0,2.16V29.61c0,.91,0,1.75,0,2.52s0,1.66.09,2.7H4.51a48.31,48.31,0,0,0,.32-5.15V15.42q0-1.26,0-2.25c0-.66-.06-1.32-.11-2,.58.08,1.13.14,1.66.18s1,.08,1.33.08c.57,0,.89.06.93.18S8.52,12,8.18,12.43Zm2.09-2.62A20.15,20.15,0,0,0,9,7,24.39,24.39,0,0,0,7.28,4.59l3-1.48c.55,1.06,1.06,2,1.52,2.75s1,1.58,1.57,2.4ZM31.69,5.52c-.05.41-.09,1-.13,1.78s0,1.57,0,2.36V29.93a18.6,18.6,0,0,1-.13,2.54,2.3,2.3,0,0,1-.73,1.46,4.39,4.39,0,0,1-1.89.84c-.86.21-2.05.45-3.59.74a9.74,9.74,0,0,0-.43-1.84,12.78,12.78,0,0,0-.93-2,25.08,25.08,0,0,0,2.52.09,2.71,2.71,0,0,0,1.36-.3,1.22,1.22,0,0,0,.58-.9,10.45,10.45,0,0,0,.11-1.69V8.33H22.33c-.77,0-1.7,0-2.81.05s-2.39.11-3.85.2v-3c1.46.07,2.8.12,4,.14s2.53,0,3.95,0,2.83,0,4.19-.06S30.47,5.59,31.69,5.52Z"/></g></svg>