<svg xmlns="http://www.w3.org/2000/svg" viewBox="0 0 37 38"><title>radical</title><g id="Layer_2" data-name="Layer 2"><path d="M18.35,30c0,.82,0,1.73.06,2.74s.08,2,.13,2.92H15.13c.08-.94.14-1.91.19-2.92s.07-1.92.07-2.74c-2.89,0-5.47.06-7.77.11s-4.24.14-5.84.26V27.23c1.62.12,3.58.21,5.86.26s4.86.08,7.75.11V24.23c-2.22,0-4.11.06-5.66.11s-3,.14-4.22.26V21.68c1.28.12,2.7.21,4.26.26s3.43.08,5.62.11V18.9c-1.23,0-2.35,0-3.37,0L9.23,19c-.85,0-1.62.06-2.31.11l-2,.15V16.35c.61.07,1.28.13,2,.18s1.49.08,2.33.1l2.75,0c1,0,2.12,0,3.35,0V13.46H8.1c-1.55,0-2.85,0-3.88.09s-2,.15-2.78.24v-3c.82.1,1.74.18,2.78.24s2.33.09,3.88.09h7.29V8C13,8,11.07,8,9.62,8.06S7,8.2,6,8.32v-3c1,.13,2.17.22,3.63.28s3.37.11,5.73.13a24.13,24.13,0,0,0-.29-4c.64.13,1.23.22,1.76.28a16,16,0,0,0,1.79.09c.76,0,.85.25.26.74a2,2,0,0,0-.41.47,1.13,1.13,0,0,0-.11.53V5.73c2.44,0,4.6-.07,6.48-.13a39.27,39.27,0,0,0,4.1-.28c-.05.64-.09,1.43-.13,2.35s-.06,2.08-.09,3.46c1.06,0,2-.06,2.74-.11s1.47-.12,2.11-.22v3c-.69-.09-1.41-.16-2.17-.2s-1.64-.07-2.68-.09c0,1.33.06,2.46.09,3.38s.08,1.71.13,2.35c-.47-.07-1-.13-1.55-.16S26.12,19,25.31,19s-1.79-.05-2.93-.06l-4,0v3.15q3.51,0,5.94-.1c1.61-.06,3.08-.15,4.38-.27V24.6c-1.3-.1-2.77-.19-4.38-.26s-3.6-.11-5.94-.11V27.6q4.37,0,7.68-.1c2.21-.06,4.12-.15,5.75-.27v3.14c-1.63-.12-3.54-.21-5.75-.28S21.26,30,18.35,30Zm0-18.87h7.44V8H18.35Zm0,5.55h7.44V13.46H18.35Z"/></g></svg>