<svg xmlns="http://www.w3.org/2000/svg" viewBox="0 0 37 38"><title>radical</title><g id="radical-213" data-name="Layer 6"><path d="M20.09,31.35a2.14,2.14,0,0,0,.09.69.79.79,0,0,0,.4.41,2.31,2.31,0,0,0,.83.22c.34,0,.81,0,1.38,0H29a12,12,0,0,0,1.66-.09,1.31,1.31,0,0,0,.9-.47A2.26,2.26,0,0,0,31.9,31c.05-.52.07-1.22.07-2.11a7.87,7.87,0,0,0,2,1.25,4.47,4.47,0,0,0,1.62.3A24,24,0,0,1,34.89,33a3.58,3.58,0,0,1-.9,1.48,3.05,3.05,0,0,1-1.51.68,14.77,14.77,0,0,1-2.45.16l-3.26,0-4.52,0q-1.8,0-2.79-.09A2.63,2.63,0,0,1,18,34.77a1.74,1.74,0,0,1-.6-1.2,18.37,18.37,0,0,1-.11-2.25V28.18H14c-1,0-1.89,0-2.72,0L9,28.29l-2.05.07c0-.57,0-1.3,0-2.17s0-1.71,0-2.51v-10l-.94.72L5.22,15a8.42,8.42,0,0,0-1-1.14A4.62,4.62,0,0,0,2.88,13a15.17,15.17,0,0,0,3.06-1.71,33.1,33.1,0,0,0,3.3-2.61,33.59,33.59,0,0,0,2.91-3A13.15,13.15,0,0,0,14.08,3c.6.27,1.15.48,1.64.65a10.72,10.72,0,0,0,1.53.4c.29,0,.44.14.45.29s-.15.28-.49.43a4.31,4.31,0,0,0-.57.29,3.61,3.61,0,0,0-.54.36,5.08,5.08,0,0,0-.65.57c-.24.24-.52.54-.83.9H24.93c.57,0,1,0,1.39,0l.85,0,.63-.06c-.22.27-.54.64-1,1.12s-.83,1-1.24,1.51l-2.77,3.53c.89,0,1.67,0,2.36,0l1.92-.07,1.8-.09,1.95-.12c0,.4,0,.84,0,1.31V27.12c0,.57,0,1,0,1.39l-2-.13-2.34-.09-2.84-.07c-1.05,0-2.23,0-3.55,0ZM22.54,9.07H12.46c-.62.57-1.33,1.2-2.12,1.89S8.75,12.3,8,12.92H19.59Zm-5.26,6.19H9.8v4.25h7.48Zm0,6.44H9.8v4.18h7.48Zm2.81-2.19h7.85V15.26H20.09Zm0,6.37h7.85V21.7H20.09Z"/></g></svg>