<svg xmlns="http://www.w3.org/2000/svg" viewBox="0 0 37 38"><title>radical</title><g id="radical-96" data-name="Layer 2"><path d="M18.79,29.27c3.19,0,5.92,0,8.22-.09s4.33-.16,6.1-.28v3.66q-2.8-.18-6.56-.3c-2.51-.07-5.52-.11-9-.11s-6.52,0-9.06.11-4.74.18-6.59.3V28.9q2.6.18,5.86.26c2.19.05,4.77.08,7.75.11V18.13c-2,0-3.84.06-5.4.11s-2.92.14-4.1.26V15c1.2.12,2.58.21,4.12.25s3.34.09,5.38.12V7c-2.71,0-5,0-6.78.07s-3.41.13-4.8.23V3.81q2.44.19,5.85.28t7.88.09q4.49,0,8-.09c2.31-.06,4.28-.15,5.88-.28V7.33q-2.22-.2-5.4-.24T18.79,7v8.33q3.48,0,6-.1T29.3,15V18.5c-1.28-.12-2.77-.21-4.47-.28s-3.72-.09-6-.09Zm8.15-1.78c-.67-.94-1.39-1.86-2.17-2.77A25.22,25.22,0,0,0,22.09,22l2.59-1.78c.47.44.91.87,1.33,1.28s.83.81,1.24,1.22.81.83,1.22,1.27l1.31,1.45Z"/></g></svg>