<svg xmlns="http://www.w3.org/2000/svg" viewBox="0 0 37 38"><title>radical</title><g id="Layer_2" data-name="Layer 2"><path d="M18.79,16.56a14.25,14.25,0,0,0,1.1,5.71,13.17,13.17,0,0,0,3.05,4.41,15.92,15.92,0,0,0,4.64,3,21.3,21.3,0,0,0,5.83,1.57,11.4,11.4,0,0,0-2.44,4,32.84,32.84,0,0,1-4.57-1.94,19.38,19.38,0,0,1-3.92-2.71,16.1,16.1,0,0,1-3-3.6,15,15,0,0,1-1.85-4.63A19,19,0,0,1,16,26.69a14.46,14.46,0,0,1-2.62,3.48,22.14,22.14,0,0,1-3.89,3,43,43,0,0,1-5.38,2.77,4.28,4.28,0,0,0-.8-1.4A9,9,0,0,0,1.59,33a36.08,36.08,0,0,0,5.25-2,16.87,16.87,0,0,0,3.89-2.58A11.8,11.8,0,0,0,13.36,25a16.56,16.56,0,0,0,1.48-4.49c.12-.75.22-1.4.31-2s.15-1.1.19-1.61.05-1,.05-1.48,0-1,0-1.53a14,14,0,0,0,2.13.3,15.09,15.09,0,0,0,1.91,0c.34-.05.52,0,.53.18s-.11.37-.38.59A3.11,3.11,0,0,0,18.79,16.56Zm6.15-6.92,1.85,0c.61,0,1.21,0,1.77-.06s1.09-.05,1.58-.09.86-.08,1.16-.13l-2.48,7.85H25.31l1.44-4.78H10.36c-.35.54-.72,1.12-1.13,1.72s-.82,1.2-1.24,1.8L6.75,17.65c-.41.55-.77,1-1.09,1.42a11.37,11.37,0,0,0-1.35-1c-.48-.3-1-.61-1.57-.9a24.41,24.41,0,0,0,2.75-3A30,30,0,0,0,7.9,10.54a36.43,36.43,0,0,0,2-4A35.69,35.69,0,0,0,11.32,2.5c.27.12.58.24.93.37s.7.24,1.07.35l1,.31a5.56,5.56,0,0,0,.84.19c.27,0,.42.14.46.27s-.09.31-.39.5a2.52,2.52,0,0,0-.43.37,8.27,8.27,0,0,0-.61.82c-.24.37-.55.87-.92,1.51S12.5,8.65,12,9.64Z"/></g></svg>