<svg xmlns="http://www.w3.org/2000/svg" viewBox="0 0 37 38"><title>radical</title><g id="radical-88" data-name="Layer 2"><path d="M17.46,23.1A18.2,18.2,0,0,0,19.05,21a16.67,16.67,0,0,0,1.28-2.33,29.2,29.2,0,0,0,1.09-2.75c.35-1,.68-2.12,1-3.35.25.1.54.2.87.31l1,.32.94.26c.3.07.52.12.67.14.42.05.64.13.67.23s-.14.28-.49.55a9.65,9.65,0,0,0-1.29,2.33,48.38,48.38,0,0,1-2.46,4.79,23.74,23.74,0,0,1-2.61,3.57,22.86,22.86,0,0,0,6.11,3.17A39.76,39.76,0,0,0,34,30.09a15.38,15.38,0,0,0-1.29,2.16,12.31,12.31,0,0,0-.78,2.09,45.16,45.16,0,0,1-8.17-3.08A31.67,31.67,0,0,1,17.5,27.2a34.4,34.4,0,0,1-6.2,4.22,57.7,57.7,0,0,1-7.53,3.37c-.42-.57-.84-1.09-1.27-1.57s-.93-1-1.5-1.5a41.31,41.31,0,0,0,4.22-1.19A39.87,39.87,0,0,0,9.16,29a31.67,31.67,0,0,0,3.44-1.83,26.51,26.51,0,0,0,2.79-2,23.11,23.11,0,0,1-3.66-5.35,26.33,26.33,0,0,1-2.11-6.16l2.81-.48a26.54,26.54,0,0,0,2,5.5A18.49,18.49,0,0,0,17.46,23.1ZM14.87,5.56c.3.1.45.19.45.28s-.19.19-.56.31a3.85,3.85,0,0,0-.74.59A16.73,16.73,0,0,0,12.84,8c-.42.52-1,1.14-1.61,1.85s-1.34,1.45-2.06,2.2S7.74,13.54,7,14.25s-1.35,1.32-1.89,1.82A5.59,5.59,0,0,0,3.9,15a9.71,9.71,0,0,0-1.9-.9,14.91,14.91,0,0,0,2.55-1.84A27.1,27.1,0,0,0,7.12,9.7,32.17,32.17,0,0,0,9.43,6.78a23.16,23.16,0,0,0,1.78-2.89l.91.49,1,.49c.35.17.68.31,1,.43A6.93,6.93,0,0,0,14.87,5.56ZM30.26,14.7c-.69-.77-1.38-1.51-2.09-2.22s-1.45-1.43-2.25-2.13S24.26,9,23.36,8.28s-1.88-1.36-2.94-2.06L22.9,4C25.05,5.44,27,6.81,28.6,8.13s3.22,2.66,4.7,4Z"/></g></svg>