<svg xmlns="http://www.w3.org/2000/svg" viewBox="0 0 37 38"><title>radical</title><g id="Layer_2" data-name="Layer 2"><path d="M27.3,8.54c1,0,1.89,0,2.54-.07s1.23-.11,1.72-.19a45.13,45.13,0,0,1-2.33,9.57,24.5,24.5,0,0,1-4.18,7.38,21.07,21.07,0,0,1-3.2,3.05,27.3,27.3,0,0,1-4.09,2.59,46.31,46.31,0,0,1-5.18,2.28Q9.7,34.22,6.1,35.25a19.62,19.62,0,0,0-1.25-2,11.37,11.37,0,0,0-1.41-1.61A28.52,28.52,0,0,0,7.75,31a36.17,36.17,0,0,0,4.5-1.33,32.35,32.35,0,0,0,4.23-1.89,25.42,25.42,0,0,0,3.61-2.29C18.78,24.22,17.42,23,16,21.94a41.46,41.46,0,0,0-4.09-2.85l1.71-2.45q2.33,1.61,4.47,3.19t4.33,3.36A16.86,16.86,0,0,0,24,20.79a28.07,28.07,0,0,0,1.36-2.87c.4-1,.77-2,1.09-3.09a29.27,29.27,0,0,0,.77-3.14H13.76a44.17,44.17,0,0,1-3,4.77q-1.7,2.33-3.46,4.4a3.87,3.87,0,0,0-1.41-1,7.85,7.85,0,0,0-2.14-.68,33.81,33.81,0,0,0,6.43-7.7A31.67,31.67,0,0,0,14.1,2c.27.1.6.21,1,.32l1.21.31,1.14.26a4.87,4.87,0,0,0,.87.11c.92,0,1,.3.23.74a5.36,5.36,0,0,0-1.17,1.39,37.59,37.59,0,0,0-2,3.42Z"/></g></svg>