<svg xmlns="http://www.w3.org/2000/svg" viewBox="0 0 37 38"><title>radical</title><g id="radical-123" data-name="Layer 2"><path d="M16,11.28q-4.29,0-7.56.09c-2.19.06-4.08.16-5.68.28V8.17c1,.08,2.07.14,3.35.19l4.08.13c1.46,0,3,.06,4.57.07s3.19,0,4.8,0A12.28,12.28,0,0,0,20.48,7c.31-.61.6-1.23.89-1.89a20.54,20.54,0,0,0,.74-2c.21-.66.37-1.29.5-1.88a18.13,18.13,0,0,0,2.18.94,6.62,6.62,0,0,0,1.74.42c.29,0,.45.12.48.26s-.11.31-.41.48a5.54,5.54,0,0,0-1.52,1.5A37.89,37.89,0,0,0,22.72,8.5c1.92,0,3.65-.06,5.18-.11s2.89-.12,4.1-.22v3.48c-1.55-.12-3.37-.21-5.45-.26s-4.51-.09-7.27-.11v5.33c2.24,0,4.2-.06,5.88-.11s3.16-.14,4.44-.26v3.51c-1.28-.12-2.76-.21-4.44-.26s-3.64-.08-5.88-.11v5.37c3.2,0,6,0,8.32-.1s4.42-.15,6.22-.27v3.48c-1.8-.13-3.88-.22-6.22-.28s-5.12-.09-8.32-.09c0,.56,0,1.19,0,1.86s.05,1.39.08,2.11.06,1.45.11,2.17.1,1.38.15,2h-4c.05-.61.1-1.28.15-2s.09-1.44.11-2.17.05-1.43.08-2.11,0-1.3,0-1.86q-4.77,0-8.47.11c-2.47,0-4.59.13-6.36.26V24.38q2.66.18,6.36.27t8.47.1V19.38c-2.44,0-4.57.06-6.4.11s-3.41.14-4.77.26V16.24c1.36.12,3,.21,4.79.27s4,.1,6.38.1ZM11.1,7.88A23.92,23.92,0,0,0,9.92,5.49,15.19,15.19,0,0,0,8.44,3.32l3.47-1.51c.32.61.72,1.3,1.21,2.05s1,1.51,1.53,2.28Z"/></g></svg>