<svg xmlns="http://www.w3.org/2000/svg" viewBox="0 0 37 38"><title>radical</title><g id="radical-15" data-name="Layer 2"><path d="M23.12,18.54c-.27.27-.55.57-.85.9l-1,1.13c-.35.42-.73.91-1.15,1.48s-.9,1.24-1.44,2L17.41,25.9c-.36.49-.67.94-.95,1.33s-.53.79-.77,1.17l-.85,1.31c-.5-.57-1-1.11-1.5-1.63s-1-1-1.5-1.44c.37-.32.71-.63,1-.93s.65-.62,1-1,.76-.78,1.2-1.27l1.63-1.82a22.39,22.39,0,0,0,2.11-2.83c.69-1.07,1.36-2.21,2-3.42a9.3,9.3,0,0,0,2.29,3.15ZM19,12.14a19.74,19.74,0,0,0-2.81-3,17.8,17.8,0,0,0-3-2L15.72,5l1.13.9c.36.29.75.6,1.19.93S19,7.5,19.5,7.94s1.21.94,2,1.53Z"/></g></svg>