<svg xmlns="http://www.w3.org/2000/svg" viewBox="0 0 37 38"><title>radical</title><g id="radical-126" data-name="Layer 2"><path d="M15.91,7.32c-2.34,0-4.28,0-5.81,0s-2.81,0-3.85.09-1.92.08-2.64.13l-2.24.15V4.25c.84.07,1.65.13,2.44.17l3,.09c1.19,0,2.69,0,4.49,0s4.15,0,7,0c3.09,0,5.92,0,8.51-.09s4.85-.15,6.77-.28V7.76q-2.73-.25-6.32-.35t-7.85-.09l-.92,5.14h5.18c1.45,0,2.69,0,3.7-.08s1.81-.07,2.4-.11,1-.08,1.34-.13c0,.2-.05.42-.08.67s0,.55-.05.92,0,.83,0,1.39,0,1.25,0,2.09v13a15.83,15.83,0,0,1-.13,2.31,2.37,2.37,0,0,1-.7,1.41,3.85,3.85,0,0,1-1.76.81c-.79.19-1.89.36-3.29.54a6.49,6.49,0,0,0-.45-2,6.27,6.27,0,0,0-1.14-1.81c1,.1,1.76.14,2.33.14a2.78,2.78,0,0,0,1.27-.22.94.94,0,0,0,.52-.72,8.21,8.21,0,0,0,.09-1.39V14.91H22.24v11c0,1,0,1.92,0,2.72s.08,1.72.15,2.76H19.2c.08-1,.13-1.92.15-2.72s0-1.71,0-2.72v-11H14.87V28.19c0,.61,0,1.14,0,1.59s0,.83.06,1.16.05.66.07,1H11.84c.05-.32.08-.64.11-1s.05-.72.07-1.16,0-1,0-1.59V14.91H7.33V34.77H3.74A17.14,17.14,0,0,0,4,33a18.69,18.69,0,0,0,.13-2.18V17.2c0-.94,0-1.84,0-2.7S4,12.83,3.88,12.09l1.21.15c.43,0,1,.09,1.87.11l3.23.08q2,0,5.31,0Z"/></g></svg>