<svg xmlns="http://www.w3.org/2000/svg" viewBox="0 0 37 38"><title>radical</title><g id="radical-137" data-name="Layer 2"><path d="M13.28,5.87A19.7,19.7,0,0,0,14,3.63a14.32,14.32,0,0,0,.29-2.39c.62.18,1.34.35,2.17.52s1.48.3,2,.37.53.29.11.63c-.17.15-.33.29-.46.43a3.16,3.16,0,0,0-.43.53,8.34,8.34,0,0,0-.48.84c-.17.33-.37.77-.59,1.31l3,0,2.94,0,2.72,0,2.33-.08c0,.37-.05.77-.08,1.19s0,.91-.05,1.48,0,1.23,0,2V18c2.39-.05,4.64-.16,6.73-.34v3.41c-1.06-.1-2.15-.18-3.27-.23s-2.28-.07-3.46-.07V31a17.18,17.18,0,0,1-.13,2.44,2.19,2.19,0,0,1-.7,1.39,3.93,3.93,0,0,1-1.8.76c-.81.17-1.93.35-3.37.52a6.69,6.69,0,0,0-.48-1.83,8,8,0,0,0-1.18-2,12.63,12.63,0,0,0,2.28.15,3.23,3.23,0,0,0,1.33-.27,1.28,1.28,0,0,0,.63-.71,3.67,3.67,0,0,0,.16-1.2V20.74H10.69A22.07,22.07,0,0,1,10.14,25a24.06,24.06,0,0,1-1.3,4A24.16,24.16,0,0,1,7,32.51a21.16,21.16,0,0,1-2.37,3,10.87,10.87,0,0,0-1.69-1A17.75,17.75,0,0,0,1,33.69a13.75,13.75,0,0,0,4.46-5.16,19.26,19.26,0,0,0,2.05-7.79Q4,20.82.89,21.08V17.67Q4,17.94,7.51,18V5.68l1.28.06,1.29.06,1.46,0ZM24.12,18V8.57H10.69V18ZM15.61,29.33c0-1.21-.13-2.36-.24-3.44s-.24-2-.39-2.82l3.15-.4c.15,1,.29,2,.42,3s.28,2,.43,3Zm.3-13.06c-.05-.6-.11-1.13-.17-1.61s-.12-.93-.16-1.35-.12-.82-.19-1.19-.16-.75-.26-1.14l3.29-.49c.08.52.15,1,.21,1.39s.12.8.16,1.19l.15,1.16c0,.4.1.85.15,1.37Z"/></g></svg>