<svg xmlns="http://www.w3.org/2000/svg" viewBox="0 0 37 38"><title>radical</title><g id="radical-62" data-name="Layer 2"><path d="M19.09,23.22a30.12,30.12,0,0,0,3.63-3.82A17.6,17.6,0,0,0,25,15.59a8.85,8.85,0,0,0,1.68,1.15,9.63,9.63,0,0,0,1.54.63c.35.12.54.24.59.35s-.1.25-.44.43a7.6,7.6,0,0,0-2.26,1.92q-1.34,1.56-2.7,3a36.83,36.83,0,0,1-2.74,2.62,28,28,0,0,0,2.8,2.84,20.38,20.38,0,0,0,2.4,1.81,11.53,11.53,0,0,0,1.89,1,3.77,3.77,0,0,0,1.27.29c.27,0,.55-.29.82-.88A12.36,12.36,0,0,0,30.6,28a5.74,5.74,0,0,0,1.33,1.55,4.41,4.41,0,0,0,1.41.82c-.32,1-.62,1.85-.89,2.51a7.58,7.58,0,0,1-.83,1.58,2.93,2.93,0,0,1-.87.81,2.08,2.08,0,0,1-1,.24,5.88,5.88,0,0,1-2-.56,19,19,0,0,1-2.92-1.57,25.29,25.29,0,0,1-3.26-2.51,21.43,21.43,0,0,1-3-3.39q-1.3,1-2.52,1.83a28.8,28.8,0,0,1-2.66,1.61c-1,.52-2,1-3.19,1.54s-2.5,1-4,1.64a8.13,8.13,0,0,0-3-2.81c1.58-.42,3-.85,4.33-1.29s2.52-.92,3.63-1.43a28,28,0,0,0,3.09-1.63A28,28,0,0,0,17,25a29.27,29.27,0,0,1-2.09-4.68,39.74,39.74,0,0,1-1.39-5l-5.29.85c-1,.17-2.08.38-3.14.61s-2,.46-2.78.68L1.63,14c.79-.05,1.73-.11,2.83-.2s2.19-.22,3.27-.39l5.33-.78c-.35-2-.61-3.78-.8-5.36s-.33-3.06-.46-4.44a12.76,12.76,0,0,0,3.81.22c1-.07,1.11.31.37,1.15a1.64,1.64,0,0,0-.27.74,7.64,7.64,0,0,0-.1,1.44c0,.62,0,1.4.11,2.35s.19,2.1.34,3.46l10-1.52c.89-.15,1.84-.33,2.83-.55a23.61,23.61,0,0,0,2.47-.67L32,12.71c-.72,0-1.59.09-2.63.2s-2,.23-3,.35l-9.95,1.59c.1.52.24,1.14.42,1.85s.4,1.46.65,2.22.51,1.53.78,2.28S18.82,22.62,19.09,23.22ZM23.86,9.67C23.3,9,22.7,8.41,22.07,7.81S20.82,6.63,20.2,6.08l2.44-2.22c.55.57,1.16,1.16,1.83,1.78s1.37,1.22,2.06,1.81Z"/></g></svg>