<svg xmlns="http://www.w3.org/2000/svg" viewBox="0 0 37 38"><title>radical</title><g id="radical-190" data-name="Layer 2"><path d="M6.81,26.32c-1.26,0-2.43.06-3.5.11s-1.92.1-2.53.15V23.43c1.13.1,2.39.17,3.77.22V8.58c0-.51,0-1,0-1.34s0-.73,0-1-.05-.63-.08-.93c.52,0,1,.1,1.48.13s1,.07,1.54.08l1.9,0c.72,0,1.58,0,2.59,0h2.52c.69,0,1.31,0,1.85,0l1.52-.1,1.51-.13V8.52c-.79-.07-1.55-.12-2.27-.15s-1.54,0-2.43,0H7.21v3.48H11.8c1.26,0,2.36,0,3.31-.05s1.82-.11,2.61-.21v3.22c-.79-.07-1.64-.12-2.57-.15s-2,0-3.35,0H7.21v3.25H11.8q2,0,3.33,0c.91,0,1.78-.09,2.59-.19v3.15l-2.5-.17q-1.31-.09-3.42-.09H7.21v3.14h7.15c.88,0,1.74,0,2.57-.07l2.38-.15v3.15l-1.22-.1-1.42-.09-1.83-.05c-.69,0-1.5,0-2.41,0H9.54a24.13,24.13,0,0,1-1.46,2.77,27.35,27.35,0,0,1-1.79,2.59l8.21-.52q-.51-.84-1-1.53c-.29-.46-.59-.89-.89-1.31L14.72,27c.45.57.91,1.18,1.39,1.82s.95,1.29,1.39,2,.86,1.32,1.26,2,.74,1.25,1,1.79L17.2,36.31c-.24-.52-.5-1-.75-1.56s-.53-1-.8-1.48L6,34.31c-.28,0-.6.07-1,.13l-1.23.2-1.25.24-1.09.24a14.89,14.89,0,0,0-.34-1.79,8.42,8.42,0,0,0-.52-1.5c.35,0,.76,0,1.24,0H3.33c.86-1.21,1.57-2.24,2.11-3.09A22.14,22.14,0,0,0,6.81,26.32ZM32.74,6.78c.3.25.42.45.37.61s-.28.24-.7.24A5.55,5.55,0,0,0,31,8,8.18,8.18,0,0,0,28.9,9c-1.34.91-2.74,1.82-4.22,2.72a43.58,43.58,0,0,1-4.29,2.31,4.56,4.56,0,0,0-.34-.72,6.8,6.8,0,0,0-.5-.78,8.32,8.32,0,0,0-.59-.74,4.53,4.53,0,0,0-.57-.54,27.65,27.65,0,0,0,6.31-3,53.52,53.52,0,0,0,5.53-4.15A17.66,17.66,0,0,0,31.6,5.76,8.56,8.56,0,0,0,32.74,6.78ZM32.52,17.1c.27.2.38.37.34.52s-.21.24-.49.26a6.75,6.75,0,0,0-1.61.37,10.54,10.54,0,0,0-1.6.74q-2.41,1.41-4.26,2.46a37.78,37.78,0,0,1-3.7,1.87,6.77,6.77,0,0,0-2.07-2.74,25.75,25.75,0,0,0,3.18-1.2c1.06-.48,2.08-1,3.05-1.55s1.88-1.13,2.72-1.71,1.57-1.12,2.18-1.64a16.46,16.46,0,0,0,1.24,1.66A9,9,0,0,0,32.52,17.1Zm1.37,10.22c.37.22.53.42.46.59s-.29.28-.68.33a6.41,6.41,0,0,0-1.5.61,14.34,14.34,0,0,0-1.68,1c-.87.64-1.64,1.2-2.33,1.68s-1.37.92-2,1.32-1.35.77-2.05,1.13-1.5.72-2.39,1.09a3.51,3.51,0,0,0-.92-1.63,11.12,11.12,0,0,0-1.41-1.19c1.45-.56,2.76-1.12,3.92-1.68a29.47,29.47,0,0,0,3.18-1.74,23.66,23.66,0,0,0,2.67-1.92,29.08,29.08,0,0,0,2.37-2.24c.46.64.85,1.15,1.14,1.52A5.92,5.92,0,0,0,33.89,27.32Z"/></g></svg>