<svg xmlns="http://www.w3.org/2000/svg" viewBox="0 0 37 38"><title>radical</title><g id="Layer_2" data-name="Layer 2"><path d="M11.43,7.25a25.12,25.12,0,0,0,.76-3.35,14.53,14.53,0,0,0,.17-3c.74.19,1.53.37,2.36.53a19.85,19.85,0,0,0,2.45.32c.24,0,.37.1.37.24s-.21.31-.63.53a1.74,1.74,0,0,0-.46.39,4.19,4.19,0,0,0-.52.82,13.08,13.08,0,0,0-.61,1.38c-.23.57-.48,1.27-.78,2.11h8.1c.52,0,1.11,0,1.78,0s1.36,0,2.07-.07l2.17-.11,2-.13a20.74,20.74,0,0,0-.31,2.7c-.09,1.23-.13,2.71-.13,4.44V26.49c0,1.41,0,2.79.11,4.15s.17,2.45.29,3.29H26.9V30.67H8v3.74H4.37c.07-.39.13-.89.18-1.48s.09-1.23.13-1.92.06-1.42.07-2.19,0-1.5,0-2.22V14.06c0-1.82,0-3.33-.13-4.51a20.21,20.21,0,0,0-.31-2.63c1.33.12,2.56.21,3.7.26S10.3,7.25,11.43,7.25ZM26.9,17.58V10.06H8v7.52ZM8,20.39V27.9H26.9V20.39Z"/></g></svg>