<svg xmlns="http://www.w3.org/2000/svg" viewBox="0 0 37 38"><title>radical</title><g id="radical-38" data-name="Layer 2"><path d="M21.64,25.56q2.67,1.41,5.18,2.81t5,2.82a22.68,22.68,0,0,0-2.55,3.25c-1.23-1-2.65-2.11-4.26-3.22s-3.4-2.24-5.4-3.4A26.38,26.38,0,0,1,13.26,32a39.79,39.79,0,0,1-8.64,3A10.44,10.44,0,0,0,3.7,33.5,14.09,14.09,0,0,0,2.48,32a45,45,0,0,0,8.45-2.37,20.26,20.26,0,0,0,5.76-3.48q-2-1.07-4.07-2.15T8.18,21.86q1.29-2.47,2.12-4.2c.56-1.15,1-2.25,1.46-3.31-1,0-2,0-3,0l-2.91,0c-.92,0-1.78,0-2.57.08s-1.45.08-2,.13V11.17l2.19.15c.86,0,1.8.08,2.81.11l3.2.05c1.12,0,2.24,0,3.35,0q1-2.8,1.64-5.31a36.68,36.68,0,0,0,.91-4.38c.72.24,1.44.47,2.18.68a12.46,12.46,0,0,0,1.71.39q.63.08.63.3c0,.14-.18.37-.52.66a1.43,1.43,0,0,0-.19.3c-.07.15-.22.47-.44,1l-1,2.26c-.43,1-1,2.37-1.76,4.12h9.51c2.89,0,5.61-.11,8.18-.33v3.48c-1.21-.13-2.46-.21-3.74-.24s-2.59-.06-3.92-.06a36.68,36.68,0,0,1-1.76,6.4A19.86,19.86,0,0,1,21.64,25.56Zm-9.51-4.73q3.45,1.62,6.55,3.21a14.37,14.37,0,0,0,1.26-1.85,18.2,18.2,0,0,0,1-2.12c.32-.78.63-1.64.92-2.57s.6-2,.89-3.15H14.84Z"/></g></svg>