<svg xmlns="http://www.w3.org/2000/svg" viewBox="0 0 37 38"><title>radical</title><g id="radical-177" data-name="Layer 2"><path d="M15.8,25.24c-1,0-2,0-2.89,0l-2.51.08c-.79,0-1.56.06-2.32.11l-2.27.14c.12-.76.21-1.52.26-2.27a20.32,20.32,0,0,0,0-2.2c0-.72,0-1.45,0-2.19a20.91,20.91,0,0,0-.24-2.22c.79.08,1.55.13,2.29.17s1.5.07,2.28.09l2.48.08q1.31,0,2.94,0V14.33c-1.38,0-2.57.06-3.57.11s-1.88.11-2.65.18c.1-.64.17-1.19.21-1.66s.05-.92.05-1.37V8.89c-1.55,0-2.95,0-4.2.07s-2.42.13-3.53.23V6.3c1.18.1,2.38.17,3.61.22s2.59.08,4.12.08c0-1-.06-1.78-.11-2.3A7.12,7.12,0,0,0,9.51,3c.79.05,1.45.07,2,.07A16.45,16.45,0,0,0,13.28,3c.3-.05.46,0,.48.11s-.1.27-.37.45a2.33,2.33,0,0,0-.55.51,1.07,1.07,0,0,0-.15.6v2h9.06c0-1.11,0-1.94-.07-2.48s-.11-1-.18-1.45a17.27,17.27,0,0,0,2,.17c.57,0,1.21,0,1.9,0,.27,0,.43,0,.48.14s-.07.29-.37.48a1.77,1.77,0,0,0-.61.54,1.25,1.25,0,0,0-.13.61v2c1.65,0,3.16,0,4.52-.08S31.88,6.4,33,6.3V9.19Q31.38,9,29.32,9c-1.37,0-2.89-.06-4.57-.06v2.85c0,.42,0,.86.06,1.33a15.67,15.67,0,0,0,.2,1.59q-2.55-.25-6.29-.33V17.1H22c1,0,1.89,0,2.74-.08l2.42-.11c.76,0,1.52-.09,2.26-.17-.08.69-.14,1.4-.19,2.11s-.07,1.43-.07,2.15,0,1.57,0,2.33a17,17,0,0,0,.24,2.26c-.79-.08-1.58-.13-2.35-.17s-1.59-.07-2.43-.09-1.73,0-2.7-.06l-3.18,0v3.3q4.77,0,8.1-.06c2.22,0,4.18-.11,5.89-.24v3q-2.57-.15-5.89-.24t-8.1-.13c0,.57,0,1.09,0,1.56s0,.92,0,1.36,0,.89.06,1.32.06.9.11,1.42H15.5c.1-1,.17-1.9.21-2.74s.06-1.81.09-2.92l-4.24,0c-1.29,0-2.5,0-3.61.07l-3.14.13L2,31.2v-3c1.78.13,3.76.2,5.94.24s4.81.06,7.9.06Zm0-5.92h-7v3.82h7Zm-3.11-7.17h9.06V8.89H12.69Zm6,11h7.47V19.32H18.72Z"/></g></svg>