<svg xmlns="http://www.w3.org/2000/svg" viewBox="0 0 37 38"><title>radical</title><g id="radical-97" data-name="Layer 2"><path d="M21.64,6.22c-.79.14-1.59.28-2.42.4L16.72,7l-.44,21.76c.69-.12,1.34-.25,1.94-.37s1.13-.25,1.57-.37c-.29-.64-.59-1.26-.88-1.85s-.58-1.12-.85-1.59l2.47-1.15c.3.59.58,1.17.85,1.72l.89,1.78c.32.63.68,1.31,1.08,2l1.36,2.54-2.92,1.33c-.15-.42-.3-.85-.46-1.28s-.34-.87-.54-1.31L14,31.82c-.61.15-1.17.31-1.66.48a18,18,0,0,0-1.67.7,15.45,15.45,0,0,0-.53-1.66,5.59,5.59,0,0,0-.76-1.44c.37,0,.91-.1,1.63-.21s1.51-.25,2.4-.42l.45-21.91c-1,.13-1.92.23-2.8.3s-1.67.14-2.38.18l-.22,7.74c0,2-.18,3.8-.38,5.49a40.1,40.1,0,0,1-.83,4.81,28.2,28.2,0,0,1-1.37,4.31,28.14,28.14,0,0,1-2,4,4.46,4.46,0,0,0-.59-.41,6.14,6.14,0,0,0-.85-.4c-.32-.13-.65-.24-1-.35a5.42,5.42,0,0,0-.94-.24,20.24,20.24,0,0,0,2.35-3.59,20.3,20.3,0,0,0,1.44-3.87,28.84,28.84,0,0,0,.78-4.44c.16-1.59.27-3.35.35-5.27q.1-3.66.09-6.27a23.57,23.57,0,0,0-.28-4,41.46,41.46,0,0,0,5.68-.18Q14,4.81,17,4.27T22.68,3A29.27,29.27,0,0,0,27,1.52a8.63,8.63,0,0,0,1.09,1.7,12.47,12.47,0,0,0,1.54,1.55c.34.3.48.52.4.67s-.32.18-.74.11a3.87,3.87,0,0,0-.81-.09H27.31c-.45,0-.92,0-1.43.09s-1,.11-1.5.19c0,1.67.1,3.33.22,4.95s.31,3.19.54,4.67a32.35,32.35,0,0,0,.93,4.2,20.12,20.12,0,0,0,1.38,3.57,20.43,20.43,0,0,0,1.39,2.31,14.18,14.18,0,0,0,1.57,1.85,15.11,15.11,0,0,0,1.85,1.52,19.07,19.07,0,0,0,2.19,1.27,12.19,12.19,0,0,0-3,3.44,32.29,32.29,0,0,1-3.74-3.66,16.92,16.92,0,0,1-2.7-4.11,34.17,34.17,0,0,1-2.65-9.32A77.31,77.31,0,0,1,21.64,6.22Z"/></g></svg>