<svg xmlns="http://www.w3.org/2000/svg" viewBox="0 0 37 38"><title>radical</title><g id="radical-138" data-name="Layer 2"><path d="M21.61,27.14a17.49,17.49,0,0,0,5.42,3,20.19,20.19,0,0,0,5.82,1.09,8.84,8.84,0,0,0-1.59,3.85,44.83,44.83,0,0,1-7.45-2.85,19.53,19.53,0,0,1-5.27-3.77A12.43,12.43,0,0,1,17,26.57a23.1,23.1,0,0,1-1.39-2.35c-.43-.84-.83-1.69-1.18-2.57s-.66-1.72-.91-2.53h-6V30c1-.52,1.85-1,2.59-1.39s1.37-.76,1.89-1.05l1.31-.76a8.26,8.26,0,0,0,.87-.57,7.93,7.93,0,0,0,.63,3.07L8.55,32.84l-1.13.71c-.43.27-.86.55-1.28.85s-.8.58-1.15.85a9.62,9.62,0,0,0-.74.63,16.12,16.12,0,0,0-1-1.67,14.89,14.89,0,0,0-1.18-1.59c.34-.15.73-.32,1.14-.52l1.34-.63V7.94c0-1,0-1.72,0-2.27A11.74,11.74,0,0,0,4.33,4q2,.21,5,.33t6.79.11c3,0,5.46,0,7.44-.13S27,4.07,27.93,4a36,36,0,0,0-.22,4v7.33c0,.59,0,1.23.06,1.9s.1,1.4.2,2.17l-1.59-.08-2.28-.07-3.21-.06H16.43a20.31,20.31,0,0,0,1.29,3.21,15,15,0,0,0,1.89,2.93,35.1,35.1,0,0,0,4.7-2.67,28,28,0,0,0,3.4-2.73c.5.49,1,.95,1.48,1.36a13.82,13.82,0,0,0,1.37,1c.35.22.31.37-.11.44a12.09,12.09,0,0,0-1.15.39c-.47.19-1.05.45-1.75.8S26,24.67,25,25.2,22.91,26.38,21.61,27.14ZM7.51,6.87v3.66H24.79V6.87Zm0,6.07v3.73H24.79V12.94Z"/></g></svg>