<svg xmlns="http://www.w3.org/2000/svg" viewBox="0 0 37 38"><title>radical</title><g id="radical-61" data-name="Layer 3"><path d="M14.93,10.83c0,.86,0,1.64-.08,2.34s-.07,1.39-.14,2.09-.16,1.42-.27,2.18-.25,1.62-.42,2.61l-3-.51a21.69,21.69,0,0,0,1-4.26,22.63,22.63,0,0,0,.17-4.52Zm4.93-7.31a1.21,1.21,0,0,0-.27.58,3.22,3.22,0,0,0-.09.72V29.69c0,1,0,2,.05,3s.11,2,.24,3.24H16.22c.12-1.17.19-2.25.22-3.24s0-2,0-3.06V9.72c0-.94,0-1.77,0-2.49s0-1.36-.08-1.93-.07-1.07-.11-1.53a10.33,10.33,0,0,0-.16-1.29c.24,0,.53.09.85.14s.65.09,1,.11.65,0,.94,0h.68C20.48,2.74,20.58,3,19.86,3.52Zm2.52,12.35c-.32-1-.66-2-1.05-3A28.47,28.47,0,0,0,20,10.07l2.12-1,.82,1.37c.25.43.49.87.72,1.31s.44.91.66,1.39L25,14.75Z"/></g></svg>