<svg xmlns="http://www.w3.org/2000/svg" viewBox="0 0 37 38"><title>radical</title><g id="radical-174" data-name="Layer 6"><path d="M19.49,9.75c1.05,0,2.1,0,3.13,0s2-.05,2.95-.09l2.59-.11c.8,0,1.47-.07,2-.12V12.3l-2-.14c-.79-.05-1.65-.08-2.59-.11L22.62,12c-1,0-2.08,0-3.13,0v2.42c1.17,0,2.48,0,3.9,0l4.14-.07c1.34,0,2.55-.06,3.66-.11s1.93-.1,2.48-.14v2.91c-.62-.07-1.56-.12-2.81-.16l-4.12-.11c-1.5,0-3-.06-4.53-.07l-4,0-4,0c-1.53,0-3,0-4.52.07l-4.12.11c-1.26,0-2.19.09-2.79.16V14c.57,0,1.39.09,2.45.12l3.52.11c1.3,0,2.63.07,4,.09s2.64,0,3.82,0V11.94c-1,0-2.06,0-3.06,0l-2.9.07c-.93,0-1.77.06-2.54.11L6.1,12.3V9.39q.83.07,2,.12c.76,0,1.6.08,2.52.11s1.87.07,2.88.09,2,0,3.06,0V7.55c-1.11,0-2.25,0-3.44,0l-3.42.07c-1.09,0-2.1.06-3,.11S5,7.86,4.51,7.91V5l2.2.14c.91.05,1.91.08,3,.11l3.41.07c1.17,0,2.31,0,3.42,0q0-.84-.06-1.71a9.41,9.41,0,0,0-.09-1.32,14.69,14.69,0,0,0,1.68.13,16.76,16.76,0,0,0,1.74-.06c.29,0,.45,0,.49.11s-.08.28-.34.47a1.23,1.23,0,0,0-.35.56,2.29,2.29,0,0,0-.12.7V5.36c1.1,0,2.26,0,3.47,0s2.37-.05,3.48-.09l3-.11c.92,0,1.66-.08,2.21-.12V7.91c-.55,0-1.29-.09-2.21-.12l-3-.11Q24.78,7.62,23,7.59c-1.21,0-2.37,0-3.47,0Zm-9,24.73H7.39c.1-1,.17-1.91.22-2.77s.07-1.66.07-2.38v-7.7c0-.63,0-1.23,0-1.82s0-1-.07-1.31c.82,0,2,.09,3.71.12s3.94.06,6.84.06,5.26,0,7.07-.06,3.12-.08,3.91-.12c0,.28-.05.72-.07,1.31s0,1.19,0,1.82v9.61a11.78,11.78,0,0,1-.12,1.89,1.57,1.57,0,0,1-.71,1.08,4.35,4.35,0,0,1-1.74.54c-.78.11-1.87.2-3.26.27a11,11,0,0,0-.49-1.64,6.61,6.61,0,0,0-.81-1.53c1,.07,1.8.1,2.36.09a3.42,3.42,0,0,0,1.26-.2.84.84,0,0,0,.52-.52,2.74,2.74,0,0,0,.11-.88v-.83H10.52ZM26.11,20.76H10.52V23H26.11ZM10.52,27.53H26.11V25H10.52Z"/></g></svg>