<svg xmlns="http://www.w3.org/2000/svg" viewBox="0 0 37 38"><title>radical</title><g id="radical-103" data-name="Layer 2"><path d="M16.61,7.47l-4.51,0c-1.33,0-2.55,0-3.65.06s-2.09.06-3,.11L3,7.81V4.48l2.57.13c.9,0,1.94.06,3.11.07l4,0,5.2,0,5.18,0c1.48,0,2.78,0,3.92-.06s2.14-.06,3-.11l2.54-.15-3.11,7.07-3.18-.63L28,7.47H19.65v9.18h5.51c.86,0,1.65,0,2.35,0s1.39-.07,2-.14v3c-.66-.07-1.35-.12-2-.15s-1.49,0-2.35,0H19.65V28.9c1.2.15,2.33.25,3.38.31s2.12.09,3.22.09,2.26,0,3.5-.11S32.39,29,34,28.9a8.52,8.52,0,0,0-.86,1.94,7.29,7.29,0,0,0-.28,1.83c-1.88,0-3.55,0-5-.05s-2.83-.1-4-.17-2.31-.17-3.31-.3-1.94-.26-2.83-.4a9.76,9.76,0,0,1-2.26-.84,18.22,18.22,0,0,1-2.47-1.49,21.68,21.68,0,0,1-2.43-2,17.78,17.78,0,0,1-2-2.35c-.22.72-.5,1.5-.82,2.35S6.91,29.11,6.51,30s-.79,1.7-1.18,2.5S4.55,34,4.18,34.6A7.88,7.88,0,0,0,2.7,33.23,9.51,9.51,0,0,0,1,32.34a26,26,0,0,0,2.23-3.78A36.73,36.73,0,0,0,5.14,24a39.71,39.71,0,0,0,1.33-4.9,30.44,30.44,0,0,0,.63-4.85c.84.2,1.51.34,2,.43a4.84,4.84,0,0,0,1.35,0c.32,0,.5,0,.54.17s-.06.33-.28.5a5.92,5.92,0,0,0-.57,1.63c-.29,1-.64,2.6-1.06,4.77a26.11,26.11,0,0,0,3.7,4.09,12.54,12.54,0,0,0,3.81,2.39Z"/></g></svg>