<svg xmlns="http://www.w3.org/2000/svg" viewBox="0 0 37 38"><title>radical</title><g id="radical-17" data-name="Layer 2"><path d="M27.9,9.18c0-1,0-1.87-.11-2.65s-.18-1.55-.3-2.31c.69.07,1.41.12,2.15.15a10.08,10.08,0,0,0,1.59,0c.37,0,.58,0,.64.07s0,.25-.31.45A1.84,1.84,0,0,0,31,6.36V26.12c0,1.14,0,2.18.05,3.13a23,23,0,0,0,.24,2.57H27.9V30H6.51v2.15H3a23.55,23.55,0,0,0,.3-2.57c.07-1.05.11-2.14.11-3.28V10.47c0-.94,0-1.86-.09-2.77a24.55,24.55,0,0,0-.28-2.45,17.3,17.3,0,0,0,2,.19,17.44,17.44,0,0,0,2,0c.34,0,.53,0,.57.17s-.07.26-.31.39a1.54,1.54,0,0,0-.67.74,3.16,3.16,0,0,0-.15,1.07V27.42H27.9Z"/></g></svg>