<svg xmlns="http://www.w3.org/2000/svg" viewBox="0 0 37 38"><title>radical</title><g id="radical-198" data-name="Layer 2"><path d="M7.18,21.28Q7,23.91,6.79,25.81a24.81,24.81,0,0,1-.69,3.53A20,20,0,0,1,5,32.51c-.47,1-1,2.15-1.71,3.38a12.21,12.21,0,0,0-1.12-1.57,4.79,4.79,0,0,0-1.35-1,21.62,21.62,0,0,0,1.42-2,10.91,10.91,0,0,0,1-2.33,22,22,0,0,0,.7-3.15c.18-1.2.32-2.7.41-4.47s.13-3.88.13-6.31,0-5.32-.11-8.68c.36,0,.88.1,1.55.15s1.53.09,2.59.13,2.34.06,3.83.07,3.24,0,5.23,0c-.19-.56-.4-1.12-.63-1.66s-.44-1-.66-1.48l3.59-.63c.12.49.29,1.08.52,1.78a20.41,20.41,0,0,0,.74,2c1.8,0,3.35,0,4.66,0s2.42-.06,3.35-.1,1.7-.07,2.33-.11,1.18-.08,1.64-.13V9.22C32.05,9.14,30.67,9.08,29,9S25.46,9,23.53,9v3.47H26c.81,0,1.58,0,2.29-.06s1.35,0,1.91-.09,1-.08,1.31-.13c-.14,1.45-.22,3-.22,4.55q0,1.33.06,2.61c0,.85.09,1.61.16,2.27l-1.38-.09c-.58,0-1.22-.07-1.91-.09L26,21.31l-2.31,0v4.77c.69-.25,1.39-.54,2.11-.87s1.39-.66,2-1,1.21-.65,1.72-1a12.34,12.34,0,0,0,1.2-.8,7.66,7.66,0,0,0,.85,1.17,12.76,12.76,0,0,0,1.15,1.17c.25.19.35.37.32.51s-.2.21-.47.19a5.55,5.55,0,0,0-1.25.05A6.58,6.58,0,0,0,30,26c-.94.39-2,.79-3.07,1.2s-2.17.78-3.18,1.13V31a10,10,0,0,0,.05,1.22,1,1,0,0,0,.35.67,1.71,1.71,0,0,0,.89.25c.4,0,1,0,1.7,0a18.53,18.53,0,0,0,2-.09A2.25,2.25,0,0,0,30,32.58a2.65,2.65,0,0,0,.78-1.24,13.32,13.32,0,0,0,.5-2.26,6.44,6.44,0,0,0,2.92,1.74,18.12,18.12,0,0,1-.94,2.56A3.53,3.53,0,0,1,32,34.86a5.49,5.49,0,0,1-2.21.68,31.39,31.39,0,0,1-3.62.17c-1.19,0-2.12,0-2.81-.11A2.87,2.87,0,0,1,21.79,35a2.08,2.08,0,0,1-.65-1.31A18,18,0,0,1,21,31.38V21.28h-8.4v3.88h2.12c.68,0,1.3,0,1.85,0l1.43,0c.39,0,.68,0,.85-.06v2.59c-.17,0-.46,0-.85-.05l-1.43,0-1.85,0H12.62V32l1.62-.62c.57-.23,1.11-.43,1.61-.61l1.35-.52c.4-.16.67-.28.82-.35a6.16,6.16,0,0,0,0,1.36,7.12,7.12,0,0,0,.26,1.23L12.43,35a9.8,9.8,0,0,0-1.46.78,8,8,0,0,0-1.05.81,6.64,6.64,0,0,0-2-2.81,8.19,8.19,0,0,0,.91-.31c.4-.16.78-.31,1.13-.43V21.28Zm5.55-6.63H7.36c0,.79,0,1.55,0,2.28s0,1.41,0,2.05h5.44Zm0-5.69H7.36v3.47h5.37Zm2.81,3.47h5.33V9H15.54Zm0,6.55h5.33V14.65H15.54Zm13,0V14.65h-5V19Z"/></g></svg>