<svg xmlns="http://www.w3.org/2000/svg" viewBox="0 0 37 38"><title>radical</title><g id="radical-187" data-name="Layer 6"><path d="M15.31,27.78q-3.6,0-6.19.09c-1.73.06-3.24.13-4.53.2V24.9c1.27.12,2.77.2,4.52.24s3.8.05,6.2.05,4.5,0,6.38-.07,3.44-.12,4.71-.22v3.17c-1.27-.09-2.84-.17-4.71-.22S17.69,27.78,15.31,27.78ZM27,18.53c1.06,0,2.15-.07,3.26-.13s2-.11,2.61-.16q-.18,2.93-.36,5.71c-.12,1.86-.24,3.56-.36,5.09a10.73,10.73,0,0,1-.45,2.65,3.48,3.48,0,0,1-1.11,1.64,5.36,5.36,0,0,1-2.07.91,27.84,27.84,0,0,1-3.28.53c-.12-.48-.3-1.09-.56-1.82a7.89,7.89,0,0,0-1-1.93c1.15.12,2.06.18,2.72.18A2.58,2.58,0,0,0,28,30.82a2,2,0,0,0,.75-1.2,14.19,14.19,0,0,0,.36-2.34c.07-.75.15-1.62.22-2.63s.17-2.22.29-3.64L22,21c-2.29,0-4.29,0-6,.07l-4.21.11-2.18.09A9.92,9.92,0,0,0,10,19.18c.1-1,.17-2.16.24-3.37s.09-2.41.1-3.6a24.64,24.64,0,0,0-.09-2.82,12.75,12.75,0,0,0,1.75.3,8.59,8.59,0,0,0,1.78.06c.6-.05.65.18.14.68a1.22,1.22,0,0,0-.21.47,7.76,7.76,0,0,0-.2,1.22c-.06.58-.13,1.38-.2,2.4s-.15,2.35-.25,4h11L25.18,7.37H15.71c-1.46,0-2.92,0-4.35.07s-3,.13-4.54.25V4.35l2.52.14c.91,0,1.84.08,2.79.11L15,4.65l2.79,0,2.77,0,2.86-.05c.95,0,1.88-.06,2.79-.11l2.52-.14Z"/></g></svg>