<svg xmlns="http://www.w3.org/2000/svg" viewBox="0 0 37 38"><title>radical</title><g id="radical-72" data-name="Layer 2"><path d="M9.73,34.57H6c.12-1.25.2-2.41.24-3.45s.06-2.17.06-3.35V10.41c0-1,0-2-.1-2.94A21.68,21.68,0,0,0,6,5.23c.55,0,1.11.1,1.69.13S9,5.43,9.8,5.44l3.09,0c1.22,0,2.76,0,4.61,0s3.4,0,4.64,0l3.15,0c.85,0,1.55,0,2.11-.08s1.08-.08,1.57-.13a17.12,17.12,0,0,0-.22,2.15c-.05.91-.08,1.92-.08,3V28.29c0,1,0,2,.08,3s.12,2,.22,3.06H25.23V31.87H9.73ZM25.23,8.38H9.73V17h15.5ZM9.73,29h15.5V19.85H9.73Z"/></g></svg>