<svg xmlns="http://www.w3.org/2000/svg" viewBox="0 0 37 38"><title>radical</title><g id="radical-55" data-name="Layer 2"><path d="M25.31,15.86c.74,0,1.53,0,2.38,0s1.69-.05,2.52-.09l2.33-.09c.73,0,1.35-.06,1.87-.11v3.33c-.52-.05-1.14-.1-1.87-.13s-1.5-.07-2.33-.09-1.67-.05-2.52-.06l-2.38,0v9.51c0,1.09,0,2.21,0,3.37s0,2.3.09,3.44H22c0-1.16.08-2.28.08-3.35v-13H13A20.16,20.16,0,0,1,12.39,23a19.4,19.4,0,0,1-1.62,4.15,22.17,22.17,0,0,1-2.76,4,32.17,32.17,0,0,1-4,3.83,6.22,6.22,0,0,0-.84-1.5A10,10,0,0,0,1.37,31.7,27.32,27.32,0,0,0,5.11,29a14.82,14.82,0,0,0,2.64-3,12.81,12.81,0,0,0,1.63-3.44,16.65,16.65,0,0,0,.68-4.09l-3.25.08-2.52.07-2,.09-1.72.1V15.53c.55.05,1.21.08,2,.11L5,15.73c.87,0,1.74.07,2.63.09s1.71,0,2.48,0V5.76c0-.57,0-1,0-1.39a8.87,8.87,0,0,0-.11-1c.32.07.66.14,1,.19l1,.14c.32,0,.61.08.87.1h.58c.44,0,.68,0,.7.21s-.12.34-.44.54a1.14,1.14,0,0,0-.52.61,2.19,2.19,0,0,0-.19.94v9.73h9.07V6.06c0-.79,0-1.42,0-1.89a6.31,6.31,0,0,0-.11-1c.64.08,1.3.13,2,.17a15.75,15.75,0,0,0,1.65,0c.34,0,.53,0,.55.13s-.07.25-.29.42a2.42,2.42,0,0,0-.52,1.85Z"/></g></svg>