<svg xmlns="http://www.w3.org/2000/svg" viewBox="0 0 37 38"><title>radical</title><g id="radical-24" data-name="Layer 2"><path d="M18.91,14.68q4.77,0,8.28-.13t6.18-.27v3.84q-2.65-.18-6.18-.27c-2.34-.06-5.1-.1-8.28-.1v10.4c0,.42,0,.85,0,1.28s0,.9.06,1.42.06,1.1.09,1.74.08,1.38.13,2.22h-4c.07-.84.13-1.58.17-2.22s.06-1.22.09-1.74,0-1,.05-1.42,0-.86,0-1.28V17.75q-4.59,0-7.93.12t-5.94.25V14.28q2.63.18,6,.27c2.23.07,4.87.11,7.9.13V7.32a27.59,27.59,0,0,0-.15-2.9,20.6,20.6,0,0,0-.44-2.72c.71.12,1.44.21,2.18.27a12.12,12.12,0,0,0,2.08,0q.69-.07.81.15c.07.15-.1.35-.52.59a1.17,1.17,0,0,0-.42.8,10,10,0,0,0-.13,1.94Z"/></g></svg>