<svg xmlns="http://www.w3.org/2000/svg" viewBox="0 0 37 38"><title>radical</title><g id="radical-171" data-name="Layer 2"><path d="M23.61,25.36a20.72,20.72,0,0,0,3-1.81,24,24,0,0,0,2.52-2.15,17.44,17.44,0,0,0,1.23,1.34,12.19,12.19,0,0,0,1.13,1c.23.14.32.27.3.38s-.26.18-.7.21a5.07,5.07,0,0,0-1.1.26,6.76,6.76,0,0,0-1.46.63c-.59.34-1.11.63-1.57.85l-1.72.81a13.86,13.86,0,0,0,1.92,1.26,22.65,22.65,0,0,0,2.22,1.07,21.79,21.79,0,0,0,2.35.82,13.62,13.62,0,0,0,2.35.44A11.48,11.48,0,0,0,32.54,32a13.47,13.47,0,0,0-1.16,1.66,24.78,24.78,0,0,1-7.66-4.44,25.15,25.15,0,0,1-5.41-6.4V32a8.44,8.44,0,0,1-.14,1.7,1.62,1.62,0,0,1-.74,1,5.48,5.48,0,0,1-1.8.65c-.8.17-1.89.36-3.27.56A6.35,6.35,0,0,0,12,34.09a6,6,0,0,0-1-1.59c1,.08,1.81.11,2.41.1a4.76,4.76,0,0,0,1.35-.19,1,1,0,0,0,.59-.48,2.37,2.37,0,0,0,.13-.83V27.73c-.45.17-.86.34-1.24.5l-1.2.52-1.34.59c-.46.21-1,.44-1.62.68-1.78.77-3.28,1.44-4.52,2s-2.3,1.13-3.22,1.65a14.91,14.91,0,0,0-.63-1.76,18.1,18.1,0,0,0-.81-1.68,19.5,19.5,0,0,0,2-.32c.63-.13,1.28-.3,1.94-.5l2.11-.66c.74-.25,1.54-.55,2.41-.89l1.79-.69,1.5-.61c.47-.19.93-.4,1.39-.61s.94-.45,1.46-.72V20.4l-3.68,0c-1.05,0-2,0-2.85.06s-1.64.05-2.37.09-1.47.07-2.24.09V17.81c.82.05,1.6.08,2.35.1L9,18c.84,0,1.77,0,2.79.06l3.61,0V14.59H6.62c-1.18,0-2.22,0-3.12.08s-1.76.12-2.58.22v-3c.94.1,1.87.17,2.8.22s1.89.07,2.9.07h8.81V9c-1.83,0-3.35,0-4.57,0L7.77,9.1c-.84,0-1.52,0-2,.06l-1.47.07V6.16l2,.15c.72.05,1.53.08,2.43.11l3,.07c1.12,0,2.38,0,3.76,0q0-1.74-.06-2.7c0-.64-.08-1.14-.13-1.48a13.13,13.13,0,0,0,1.41.16,14.12,14.12,0,0,0,1.74,0c.34,0,.54.05.59.22s-.06.36-.33.56a.83.83,0,0,0-.28.37,1.56,1.56,0,0,0-.06.48V6.53c1.41,0,2.65,0,3.72,0l2.87-.07c.84,0,1.57-.06,2.2-.11l1.76-.15q-.08.78-.15,2.37c-.05,1.06-.09,2.27-.11,3.62l1.41,0L31.43,12c.46,0,.88,0,1.28-.09l.92-.09v3c-.54-.07-1.3-.13-2.27-.18l-2.76-.12c0,2.5.07,4.48.22,6l-2.14-.07c-.67,0-1.35,0-2-.06l-2.24,0H19.65A22.5,22.5,0,0,0,23.61,25.36ZM9.43,27.14c-.37-.4-.74-.76-1.11-1.09s-.76-.66-1.18-1a16.36,16.36,0,0,0-1.37-.93c-.49-.3-1-.62-1.66-1l1.77-2c.94.57,1.85,1.13,2.72,1.7s1.78,1.2,2.72,1.89Zm16.28-15V9h-7.4v3.18Zm-7.4,2.44V18h7.4V14.59Z"/></g></svg>