<svg xmlns="http://www.w3.org/2000/svg" viewBox="0 0 37 38"><title>radical</title><g id="Layer_2" data-name="Layer 6"><path d="M14.91,17.58c.31.1.47.23.48.42s-.11.33-.38.44a1.78,1.78,0,0,0-.41.62c-.2.38-.45.9-.74,1.54s-.6,1.4-.95,2.24-.69,1.72-1,2.66a15.41,15.41,0,0,1-1.15,2.41c-.55,1-1.15,2-1.8,3s-1.31,2-2,2.84a9.82,9.82,0,0,1-1.73,1.86A13.74,13.74,0,0,0,1.8,33.71,26.21,26.21,0,0,0,4.14,31.8,18.22,18.22,0,0,0,6,29.87a15.54,15.54,0,0,0,1.49-2.16,26.93,26.93,0,0,0,1.34-2.64q.6-1.37,1.08-2.7c.31-.89.57-1.72.77-2.49s.35-1.45.45-2.07a9.22,9.22,0,0,0,.14-1.45,15.94,15.94,0,0,0,1.7.64C13.45,17.17,14.11,17.36,14.91,17.58ZM17.57,9.8H23.1c1.52,0,2.83,0,3.94-.06s2-.06,2.81-.11,1.46-.09,2.08-.14v6.91H28.69v-4H6.34v4.82H3.21V9.48c.64,0,1.35.1,2.12.14s1.7.09,2.79.11,2.4,0,3.92.06Zm.54-6.33c.34.7.69,1.44,1.06,2.23s.69,1.51,1,2.16L16.53,9.3C16.29,8.53,16,7.75,15.68,7a24.92,24.92,0,0,0-1.06-2.27Zm4.72,12.74a18.1,18.1,0,0,0,1,4.18A23.14,23.14,0,0,0,26,24.89a23,23,0,0,0,1.73,2.45,16.68,16.68,0,0,0,1.8,1.85,14.1,14.1,0,0,0,2,1.42,20,20,0,0,0,2.27,1.15,24.4,24.4,0,0,0-2.14,1.61,8.07,8.07,0,0,0-1.35,1.46A21.84,21.84,0,0,1,26.19,31a29.39,29.39,0,0,1-3.4-5.33A36.2,36.2,0,0,1,21,21.5q-.82-2.27-1.44-4.64c.55-.05,1.11-.13,1.67-.23A12.62,12.62,0,0,0,22.83,16.21Z"/></g></svg>