<svg xmlns="http://www.w3.org/2000/svg" viewBox="0 0 37 38"><title>radical</title><g id="Layer_2" data-name="Layer 2"><path d="M18,18.42q-.23,1.08-.48,2a16.52,16.52,0,0,1-.59,1.72c-.22.54-.46,1.08-.72,1.61s-.54,1.07-.84,1.61a17,17,0,0,1-4.14,4.85,34.71,34.71,0,0,1-6.84,4.36A7.46,7.46,0,0,0,3,33,11.54,11.54,0,0,0,1.22,31.7a30.08,30.08,0,0,0,3.22-1.11A18.85,18.85,0,0,0,7.1,29.26a16.49,16.49,0,0,0,2.32-1.68,26.25,26.25,0,0,0,2.2-2.17A12.89,12.89,0,0,0,14.17,21a24.91,24.91,0,0,0,1.29-6.77q-4.14,0-7.28.11c-2.1.05-3.93.12-5.48.22V11c1.6.12,3.46.21,5.57.26s4.56.09,7.34.11c.1-2.29.14-4.18.13-5.66S15.67,3,15.58,1.92c.71.1,1.44.17,2.18.22a13.72,13.72,0,0,0,2,0c.3,0,.47,0,.5.11s-.08.25-.35.45a1.37,1.37,0,0,0-.46.79,9.36,9.36,0,0,0-.2,1.39c-.08,1.23-.15,2.41-.23,3.53s-.14,2.12-.22,3c3,0,5.59,0,7.83-.09s4.17-.16,5.83-.28v3.55q-2.52-.18-5.91-.26c-2.25-.05-4.9-.07-7.93-.07A23.42,23.42,0,0,0,25.12,26a16.94,16.94,0,0,0,4,2.87,14.46,14.46,0,0,0,4.64,1.53,8.35,8.35,0,0,0-1.85,1.74,9.88,9.88,0,0,0-1.26,2.22,20.78,20.78,0,0,1-2.48-1.44c-.84-.57-1.64-1.17-2.42-1.82a24.37,24.37,0,0,1-2.16-2,19.29,19.29,0,0,1-1.71-2,20.2,20.2,0,0,1-2.27-3.91A32.65,32.65,0,0,1,18,18.42Z"/></g></svg>