<svg xmlns="http://www.w3.org/2000/svg" viewBox="0 0 37 38"><title>radical</title><g id="radical-13" data-name="radical-13"><path d="M31.15,2c0,.42-.08.81-.11,1.18S31,4,31,4.46s0,1.13,0,1.89V28.42a10.65,10.65,0,0,1-.17,2.16A2.41,2.41,0,0,1,30,32a4.91,4.91,0,0,1-1.85.92,27.78,27.78,0,0,1-3.37.74,7.39,7.39,0,0,0-.35-2,12.42,12.42,0,0,0-1.09-2.37c1,.12,1.85.2,2.44.22a3.48,3.48,0,0,0,1.33-.13.84.84,0,0,0,.56-.57,4.58,4.58,0,0,0,.11-1.11V5.25H7.25V32.67H3.81c.12-1.63.21-3.11.26-4.44s.07-2.43.07-3.29V9.18c0-1.53,0-2.87,0-4S4,3,3.85,2c.42.07.93.14,1.53.19s1.43.09,2.46.13,2.33.06,3.89.07l5.81,0,5.57,0c1.51,0,2.79,0,3.82-.06s1.88-.06,2.52-.13S30.66,2,31.15,2Z"/></g></svg>
