<svg xmlns="http://www.w3.org/2000/svg" viewBox="0 0 37 38"><title>radical</title><g id="Layer_2" data-name="Layer 2"><path d="M15.83,7.16c-2,.15-3.81.28-5.51.39s-3.18.19-4.44.24a8.49,8.49,0,0,0-.44-1.61,6,6,0,0,0-.89-1.49C5.17,4.76,6,4.8,7,4.82s2.05,0,3.2,0,2.32-.07,3.53-.13,2.35-.14,3.44-.24,2-.22,3-.35,2-.29,2.93-.47,1.82-.36,2.66-.55,1.59-.41,2.26-.63a5.57,5.57,0,0,0,.41.87c.17.31.35.61.53.9s.38.58.57.84.38.46.52.61.31.48.26.64-.21.22-.48.17a14.06,14.06,0,0,0-2.39-.2,23.51,23.51,0,0,0-3,.16c-.89.1-1.79.19-2.69.26l-2.64.23v5.62l4.35,0,3.68,0,3.18-.1c1,0,1.92-.08,2.81-.13v3.3l-2.81-.15c-1-.05-2.05-.09-3.18-.11s-2.37,0-3.68-.06l-4.35,0V20.3c1.4,0,2.61,0,3.62,0l2.61-.07,1.85-.09c.51,0,1-.08,1.39-.13a11.59,11.59,0,0,0-.2,1.51c0,.5-.06,1.1-.06,1.82v6.55c0,.83,0,1.59.06,2.25s.1,1.43.2,2.3H25.23V32H10.1v3.18H6.73q.2-1.37.24-2.4c0-.69.06-1.41.06-2.15V23.3c0-.64,0-1.26,0-1.84A7.69,7.69,0,0,0,6.81,20l1.35.13,1.74.09,2.44.07c.95,0,2.11,0,3.49,0V15.19c-3.15,0-5.85.08-8.08.17s-4.21.19-5.94.31V12.23c.89,0,1.83.1,2.81.13l3.19.1,3.68,0,4.34,0Zm9.4,15.73H10.1v6.36H25.23Z"/></g></svg>