<svg xmlns="http://www.w3.org/2000/svg" viewBox="0 0 37 38"><defs><style>.cls-1{fill:none;stroke:#000;stroke-miterlimit:10;}</style></defs><title>radical</title><g id="Layer_2" data-name="Layer 2"><path d="M12.28,12.15c-1.43,0-2.66,0-3.7,0l-2.7,0c-.76,0-1.42,0-2,.08s-1,.08-1.5.13V9c.45.05,1,.09,1.5.13s1.22.06,2,.07l2.7,0,3.7,0c0-.84,0-1.57,0-2.19s0-1.15,0-1.61-.06-.85-.09-1.18A8.3,8.3,0,0,0,12,3.38c.25.05.54.09.87.13s.68.07,1,.09l1,.06h.85c.42,0,.66.06.73.24s-.08.38-.43.58a1.1,1.1,0,0,0-.5.59,2.14,2.14,0,0,0-.13.74V19.29c0,2-.07,3.77-.22,5.38a31.51,31.51,0,0,1-.74,4.53,24.53,24.53,0,0,1-1.33,4,23.49,23.49,0,0,1-2,3.67,6.62,6.62,0,0,0-1.57-1.17A6.86,6.86,0,0,0,7.77,35a22.91,22.91,0,0,0,2.48-3.6,15.61,15.61,0,0,0,1.4-3.8A69.35,69.35,0,0,0,1.55,30c-.05-.57-.13-1.19-.24-1.85s-.24-1.3-.39-1.89c1.88-.12,3.8-.31,5.76-.55s3.75-.52,5.38-.82c.12-1.38.2-2.95.22-4.7l-3.22,0-2.29,0c-.64,0-1.19,0-1.65.07s-.89.09-1.31.17V17.1c.42,0,.86.1,1.31.13s1,.07,1.65.08l2.29,0c.89,0,2,0,3.22,0ZM23.42,17c1.36,0,2.52,0,3.48,0l2.46,0c.68,0,1.26-.06,1.74-.09l1.35-.13V20c-.42-.05-.87-.1-1.35-.13s-1.06-.06-1.74-.08l-2.46,0c-1,0-2.12,0-3.48,0v6c1.58,0,2.93,0,4.07,0l2.92,0c.82,0,1.51,0,2.07-.08s1.1-.09,1.6-.16v3.47c-.5-.07-1-.13-1.6-.16s-1.25-.06-2.07-.08l-2.92,0c-1.14,0-2.49,0-4.07,0,0,.71,0,1.36,0,1.94s0,1.17,0,1.76.06,1.21.1,1.87.09,1.38.16,2.2H20.13V9.7c0-1,0-1.81,0-2.47s0-1.24,0-1.73A11.3,11.3,0,0,0,20,4.23c-.05-.37-.11-.75-.19-1.15.6.08,1.24.13,1.93.17s1.29,0,1.81,0,.7,0,.78.18-.06.37-.41.67a1.3,1.3,0,0,0-.33.59,3,3,0,0,0-.15,1V8.74c1.48,0,2.74,0,3.77,0l2.67-.05,1.9-.09,1.5-.13V12c-.47-.07-1-.13-1.5-.17s-1.16-.06-1.9-.07l-2.67,0H23.42Z"/></g><g id="Layer_2" data-name="Layer 6"><rect class="cls-1" x="-37.79" y="-0.5" width="38" height="38"/></g></svg>