<svg xmlns="http://www.w3.org/2000/svg" viewBox="0 0 37 38"><title>radical</title><g id="Layer_2" data-name="Layer 2"><path d="M22.31,15.19q3.36,0,6-.1c1.75-.06,3.42-.17,5-.35v3.74c-1.18-.15-2.59-.25-4.2-.31s-3.21-.11-4.79-.13V30.32c0,1.11,0,2.11.05,3s.12,1.85.24,2.88h-4c.12-1,.21-2,.26-2.88s.07-1.89.07-3V18H10.54a46.71,46.71,0,0,1-.46,5.23,31,31,0,0,1-1,4.48,25.15,25.15,0,0,1-1.57,4,36,36,0,0,1-2.2,3.77,10.86,10.86,0,0,0-1.78-1,10.19,10.19,0,0,0-1.89-.73,18.37,18.37,0,0,0,2.43-3A17.53,17.53,0,0,0,5.88,27a27.39,27.39,0,0,0,1.17-4.85,48.5,48.5,0,0,0,.5-6.29q.08-3.58,0-6.31a35.46,35.46,0,0,0-.22-4.12c.79.07,1.78.12,3,.13s2.49,0,3.87,0,2.8-.12,4.25-.24S21.3,5,22.61,4.85s2.49-.36,3.55-.6a11.87,11.87,0,0,0,2.51-.79c.1.27.23.6.39,1s.34.76.52,1.13.36.7.54,1a3.34,3.34,0,0,0,.4.59c.65.64.51.87-.4.7a12,12,0,0,0-2-.15q-1.18,0-3.48.15c-.59,0-1.44.11-2.55.17s-2.32.12-3.64.16l-4,.15c-1.35.05-2.58.08-3.66.08l-.11,6.77Z"/></g></svg>