<svg xmlns="http://www.w3.org/2000/svg" viewBox="0 0 37 38"><title>radical</title><g id="radical-10" data-name="radical-10"><path d="M14,3.92c-.12.08-.23.4-.33,1a18.74,18.74,0,0,0-.15,2.83v5c0,1.38,0,2.56,0,3.53s-.05,1.78-.07,2.41a16.13,16.13,0,0,1-.13,1.62c-.06.46-.13.87-.2,1.23s-.16.74-.26,1.16A14.78,14.78,0,0,1,11.52,26a17.49,17.49,0,0,1-2,3,19.93,19.93,0,0,1-2.64,2.55,21.5,21.5,0,0,1-3.09,2.05,11.42,11.42,0,0,0-1.61-1.87A5.84,5.84,0,0,0,.55,30.67a11.6,11.6,0,0,0,3.11-1.18,14.36,14.36,0,0,0,2.65-1.85,12.52,12.52,0,0,0,2-2.26,8.21,8.21,0,0,0,1.16-2.44A14.6,14.6,0,0,0,10,20.81c.13-.77.22-1.65.3-2.62s.11-2.07.13-3.28,0-2.58-.06-4.11c-.05-1.33-.08-2.45-.11-3.36s-.05-1.69-.09-2.32S10,4,10,3.61s-.1-.69-.15-.91a8.62,8.62,0,0,0,.94.19l1.1.13c.37,0,.72.06,1.07.07l.89,0c.34,0,.53.08.55.26S14.29,3.72,14,3.92Zm20.39,23.2a20,20,0,0,1-1,2.76,4.08,4.08,0,0,1-1.28,1.63,4.78,4.78,0,0,1-2.09.77,22.08,22.08,0,0,1-3.4.21,27.16,27.16,0,0,1-3.54-.19,4.8,4.8,0,0,1-2-.63,2.05,2.05,0,0,1-.87-1.22,8.39,8.39,0,0,1-.2-2V6.81c0-.91,0-1.77-.07-2.57s-.12-1.45-.19-1.95a7.66,7.66,0,0,0,1,.11L22,2.48c.39,0,.76,0,1.11,0h.85q.63,0,.66.27c0,.21-.13.38-.48.5a1.16,1.16,0,0,0-.53.56,1.65,1.65,0,0,0-.24.77V27.86a3.09,3.09,0,0,0,.07.74.76.76,0,0,0,.41.48,2.74,2.74,0,0,0,1,.28,14.1,14.1,0,0,0,1.81.09,11,11,0,0,0,2-.15,2.23,2.23,0,0,0,1.26-.63,3.12,3.12,0,0,0,.74-1.38c.17-.61.36-1.4.56-2.39a4.2,4.2,0,0,0,1.31,1.39A4.34,4.34,0,0,0,34.41,27.12Z"/></g></svg>
