<svg xmlns="http://www.w3.org/2000/svg" viewBox="0 0 37 38"><title>radical</title><g id="Layer_2" data-name="Layer 6"><path d="M25.05,17.55c1.58,0,3.07-.07,4.46-.13s2.7-.14,3.93-.23v3.27c-1-.09-2.21-.17-3.73-.23s-3.08-.1-4.66-.13v5.65H22V20.1H14.28v5.76H11.19V20.1c-1.71,0-3.31.06-4.83.11s-2.77.13-3.78.25V17.19c1.06.12,2.35.2,3.87.25s3.11.08,4.74.11c0-1.08-.07-2.12-.13-3.1a20.66,20.66,0,0,0-.23-2.23,7.76,7.76,0,0,0,.86.12c.34,0,.67.06,1,.08l1,0a5.73,5.73,0,0,0,.85,0c.21,0,.34,0,.37.17s0,.25-.23.37a.77.77,0,0,0-.32.29,1.07,1.07,0,0,0-.08.47v3.82H22c0-.84,0-1.55-.06-2.11s0-1-.07-1.44-.07-.74-.11-1a6.81,6.81,0,0,0-.16-.86,18.19,18.19,0,0,0,1.93.2c.68,0,1.28,0,1.78,0,.24,0,.38.06.41.18s0,.24-.23.36a.8.8,0,0,0-.36.28,1.13,1.13,0,0,0-.07.47Z"/></g></svg>