<svg xmlns="http://www.w3.org/2000/svg" width="2.13in" height="0.54in" viewBox="0 0 153 39"><title>Artboard 221</title><path d="M.49,8.31a17.73,17.73,0,0,0,.19-2c0-.38,0-.88-.08-1.5.56,0,1,.07,1.24.09C2.65,5,3.2,5,3.49,5H17.32L17,4A13.7,13.7,0,0,0,15.51.83a10,10,0,0,0,4-.77L20,1.78c.3,1.14.64,2.22,1,3.24H33.28A21.65,21.65,0,0,0,36,4.83a12.76,12.76,0,0,0-.11,1.54,12.45,12.45,0,0,0,.24,1.94,22.65,22.65,0,0,0-3.56-.23H3.36A15.48,15.48,0,0,0,.49,8.31Zm5,11.9a8.84,8.84,0,0,0,.21-1.6,8.59,8.59,0,0,0-.25-1.69A16.23,16.23,0,0,0,8,17.13H28c.48,0,1.39-.09,2.72-.25a9.33,9.33,0,0,0-.23,1.69,9.14,9.14,0,0,0,.23,1.64,18.32,18.32,0,0,0-2.8-.23H7.8A11.58,11.58,0,0,0,5.53,20.21Zm.15,17.56a14.94,14.94,0,0,0,.25-2.84V26.06a17.47,17.47,0,0,0-.21-3,37.2,37.2,0,0,0,4.08.23H26.29a35,35,0,0,0,4-.23,17.19,17.19,0,0,0-.21,2.76v8.53a18.43,18.43,0,0,0,.3,3.24,14.32,14.32,0,0,0-2-.17,13.79,13.79,0,0,0-2,.22c.07-.57.12-1,.16-1.27a10.6,10.6,0,0,0,.09-1.07v-1H9.19l0,1c0,.4.06,1.19.19,2.38a9.52,9.52,0,0,0-1.77-.22A8.76,8.76,0,0,0,5.68,37.77ZM5.84,14.4A14.84,14.84,0,0,0,6,12.63a14.81,14.81,0,0,0-.15-1.73,18,18,0,0,0,2.61.23H27.22a24.1,24.1,0,0,0,3.24-.23,12.17,12.17,0,0,0-.21,1.83,12.38,12.38,0,0,0,.17,1.67,20.81,20.81,0,0,0-3.24-.26H8.52A14,14,0,0,0,5.84,14.4Zm3.35,17H26.63V26.17H9.19Z"/><path d="M39.16,16.67a11.79,11.79,0,0,0,.17-1.73,10.43,10.43,0,0,0-.17-1.6c.81.07,1.49.11,2,.11H46q.66,0,2.07-.15a20.84,20.84,0,0,0-.32,2.11L47,30.71c2.11-2,3.85-3.76,5.22-5.34a9.7,9.7,0,0,0,1.67,3.45,73.37,73.37,0,0,0-9,8.15,11.42,11.42,0,0,0-2.4-3.43,5.9,5.9,0,0,0,1.33-3.37l.63-13.69h-3A22.29,22.29,0,0,0,39.16,16.67ZM42.65,3.49a12.31,12.31,0,0,0,3.29-1.56q1.76,3.38,3.92,6.72a12.12,12.12,0,0,0-3.44,1.49A32.18,32.18,0,0,0,42.65,3.49Z"/><path d="M50,16.88Q58.23,11.08,61.56.26a28.16,28.16,0,0,0,4.3,1.5,2.57,2.57,0,0,0-1,1.05q2.48,7,10.83,11.48a9.32,9.32,0,0,0-3.1,3.24A41.67,41.67,0,0,1,63.1,5.15a65.52,65.52,0,0,1-9.62,14.24A10.94,10.94,0,0,0,50,16.88Zm7.29-.72a23.91,23.91,0,0,0,4.23.59,3.7,3.7,0,0,0-.82,2.43v4.14a23.57,23.57,0,0,0,7.67-5.26A11.08,11.08,0,0,0,71,21.32a26.19,26.19,0,0,0-5.2,1.92l-3.23,1.64c-.26.12-.88.42-1.87.87v6a3.69,3.69,0,0,0,.24,1.68c.16.25.52.38,1.07.38l.78,0h4c1.76,0,2.63-1,2.63-2.88l.08-2a6.59,6.59,0,0,0,4,2.1q-.61,3.55-1.65,4.76a4.42,4.42,0,0,1-3.5,1.2H61.19q-3.77,0-3.77-3.11V18.59A23,23,0,0,0,57.27,16.16Z"/><path d="M83.13,37.62q.12-1.48.12-3V8.77l0-1.81,0-1.52c1.28.07,2.08.11,2.4.11H90A28.73,28.73,0,0,0,91.57.45a11.89,11.89,0,0,0,3.54.62l1.39,0a19.93,19.93,0,0,0-2.4,3.47c-.11.23-.29.57-.53,1h11.88l1.71-.06,1.6,0c0,.58,0,1,0,1.32-.07.8-.1,1.21-.1,1.24V35l.1,1.47q0,.59,0,1.08c-.8-.07-1.39-.11-1.79-.11s-1,0-1.82.11a9.4,9.4,0,0,1,.07-1.14c.07-.57.1-.9.1-1V33.18H86.24v2.57c0,.14,0,.52.05,1.14,0,.14,0,.37,0,.67a12.34,12.34,0,0,0-1.62-.13A10.69,10.69,0,0,0,83.13,37.62ZM86.22,8.84v4.54H105.3V8.84Zm0,12.9H105.3v-5H86.22Zm0,8.26h19.1V25.18H86.22Z"/><path d="M120.25,37.6a17.74,17.74,0,0,0,.17-2.59V10.44c0-.16,0-.53-.06-1.1,0-.29,0-.74-.08-1.33,1.49.1,2.91.15,4.25.15h9.31V2.41a7.86,7.86,0,0,0-.21-2.1,21.26,21.26,0,0,0,4.78.59,2.76,2.76,0,0,0-1.16,2.17V8.16h10.27A26.54,26.54,0,0,0,151.21,8a14.24,14.24,0,0,0-.23,2.3v24a12.42,12.42,0,0,0,.23,2.61c-.81-.09-1.41-.14-1.79-.14a20,20,0,0,0-2.21.19,16,16,0,0,0,.19-2.17l0-1H123.77V35.1a16.77,16.77,0,0,0,.19,2.5c-.81-.08-1.41-.12-1.79-.12S121.08,37.52,120.25,37.6Zm3.54-26.51v8.44h10.09V11.09Zm0,11.24V30.9H133.9V22.33Zm13.4,0V30.9h10.23V22.33Zm.06-11.26v8.44h10.23V11.07Z"/></svg>