<svg xmlns="http://www.w3.org/2000/svg" width="1.06in" height="0.54in" viewBox="0 0 76 39"><title>Artboard 222 copy</title><path d="M1,35.38C2.3,35,3,33.84,3,32V6.42c0-.94-.05-1.95-.15-3l1.65,0,3,.08H24.79l2.84-.06L30,3.41,29.8,9,30,15.18l-2.17-.08-3-.08h-6a41,41,0,0,0,.82,5.58h8.31a25.72,25.72,0,0,0,4.34-.3c-.05.77-.08,1.37-.08,1.79s0,.92.08,1.69a36.86,36.86,0,0,0-3.94-.26H20.09a19.45,19.45,0,0,0,3.79,7.18C26,33,27.66,34.14,28.93,34.14c1,0,1.55-1,1.69-3q0-.48.15-1.41a6,6,0,0,0,3.6,2.45q-1,5.93-3.65,5.93-3.51,0-7.68-3.68T16.81,23.5H6.23v9.42q4.1-2,7.29-3.5a11,11,0,0,0,.9,3.77A38.61,38.61,0,0,0,3,38.67,15.44,15.44,0,0,0,1,35.38Zm5.26-23H26.51V6.55H6.23Zm0,8.28H16.32L15.54,15H6.23Z"/><path d="M38.18,34.58a24.9,24.9,0,0,1,5.87-4.19V17.58H41c-.22,0-.61,0-1.18.07l-1,.08A17.92,17.92,0,0,0,39,15.8a17.39,17.39,0,0,0-.15-1.88c.44,0,.77.05,1,.08.47.05.77.07.89.07h4.84c.2,0,.56,0,1.07-.07l.74-.08c0,.51-.07.88-.08,1.12,0,.69-.07,1.16-.07,1.43V30.3a24.85,24.85,0,0,0,6.35,2.56,40.26,40.26,0,0,0,8.1.62,64.56,64.56,0,0,0,12.85-1A9.48,9.48,0,0,0,72.63,37H71q-11.41,0-15.4-.44a17.33,17.33,0,0,1-6.71-2,8.18,8.18,0,0,0-3.23-1.29q-1.77,0-4,4.17A17.61,17.61,0,0,0,38.18,34.58ZM41.34,3a18.22,18.22,0,0,0,3.54-1.49q1.45,3.87,3.3,7.6a28.16,28.16,0,0,0-3.73,1.37A35.86,35.86,0,0,0,41.34,3Z"/><path d="M49.09,16A17.23,17.23,0,0,0,49.24,14a15.46,15.46,0,0,0-.15-1.71c.54,0,.93,0,1.18.08.6,0,1,.07,1.13.07H71.2c.18,0,.58,0,1.2-.07.24,0,.61-.06,1.11-.08A13.8,13.8,0,0,0,73.35,14a15.6,15.6,0,0,0,.16,2l-.9-.08c-.56-.05-1-.08-1.2-.08H61.66L56,26.09q5.51-.27,10.42-.65a33.14,33.14,0,0,0-3.41-5.39,13.71,13.71,0,0,0,3.09-1.62C68.26,22,70.36,25.55,72.46,29a25.91,25.91,0,0,0-3.81,1.87,11.61,11.61,0,0,0-.88-2.65q-9.55.78-15.57,1.9a24.11,24.11,0,0,0-1.55-3.77A5.38,5.38,0,0,0,54,24a56.38,56.38,0,0,0,3.94-8.23H51.4c-.22,0-.64,0-1.26.08Zm3.26-9.43a13.65,13.65,0,0,0,.17-1.68A15,15,0,0,0,52.37,3l1.35.05c.85,0,1.45.08,1.79.08h12.7c.23,0,.67,0,1.33-.08L71,3a15.23,15.23,0,0,0-.17,1.84A14.42,14.42,0,0,0,71,6.55c-.21,0-.69,0-1.43-.08l-1.41,0H55.21l-1.57,0Q52.73,6.53,52.35,6.53Z"/></svg>