<svg xmlns="http://www.w3.org/2000/svg" width="2.17in" height="0.55in" viewBox="0 0 156 39.26"><title>Artboard 227</title><path d="M1.81,29.64q4.86-6.72,7.08-19a20.43,20.43,0,0,0,4.84,1.5A4.19,4.19,0,0,0,12.34,14L9.2,22.88,6.06,30.71s-.09.27-.21.7A12.72,12.72,0,0,0,1.81,29.64Zm10.57,3.94a21.15,21.15,0,0,0,3.46.48c.91,0,1.47-.14,1.7-.43a4,4,0,0,0,.34-2.12V5.78a21.82,21.82,0,0,0-.3-4.24,25.45,25.45,0,0,0,5,.53c-.74,1.05-1.12,2.78-1.12,5.18V33a9.26,9.26,0,0,1-.38,3.55Q20,38.27,15.46,38.27H14.28A8,8,0,0,0,12.38,33.58ZM25.44,12.37a10.18,10.18,0,0,0,3.7-1.87q2.16,5.41,8,16.57l.73,1.37a13,13,0,0,0-4.4,1.77,70.22,70.22,0,0,0-3.53-9A71.72,71.72,0,0,0,25.44,12.37Z"/><path d="M40.73,37.26a13.33,13.33,0,0,0,2.94-6.17l.13-.63a10.59,10.59,0,0,0,3.37.78,21.32,21.32,0,0,0-1.58,3.58c-.24.68-.55,1.49-.92,2.44l-.41,1.12A30.28,30.28,0,0,0,40.73,37.26ZM42,8.73c1.77-.39,3.65-2.07,5.66-5L48.79,2l.57-.78a10.89,10.89,0,0,0,3.16,2.12,75,75,0,0,0-7.18,5.9l10.21-.78L53.13,5.9a6.89,6.89,0,0,0,2.34-1.49,55.68,55.68,0,0,0,5,6,14.7,14.7,0,0,0-2.61,1.75L56.8,10.35l-2.39.25-8.76.88c-.27,0-1.23.14-2.88.34A28.72,28.72,0,0,0,42,8.73Zm1.41,20.55c.08-.87.11-1.83.11-2.87V15.3a17.82,17.82,0,0,0-.19-2.38c1.22.11,2.23.16,3,.16h8.46A28.18,28.18,0,0,0,57.91,13c0,.33,0,.68,0,1,0,.71-.08,1.09-.08,1.14V25.51c0,1.84-.3,3-.91,3.49s-2.15.78-4.63.89a13.73,13.73,0,0,0-.81-3.16,12.66,12.66,0,0,0,1.69.13,2.45,2.45,0,0,0,1.4-.25c.2-.18.29-.59.29-1.25V24.18H46.5V26.5c0,.05,0,.6.08,1.64,0,.44,0,.82,0,1.14-.73-.05-1.27-.07-1.62-.07S44.1,29.23,43.38,29.28Zm3.08-13.69v2h8.36v-2Zm0,6.28h8.36V19.93H46.46Zm8.1,9.41a16.08,16.08,0,0,0,1.27,5.85l-1.14,0a14.45,14.45,0,0,0-2.53.32l0-.87a11.21,11.21,0,0,0-.92-4.67A14.43,14.43,0,0,0,54.56,31.28Zm8.7-.76A28.56,28.56,0,0,0,65,37a15.23,15.23,0,0,0-3.43.55,16.7,16.7,0,0,0-1.54-6A8.14,8.14,0,0,0,63.26,30.52Zm1-28.58a5.63,5.63,0,0,0-.34,2.26v3a32.87,32.87,0,0,0,8.17-3.71,7.5,7.5,0,0,0,2.34,2.85l-1.83.5q-2.7.72-8.64,2.36v2.13c0,.52.6.78,1.69.78h4a1.69,1.69,0,0,0,1.73-1.06L72,9.55a4.5,4.5,0,0,0,.17-1,7.83,7.83,0,0,0,3.36,1.68A9.27,9.27,0,0,1,73.69,14a4.59,4.59,0,0,1-3.14.85H64.29c-2.27,0-3.41-.93-3.41-2.81V4.64q0-.64-.09-1.89l-.08-1A17.8,17.8,0,0,0,62.86,2C63.23,2,63.69,2,64.25,1.94ZM60.82,16.22A8.6,8.6,0,0,0,63,16.6c.4,0,.88,0,1.45-.06a2.58,2.58,0,0,0-.47,1.6v2.72a30.13,30.13,0,0,0,8.26-4.2A17.74,17.74,0,0,0,74.72,20a84.24,84.24,0,0,0-10.77,3v2.44c0,.64.45,1,1.35,1h4.07a2.53,2.53,0,0,0,2.08-.71,7.06,7.06,0,0,0,.86-3,6.19,6.19,0,0,0,3.2,2.13c-.2.42-.34.74-.44.95a7.21,7.21,0,0,1-1.72,2.76,4,4,0,0,1-2.55.65H64.14c-2.14,0-3.2-.77-3.2-2.3V16.88A3.57,3.57,0,0,0,60.82,16.22Zm7.41,15a8.87,8.87,0,0,0,3-1.5,27.52,27.52,0,0,0,4.61,6.76,16.75,16.75,0,0,0-3.62,1.64,8.76,8.76,0,0,0-1.64-3.53l-2.06-3S68.45,31.48,68.23,31.22Z"/><path d="M80.34,16.71a8.85,8.85,0,0,0-1.2-3.16q3.66-1.59,6.27-12a18.46,18.46,0,0,0,4,1.58,11.3,11.3,0,0,0-1.75,2l-4.48,7.93a9.41,9.41,0,0,1-.63.78l5-.8a39.72,39.72,0,0,0,1.77-5.16,13.39,13.39,0,0,0,3.49,1.65A7,7,0,0,0,91,12.07,101.59,101.59,0,0,1,85.2,23.3c3.72-.7,6.26-1.22,7.63-1.58a12,12,0,0,0-.38,2.4c0,.22,0,.5,0,.84a39.15,39.15,0,0,0-11.12,2.3,7.62,7.62,0,0,0-1-3.27,5.86,5.86,0,0,0,2.84-2.09,50.82,50.82,0,0,0,3.47-6.6ZM79.58,31a44.5,44.5,0,0,0,13.79-2.79,21,21,0,0,0-.54,3.51,43.58,43.58,0,0,0-5.77,1.37l-5.78,1.66-.61.23A8.15,8.15,0,0,0,79.58,31Z"/><path d="M90.38,17.46Q96.7,9,97.42.93a14.64,14.64,0,0,0,4.42,1.29,17.37,17.37,0,0,0-3.08,5.83h12a26.66,26.66,0,0,0,3-.17,13.53,13.53,0,0,0-.11,1.35,12.89,12.89,0,0,0,.1,1.39,17.23,17.23,0,0,0-2.46-.15h-4.67v4.8h3.74A18,18,0,0,0,113.1,15a11.81,11.81,0,0,0-.08,1.27,13.58,13.58,0,0,0,.13,1.56,20.06,20.06,0,0,0-2.8-.2H106.6v5.4h3.24a32.36,32.36,0,0,0,3.26-.15c-.06.61-.08,1.07-.08,1.39s0,.74.08,1.35q-1.62-.15-3-.15h-3.51v5.87H113a15.93,15.93,0,0,0,2.46-.25,9.11,9.11,0,0,0-.21,1.58,9.86,9.86,0,0,0,.15,1.43,16.33,16.33,0,0,0-2.61-.19H98.22V36a11.35,11.35,0,0,0,.23,2.27,14,14,0,0,0-1.52-.12,14.3,14.3,0,0,0-1.79.16,23.37,23.37,0,0,0,.15-2.61v-21l-2,4.73A8.21,8.21,0,0,0,90.38,17.46Zm7.86-2.18H104V10.47H98.24Zm0,7.77H104V17.67H98.24Zm0,2.44v5.87h5.7V25.49Zm4.67-22.87a16,16,0,0,0,3-1.37A30.3,30.3,0,0,0,108.79,6a10.29,10.29,0,0,0-3.22,1.28A18.06,18.06,0,0,0,102.91,2.62Z"/><path d="M119,37a19.09,19.09,0,0,0,4.31-8.16q1-4.36,1-14.74,0-4.63-.31-10.29c.21,0,.73,0,1.59.08s1.3.07,1.56.07h21.08c.15,0,.52,0,1.12-.07s1.14-.08,1.49-.08a17.47,17.47,0,0,0-.18,1.93v6.17c0,.25,0,.83.08,1.73s.08,1.47.08,1.73c-.17,0-.69,0-1.58-.07s-1.36-.08-1.64-.08h-20a68.75,68.75,0,0,1-.94,12.88,41.24,41.24,0,0,1-3.69,10.2A17.52,17.52,0,0,0,119,37Zm8.66-30v5.32h19.81V6.92Z"/><path d="M136.94,17.36a4.65,4.65,0,0,0-.94,2.7v4.59q7.89-2.58,12.08-6.36,1.69,1.68,3.65,3.41a68.11,68.11,0,0,0-9.27,3.37q-2.11.9-6.46,2.38v3.81a3.34,3.34,0,0,0,.46,2.07,2.35,2.35,0,0,0,1.79.52h8.36a4,4,0,0,0,3-.87,7,7,0,0,0,1.1-3.66c0-.24.08-.6.16-1.07a6.38,6.38,0,0,0,3.65,1.85c-.2.78-.35,1.35-.45,1.73a8.43,8.43,0,0,1-2,4.22,5.8,5.8,0,0,1-3.93,1.1H138a7.83,7.83,0,0,1-4.08-.77,3,3,0,0,1-1.15-2.68V20.06c0-.19,0-.64-.08-1.35s-.08-1.32-.08-1.65A33.63,33.63,0,0,0,136.94,17.36Z"/></svg>