<svg id="Layer_1" data-name="Layer 1" xmlns="http://www.w3.org/2000/svg" viewBox="0 0 118.8 38.9"><title>5</title><path d="M2.5,35a31,31,0,0,0,11-10q-4.2-5.1-6.9-7.8a11.18,11.18,0,0,0,2.9-1.9L15,22.2a23.48,23.48,0,0,0,1.8-9.4H8.5c-1.3,0-2.7,0-4.4.1A15.77,15.77,0,0,0,4.2,11a17.22,17.22,0,0,0-.1-2,15.26,15.26,0,0,0,3,.3H20.4A18.41,18.41,0,0,0,23.7,9a13.57,13.57,0,0,0-.1,1.8,18.75,18.75,0,0,0,.1,2.1,16.35,16.35,0,0,0-2.2-.2H20.3a29.91,29.91,0,0,1-3.3,12c2.9,3.8,4.9,6.7,6.2,8.6l.4.6a13,13,0,0,0-3.7,1.9,29.35,29.35,0,0,0-4.6-8.3,36.18,36.18,0,0,1-9.5,10A7.47,7.47,0,0,0,2.5,35ZM11.4,3.2A22,22,0,0,0,15,1.9a37.11,37.11,0,0,0,2.2,5.5,12.74,12.74,0,0,0-3.8,1.1A11.46,11.46,0,0,0,11.4,3.2Z"/><path d="M25,28.6c.1-1.3.2-2.3.2-3V10.1A22.75,22.75,0,0,0,25,7.5a9.86,9.86,0,0,0,2.4.3,8.64,8.64,0,0,0,1.5-.1,4.31,4.31,0,0,0-.6,2.7V25.7a13.92,13.92,0,0,0,.1,1.7,7.17,7.17,0,0,0,.1,1.3,12.25,12.25,0,0,0-1.9-.2C26,28.5,25.5,28.6,25,28.6Zm2.9,5.9a12.22,12.22,0,0,0,2.6.3,2.15,2.15,0,0,0,1.6-.4,3.4,3.4,0,0,0,.3-2V4.4a16.35,16.35,0,0,0-.2-2.2,16.45,16.45,0,0,0,3.1.4,5.74,5.74,0,0,0,1.2-.1A5.45,5.45,0,0,0,36,4.7V35.5a2,2,0,0,1-1.2,2,15.19,15.19,0,0,1-4.7,1l-.8.1a8.38,8.38,0,0,0-1.4-4.1Z"/><path d="M80.6,15a21.37,21.37,0,0,0,1.7-3,12,12,0,0,0,1.5.8l2.1,1,1.8.8,1.5.7a14.92,14.92,0,0,0-1.8,3A22.54,22.54,0,0,0,80.6,15Zm1.1,19.9A76,76,0,0,0,86,21.1a12.65,12.65,0,0,0,3.1,2A37.89,37.89,0,0,0,87,29.6l-1.2,5.3c-.1.3-.2.9-.4,1.9A26.07,26.07,0,0,0,81.7,34.9Zm.9-30c.7-.9,1.4-1.7,2-2.6A48.12,48.12,0,0,0,90.1,6l1.1.6a8.83,8.83,0,0,0-2.5,2.6,42.07,42.07,0,0,0-6.1-4.3Z"/><path d="M87,35.9A18.74,18.74,0,0,0,91.7,28q1.2-4,1.2-12.3c0-4.6,0-7.6-.1-9.2,1.1,0,1.7.1,2,.1h7V4.2a10.55,10.55,0,0,0-.4-3.1c1.2.1,2,.2,2.6.2h1.6a7.89,7.89,0,0,0-.5,3V6.7h5.7c.4,0,1.2,0,2.5-.1l1.8-.1c-.7,2.4-1.2,5-1.8,7.7a11.48,11.48,0,0,0-3.7-.6,27.4,27.4,0,0,0,1.5-4h-6V17h4.3a12.65,12.65,0,0,0,1.6-.1l1.5-.2c-1.7,6-3.6,10.7-6,14.1a21.88,21.88,0,0,0,9.6,3.2,17.93,17.93,0,0,0-2.2,3.8,20.33,20.33,0,0,1-9.6-4.8l-1.1.9a50.75,50.75,0,0,1-6.8,4.6,19.28,19.28,0,0,0-3-2.7,21.55,21.55,0,0,0,8.7-4.9c-1.4-2.3-3.1-5.2-4.8-8.7A12.34,12.34,0,0,0,101,21a21.85,21.85,0,0,0,3.1,8,51,51,0,0,0,4.2-9.2h-12a60,60,0,0,1-1.8,10.3,27.66,27.66,0,0,1-4,7.6A12.93,12.93,0,0,0,87,35.9Zm9.3-19.1h5.4V9.5H96.3Z"/><path d="M44.9,34.2H41.7a10.28,10.28,0,0,0,.1-1.7c0-.5.1-.9.1-1.3V6.4c0-.5-.1-.9-.1-1.4.9.1,1.8.1,2.7.2s1.9.1,2.9.1,2,0,3-.1A21.3,21.3,0,0,0,53.1,5,5.28,5.28,0,0,0,53,6.3V27.9a7.08,7.08,0,0,0,.1,1.4,9.15,9.15,0,0,0,.1,1.6H50.1V29.4H45v4.8Zm5.2-18.4V8.2H45v7.7h5.1Zm-5.2,2.8v7.9H50V18.6Z"/><path d="M61.9,25.1a28.49,28.49,0,0,1-.6,4.7,9.89,9.89,0,0,1-1.4,3.5A8.67,8.67,0,0,1,57.2,36a15.77,15.77,0,0,1-4.5,2.1c-.3-.6-.6-1.2-.9-1.7s-.8-1-1.3-1.6a21.79,21.79,0,0,0,3.9-1,6.52,6.52,0,0,0,2.5-1.7,6.07,6.07,0,0,0,1.3-2.8,16.92,16.92,0,0,0,.5-4.3c-1,0-1.9.1-2.5.1a7,7,0,0,0-1.6.2V22.1a4.48,4.48,0,0,0,1.2.1c.4,0,1,.1,1.8.1s1.7,0,2.9.1H70a24.51,24.51,0,0,0,3-.1c.8,0,1.3-.1,1.7-.1s.7-.1,1-.1v3.2c-.3,0-.6-.1-1-.1s-.8-.1-1.4-.1-1.2-.1-2-.1H68.5v7.4a1.58,1.58,0,0,0,.5,1.3,3.54,3.54,0,0,0,1.9.4,4.12,4.12,0,0,0,1.2-.1,2.36,2.36,0,0,0,.9-.6,3.65,3.65,0,0,0,.7-1.4,23.32,23.32,0,0,0,.6-2.5,9.14,9.14,0,0,0,1.6,1.3,5.09,5.09,0,0,0,1.7.7,24.55,24.55,0,0,1-1.1,3,5.86,5.86,0,0,1-1.3,1.7,3.59,3.59,0,0,1-1.8.7,18.7,18.7,0,0,1-2.7.2A21,21,0,0,1,68,37a5.29,5.29,0,0,1-1.6-.4,1.65,1.65,0,0,1-.8-1,6.27,6.27,0,0,1-.2-1.6V25H61.9Z"/><path d="M60.6,9.6a34,34,0,0,0-5.5,1.6L54.4,8c.8-.1,1.7-.2,2.6-.4s1.9-.4,2.9-.6c-.3-1.2-.5-2.3-.7-3.3s-.3-1.8-.4-2.5a3.42,3.42,0,0,0,1.1.1,4.87,4.87,0,0,1,1.2.1h1.8c.4,0,.6,0,.7.1s0,.2-.2.4a1.38,1.38,0,0,0-.3.4A1.48,1.48,0,0,0,63,3V6.4l5.2-1.1A5,5,0,0,0,69.6,5c.5-.1,1.1-.3,1.6-.4s1-.3,1.5-.4a6.6,6.6,0,0,0,1.1-.4l.6,3a7.38,7.38,0,0,0-1.2.2c-.5.1-1,.2-1.6.3l-1.7.3c-.6.1-1,.2-1.5.3L63.4,9a13.23,13.23,0,0,0,1.9,4.3c.6-.4,1.1-.8,1.6-1.2L68.3,11l1.2-1.2a17.41,17.41,0,0,0,1.2-1.4,13.07,13.07,0,0,0,1.2,1.1,9.82,9.82,0,0,0,1,.7c.3.2.4.3.4.4s-.2.2-.5.3c-.1,0-.2.1-.5.3a3.49,3.49,0,0,1-.9.6,10.47,10.47,0,0,1-1.1.8c-.4.3-.7.6-1.1.9s-.7.6-1.1.9l-1.1.8c.5.4,1,.8,1.4,1.1s.9.5,1.2.7a7.72,7.72,0,0,0,1.5.6,1.15,1.15,0,0,0,1-.1,3.58,3.58,0,0,0,.6-1.1,23.47,23.47,0,0,0,.4-2.4,8.31,8.31,0,0,0,1.4,1.3,7.5,7.5,0,0,0,1.8.8A18.78,18.78,0,0,1,75,19.6a2.09,2.09,0,0,1-1.5,1.3,5.4,5.4,0,0,1-1.8,0,7,7,0,0,1-2.2-.7,14.14,14.14,0,0,1-2.4-1.3,19.84,19.84,0,0,1-2.5-2A35.92,35.92,0,0,1,60.8,19a38.87,38.87,0,0,1-4.1,1.7,6.11,6.11,0,0,0-.7-1.4A7.89,7.89,0,0,0,54.7,18c1.4-.4,2.8-.9,4.2-1.4s2.7-1.2,3.9-1.8a19.65,19.65,0,0,1-1.3-2.5C61.2,11.3,60.8,10.4,60.6,9.6Z"/></svg>