<svg xmlns="http://www.w3.org/2000/svg" width="0.51in" height="0.53in" viewBox="0 0 37 38"><title>Artboard 80</title><path d="M13.06,23.36a20.92,20.92,0,0,1-1.65,7,18.87,18.87,0,0,1-4,5.66,6.44,6.44,0,0,0-1.61-1.29,8.88,8.88,0,0,0-2-.78,16.25,16.25,0,0,0,2.83-2.7,12.77,12.77,0,0,0,1.9-3.31,18.59,18.59,0,0,0,1.08-4.28A41.46,41.46,0,0,0,10,18V9.16C10,8,10,7,10,6.27s-.06-1.38-.11-1.92l1.46.07,2,.06H27.71l2-.06,1.43-.07Q31,5.16,31,6.27C31,7,31,8,31,9.16V30.88a13.11,13.11,0,0,1-.15,2.23A2,2,0,0,1,30,34.43a4.83,4.83,0,0,1-1.88.74c-.84.17-2,.33-3.52.48a5.6,5.6,0,0,0-.39-2.07,7.49,7.49,0,0,0-1.24-2c1.11.2,2,.32,2.57.37a2.23,2.23,0,0,0,1.34-.2,1.3,1.3,0,0,0,.51-1,14.66,14.66,0,0,0,.1-2V23.36ZM27.53,12.63V7.27H13.17v5.36ZM13.17,15.22v5.44H27.53V15.22Z"/></svg>