<svg xmlns="http://www.w3.org/2000/svg" width="0.51in" height="0.53in" viewBox="0 0 37 38"><title>Artboard 28</title><path d="M7.07,35.18H3.81c0-.39.09-.85.13-1.37s.07-1.07.11-1.66.06-1.2.07-1.82,0-1.2,0-1.77V10q0-1.44-.09-3a20.82,20.82,0,0,0-.31-2.66c1.11.12,2.78.22,5,.31s5,.13,8.38.13l5.16,0c1.44,0,2.68,0,3.7-.07s1.89-.08,2.59-.13,1.34-.11,1.91-.19V7.8c-.55-.07-1.16-.13-1.85-.17l-2.59-.11c-1,0-2.28-.06-3.74-.07l-5.25,0h-10V30.22H17.43q5.25,0,8.89-.09a48.56,48.56,0,0,0,4.94-.28v3.37c-.88-.1-2.56-.17-5-.22s-5.46-.08-9-.08H7.07Z"/></svg>