<svg xmlns="http://www.w3.org/2000/svg" width="0.51in" height="0.53in" viewBox="0 0 37 38"><title>Artboard 212</title><path d="M15.32,32.64c.29.19.43.35.4.46s-.27.19-.74.24c-.22,0-.53.07-.94.15a8.32,8.32,0,0,0-1.72.59c-.44.2-1,.42-1.72.68s-1.48.53-2.31.82l-2.57.85c-.88.28-1.7.52-2.47.72A10.79,10.79,0,0,0,2.4,36a8.77,8.77,0,0,0-1.18-1.18,42.76,42.76,0,0,0,6.81-2,23.06,23.06,0,0,0,4.77-2.53,6.11,6.11,0,0,0,.57.62l.73.67c.24.22.48.43.7.61Zm3.73-13.51q3.48,0,6.05-.07c1.72,0,3.19-.13,4.43-.22-.08.64-.13,1.46-.17,2.46s0,2.09,0,3.27,0,2.18.06,3.05.08,1.76.13,2.65c-1.39-.1-3-.17-5-.22S20.35,30,17.68,30s-4.93,0-6.82.08-3.52.12-4.9.22c.07-.86.13-1.74.16-2.63s0-1.92,0-3.11,0-2.22,0-3.12S6,19.64,6,18.8c1.28.1,2.75.17,4.4.22s3.63.09,5.92.11V17.25q-5.73,0-9.38.14c-2.43.08-4.16.15-5.2.22V14.73c.59,0,1.31.09,2.15.13L6.49,15c.93,0,1.85.06,2.76.07s1.71,0,2.4,0H23.86c1.63,0,3.28,0,5-.09s3.33-.14,5-.24v2.88c-1.11-.09-2.87-.17-5.27-.24s-5.56-.1-9.46-.12ZM25.16,7c1.13,0,2.29-.06,3.48-.11s2.25-.12,3.22-.22V9.55c-1-.1-2-.17-3.22-.22s-2.35-.09-3.48-.11v4.51c-.35,0-.84-.05-1.48-.07s-1.32-.05-2-.06l-2.16,0H15.59l-2.22,0c-.72,0-1.4,0-2,.06s-1.07.05-1.37.07V9.22c-1.06,0-2.13.06-3.2.11s-2,.12-2.91.22V6.7c.87.1,1.84.17,2.91.22S8.93,7,10,7c0-1.08-.05-1.88-.07-2.4A11.59,11.59,0,0,0,9.8,3.41a14.46,14.46,0,0,0,1.76.11,13.16,13.16,0,0,0,1.54-.08q.4-.07.48.15c.05.15-.09.31-.41.48a1,1,0,0,0-.37.35,1.92,1.92,0,0,0-.07.65V7h9.62c0-1.18,0-2,0-2.59a9.16,9.16,0,0,0-.09-1.26A13.37,13.37,0,0,0,24,3.31a11.29,11.29,0,0,0,1.6-.05c.19,0,.32,0,.37.15s-.05.28-.3.48a1.29,1.29,0,0,0-.39.5,2,2,0,0,0-.09.68ZM16.28,21.28H8.92v2.14h7.36Zm0,4.29H8.92v2.18h7.36ZM12.73,9.22v2.25h9.62V9.22Zm6.32,14.2h7.52V21.28H19.05Zm0,4.33h7.52V25.57H19.05Zm12.14,9.1c-.67-.37-1.42-.75-2.26-1.16s-1.7-.8-2.59-1.17-1.77-.71-2.66-1a22.6,22.6,0,0,0-2.48-.72l1.74-2.08,2.59.83,2.76,1,2.7,1c.87.32,1.66.63,2.35.93Z"/></svg>