<svg xmlns="http://www.w3.org/2000/svg" width="0.51in" height="0.53in" viewBox="0 0 37 38"><title>Artboard 96</title><path d="M25.94,14.11H10.47c.07-.4.13-.8.17-1.21s0-.93,0-1.57V5.63a12.11,12.11,0,0,0-.22-2.77A14.08,14.08,0,0,0,12.41,3a14,14,0,0,0,1.87,0c.35,0,.55,0,.61.09s0,.2-.24.35a2.13,2.13,0,0,0-.89,1.85v5.81H25.94V7.63c0-1.28,0-2.43-.11-3.46A12.47,12.47,0,0,0,25.53,2c.71.12,1.37.21,2,.26s1.24.07,1.9.07c.47,0,.74.06.8.18s-.12.31-.54.56a1.14,1.14,0,0,0-.4.8,11.31,11.31,0,0,0-.11,1.94V28.54c0,.44,0,.94,0,1.49s0,1.13.08,1.72.08,1.19.13,1.78.1,1.15.15,1.67H25.6c0-.52.1-1.08.15-1.67s.09-1.19.11-1.79,0-1.19.06-1.74,0-1,0-1.46V21.69H15.43a17.84,17.84,0,0,1-.32,4.24A10.44,10.44,0,0,1,14,29c-.35.56-.68,1.06-1,1.48a8.6,8.6,0,0,1-1.19,1.25A15.11,15.11,0,0,1,10,33.09c-.73.47-1.66,1-2.8,1.66A9.15,9.15,0,0,0,6.1,33.36a11.75,11.75,0,0,0-1.44-1.24c.81-.29,1.54-.59,2.17-.88a13.07,13.07,0,0,0,1.7-1A9.83,9.83,0,0,0,9.9,29.07a14.05,14.05,0,0,0,1.2-1.5,6.39,6.39,0,0,0,.61-1,5.05,5.05,0,0,0,.39-1.12,12.57,12.57,0,0,0,.24-1.54c.06-.59.1-1.33.13-2.22H8.56c-.53,0-1,0-1.38,0l-1,.07-.85.08V18.51l.83.07c.31,0,.71.05,1.19.06l1.81,0H25.94Z"/></svg>