<svg xmlns="http://www.w3.org/2000/svg" width="0.51in" height="0.53in" viewBox="0 0 37 38"><title>Artboard 137</title><path d="M19.83,13.28c2.57,0,4.63,0,6.2-.08s2.74-.11,3.53-.18a18.91,18.91,0,0,0-.26,3.33v4.77a18.91,18.91,0,0,0,.26,3.33l-1.66-.13c-.6,0-1.27-.07-2-.09l-2.61-.07c-1,0-2.13,0-3.44,0v6.29c3.41,0,6.06-.07,8-.13A39.64,39.64,0,0,0,31.89,30v3.26c-.86-.08-2.44-.14-4.73-.19s-5.28-.07-9-.07H6.47v2.29H3.29c0-.37,0-.74.08-1.13s0-.8.07-1.25,0-1,0-1.52V10.61c0-1.06,0-1.92,0-2.59s0-1.23-.06-1.7A9.52,9.52,0,0,0,3.27,5.1c-.06-.35-.13-.74-.2-1.18.74.05,1.55.1,2.44.14s1.93.1,3.11.13,2.55.07,4.09.08l5.34,0q5.15,0,8.31-.1C28.47,4.13,30,4.05,31.08,4V7.39c-.94-.09-2.33-.17-4.16-.22s-4.2-.08-7.09-.11ZM16.65,7.06H6.47v6.22H16.65Zm9.66,14.36V15.9H6.47v5.52ZM6.47,24.12v6.29H16.65V24.12Z"/></svg>