<svg xmlns="http://www.w3.org/2000/svg" width="0.51in" height="0.53in" viewBox="0 0 37 38"><title>Artboard 99</title><path d="M8.88,12.59c-.35.84-.73,1.68-1.15,2.51S6.79,16.92,6.18,18a6.17,6.17,0,0,0-1.39-.69c-.43-.13-1-.26-1.61-.39a17.1,17.1,0,0,0,1.37-2.22c.47-.88.93-1.88,1.39-3s.9-2.28,1.33-3.54.83-2.57,1.2-4c.54.2,1.08.37,1.61.52a10.74,10.74,0,0,0,1.83.33c.45,0,.51.23.19.6a4,4,0,0,0-.46.7c-.19.32-.39.68-.6,1.09s-.41.82-.61,1.24-.35.79-.48,1.11h7.33V7.22c0-1.11,0-2.18-.08-3.22s-.09-1.78-.14-2.25a21,21,0,0,0,3.77.11c.42,0,.67,0,.76.2s-.08.37-.5.61a1.17,1.17,0,0,0-.39.78,10.33,10.33,0,0,0-.13,2V9.85q3.48,0,5.92-.09t3.81-.21v3.33q-1.36-.11-3.81-.18t-5.92-.11v8.29q4.21,0,7.31-.13c2.06-.06,3.91-.14,5.57-.24V24c-1.66-.12-3.51-.21-5.57-.28s-4.5-.1-7.31-.13v5.67c0,.42,0,.9,0,1.46s0,1.13.05,1.74.07,1.2.12,1.79.09,1.15.14,1.67H17c0-.45.09-1,.12-1.56s.08-1.19.12-1.81.06-1.22.07-1.8,0-1.07,0-1.49V23.61c-3.46,0-6.47,0-9,.12s-4.81.17-6.71.29V20.51q2.88.18,6.73.27c2.57.07,5.57.1,9,.1V12.59Z"/></svg>