<svg xmlns="http://www.w3.org/2000/svg" width="0.51in" height="0.53in" viewBox="0 0 37 38"><title>Artboard 118</title><path d="M10,20.46c-.81.94-1.75,1.94-2.81,3s-2.23,2.15-3.52,3.23a7.37,7.37,0,0,0-1.11-1.53A8.49,8.49,0,0,0,1.07,23.9a46.4,46.4,0,0,0,4.09-3.07,28.06,28.06,0,0,0,3.61-3.62,27.34,27.34,0,0,0,3-4.5A30.56,30.56,0,0,0,14.1,7q-3.6,0-6.37.11c-1.85.05-3.51.14-5,.26V4q2.81.18,6.56.26t9,.07c3.52,0,6.55,0,9.06-.07S32,4.08,33.89,4v3.4Q31,7.18,27,7.09T17.43,7a34.23,34.23,0,0,1-1.72,4.26q-1.07,2.17-2.17,4.07H24.2c1.18,0,2.21,0,3.09-.08s1.61-.11,2.2-.18a12.57,12.57,0,0,0-.21,1.74c0,.66-.05,1.36-.05,2.07v9.62c0,.72,0,1.55.05,2.52s.11,1.88.21,2.77H25.94V30.6H13v3.81H9.66c.09-1,.17-2,.22-3.09s.07-2.16.07-3.27Zm16-2.4H13v9.76h13Z"/></svg>