<svg xmlns="http://www.w3.org/2000/svg" width="0.51in" height="0.53in" viewBox="0 0 37 38"><title>Artboard 59</title><path d="M34.11,10.46a14.48,14.48,0,0,0-1.62-.17c-.65,0-1.51-.07-2.6-.11s-2.44-.06-4.06-.07-3.66,0-6.07,0H8.92C9,12.55,9,14.77,9,16.73s-.1,3.73-.22,5.31-.3,3-.52,4.27a31.24,31.24,0,0,1-.83,3.57,33.49,33.49,0,0,1-1.15,3.2c-.43,1-.92,2.07-1.46,3.13-.4-.27-.75-.51-1.07-.7A5.9,5.9,0,0,0,2.81,35a7.14,7.14,0,0,0-.92-.32c-.32-.09-.67-.17-1-.24a28.79,28.79,0,0,0,1.74-2.55,15.78,15.78,0,0,0,1.33-2.87,24.7,24.7,0,0,0,.93-3.53,41.49,41.49,0,0,0,.55-4.61c.12-1.76.19-3.79.19-6.09S5.52,9.88,5.4,6.87C6,6.94,6.6,7,7.29,7l2.63.09,3.94,0c1.56,0,3.53,0,5.9,0s4.41,0,6,0,3,0,4.07,0,1.93-.06,2.59-.11l1.64-.15Zm-16-3.55c-.27-.82-.56-1.58-.85-2.3a18.74,18.74,0,0,0-1-2.11l3.63-1.25c.27.69.58,1.41.92,2.18S21.53,5,22,5.76Z"/></svg>