<svg xmlns="http://www.w3.org/2000/svg" width="0.51in" height="0.53in" viewBox="0 0 37 38"><title>Artboard 107</title><path d="M20.42,25.42c0,1.16,0,2.23.06,3.2s.1,2,.2,3.13H17.13c.1-1.14.17-2.2.2-3.19s.06-2,.06-3.14v-2.7H10.06a27.36,27.36,0,0,1-1.51,6.77A26.92,26.92,0,0,1,6.1,34.63,13,13,0,0,0,4.61,33.5a10.85,10.85,0,0,0-1.76-.83,16.13,16.13,0,0,0,3.2-6A30.18,30.18,0,0,0,7.14,18V8.47c0-1.16,0-2.18-.07-3.09a17.66,17.66,0,0,0-.23-2.16l2.85.13c.94,0,1.91.06,2.93.07l3.2,0,3.64,0,4.35,0,3.25,0c1,0,1.82,0,2.61-.07l2.48-.13a18.22,18.22,0,0,0-.24,2.15c-.06.91-.09,1.94-.09,3.1V30.56a9.71,9.71,0,0,1-.11,1.61,1.5,1.5,0,0,1-.71,1,5.32,5.32,0,0,1-1.79.65c-.8.17-1.93.37-3.38.59a17.39,17.39,0,0,0-.49-1.79,14.88,14.88,0,0,0-.7-1.76,18.84,18.84,0,0,0,2.09,0A4.22,4.22,0,0,0,28,30.56a1.12,1.12,0,0,0,.61-.5,1.68,1.68,0,0,0,.17-.79V22.72H20.42Zm-3-13.76V6.22H10.17v5.44Zm-7.22,2.7V20h7.22V14.36Zm18.58-2.7V6.22H20.42v5.44Zm-8.33,2.7V20h8.33V14.36Z"/></svg>