<svg xmlns="http://www.w3.org/2000/svg" width="0.51in" height="0.53in" viewBox="0 0 37 38"><title>Artboard 176</title><path d="M19.76,27.32Q28.9,27.24,34,27v3.18q-5.1-.26-14.24-.33c0,1.31,0,2.58,0,3.81s.1,2.27.17,3.11H16.17c0-.4,0-.89.09-1.48s.07-1.22.11-1.87.06-1.3.08-1.92,0-1.18,0-1.65q-10.07,0-15.5.33V27q5.48.33,15.5.33V23.88H9.14v1.63H5.66c.12-.86.22-1.74.28-2.63S6,21.23,6,20.59V11.45c0-1,0-2-.11-3S5.76,6.62,5.66,6a6.34,6.34,0,0,0,.89.11l1.27.08,1.78.07c.68,0,1.49,0,2.42,0Q12.4,5,12.62,4c.14-.65.28-1.27.4-1.86.69.19,1.35.35,2,.46s1.32.21,2.06.31c.51.08.58.24.18.48a5.12,5.12,0,0,0-1,1,23.69,23.69,0,0,0-1.45,1.91q6,0,9.55-.08A38.28,38.28,0,0,0,28.9,6v8.14q-1.48-.11-3.69-.18c-1.46,0-3.39-.08-5.79-.08H9.14v2.63H19.42c2.35,0,4.47,0,6.37-.11s3.32-.16,4.25-.26v8c-1.11-.1-2.5-.17-4.18-.2s-3.71-.06-6.1-.06ZM9.14,11.52H26V8.64H9.14Zm0,10.1H27V18.7H9.14Z"/></svg>