<svg xmlns="http://www.w3.org/2000/svg" width="0.51in" height="0.53in" viewBox="0 0 37 38"><title>Artboard 52</title><path d="M27.79,14.9c0-1.19,0-2.11-.1-2.78a8.88,8.88,0,0,0-.27-1.62,18.23,18.23,0,0,0,4.1.25c.27,0,.43,0,.48.19s-.06.34-.33.59a2.87,2.87,0,0,0-.54.61,1.57,1.57,0,0,0-.13.69V30c0,.91,0,1.74,0,2.48s.08,1.52.15,2.33h-3.4V32.51H6.47v2.78L3,35.32a17.81,17.81,0,0,0,.2-2q.06-1,.06-1.92v-17c0-1.11,0-2-.06-2.74a6.85,6.85,0,0,0-.24-1.66,14.41,14.41,0,0,0,2,.28,16.93,16.93,0,0,0,2,0c.27,0,.43,0,.46.16s-.06.31-.31.5a1.59,1.59,0,0,0-.45.52,1.8,1.8,0,0,0-.11.67V29.81h8.92V8.16a33.46,33.46,0,0,0-.33-5.25,22.69,22.69,0,0,0,2.29.35,10.48,10.48,0,0,0,1.85,0c.35,0,.55,0,.61.17s0,.27-.24.42a1.81,1.81,0,0,0-.63.65,2.06,2.06,0,0,0-.15.87V29.81h9Z"/></svg>