<svg xmlns="http://www.w3.org/2000/svg" width="0.51in" height="0.53in" viewBox="0 0 37 38"><title>Artboard 11</title><path d="M32.37,24.9a22.58,22.58,0,0,1-1.48,3.31,6.14,6.14,0,0,1-1.57,1.91,5.63,5.63,0,0,1-2.05,1,20.87,20.87,0,0,1-2.89.48c-.54.05-1.23.1-2.05.15s-1.73.09-2.72.13-2,.06-3.05.07L13.5,32c-1,0-1.9,0-2.73,0s-1.53,0-2.08-.06a5.41,5.41,0,0,1-3.84-1.38,4.25,4.25,0,0,1-1.23-3.06,9.21,9.21,0,0,1,.58-2.86,17,17,0,0,1,2.35-4.18,59.36,59.36,0,0,1,5-6Q14.84,11,20.16,6.18H13.91q-4.47,0-7.14.05c-1.78,0-3.17.1-4.18.17V2.89C3.58,3,5,3,6.9,3.05s4.48.06,7.79.06c1.38,0,2.72,0,4,0s2.5,0,3.59-.09l2.77-.11c.77,0,1.3-.08,1.6-.13V6.22a6.85,6.85,0,0,0-.84.11,3.42,3.42,0,0,0-.85.29,7.12,7.12,0,0,0-1.07.67,17.49,17.49,0,0,0-1.48,1.22c-.58.52-1.28,1.17-2.11,1.94l-3,2.83Q14.58,16,12.67,18.09a44.84,44.84,0,0,0-3.09,3.83,16.17,16.17,0,0,0-1.72,3,6,6,0,0,0-.53,2.26,1.27,1.27,0,0,0,.12.52,1.19,1.19,0,0,0,.58.46,4.93,4.93,0,0,0,1.24.33,17,17,0,0,0,2.13.17c.37,0,1,0,2,0s2.1,0,3.31,0,2.39,0,3.55-.06,2.09-.07,2.78-.15a18.61,18.61,0,0,0,2.31-.35,2.73,2.73,0,0,0,1.42-.79,4.81,4.81,0,0,0,.95-1.76q.39-1.17.87-3.24a7.1,7.1,0,0,0,1.94,1.94A3.7,3.7,0,0,0,32.37,24.9Z"/></svg>