<svg xmlns="http://www.w3.org/2000/svg" width="0.51in" height="0.53in" viewBox="0 0 37 38"><title>Artboard 189</title><path d="M6,28.83c.44.2.43.44,0,.71a2,2,0,0,0-.61.61,6,6,0,0,0-.72,1.09c-.42.81-.74,1.41-1,1.79a5.14,5.14,0,0,1-.7,1,4,4,0,0,0-1-.53,10.72,10.72,0,0,0-1.35-.43,13.36,13.36,0,0,0,1.87-2.66A19.4,19.4,0,0,0,3.74,27.5c.37.27.72.51,1.07.72A10.24,10.24,0,0,0,6,28.83Zm0-21.64c-.94,0-1.84,0-2.72.09s-1.65.09-2.31.17V4.64c.39.07.8.13,1.24.18s.93.09,1.51.13S4.9,5,5.68,5s1.68,0,2.72,0,2.19,0,3,0S13,5,13.58,5s1.11-.08,1.55-.13.88-.11,1.3-.18V7.45L14.61,7.3c-.71,0-1.66-.09-2.85-.11v3c.79,0,1.56-.07,2.3-.13s1.47-.16,2.18-.28c-.07.57-.14,1.19-.2,1.89S16,13.08,16,13.85s0,1.59.07,2.4a14.78,14.78,0,0,0,.22,2c-1.13-.12-2.3-.21-3.49-.27s-2.49-.1-3.87-.1-2.67,0-3.87.1-2.36.15-3.49.27c.09-.71.16-1.48.2-2.31s0-1.6,0-2.31,0-1.41-.06-2.07-.09-1.25-.16-1.74A20.81,20.81,0,0,0,3.64,10c.73.05,1.49.08,2.28.11Zm2,19.09c-1.58,0-2.9,0-4,.07s-2,.14-2.92.26V23.73c.94.12,2,.21,3.11.26s2.56.07,4.29.07,3.2,0,4.36-.07,2.2-.14,3.11-.26v2.88c-.71-.1-1.51-.17-2.4-.22s-2-.07-3.18-.07v6.25a13,13,0,0,1-.08,1.59,1.59,1.59,0,0,1-.44,1,2.75,2.75,0,0,1-1.15.61,20,20,0,0,1-2.18.5A8.76,8.76,0,0,0,6,34.81a9.88,9.88,0,0,0-.83-1.5,14.45,14.45,0,0,0,1.48.06,2.92,2.92,0,0,0,.83-.13.58.58,0,0,0,.36-.32,1.72,1.72,0,0,0,.07-.57Zm6.55-4.18C13.74,22,13,22,12.1,22L8.92,22C7.66,22,6.6,22,5.75,22a22.94,22.94,0,0,0-2.35.2V19.55c.72.1,1.5.16,2.35.2s1.91.06,3.17.06,2.31,0,3.18-.06,1.64-.1,2.33-.2ZM5.92,12.22h-2v3.59h2Zm2-2H9.8v-3H7.88Zm0,5.62H9.8V12.22H7.88ZM13.25,32a14.86,14.86,0,0,0-.91-1.69A10.65,10.65,0,0,0,11.39,29l2-1.52a17.7,17.7,0,0,0,1.82,2.93ZM11.76,15.81h2V12.22h-2ZM24,5c.7,0,1.33,0,1.91,0l1.68,0c.55,0,1.08-.06,1.61-.11l1.69-.15c-.13.86-.23,1.76-.3,2.68s-.14,1.93-.18,3c-.1,1.77-.17,3.55-.21,5.33s-.05,3.47-.05,5.1,0,3.13.07,4.52.14,2.57.26,3.58c.3,2.59.63,3.95,1,4.07s.66-1.14.83-3.81a7.6,7.6,0,0,0,2.07,2c-.25,1.19-.47,2.12-.66,2.81a7.92,7.92,0,0,1-.61,1.58,1.64,1.64,0,0,1-.65.68,1.78,1.78,0,0,1-.74.15,1.92,1.92,0,0,1-1.06-.37,3.6,3.6,0,0,1-1-1.32,11.86,11.86,0,0,1-.87-2.55,26.92,26.92,0,0,1-.58-4.12c-.1-1.21-.18-2.49-.24-3.85s-.1-2.86-.11-4.5,0-3.48,0-5.51.12-4.33.24-6.9H20c0,1.55.05,3,.07,4.33s0,2.61,0,3.85,0,2.42,0,3.57-.07,2.31-.14,3.49A28.39,28.39,0,0,1,19.35,27a27.74,27.74,0,0,1-1.13,4,22.58,22.58,0,0,1-1.57,3.39,13.19,13.19,0,0,1-1.93,2.61,4.87,4.87,0,0,0-.94-.93,5.53,5.53,0,0,0-1.28-.7,16.46,16.46,0,0,0,2.15-2.52,13.17,13.17,0,0,0,1.48-2.87,19,19,0,0,0,.94-3.51,34.78,34.78,0,0,0,.5-4.46q.15-2.22.21-4.11c0-1.25,0-2.53,0-3.83s-.07-2.68-.13-4.18l-.24-5.12L19,4.86c.49,0,1,.08,1.51.11l1.61,0C22.7,5,23.31,5,24,5Zm1.08,15.73q.73,2.32,1.44,4.79t1.33,5.05l-2.48.92c-.24-1.25-.49-2.46-.74-3.6s-.5-2.28-.77-3.39c-.55,1.48-1.11,2.83-1.69,4.05a19.63,19.63,0,0,1-1.72,3,6.24,6.24,0,0,0-.87-.46,4.78,4.78,0,0,0-.9-.28A50,50,0,0,0,21,26.28a45.26,45.26,0,0,0,1.93-5.07c-.42-1.5-.86-3-1.31-4.4s-1-2.9-1.5-4.4l1.66-.89q1,2.65,2.18,6a33.06,33.06,0,0,0,.6-3.48c.14-1.23.28-2.75.4-4.55.42.2.84.37,1.24.52a7.49,7.49,0,0,0,1,.3c.23,0,.35.1.37.16s-.06.18-.26.35a1.69,1.69,0,0,0-.29.73c-.1.4-.17.78-.22,1.12-.15,1.26-.37,2.58-.67,4S25.47,19.39,25.05,20.77Z"/></svg>