<svg xmlns="http://www.w3.org/2000/svg" width="0.51in" height="0.53in" viewBox="0 0 37 38"><title>Artboard 213</title><path d="M17,18.13c-1.06,1-2.1,2-3.11,2.8a31.08,31.08,0,0,1-3.18,2.27,35.38,35.38,0,0,1-3.57,1.93Q5.22,26,2.85,26.9a5.23,5.23,0,0,0-.65-1.33,5.32,5.32,0,0,0-1.09-1.22,16.2,16.2,0,0,0,3.44-1,34.21,34.21,0,0,0,3.9-1.85,37.62,37.62,0,0,0,3.81-2.41,23,23,0,0,0,3.17-2.68V13.58a30.57,30.57,0,0,1-5.68,3.94,39.76,39.76,0,0,1-6.94,3,5.62,5.62,0,0,0-.57-1.24,9,9,0,0,0-1-1.28,26.1,26.1,0,0,0,3-.73,29.33,29.33,0,0,0,3.18-1.19c1.06-.47,2.1-1,3.13-1.57a26.41,26.41,0,0,0,2.9-1.91q-3.88,0-6.71.06c-1.89,0-3.59.1-5.09.2V10.1c.84.05,1.74.1,2.7.13s2,.06,3.11.08l3.62,0c1.31,0,2.73,0,4.26,0V7.88Q13,8,10.3,8.09l-5.42.16A6.52,6.52,0,0,0,4.48,7a9.53,9.53,0,0,0-.63-1.2q.78.08,1.53.09c.51,0,1.11,0,1.8,0s1.52,0,2.49,0l3.58-.13c1.42,0,2.84-.14,4.23-.26s2.7-.27,3.92-.43,2.33-.33,3.33-.51a16.78,16.78,0,0,0,2.46-.62c.1.23.23.47.37.73s.31.51.48.77.35.51.52.74A4.22,4.22,0,0,0,29,6.7c.19.22.27.39.22.52s-.19.16-.41.11a9.75,9.75,0,0,0-2.07-.11c-.84,0-1.69.06-2.55.11l-2.87.2-3,.17v2.66q4.67,0,7.94,0c2.18,0,4.13-.11,5.83-.21v2.74c-1.7-.12-3.65-.2-5.83-.22s-4.83,0-7.94,0v3.89a11.45,11.45,0,0,0,3,2.68A16.55,16.55,0,0,0,25,20.91a25.32,25.32,0,0,0,4.29,1,36.38,36.38,0,0,0,4.55.35A10.3,10.3,0,0,0,32.12,26a39.73,39.73,0,0,1-5-1.39,33.83,33.83,0,0,1-4.31-1.85,23.1,23.1,0,0,1-3.46-2.18A11.61,11.61,0,0,1,17,18.13ZM14.8,29.38Q12.25,30.64,9.62,32T4.77,34.78a10.14,10.14,0,0,0-.9-1.64A13.6,13.6,0,0,0,2.7,31.71c1-.24,2-.54,3.05-.87s2.09-.7,3.11-1.11,2-.83,3-1.27,1.89-.92,2.75-1.41a6.13,6.13,0,0,0-.07,1.24A3.39,3.39,0,0,0,14.8,29.38Zm-5.66-1a9.48,9.48,0,0,0-.45-1.49A5.94,5.94,0,0,0,8,25.68l3.22-1.48c.27.47.51.91.72,1.31s.44.81.68,1.21Zm11.25-.81A11.29,11.29,0,0,0,22,25.61a14.38,14.38,0,0,0,1-2q.73.59,1.53,1.14a8.6,8.6,0,0,0,1.46.85c.2.1.29.2.28.3s-.19.2-.54.3a9.39,9.39,0,0,0-1.27.57,12.13,12.13,0,0,0-2.09,1.46c1.33.52,2.67,1.07,4,1.65s2.72,1.19,4.13,1.83a13.64,13.64,0,0,0-1.24,1.4,11.44,11.44,0,0,0-1,1.6q-2.6-1.78-5-3.24a45.42,45.42,0,0,0-4.85-2.61v4.25a8.15,8.15,0,0,1-.12,1.56,1.52,1.52,0,0,1-.65.94,4.35,4.35,0,0,1-1.56.56c-.69.13-1.64.26-2.84.39a6.1,6.1,0,0,0-.32-1.82A5.18,5.18,0,0,0,11.76,33l2.19.1a4.18,4.18,0,0,0,1.2-.1.7.7,0,0,0,.5-.35,1.75,1.75,0,0,0,.11-.68V26.16c0-1,0-1.93-.07-2.7a18.85,18.85,0,0,0-.23-2c.62.1,1.16.16,1.61.19a10.55,10.55,0,0,0,1.47,0c.46-.05.72,0,.77.09s-.06.33-.33.65a2,2,0,0,0-.46.69,2.42,2.42,0,0,0-.1.75v3l1,.37Zm9.25-7.29a52.74,52.74,0,0,0-4.89-2.94,37.47,37.47,0,0,0-4.62-2.05l1-1.93q2.4.93,4.79,1.93t5.46,2.36Z"/></svg>