<svg xmlns="http://www.w3.org/2000/svg" width="0.51in" height="0.53in" viewBox="0 0 37 38"><title>Artboard 151</title><path d="M16.46,12.12a31.42,31.42,0,0,1-1.77,3.07,33,33,0,0,1-2.22,3V29.7c1.4-.77,2.69-1.51,3.85-2.22A21.07,21.07,0,0,0,19,25.59a11.78,11.78,0,0,0,.24,1.91,4.78,4.78,0,0,0,.54,1.31L12.25,33c-.5.27-.94.52-1.32.76s-.72.46-1,.68L9,35.14a9.68,9.68,0,0,0-.89.74,12.07,12.07,0,0,0-.76-1.67,14.32,14.32,0,0,0-1-1.59l1.52-.68,1.59-.73V21.37c-.87.79-1.84,1.62-2.93,2.48s-2.39,1.85-3.92,3a9.19,9.19,0,0,0-.37-.9,4.16,4.16,0,0,0-.44-.73,6.11,6.11,0,0,0-.61-.66C.89,24.3.59,24,.22,23.74a19.28,19.28,0,0,0,2.41-1A20.82,20.82,0,0,0,4.9,21.26a25.92,25.92,0,0,0,2.3-1.87C8,18.69,8.79,17.88,9.66,17a23.8,23.8,0,0,0,4.4-6.77l-3.4,0c-1.16,0-2.29,0-3.37.07l-3.11.13-2.66.15V7c1.72.12,3.82.22,6.29.28s5,.09,7.73.09a30.53,30.53,0,0,0-1.67-4.63l3.7-.81c.18.77.41,1.64.71,2.63s.61,1.92,1,2.81l3.61,0c1.24,0,2.46,0,3.66-.07l3.42-.13L32.86,7v3.59c-1.76-.12-3.84-.22-6.26-.28s-5.08-.09-8-.09a36.3,36.3,0,0,0,1.76,5.6,45.89,45.89,0,0,0,2,4.24q2-1.89,3.4-3.51a19.08,19.08,0,0,0,2.15-3,15.61,15.61,0,0,0,3,2c.22.09.33.21.32.33s-.15.22-.39.3a3.82,3.82,0,0,0-.56.29,7.94,7.94,0,0,0-.76.52l-.74.59c-.23.2-.4.35-.5.45a62,62,0,0,1-4.55,4.21,15.35,15.35,0,0,0,2.37,2.5,16.14,16.14,0,0,0,2.63,1.8,21.17,21.17,0,0,0,2.87,1.27,26.94,26.94,0,0,0,3.12.91,6.8,6.8,0,0,0-1.61,1.53,7,7,0,0,0-.94,2A43.42,43.42,0,0,1,25.36,28a18.18,18.18,0,0,1-4.42-4.62,32.57,32.57,0,0,1-2.52-5.05A48.46,48.46,0,0,1,16.46,12.12Z"/></svg>