<svg xmlns="http://www.w3.org/2000/svg" width="0.51in" height="0.53in" viewBox="0 0 37 38"><title>Artboard 146</title><path d="M12.54,13.12c0-.71,0-1.45-.09-2.2s-.13-1.34-.2-1.76c.51.1,1,.17,1.55.22s1.1.09,1.74.12a.49.49,0,0,1,.52.31c.07.21,0,.36-.3.46a1,1,0,0,0-.57.47,1.43,1.43,0,0,0-.17.68v8.14c0,1,0,1.9.06,2.68a22.19,22.19,0,0,0,.24,2.46H12.54V22H9.36a34.73,34.73,0,0,1-.65,4.22,26.18,26.18,0,0,1-1.05,3.6A23,23,0,0,1,6.21,33,26.8,26.8,0,0,1,4.4,35.88a4,4,0,0,0-1.16-1,5.73,5.73,0,0,0-1.69-.59,10.94,10.94,0,0,0,1.8-2.13,20.64,20.64,0,0,0,1.59-2.92,26.05,26.05,0,0,0,1.24-3.46A30.3,30.3,0,0,0,7,22H4.37v3H1.66c.05-.47.09-1,.11-1.5s0-1.24,0-2.13V13.49c0-.91,0-1.77-.09-2.59a12.63,12.63,0,0,0-.24-1.85,12.08,12.08,0,0,0,3.29.22c.27,0,.43,0,.46.15s-.06.29-.31.48a1.56,1.56,0,0,0-.44.58,1.7,1.7,0,0,0-.11.68v8.51H7.18q.18-2.78.09-7.23c-.06-3-.19-6.37-.39-10.2a12.39,12.39,0,0,0,1.65.23,7.49,7.49,0,0,0,1.27,0c.37-.05.59,0,.65.16s0,.38-.24.65a2.59,2.59,0,0,0-.46,1.32,13.8,13.8,0,0,0-.13,2.57c0,.91,0,1.89.05,2.94s0,2.12,0,3.22,0,2.19,0,3.29-.07,2.13-.12,3.09h3Zm17.13-1.55c0-.72,0-1.45-.09-2.2s-.13-1.34-.2-1.76c.52.1,1.05.17,1.59.22s1.17.09,1.88.11a.48.48,0,0,1,.52.32c.08.21,0,.36-.29.46a1,1,0,0,0-.58.46,1.46,1.46,0,0,0-.16.69v9.62c0,1,0,2,0,2.77s.12,1.65.24,2.52h-3V22H26.16v7.15c0,.42,0,.9,0,1.46s0,1.13.07,1.74.07,1.2.09,1.79.06,1.15.11,1.67H23.27q0-.68.09-1.56c0-.59.07-1.2.1-1.81s0-1.22.05-1.8,0-1.07,0-1.49V22h-3.7v3.15h-2.7c.05-.47.09-1,.11-1.5s0-1.24,0-2.13V12.16c0-.91,0-1.78-.09-2.59a13.86,13.86,0,0,0-.25-1.85,12.18,12.18,0,0,0,3.3.22c.27,0,.42,0,.46.15s-.07.28-.31.48a1.67,1.67,0,0,0-.45.57,2,2,0,0,0-.11.69V19.6h3.7V7.68c0-1.28,0-2.42-.05-3.42a12.59,12.59,0,0,0-.21-2.13,9.86,9.86,0,0,0,1.57.24,11.2,11.2,0,0,0,1.54,0c.35,0,.55,0,.61.17s-.07.32-.39.57a1.17,1.17,0,0,0-.35.8,14.69,14.69,0,0,0-.09,1.94V19.6h3.51Z"/></svg>