<svg xmlns="http://www.w3.org/2000/svg" width="0.51in" height="0.53in" viewBox="0 0 37 38"><title>Artboard 63</title><path d="M30.56,20.26c0,.69-.1,1.47-.17,2.33s-.14,1.77-.25,2.7-.23,1.88-.36,2.82-.25,1.82-.4,2.66a6.06,6.06,0,0,1-.85,2.2,4.27,4.27,0,0,1-1.82,1.43,12.34,12.34,0,0,1-3.23.85q-2,.3-5.13.48a6.94,6.94,0,0,0-.48-1.85,11.91,11.91,0,0,0-1.29-2.33,17,17,0,0,0,5.86.2,4.72,4.72,0,0,0,2.9-1.27,6.34,6.34,0,0,0,1-2.72,23.14,23.14,0,0,0,.37-4.35H12.13c-1.33,0-2.54,0-3.62.11s-2.26.2-3.52.37c.13-1.85.22-3.71.28-5.59s.07-3.8,0-5.77H26V7.31H13.73c-2.1,0-3.92.05-5.46.13s-2.83.19-3.87.32V4.28c2.17.1,4.28.16,6.31.18s4.1,0,6.2,0q4.14,0,7.1,0c2,0,3.76-.11,5.37-.21-.05.87-.09,1.75-.11,2.65s0,1.88,0,2.94,0,2.08,0,3,.06,1.78.11,2.64l-1.8-.07c-.58,0-1.18,0-1.81-.06H8.47l-.26,5.36H21.87l2.79,0,2.13,0c.64,0,1.25-.07,1.83-.13Z"/></svg>