<svg xmlns="http://www.w3.org/2000/svg" width="0.51in" height="0.53in" viewBox="0 0 37 38"><title>Artboard 133</title><path d="M16,20.86A16.66,16.66,0,0,1,14,24.67a25.67,25.67,0,0,1-2.77,3.43,30.52,30.52,0,0,1-3.35,3,33.58,33.58,0,0,1-3.68,2.45A14.61,14.61,0,0,0,3,32a12.1,12.1,0,0,0-1.45-1.35,18.35,18.35,0,0,0,3.57-1.59A23.8,23.8,0,0,0,8.38,26.8,23.73,23.73,0,0,0,11.19,24a20.17,20.17,0,0,0,2.2-3.13q-3.25,0-5.95.11c-1.81,0-3.31.11-4.52.19V18.12c1.51.13,3.34.21,5.51.26s4.75.08,7.74.08V14.83c-2.3,0-4.27.06-5.92.11s-3.15.11-4.48.19v-3c1.36.13,2.86.21,4.52.26s3.61.08,5.88.08V8.5l-5.92.58L3,9.8A13.41,13.41,0,0,0,2,6.91c1.88,0,4,0,6.44-.14s5-.32,7.7-.6c0-1,0-1.87-.09-2.59s-.16-1.38-.28-2a16.35,16.35,0,0,0,1.92.25,9.32,9.32,0,0,0,1.52,0q.63-.08.72.15c.06.14-.08.37-.42.66a1.83,1.83,0,0,0-.43.48,1.45,1.45,0,0,0-.09.59V5.88q2.88-.3,5.79-.72c1.93-.29,3.85-.6,5.75-1A9.81,9.81,0,0,0,31,5.58a4.38,4.38,0,0,0,.71,1c.24.27.31.48.2.64s-.41.17-.91,0a4.82,4.82,0,0,0-.78,0c-.41,0-1.08.06-2,.13l-3.63.32c-1.5.13-3.38.31-5.62.54v4.18q3.69,0,6.23-.08c1.69,0,3.23-.13,4.61-.26v3c-1.38-.1-2.92-.17-4.61-.22s-3.77-.08-6.23-.08v3.63q4.22,0,7.69-.1t5.85-.27v3l-2-.13c-.71,0-1.51-.06-2.39-.07l-2.94,0-3.66,0a18,18,0,0,0,4.79,4.89,20.42,20.42,0,0,0,7,3.14,10.85,10.85,0,0,0-2,3.29A27.71,27.71,0,0,1,27.21,30a23.32,23.32,0,0,1-3.49-2.68A19.47,19.47,0,0,1,21,24.25a13.06,13.06,0,0,1-1.68-3.39H19v7c0,.61,0,1.19,0,1.74s0,1.09.07,1.64.08,1.13.13,1.71.11,1.2.18,1.86h-3.7c.15-1.35.26-2.59.34-3.7s.11-2.19.11-3.25v-7Z"/></svg>