<svg xmlns="http://www.w3.org/2000/svg" width="0.51in" height="0.53in" viewBox="0 0 37 38"><title>Artboard 100</title><path d="M17.68,18.1c-.17,1.06-.35,2-.55,2.78a22,22,0,0,1-.68,2.2,14.06,14.06,0,0,1-.93,2c-.36.63-.78,1.31-1.28,2.05a20,20,0,0,1-4.07,4.44,31.45,31.45,0,0,1-5.8,3.7,18.83,18.83,0,0,0-1.24-1.66,11.59,11.59,0,0,0-1.5-1.41A27.55,27.55,0,0,0,4.49,31a17.54,17.54,0,0,0,2.34-1.29,16.1,16.1,0,0,0,2.09-1.67A29.61,29.61,0,0,0,11,25.83a15.09,15.09,0,0,0,2.6-4.42,20.65,20.65,0,0,0,1.35-6c-2.64,0-5,.06-6.93.11s-3.75.14-5.28.26V12.26c1.56.12,3.33.21,5.33.25s4.33.09,7,.12q.15-3.93.12-6.46c0-1.69-.1-3.08-.23-4.16a22.52,22.52,0,0,0,2.24.26,15.11,15.11,0,0,0,2.13,0c.59,0,.65.11.19.48A1.53,1.53,0,0,0,19,3.6,7,7,0,0,0,18.83,5c0,1.34-.12,2.69-.2,4.07s-.17,2.57-.24,3.56q4.7,0,8.14-.1t6-.27v3.51c-1.65-.12-3.57-.21-5.74-.28s-4.73-.09-7.69-.09a20.79,20.79,0,0,0,.81,2.81,24.62,24.62,0,0,0,1.2,2.72,27,27,0,0,0,1.47,2.48,18,18,0,0,0,1.55,2.05,17.25,17.25,0,0,0,9.21,5.26,12.83,12.83,0,0,0-1.5,1.9,10.69,10.69,0,0,0-.94,2.06,19.13,19.13,0,0,1-2.44-1.22c-.84-.5-1.67-1-2.48-1.59a25.81,25.81,0,0,1-2.28-1.8A12.65,12.65,0,0,1,22,28.17a23.24,23.24,0,0,1-1.46-2.11,16.44,16.44,0,0,1-1.1-2.13,22.47,22.47,0,0,1-.88-2.53C18.26,20.46,18,19.36,17.68,18.1Zm8.55-7.21a21.74,21.74,0,0,0-1.68-2.83,21.82,21.82,0,0,0-2-2.5l2.85-1.7q1.08,1.26,2,2.4c.6.77,1.26,1.64,2,2.63Z"/></svg>