<svg xmlns="http://www.w3.org/2000/svg" width="0.51in" height="0.53in" viewBox="0 0 37 38"><title>Artboard 163</title><path d="M19.65,21.92c1.65,0,3.06,0,4.23,0s2.18,0,3-.07,1.56-.09,2.16-.15,1.18-.13,1.72-.2v3.44a15,15,0,0,0-1.59-.24c-.59-.06-1.32-.11-2.18-.15s-1.89-.06-3.09-.07-2.62,0-4.27,0v7c.93.05,2,.07,3.31,0s2.57-.08,3.9-.17,2.62-.19,3.87-.31a26.5,26.5,0,0,0,3.2-.48,5.72,5.72,0,0,0-.87,2,7.42,7.42,0,0,0-.17,2.13c-.69,0-1.51.08-2.48.08l-3,0-3.08-.06q-1.56,0-2.85-.09l-2.24-.11A8.85,8.85,0,0,1,18,34.28a32.61,32.61,0,0,1-3.39-.78,9.45,9.45,0,0,1-2.38-1.07,7.68,7.68,0,0,1-1.87-1.7A21,21,0,0,1,8.58,28Q7.52,30.13,6.36,32a29.43,29.43,0,0,1-2.22,3.11,3.56,3.56,0,0,0-.59-.69c-.25-.23-.51-.46-.79-.68a9.2,9.2,0,0,0-.87-.61,5,5,0,0,0-.82-.43,19.24,19.24,0,0,0,4.66-5.72,31.27,31.27,0,0,0,2.85-7.64c.5.25,1,.49,1.59.71s1.13.4,1.67.55q.51.15.54.33c0,.13-.16.31-.5.56a5,5,0,0,0-.73,1,29.65,29.65,0,0,0-1.31,2.76,9.47,9.47,0,0,0,2.61,3.59A10.23,10.23,0,0,0,16.65,31V16.3l-5.35.07c-1.47,0-2.78.1-3.94.22.08-.79.13-1.74.17-2.85s0-2.23,0-3.36,0-2.24,0-3.37S7.44,4.94,7.36,4.2l2.13.13c.75,0,1.57.07,2.46.09l2.92.06h7l2.93-.06c.88,0,1.7-.06,2.44-.09l2.07-.13c0,.34-.05.77-.07,1.27s-.05,1-.08,1.6,0,1.12-.05,1.7,0,1.13,0,1.64c0,1.19,0,2.3.05,3.35s.1,2,.17,2.83c-1.18-.09-2.53-.17-4.05-.22s-3.4-.07-5.64-.07Zm6.29-14.8H10.73v6.55H25.94Z"/></svg>