<svg xmlns="http://www.w3.org/2000/svg" width="0.51in" height="0.53in" viewBox="0 0 37 38"><title>Artboard 40</title><path d="M8.43,16.35C8,17,7.55,17.69,7.1,18.29s-.91,1.22-1.4,1.83a7.24,7.24,0,0,0-1-1.27A7.85,7.85,0,0,0,3.4,17.72a20.39,20.39,0,0,0,2.76-3.17,28.91,28.91,0,0,0,2.29-3.81,31,31,0,0,0,1.74-4.16,26.14,26.14,0,0,0,1.06-4.25,8.8,8.8,0,0,0,1.53.86,7,7,0,0,0,1.58.39c.93.2,1,.62.07,1.26a2,2,0,0,0-.33.32,2.52,2.52,0,0,0-.32.44c-.11.18-.23.42-.37.7S13.12,7,13,7.39l-.56,1.23h7.92c2.54,0,4.55,0,6-.12a30.32,30.32,0,0,0,3.28-.29,53.44,53.44,0,0,1-3.48,9.9,29.61,29.61,0,0,1-4.81,7.19,34.77,34.77,0,0,0,3.39,2.22,27.17,27.17,0,0,0,3.2,1.59,20.81,20.81,0,0,0,3.18,1.06,20.67,20.67,0,0,0,3.33.53,10,10,0,0,0-1.7,4.11,33.39,33.39,0,0,1-3.3-1,27.67,27.67,0,0,1-3.21-1.4,36.1,36.1,0,0,1-3.41-2Q21,29.22,19,27.6A24.68,24.68,0,0,1,15.74,30,26.94,26.94,0,0,1,12,31.94a41.94,41.94,0,0,1-4.46,1.59c-1.62.49-3.42.92-5.42,1.32a10.94,10.94,0,0,0-.52-2,7.79,7.79,0,0,0-1-1.8c1.75-.17,3.37-.39,4.85-.66a28.43,28.43,0,0,0,4.14-1.06,25.32,25.32,0,0,0,3.65-1.55,21.91,21.91,0,0,0,3.35-2.2A58.79,58.79,0,0,1,12,21.07,36.92,36.92,0,0,1,8.43,16.35Zm2.78-5.14c-.2.37-.38.72-.54,1.07s-.34.69-.53,1a35.93,35.93,0,0,0,3.66,5.18,39.26,39.26,0,0,0,5.07,5A25.48,25.48,0,0,0,21,20.73a31,31,0,0,0,1.91-3.12,29.55,29.55,0,0,0,1.5-3.26,17.77,17.77,0,0,0,.92-3.14Z"/></svg>