<svg xmlns="http://www.w3.org/2000/svg" width="0.51in" height="0.53in" viewBox="0 0 37 38"><title>Artboard 97</title><path d="M11,14.73c0,1-.06,2-.11,2.84s-.11,1.69-.19,2.46H19.5l2.62,0L24,20l1.47,0,1.36-.08a31.09,31.09,0,0,0-.22,4.77v6c0,1,0,1.86,0,2.57s.07,1.45.15,2.23h-3.7V23H10.36a29.82,29.82,0,0,1-.63,3.18,20.94,20.94,0,0,1-.93,2.77,22.11,22.11,0,0,1-1.33,2.67,33.74,33.74,0,0,1-1.88,2.85,8,8,0,0,0-1.5-.91c-.56-.26-1.19-.53-1.91-.8.74-.83,1.4-1.64,2-2.4A14.86,14.86,0,0,0,5.6,28a16.05,16.05,0,0,0,1-2.68A21.92,21.92,0,0,0,7.31,22c.16-1.25.28-2.67.37-4.28s.15-3.46.2-5.58c0-1.21,0-2.26,0-3.17V6.54c0-.7,0-1.36-.06-2s-.08-1.23-.13-1.87l1.15.22c.39.08.77.14,1.13.19l1,.11a3.45,3.45,0,0,0,.65,0c.32,0,.49,0,.51.07s-.06.27-.25.52a2.35,2.35,0,0,0-.23.63c-.07.29-.14.75-.22,1.37s-.13,1.41-.18,2.38-.1,2.21-.15,3.69h9.8V6.71q0-1.63,0-2.67c0-.69-.08-1.29-.15-1.81.71.12,1.44.22,2.16.29s1.38.13,1.95.15c.81.05,1,.21.44.48a1.62,1.62,0,0,0-1,1.48v7.26h6.21c.37,0,.69,0,1,0l.7-.08a5.22,5.22,0,0,0,.63-.11V15a13.14,13.14,0,0,0-1.37-.17c-.49,0-1.26-.06-2.29-.06Z"/></svg>