<svg xmlns="http://www.w3.org/2000/svg" width="0.51in" height="0.53in" viewBox="0 0 37 38"><title>Artboard 49</title><path d="M22.57,29.25c0,.6,0,1.05.05,1.37a1.1,1.1,0,0,0,.32.71,1.41,1.41,0,0,0,.78.27,13.14,13.14,0,0,0,1.44.06,19.26,19.26,0,0,0,2.24-.11A2.66,2.66,0,0,0,28.82,31a3,3,0,0,0,.85-1.45,18.61,18.61,0,0,0,.56-2.66,6.52,6.52,0,0,0,1.61,1.33,5.37,5.37,0,0,0,2,.78,30.73,30.73,0,0,1-1.21,3.14,3.93,3.93,0,0,1-1.4,1.72,5.07,5.07,0,0,1-2.26.74,32.72,32.72,0,0,1-3.72.17c-1.33,0-2.38,0-3.14-.11a3.64,3.64,0,0,1-1.72-.52,1.79,1.79,0,0,1-.72-1.26,14,14,0,0,1-.15-2.33V13.16H16.69a47.69,47.69,0,0,1-1.47,7.21,26.08,26.08,0,0,1-2.47,5.87A23.88,23.88,0,0,1,9.08,31a30.28,30.28,0,0,1-5,4,12.2,12.2,0,0,0-1.28-1.45,7.84,7.84,0,0,0-1.65-1.22,35.92,35.92,0,0,0,5-3.46,18.34,18.34,0,0,0,3.55-4,21.16,21.16,0,0,0,2.41-5.06,41.23,41.23,0,0,0,1.53-6.7l-3.25,0c-1,0-1.91,0-2.76.07l-2.39.11c-.74,0-1.48.1-2.22.17V9.94c.77.07,1.54.14,2.32.18s1.59.09,2.46.12l2.81,0,3.36,0c0-.69.1-1.45.13-2.28s.07-1.63.1-2.42,0-1.52,0-2.2,0-1.2,0-1.57a18,18,0,0,0,2.09.37c.68.07,1.36.12,2.05.14.32,0,.48.07.46.21s-.13.26-.35.39a1.1,1.1,0,0,0-.44.53,6.33,6.33,0,0,0-.3,1.17c-.15.86-.29,1.82-.42,2.89s-.24,2-.32,2.77h4.55q3.86,0,6.7-.09c1.9-.06,3.63-.16,5.18-.28v3.59c-1.46-.12-3-.22-4.75-.28s-3.75-.09-6.09-.09Z"/></svg>