<svg xmlns="http://www.w3.org/2000/svg" width="0.51in" height="0.53in" viewBox="0 0 37 38"><title>Artboard 111</title><path d="M9.43,12.21a18.87,18.87,0,0,0,3.15-6H8.1c-.71,0-1.49,0-2.33.06s-1.65.09-2.44.17V3.4c.76.08,1.68.13,2.74.17s2.18.06,3.36.06q2.7,0,4.35-.06c1.1,0,2-.08,2.83-.13a19.33,19.33,0,0,1-.68,2.26c-.34.94-.72,1.89-1.17,2.85A27.79,27.79,0,0,1,10,15.73a34.84,34.84,0,0,1-7.36,5.95,7.88,7.88,0,0,0-.91-1.16Q1.19,20,.48,19.35A30.66,30.66,0,0,0,7.4,14.47a25,25,0,0,0-1.52-2.31c-.52-.71-1.06-1.42-1.63-2.13L6.81,8.44c.56.69,1,1.32,1.44,1.9S9,11.54,9.43,12.21ZM22.53,8.1a12.47,12.47,0,0,0,.93,1.63,10.94,10.94,0,0,0,1.18,1.48q2.14-1.67,3.48-2.77a21.6,21.6,0,0,0,2.26-2.15,13.85,13.85,0,0,0,1.27,1.33A14.2,14.2,0,0,0,32.93,8.7c.54.39.45.6-.26.62a2.31,2.31,0,0,0-.68.13,6.59,6.59,0,0,0-1.06.52q-.66.39-1.74,1.08c-.71.45-1.63,1.06-2.74,1.83a29.4,29.4,0,0,0,8.07,4.18,8.33,8.33,0,0,0-1.31,1.57,8.67,8.67,0,0,0-.84,1.76,38,38,0,0,1-6.12-3.78A23.58,23.58,0,0,1,22,12.51,18.13,18.13,0,0,1,19.41,8a22.35,22.35,0,0,1-1.32-5.18l2.78-.63a21.31,21.31,0,0,0,.74,3.62c1.16-1,2.08-1.77,2.77-2.42s1.31-1.29,1.85-1.91A10.38,10.38,0,0,0,27.4,2.72a11.34,11.34,0,0,0,1.2,1c.25.15.36.27.35.37s-.21.18-.61.26a2.3,2.3,0,0,0-.52.18,10.44,10.44,0,0,0-1,.54q-.64.39-1.68,1.11C24.47,6.68,23.59,7.31,22.53,8.1Z"/></svg>