<svg xmlns="http://www.w3.org/2000/svg" width="0.51in" height="0.53in" viewBox="0 0 37 38"><title>Artboard 158</title><path d="M25,15.71a22.51,22.51,0,0,0,3.16,7.05,19.25,19.25,0,0,0,5.42,5.16,8.64,8.64,0,0,0-1.77,1.69,7.86,7.86,0,0,0-1.11,1.83,26.94,26.94,0,0,1-2.76-3,25.13,25.13,0,0,1-2.16-3.22,27.56,27.56,0,0,1-1.72-3.67,40.87,40.87,0,0,1-1.39-4.29l-.89.63-1,.67a19.31,19.31,0,0,1,.52,3.23,35.24,35.24,0,0,1,.11,3.54,32.57,32.57,0,0,1-.24,3.27,15.85,15.85,0,0,1-.5,2.5,7,7,0,0,1-.94,1.94,5,5,0,0,1-1.43,1.32,7.9,7.9,0,0,1-2.05.83,24.33,24.33,0,0,1-2.87.54A7.64,7.64,0,0,0,12,32a10.64,10.64,0,0,0,2.49.13,4.75,4.75,0,0,0,1.71-.44,2.84,2.84,0,0,0,1.09-1,5.4,5.4,0,0,0,.63-1.54,18.89,18.89,0,0,0,.51-3.4,24.22,24.22,0,0,0,0-3.81,51.19,51.19,0,0,1-6.34,5.62,37.42,37.42,0,0,1-8,4.55A8.26,8.26,0,0,0,3,30.7a10.84,10.84,0,0,0-1.63-1.37A35.52,35.52,0,0,0,6,27.63a38.63,38.63,0,0,0,4.44-2.37,43,43,0,0,0,4-2.85,34.13,34.13,0,0,0,3.46-3.15,13.07,13.07,0,0,0-.52-1.53c-.2-.48-.41-1-.63-1.43-.76.67-1.6,1.35-2.5,2s-1.84,1.36-2.83,2-2,1.27-3,1.86-2,1.14-3,1.63a11,11,0,0,0-1.09-1.16c-.38-.36-.85-.75-1.39-1.17a45.74,45.74,0,0,0,6.9-3.16,32.84,32.84,0,0,0,5.79-4.09,14.72,14.72,0,0,0-2-2.48q-1.89,1.34-3.91,2.52C8.37,15.1,7,15.82,5.59,16.49a7.43,7.43,0,0,0-2.45-2.67,26.75,26.75,0,0,0,6.26-2.7,47.59,47.59,0,0,0,6.32-4.44q-4.36,0-7.51.13c-2.09.07-4,.16-5.58.28V3.8q2.85.18,6.43.28t8.77.09l4.78,0c1.45,0,2.8,0,4-.07L30.08,4l3-.15V7c-1.75-.1-3.73-.17-5.92-.22s-4.83-.08-7.88-.08a29.52,29.52,0,0,1-3.67,3.56c.42.39.8.77,1.13,1.14a14.49,14.49,0,0,1,1,1.24c.32.46.64,1,1,1.54s.69,1.23,1.11,2a35.52,35.52,0,0,0,5-3.76A18.62,18.62,0,0,0,27.93,9c.52.44,1.1.91,1.72,1.4s1.14.88,1.54,1.15.52.47.46.59-.39.2-1,.22a1.6,1.6,0,0,0-.5.13c-.21.09-.52.26-.94.5l-1.65,1C26.9,14.42,26.05,15,25,15.71Z"/></svg>