<svg xmlns="http://www.w3.org/2000/svg" width="0.51in" height="0.53in" viewBox="0 0 37 38"><title>Artboard 131</title><path d="M14.28,9.17c-1.92,0-3.62.06-5.11.11S6.54,9.4,5.7,9.5V6.39c.81.1,2,.18,3.46.25s3.2.09,5.12.09c0-1.43,0-2.54,0-3.31A14.26,14.26,0,0,0,14,1.36c.86.2,1.62.34,2.27.43a5.67,5.67,0,0,0,1.5.05c.42-.05.66,0,.74.24s-.08.42-.45.62a.94.94,0,0,0-.53.48,1.65,1.65,0,0,0-.13.7V6.73l3.46-.15c.92,0,1.67-.11,2.24-.19V9.5c-.55-.05-1.33-.1-2.35-.16s-2.14-.11-3.35-.13v5h2.66c.77-.79,1.51-1.63,2.24-2.52S23.7,9.94,24.34,9,25.6,7.2,26.18,6.3s1.1-1.78,1.57-2.64a19.25,19.25,0,0,0,1.78,1,10.92,10.92,0,0,0,1.4.65c.42.15.63.31.63.5s-.17.31-.52.39a2.91,2.91,0,0,0-1,.76A18.56,18.56,0,0,0,28.42,9a51.69,51.69,0,0,1-4.52,5.29c2.17,0,4.11,0,5.81-.09s3.22-.16,4.55-.28V17c-1.43-.12-3.21-.21-5.35-.27s-4.62-.1-7.45-.1c-1.09,1-2.21,2-3.39,3s-2.46,1.94-3.86,2.92v2.3c1.65-.42,3.12-.82,4.4-1.2s2.44-.78,3.46-1.19,1.95-.82,2.79-1.26a23.09,23.09,0,0,0,2.41-1.42,12,12,0,0,0,2.26,3.07c.24.27.35.47.31.61s-.27.18-.68.13a36.16,36.16,0,0,0-4.15.93c-2.56.64-6.17,1.59-10.8,2.84v2.52a1.75,1.75,0,0,0,.15.76,1.11,1.11,0,0,0,.62.52,5.35,5.35,0,0,0,1.43.29c.63.06,1.47.09,2.53.09,1.9,0,3.44,0,4.61-.14a8.67,8.67,0,0,0,2.81-.63A3.52,3.52,0,0,0,28,29.41,7.87,7.87,0,0,0,28.82,27a7.19,7.19,0,0,0,1.67,1.09,9.24,9.24,0,0,0,1.92.69,14.68,14.68,0,0,1-1.42,3,4.51,4.51,0,0,1-2.08,1.63,11.76,11.76,0,0,1-3.62.7q-2.28.15-6.05.15a42.24,42.24,0,0,1-4.42-.19,7.21,7.21,0,0,1-2.5-.63,2,2,0,0,1-1.09-1.2A6.3,6.3,0,0,1,11,30.37V24.75a59.06,59.06,0,0,1-7.88,4.33c-.32-.37-.69-.77-1.11-1.21S1.15,27,.7,26.6a45.66,45.66,0,0,0,5.14-2.19A53.08,53.08,0,0,0,11,21.53v-2l2.44.33c1.43-1,2.8-2.11,4.11-3.22-3.6,0-6.74,0-9.4.1s-4.81.15-6.44.27V13.87c1.36.12,3.09.22,5.2.28s4.57.09,7.38.09Z"/></svg>