<svg xmlns="http://www.w3.org/2000/svg" width="0.51in" height="0.53in" viewBox="0 0 37 38"><title>Artboard 108</title><path d="M7.84,32.67H4.33c0-.52.09-1,.13-1.52s.06-1,.09-1.55,0-1.14.06-1.79,0-1.42,0-2.28V5.81a14,14,0,0,0-.07-1.59c1.36.12,3.06.2,5.12.24s4.66,0,7.79,0,5.73,0,7.77,0,3.76-.12,5.15-.24a13.72,13.72,0,0,0-.08,1.59V25.16c0,.86,0,1.63,0,2.29s0,1.28.06,1.82.06,1.05.11,1.53.1,1,.14,1.5H27.08V30H7.84Zm0-25.27v8.14h7.77V7.4Zm0,19.91h7.77v-9H7.84ZM27.08,7.4H18.54v8.14h8.54Zm0,10.88H18.54v9h8.54Z"/></svg>