<svg xmlns="http://www.w3.org/2000/svg" width="0.51in" height="0.53in" viewBox="0 0 37 38"><title>Artboard 32</title><path d="M24.12,3.81c-.07.39-.13.9-.18,1.51s-.08,1.33-.08,2.15V24.9a9.44,9.44,0,0,1-.2,2.16,2.48,2.48,0,0,1-.85,1.39,4.52,4.52,0,0,1-1.87.77,19,19,0,0,1-3.25.34,7.27,7.27,0,0,0-1.52-3.7c1,.12,1.85.19,2.44.2A4.21,4.21,0,0,0,20,25.91a.9.9,0,0,0,.61-.52,2.52,2.52,0,0,0,.13-.9V6.43H14.06V35.18H10.88c0-.84,0-1.63.07-2.37s0-1.46.06-2.16,0-1.41,0-2.11V7.47c0-.72,0-1.42,0-2.11a14.91,14.91,0,0,0-.1-1.55c.72,0,1.66.08,2.83.09l3.83,0,3.7,0C22.43,3.89,23.38,3.85,24.12,3.81Z"/></svg>