<svg xmlns="http://www.w3.org/2000/svg" width="0.51in" height="0.53in" viewBox="0 0 37 38"><title>Artboard 35</title><path d="M7.88,7.88,5.79,8c-.56,0-1,.08-1.42.13V4.43c1.08.13,2.6.23,4.56.32s4.55.13,7.76.13,5.71,0,7.67-.13,3.5-.19,4.61-.32a52.82,52.82,0,0,1-3.18,10.84,29.53,29.53,0,0,1-5.26,8.26c1.06.81,2.1,1.54,3.11,2.2a23.66,23.66,0,0,0,3.17,1.72,26.24,26.24,0,0,0,3.46,1.27,29.28,29.28,0,0,0,3.95.87,8.64,8.64,0,0,0-1.29,2.09A9.59,9.59,0,0,0,32.19,34a32.24,32.24,0,0,1-4.33-1.61,36,36,0,0,1-3.72-1.94,31.92,31.92,0,0,1-3.22-2.2c-1-.78-2-1.58-2.86-2.42a44.63,44.63,0,0,1-6.54,4.59A63.24,63.24,0,0,1,3.4,34.4,7.44,7.44,0,0,0,.78,31.56c1.35-.47,2.72-1,4.08-1.61s2.7-1.25,4-1.93,2.5-1.39,3.65-2.14,2.19-1.52,3.12-2.28a33.86,33.86,0,0,1-2.53-3.24A29.48,29.48,0,0,1,11,16.83,34.18,34.18,0,0,1,9.3,12.74C8.8,11.27,8.32,9.65,7.88,7.88ZM11.1,7.8A42.83,42.83,0,0,0,12.38,12a29.7,29.7,0,0,0,1.51,3.5,25.5,25.5,0,0,0,1.85,3c.68.95,1.43,1.89,2.24,2.83a23.86,23.86,0,0,0,4.24-6.31,29.41,29.41,0,0,0,2.27-7.31H13.3C12.5,7.76,11.77,7.78,11.1,7.8Z"/></svg>