<svg xmlns="http://www.w3.org/2000/svg" width="0.51in" height="0.53in" viewBox="0 0 37 38"><title>Artboard 105</title><path d="M11.21,34.89H7.73c.1-.89.17-1.69.22-2.42S8,30.93,8,30V12.4c-1.26,0-2.49,0-3.68.09s-2.38.1-3.54.2V9.25q1.74.18,3.54.24c1.19,0,2.42.07,3.68.09V6.81C8,6,8,5.09,8,4.18a18.49,18.49,0,0,0-.24-2.44A14.14,14.14,0,0,0,9.6,2a12.9,12.9,0,0,0,1.76,0c.32,0,.5,0,.55.11s0,.28-.22.45a1,1,0,0,0-.39.52,3,3,0,0,0-.09.85V9.58H23.49V6.73c0-1.65,0-2.88,0-3.68a13.34,13.34,0,0,0-.17-1.79c.77.15,1.46.25,2.07.31s1.21.11,1.78.13c.32,0,.51.1.55.22s0,.26-.22.41a1.64,1.64,0,0,0-.57.59,1.73,1.73,0,0,0-.13.71v6q2,0,3.81-.09c1.21,0,2.41-.12,3.59-.24v3.44c-1.18-.1-2.38-.16-3.59-.2s-2.48-.07-3.81-.09V29.82c0,.84,0,1.72.09,2.63s.13,1.65.21,2.22H23.49V31.49H11.21ZM23.49,18.65V12.4H11.21v6.25ZM11.21,21.31v7.51H23.49V21.31Z"/></svg>