<svg xmlns="http://www.w3.org/2000/svg" width="0.51in" height="0.53in" viewBox="0 0 37 38"><title>Artboard 124</title><path d="M7.1,12.8q-.4.73-.87,1.53c-.31.53-.62,1-.94,1.54s-.64,1-.94,1.4a13.17,13.17,0,0,1-.84,1.11,6.75,6.75,0,0,0-1.27-1.07,6.13,6.13,0,0,0-1.69-.67,19.62,19.62,0,0,0,4.54-6.47,35.94,35.94,0,0,0,2.57-8.7c.57.23,1.23.46,2,.71a18,18,0,0,0,1.92.52c.3,0,.45.13.46.25s-.14.25-.46.37a5.24,5.24,0,0,0-1,1.67c-.5,1-1.23,2.76-2.16,5.18,1.5,0,2.75,0,3.73,0s1.8-.05,2.43-.09A14.52,14.52,0,0,0,16,9.89c.35-.06.65-.13.92-.2V13.2a4.47,4.47,0,0,0-.81-.16c-.3,0-.67-.08-1.13-.11s-1-.07-1.7-.1-1.51,0-2.5,0V28c0,1,0,2.07.1,3.24s.15,2.35.27,3.53h-4c.12-1.18.22-2.36.28-3.53S7.51,29,7.51,28V12.8Zm15,0c-.59,1.18-1.35,2.52-2.27,4s-2,3-3.17,4.63a4.18,4.18,0,0,0-1.37-1.17,6.29,6.29,0,0,0-1.88-.72,23,23,0,0,0,5.69-7.4A52.41,52.41,0,0,0,23,1.36a7.68,7.68,0,0,0,1,.35c.37.12.75.22,1.14.32l1.13.26c.36.07.69.12,1,.15s.41.12.43.29-.12.32-.39.45a2.44,2.44,0,0,0-.65.64,15.43,15.43,0,0,0-1,1.45c-.37.6-.76,1.31-1.17,2.12s-.8,1.69-1.2,2.63h5a32.36,32.36,0,0,0,3.5-.18,20.44,20.44,0,0,0,2.72-.48v3.73a21.37,21.37,0,0,0-2.15-.2c-1-.06-2.12-.11-3.26-.13V30.45a14.44,14.44,0,0,1-.14,2.23,2,2,0,0,1-.8,1.3,4.78,4.78,0,0,1-1.94.68c-.87.15-2.05.29-3.55.41A11.12,11.12,0,0,0,22.07,33a9.57,9.57,0,0,0-1-2,20.71,20.71,0,0,0,2.52.11A5.15,5.15,0,0,0,25,30.82a1.07,1.07,0,0,0,.65-.54,2.12,2.12,0,0,0,.15-.83V12.76Z"/></svg>