<svg xmlns="http://www.w3.org/2000/svg" width="0.51in" height="0.53in" viewBox="0 0 37 38"><title>Artboard 31</title><path d="M11,28.34c0,.83,0,1.59,0,2.25s0,1.29,0,1.85.07,1.1.12,1.59.09,1,.14,1.45H7.18c.12-.94.21-1.95.27-3s.1-2.45.1-4.12V6.62c0-.6,0-1.11,0-1.56s0-.86-.08-1.25S7.38,3,7.34,2.66s-.09-.78-.16-1.22c.79.12,1.48.19,2.07.22s1.24,0,2,0c.49,0,.79,0,.89.18s-.08.35-.52.6a1,1,0,0,0-.5.51,2.13,2.13,0,0,0-.13.78v8c1.38.82,2.86,1.72,4.44,2.72s3.13,2,4.66,3,3,2,4.33,2.94,2.51,1.79,3.44,2.53l-3.51,2.74q-1.11-1-2.7-2.46c-1.06-.95-2.2-1.93-3.41-3s-2.44-2-3.7-3-2.44-1.84-3.55-2.6Z"/></svg>