<svg xmlns="http://www.w3.org/2000/svg" width="0.51in" height="0.53in" viewBox="0 0 37 38"><title>Artboard 10</title><path d="M24.38,2.4A2.61,2.61,0,0,0,24,3.64a18.91,18.91,0,0,0-.28,2.72q-.18,5.55-.48,9.24a55.25,55.25,0,0,1-.7,5.75,20.22,20.22,0,0,1-1,3.5A15.69,15.69,0,0,1,19.85,28a19.92,19.92,0,0,1-2.63,3,34.34,34.34,0,0,1-3.83,3.14A5.72,5.72,0,0,0,10.17,32a20.79,20.79,0,0,0,4.7-3.33A15,15,0,0,0,18,24.4a20.74,20.74,0,0,0,1.74-5.7,45.78,45.78,0,0,0,.53-7.45c0-1.93,0-3.49,0-4.7s0-2.18-.08-2.92-.08-1.31-.13-1.69A6.87,6.87,0,0,0,19.87,1a16,16,0,0,0,2,.37c.75.1,1.53.17,2.35.22.34,0,.53.12.57.28S24.68,2.21,24.38,2.4Z"/></svg>