<svg xmlns="http://www.w3.org/2000/svg" width="0.51in" height="0.53in" viewBox="0 0 37 38"><title>Artboard 173</title><path d="M18.54,3.94a46.55,46.55,0,0,0,3.84,3.72,25.94,25.94,0,0,0,3.67,2.62,23.76,23.76,0,0,0,3.88,1.84,43.22,43.22,0,0,0,4.52,1.33,3,3,0,0,0-.58.7,7.55,7.55,0,0,0-.48.94c-.13.34-.25.68-.35,1a3.3,3.3,0,0,0-.15.89,33.55,33.55,0,0,1-8.71-4.44A32.92,32.92,0,0,1,17,5.38a22.56,22.56,0,0,1-1.61,2q-.95,1.07-2.07,2.22c-.76.76-1.55,1.53-2.39,2.29S9.26,13.42,8.4,14.11c.47.05,1,.09,1.5.11l1.77.08,2.2,0c.82,0,1.75,0,2.82,0,2.22,0,4.08,0,5.6,0s2.87-.12,4.05-.24v3.07c-.91-.08-2-.13-3.29-.17s-2.75-.07-4.4-.09v4.55q3.41,0,6.12,0c1.81,0,3.35-.08,4.61-.18v3c-1.26-.09-2.8-.16-4.61-.18s-3.85,0-6.12,0v7.66l3.47,0A31.17,31.17,0,0,0,23.51,28,23.46,23.46,0,0,0,24.23,25c.65.27,1.25.51,1.82.72s1,.36,1.37.46a.43.43,0,0,1,.33.37.42.42,0,0,1-.26.45,1.18,1.18,0,0,0-.35.29,8.54,8.54,0,0,0-.56.72c-.23.34-.53.8-.88,1.39l-1.36,2.26c1.41,0,2.68-.06,3.82-.11s2.25-.14,3.36-.26V34.8c-1.77-.13-3.83-.22-6.16-.3s-5.08-.11-8.27-.11c-2.83,0-5.5,0-8,.09s-4.62.16-6.4.28V31.28c1.65.13,3.61.22,5.86.28s4.62.09,7.09.09V24c-2.24,0-4.29,0-6.12.06s-3.43.1-4.76.2V21.18c1.38.1,3,.17,4.79.2s3.85.06,6.09.06V16.89l-2.5,0-2,0c-.6,0-1.15,0-1.64.08l-1.44.13V14.37c-.87.69-1.74,1.35-2.61,2a23.15,23.15,0,0,1-2.58,1.59A4.31,4.31,0,0,0,2,16.61a4.52,4.52,0,0,0-1.45-1,24.28,24.28,0,0,0,5.24-3.11,50.08,50.08,0,0,0,5-4.47,19.27,19.27,0,0,0,2.65-3.19,19.05,19.05,0,0,0,1.57-3l.89.35c.34.13.68.26,1,.37l.92.29a5.24,5.24,0,0,0,.61.17c.5.05.75.16.76.33S19,3.74,18.54,3.94ZM8.84,31c-.12-.3-.28-.64-.46-1s-.39-.79-.61-1.2-.45-.8-.69-1.18a7.86,7.86,0,0,0-.68-1l3-1.3q1.55,2.47,2.48,4.26Z"/></svg>