<svg xmlns="http://www.w3.org/2000/svg" width="0.51in" height="0.53in" viewBox="0 0 37 38"><title>Artboard 195</title><path d="M19.76,6.23c3.45,0,6.26-.06,8.41-.1s3.76-.1,4.8-.2V9c-1.19-.12-3-.19-5.57-.22s-5.83,0-9.9,0c-3.68,0-6.8.06-9.36.11S3.54,9,2,9.11V5.93c1.41.1,3.27.17,5.57.22s5.18.08,8.61.08c-.2-.65-.41-1.24-.63-1.8a9.41,9.41,0,0,0-.67-1.35l4.55-.52c0,.42,0,1,.08,1.61S19.66,5.51,19.76,6.23Zm5.1,30.3a2.57,2.57,0,0,0,0-1.48,5.93,5.93,0,0,0-1.05-1.85,21.49,21.49,0,0,0,2.37.13,3.85,3.85,0,0,0,1.27-.19.86.86,0,0,0,.54-.51,3.12,3.12,0,0,0,.11-.87V22.47H7v13.8H3.66c.08-.54.13-1,.17-1.48s.07-.86.09-1.26,0-.79.06-1.18,0-.82,0-1.26V23.32c0-.57,0-1.18-.08-1.83a14.29,14.29,0,0,0-.22-1.72c1.48.12,3.37.21,5.68.28s5.07.09,8.3.09l4.76,0c1.42,0,2.69,0,3.81-.07s2.12-.08,3-.13,1.66-.11,2.35-.19a8.49,8.49,0,0,0-.26,1.69c-.05.67-.08,1.31-.08,1.9v8.77a12.21,12.21,0,0,1-.13,2,2,2,0,0,1-.75,1.26,4.84,4.84,0,0,1-1.93.75A25.34,25.34,0,0,1,24.86,36.53Zm2.7-25.83a26.74,26.74,0,0,0-.2,3.55,35.45,35.45,0,0,0,.24,3.82c-1.5-.1-3.1-.16-4.79-.19s-3.46,0-5.31,0-3.44,0-5.14.06S9,18,7.47,18.14a12.69,12.69,0,0,0,.23-1.61c0-.6.07-1.23.07-1.87s0-1.29-.06-2-.09-1.31-.16-1.92c.74.07,1.48.13,2.22.16l2.31.1,2.55.05,2.91,0c1.77,0,3.52,0,5.23-.11S26.08,10.83,27.56,10.7ZM24.71,24.62a37.15,37.15,0,0,0,0,7.69l-1.61-.07c-.5,0-1-.05-1.57-.06l-1.78,0H17.57q-4.29,0-7.28.23c.12-1.26.19-2.53.2-3.8a37,37,0,0,0-.17-3.9c.47.07.92.13,1.35.17s.92.06,1.46.07L15,25l2.54,0,2.14,0q1,0,1.8-.06c.55,0,1.09-.06,1.61-.11Zm-14-9H24.49V13.18H10.73Zm2.55,14.32h8.44v-2.7H13.28Z"/></svg>