<svg xmlns="http://www.w3.org/2000/svg" width="0.51in" height="0.53in" viewBox="0 0 37 38"><title>Artboard 15</title><path d="M17.54,14.39a46.7,46.7,0,0,1-2.37,6.09,27.19,27.19,0,0,1-3,4.86,26.32,26.32,0,0,1-3.77,4,34.07,34.07,0,0,1-4.76,3.39A12.38,12.38,0,0,0,2.33,31.3,10.93,10.93,0,0,0,.78,30.19,26.88,26.88,0,0,0,5.7,27a28.81,28.81,0,0,0,4.09-4.1,26.28,26.28,0,0,0,3-4.72A21.29,21.29,0,0,0,14.61,13a28,28,0,0,0,.52-2.92c.13-1,.22-1.92.28-2.89s.07-1.95,0-3S15.33,2.13,15.21,1c.34.05.74.09,1.18.13s.89.06,1.35.07l1.31,0a9.79,9.79,0,0,0,1.11,0c.23,0,.36,0,.39.2s0,.31-.24.43a1,1,0,0,0-.33.43c-.1.2-.19.43-.28.66a6.59,6.59,0,0,0-.22.72,2.79,2.79,0,0,0-.09.63c-.08,1-.16,2-.26,2.81s-.21,1.64-.34,2.41a28.93,28.93,0,0,0,2.87,9,19.14,19.14,0,0,0,4.79,6c.65.52,1.26,1,1.85,1.39A20.34,20.34,0,0,0,30.1,27,20.89,20.89,0,0,0,32,28c.67.29,1.41.56,2.22.84a7.78,7.78,0,0,0-1.64,1.68,10.36,10.36,0,0,0-1.09,2.09,38.11,38.11,0,0,1-4.31-2.68,26.35,26.35,0,0,1-3.65-3.17,25.68,25.68,0,0,1-2.11-2.44,16.69,16.69,0,0,1-1.63-2.64,24.08,24.08,0,0,1-1.25-3.17A33.7,33.7,0,0,1,17.54,14.39Z"/></svg>