<svg xmlns="http://www.w3.org/2000/svg" width="0.51in" height="0.53in" viewBox="0 0 37 38"><title>Artboard 92</title><path d="M17.65,18.36a21.54,21.54,0,0,1-1.61,5,19.41,19.41,0,0,1-2.68,4.16,24.54,24.54,0,0,1-3.89,3.68,49.21,49.21,0,0,1-5.22,3.48,13.35,13.35,0,0,0-1.35-1.5,9.84,9.84,0,0,0-1.64-1.2A45.26,45.26,0,0,0,6.9,28.67,24.24,24.24,0,0,0,11,25.08,15.63,15.63,0,0,0,13.76,21,17.47,17.47,0,0,0,15.13,16c.1-.79.17-1.74.22-2.87s.07-2.32.06-3.59S15.35,7,15.26,5.71,15.05,3.15,14.87,2c.64.12,1.36.23,2.15.31a13.56,13.56,0,0,0,2,.1c.27,0,.43,0,.48.16s-.05.33-.3.58a2.1,2.1,0,0,0-.29.92c-.1.52-.2,1.19-.28,2s-.16,1.75-.22,2.79-.1,2.17-.1,3.35a39.68,39.68,0,0,0,2.08,7.27,19.08,19.08,0,0,0,3.1,5.26,15.12,15.12,0,0,0,4.39,3.51,22.93,22.93,0,0,0,5.86,2.09,10.5,10.5,0,0,0-1.29,1.89,14.56,14.56,0,0,0-.93,2.11,39.58,39.58,0,0,1-5.73-3,18.46,18.46,0,0,1-4-3.42,15.75,15.75,0,0,1-2.59-4.18A26.92,26.92,0,0,1,17.65,18.36ZM9.14,9.26c-.05,1.63-.17,3.28-.35,5s-.45,3.39-.8,5.14l-3.48-.74a34.47,34.47,0,0,0,1.28-4.75A18.43,18.43,0,0,0,6.07,9Zm22,.7a2,2,0,0,0-.58.59c-.21.3-.52.83-.94,1.6-.2.34-.4.7-.59,1.09s-.43.8-.69,1.27l-.9,1.61c-.35.61-.74,1.32-1.19,2.13a6.53,6.53,0,0,0-3.18-1.11,22.62,22.62,0,0,0,2.68-4.44,42.19,42.19,0,0,0,1.94-5.22,11.43,11.43,0,0,0,1.78.95A11.2,11.2,0,0,0,31.08,9C31.79,9.2,31.81,9.52,31.12,10Z"/></svg>