<svg xmlns="http://www.w3.org/2000/svg" width="0.51in" height="0.53in" viewBox="0 0 37 38"><title>Artboard 24</title><path d="M15.69,7.21c-1.09,0-2.15,0-3.19.06l-2.88.11c-.89,0-1.68.09-2.39.15S6,7.65,5.55,7.7V4c.94.1,2.51.19,4.72.28s5,.13,8.41.13c1.39,0,2.78,0,4.2,0s2.76-.06,4-.11,2.37-.1,3.33-.17,1.68-.12,2.14-.2c-.07.5-.13,1.09-.18,1.8s-.09,1.4-.11,2.09l-.89,18.68a11.72,11.72,0,0,1-.39,2.65A3.67,3.67,0,0,1,29.62,31a6.23,6.23,0,0,1-2.41,1.16,24.29,24.29,0,0,1-4.09.69,10.86,10.86,0,0,0-.68-1.94,13.48,13.48,0,0,0-1.24-2.21q3.63.49,5.11-.38a3.5,3.5,0,0,0,1.59-3.06l1-18H19.05c0,.92-.06,1.87-.13,2.87s-.14,2-.25,3-.25,2-.41,3a26.25,26.25,0,0,1-.58,2.74,20.56,20.56,0,0,1-1.27,3.79,17.31,17.31,0,0,1-2.15,3.5,26.79,26.79,0,0,1-3.38,3.54,61.88,61.88,0,0,1-5,3.9,5.6,5.6,0,0,0-.53-.7A10.65,10.65,0,0,0,4.49,32q-.45-.42-1-.81a5.93,5.93,0,0,0-.94-.61,27.3,27.3,0,0,0,7.58-5.07,16.19,16.19,0,0,0,4-6.48,28.19,28.19,0,0,0,1-5A62.42,62.42,0,0,0,15.69,7.21Z"/></svg>