<svg xmlns="http://www.w3.org/2000/svg" width="0.51in" height="0.53in" viewBox="0 0 37 38"><title>Artboard 33</title><path d="M33.45,8.32c-.32,0-.79-.05-1.41-.07l-2.2-.08L27,8.12c-1,0-2.11,0-3.24,0H9.4q0,4.22-.1,7.45T9,21.29c-.14,1.66-.31,3.13-.52,4.4a24.86,24.86,0,0,1-.81,3.46,20,20,0,0,1-1.19,2.9c-.45.9-1,1.82-1.57,2.76a9.29,9.29,0,0,0-3.4-1.22,23.43,23.43,0,0,0,1.92-2.9,17.79,17.79,0,0,0,1.35-3.15,24.18,24.18,0,0,0,.85-3.75c.21-1.39.36-3,.45-4.78s.12-3.86.11-6.18-.06-5-.13-8c.32,0,.82.09,1.5.13s1.56.07,2.66.09,2.43.05,4,.06l5.53,0,5.51,0c1.58,0,2.92,0,4-.06S31.3,5,32,5s1.16-.08,1.48-.13Z"/></svg>