<svg xmlns="http://www.w3.org/2000/svg" width="0.51in" height="0.53in" viewBox="0 0 37 38"><title>Artboard 62</title><path d="M10.47,17.19c-1.7.27-3.19.53-4.48.76s-2.48.49-3.59.76l-.7-3.55,1.89-.11c.69-.05,1.42-.12,2.18-.21s1.53-.18,2.3-.28l2.22-.29,3-.41c-.2-1.06-.37-2.16-.5-3.29s-.25-2.24-.34-3.31-.16-2.1-.22-3.07-.09-1.84-.09-2.57A14.15,14.15,0,0,0,14,2.1a13.71,13.71,0,0,0,2.26.18c1,0,1.06.33.3,1A4,4,0,0,0,16,5.59a30.1,30.1,0,0,0,.15,5c.05.54.1,1,.15,1.49s.1.9.15,1.32l8.62-1.19c.59-.07,1.21-.16,1.87-.27s1.29-.24,1.92-.37l1.78-.39,1.5-.37L33,14c-.5,0-.94.09-1.32.11s-.82.08-1.33.15l-1.89.28-3,.43-8.59,1.29a27.62,27.62,0,0,0,2.18,6.55,16.16,16.16,0,0,0,3.45,4.66,44.2,44.2,0,0,0,3.38,2.92,3.37,3.37,0,0,0,2.05.91c.52,0,.94-.42,1.24-1.15a20.94,20.94,0,0,0,1-3.23,6.5,6.5,0,0,0,1.48,1.85,6.38,6.38,0,0,0,1.67.85c-.47,1.26-.89,2.26-1.26,3a10.79,10.79,0,0,1-1,1.72,2.3,2.3,0,0,1-.85.78,1.94,1.94,0,0,1-.78.19A8.13,8.13,0,0,1,27.47,35a8.32,8.32,0,0,1-2.07-.85A15.63,15.63,0,0,1,23,32.51a33.15,33.15,0,0,1-2.85-2.74,21.18,21.18,0,0,1-2-2.48,22.19,22.19,0,0,1-1.71-2.92A33,33,0,0,1,15,20.87c-.44-1.27-.85-2.67-1.22-4.2ZM25.6,10.72c-.24-.3-.56-.65-.94-1.06s-.8-.82-1.24-1.24-.9-.83-1.37-1.24L20.76,6.09,23.2,3.8c.34.37.73.76,1.16,1.16s.87.81,1.32,1.21.89.76,1.33,1.11.84.64,1.18.88Z"/></svg>