<svg xmlns="http://www.w3.org/2000/svg" width="0.51in" height="0.53in" viewBox="0 0 37 38"><title>Artboard 204</title><path d="M10.69,14a19,19,0,0,0,.71-2.09c.19-.73.34-1.39.44-2a7,7,0,0,0,1.61.59c.48.1,1.08.21,1.79.33.25.05.39.13.43.22s-.08.23-.35.37a2.51,2.51,0,0,0-.69.67c-.23.32-.63.94-1.2,1.85.52,0,1.14,0,1.87-.07s1.37-.11,1.94-.19v2.85c-1-.12-2.19-.21-3.48-.26s-2.88-.07-4.81-.07-3.54,0-4.86.07-2.5.14-3.54.26V13.72a7.92,7.92,0,0,0,1,.11l1.16.1c.41,0,.81.06,1.2.07l1,0a11.26,11.26,0,0,0-.68-1.56,5,5,0,0,0-.84-1.14l3.07-1.11A6.86,6.86,0,0,0,7,11.72,12.34,12.34,0,0,0,8.1,13.46L7,14ZM8.47,7.21c1.73,0,3.28,0,4.66-.07s2.54-.13,3.48-.23V9.73c-.94-.1-2-.18-3.2-.24s-2.67-.1-4.42-.1-3.27,0-4.48.08-2.28.13-3.22.26V6.91c.47,0,.93.1,1.39.13l1.48.1,1.72.05L8,7.21c-.25-.67-.53-1.34-.85-2a8,8,0,0,0-1-1.68l3.63-.85a14.75,14.75,0,0,0,.7,1.83,13.75,13.75,0,0,0,1,1.76ZM6.1,29.45v6.69h-3C3.17,35,3.25,34,3.31,33s.09-1.9.09-2.74V21.64c0-.69,0-1.34,0-1.94s-.07-1.07-.12-1.39c.87.05,1.84.09,2.91.13s2.2.06,3.38.06,2.31,0,3.37-.06,2-.08,2.85-.13a12,12,0,0,0-.11,1.39c0,.6,0,1.25,0,1.94v11.1a7,7,0,0,1-.11,1.43,1.48,1.48,0,0,1-.55.88,3.47,3.47,0,0,1-1.28.58c-.55.14-1.31.29-2.27.44a4.46,4.46,0,0,0-.26-1.55,3.35,3.35,0,0,0-1.22-1.41,10.55,10.55,0,0,0,1.57.15,2.36,2.36,0,0,0,.94-.15.83.83,0,0,0,.46-.48,2.43,2.43,0,0,0,.13-.89V29.45ZM13,23.12V20.9H6.1v2.22ZM6.1,25v2.48H13V25Zm19.43,3c1.06,0,2,0,3-.07s1.73-.12,2.42-.22V30.3c-.69-.08-1.5-.14-2.42-.19s-1.92-.07-3-.07H21.42v1.63a2.72,2.72,0,0,0,.06.64.53.53,0,0,0,.26.37,1.33,1.33,0,0,0,.64.17c.3,0,.71,0,1.22.07.87,0,1.77.08,2.72.08s1.79,0,2.5-.08a6.65,6.65,0,0,0,1.08-.12,1.3,1.3,0,0,0,.68-.43,3.26,3.26,0,0,0,.5-1,16.23,16.23,0,0,0,.48-1.74,3.85,3.85,0,0,0,1.24,1.59,3.24,3.24,0,0,0,1.65.44,18,18,0,0,1-.93,1.87,3.83,3.83,0,0,1-.87,1.06,2.52,2.52,0,0,1-1.13.48,11.13,11.13,0,0,1-1.7.11H23.4c-.75,0-1.44,0-2,0a6.16,6.16,0,0,1-1.43-.13,1.85,1.85,0,0,1-.81-.37,1.1,1.1,0,0,1-.37-.61,3.91,3.91,0,0,1-.09-.92V17.83a10.68,10.68,0,0,0-.06-1.24c0-.33-.09-.7-.17-1.09.42.07.82.13,1.19.17s.91.05,1.63.05H28V13.39H20.68c-.44,0-.9,0-1.37,0a9.61,9.61,0,0,0-1.29.14c.07-.34.14-.74.2-1.18a8.91,8.91,0,0,0,.09-1.18V6.88c0-.84,0-1.67-.09-2.48S18.1,3,18.06,2.58c.51.1,1,.18,1.53.23a9.41,9.41,0,0,0,1.68,0c.35,0,.53,0,.54.2s-.12.35-.39.57a1.14,1.14,0,0,0-.26.41,2.83,2.83,0,0,0-.07.78V6.25h5.44c1.06,0,2,0,3-.08s1.73-.12,2.42-.22V8.88c-.69-.08-1.5-.15-2.42-.21s-1.92-.09-3-.09H21.09v2.59H28a11.35,11.35,0,0,0,1.59,0c.44-.05.94-.12,1.48-.22a7.66,7.66,0,0,0-.11,1c0,.38,0,.8,0,1.24v3a9.05,9.05,0,0,0,.19,2c-.42-.05-.83-.08-1.22-.11s-.94,0-1.63,0H21.42v2.15H25.6c1.06,0,2.06,0,3-.07S30.31,20,31,19.86v2.59c-.69-.07-1.49-.13-2.42-.18s-1.92-.07-3-.07H21.42v1.92h4.15c1.06,0,2.05,0,3-.08A24.27,24.27,0,0,0,31,23.82v2.59q-1-.11-2.43-.18c-.92-.05-1.91-.08-3-.08H21.42V28Z"/></svg>