<svg xmlns="http://www.w3.org/2000/svg" width="0.51in" height="0.53in" viewBox="0 0 37 38"><title>Artboard 122</title><path d="M13.47,16.68a2.59,2.59,0,0,0-.85.89,4.78,4.78,0,0,0-.71,1.59,38.87,38.87,0,0,1-1.2,4.18,35.54,35.54,0,0,1-1.59,3.81c-.61,1.24-1.28,2.47-2,3.7s-1.6,2.51-2.57,3.81a7.33,7.33,0,0,0-1.59-1.22,11.76,11.76,0,0,0-1.77-.81,17,17,0,0,0,3.07-3.18,28.44,28.44,0,0,0,2.66-4.33,28.54,28.54,0,0,0,1.94-5,22.07,22.07,0,0,0,.87-5.27,10.3,10.3,0,0,0,1.83.69,14.35,14.35,0,0,0,1.87.35c.32.05.5.16.52.33S13.79,16.53,13.47,16.68Zm3.7-9.21,5.68,0q2.34,0,4-.06c1.13,0,2.09-.06,2.88-.11s1.51-.09,2.15-.15v7.11H28.6V10.13h-23v5H2.4v-8c.67.06,1.4.1,2.19.15s1.74.09,2.86.11,2.47.05,4,.06ZM17.72,1c.35.71.71,1.48,1.09,2.29s.71,1.55,1,2.22L16.09,7c-.24-.79-.53-1.59-.87-2.41a23.72,23.72,0,0,0-1.09-2.33ZM33.85,31.44a8.14,8.14,0,0,0-1.68,1.08,10.24,10.24,0,0,0-1.68,1.77,23.86,23.86,0,0,1-5.78-7.56,30.72,30.72,0,0,1-2.62-9.79q-2.11,0-3.78.06c-1.11,0-2,.09-2.73.16V14.09c.86.12,1.69.21,2.49.26s1.53.07,2.17.07c1,0,1.81,0,2.48-.07s1.35-.14,2.07-.26a52.27,52.27,0,0,0,.72,6.31A16.08,16.08,0,0,0,27.05,25a12.7,12.7,0,0,0,2.68,3.5A22.17,22.17,0,0,0,33.85,31.44Z"/></svg>