<svg xmlns="http://www.w3.org/2000/svg" width="0.51in" height="0.53in" viewBox="0 0 37 38"><title>Artboard 180</title><path d="M18.79,10.52c1.07,0,2.12,0,3.17,0l3-.07c.92,0,1.78-.06,2.57-.11l2-.15V13l-2-.14c-.79-.05-1.65-.09-2.57-.11l-3-.08c-1.05,0-2.1,0-3.17,0V15l4,0c1.47,0,2.89,0,4.25-.08s2.63-.08,3.76-.13,2-.1,2.55-.15v3c-.64-.07-1.6-.12-2.88-.16l-4.24-.11c-1.54,0-3.1-.06-4.66-.08l-4.13,0-4.12,0c-1.57,0-3.12,0-4.65.08l-4.23.11c-1.3,0-2.25.09-2.87.16v-3q.86.08,2.52.15c1.11.05,2.33.1,3.68.13S10.52,15,12,15l4,0V12.66c-1.06,0-2.12,0-3.17,0l-3,.08c-.95,0-1.83.06-2.63.11l-2,.14V10.15l2.06.15c.8,0,1.67.08,2.6.11l3,.07c1.05,0,2.11,0,3.17,0V8.19l-3.56,0L8.82,8.3c-1.14,0-2.19.06-3.14.11s-1.7.1-2.24.15v-3q.86.08,2.28.15l3.12.11,3.55.07C13.63,6,14.81,6,16,6c0-.59,0-1.19-.06-1.78a10.69,10.69,0,0,0-.09-1.37A12.64,12.64,0,0,0,17.43,3a16.48,16.48,0,0,0,1.7-.05c.29,0,.46,0,.5.11s-.08.28-.35.48a1.26,1.26,0,0,0-.36.55,2.45,2.45,0,0,0-.13.74V6c1.14,0,2.33,0,3.58,0L26,5.86c1.15,0,2.2-.07,3.15-.11s1.71-.1,2.28-.15v3q-.86-.08-2.28-.15c-1-.05-2-.09-3.15-.11l-3.58-.08-3.58,0ZM9.06,36.38h-3c.1-1,.18-2,.23-2.85s.07-1.7.07-2.44V22.25c0-.64,0-1.27,0-1.87S6.31,19.32,6.29,19c.84,0,2.19.09,4.05.13s4.29.05,7.27.05,5.4,0,7.23-.05,3.17-.08,4-.13a10.69,10.69,0,0,0-.09,1.37c0,.59,0,1.21,0,1.85V32.68a6.78,6.78,0,0,1-.2,1.8,1.87,1.87,0,0,1-.85,1.07,5.84,5.84,0,0,1-1.87.61c-.82.15-1.89.28-3.22.41a9.15,9.15,0,0,0-1.33-3.26c1,.07,1.87.11,2.49.11a4.76,4.76,0,0,0,1.47-.17,1.06,1.06,0,0,0,.68-.51,2.36,2.36,0,0,0,.17-1V28.54h-17Zm0-15v5h7.29v-5Zm17,0H19v5h7.07Z"/></svg>