<svg xmlns="http://www.w3.org/2000/svg" width="0.51in" height="0.53in" viewBox="0 0 37 38"><title>Artboard 218</title><path d="M6.1,31.45a13.46,13.46,0,0,0-.72-2c-.28-.65-.63-1.35-1-2.11L7,26.57c.35.79.66,1.55.93,2.29s.54,1.56.81,2.44l1.15-.11L11,31.12a21.93,21.93,0,0,0,1-2.78,21,21,0,0,0,.6-2.55,8.94,8.94,0,0,0,1.74.8,6.26,6.26,0,0,0,1.25.31c.27,0,.4.13.39.32a.67.67,0,0,1-.39.5,3.45,3.45,0,0,0-.79.9,14.73,14.73,0,0,0-1.17,2.2c.84-.12,1.62-.25,2.35-.38s1.48-.29,2.24-.47c-.12.25-.22.47-.3.67a3.23,3.23,0,0,0-.16.59,3.08,3.08,0,0,0-.06.61v.76L11,33.3c-1.8.2-3.29.39-4.48.58a25.32,25.32,0,0,0-2.85.57,11.53,11.53,0,0,0-1.85.67,10.69,10.69,0,0,0-.33-1.84A11.75,11.75,0,0,0,.85,31.6l2.7-.06C4.41,31.53,5.27,31.5,6.1,31.45ZM11.43,7.62h2.2c.63,0,1.19,0,1.67-.06s.92-.06,1.33-.11l1.24-.15v3l-1.2-.15c-.41-.05-.87-.09-1.37-.11L13.62,10H11.43v3.1c.79,0,1.46,0,2,0l1.48,0a11.55,11.55,0,0,0,1.15-.11l1-.15v2.85c-.39-.07-.78-.13-1.16-.17l-1.32-.09-1.73-.05c-.67,0-1.5,0-2.48,0s-2,0-2.72,0l-2,.05-1.58.09c-.48,0-1,.1-1.49.17V12.73l1.25.13c.4,0,.82.07,1.28.09L6.68,13c.55,0,1.19,0,1.9,0V10c-1,0-1.79,0-2.48,0l-1.85.08c-.54,0-1,0-1.49.09l-1.39.13v-3l1.39.13c.45,0,1,.07,1.49.09l1.85.08c.69,0,1.52,0,2.48,0,0-.78-.05-1.56-.09-2.33s-.08-1.35-.13-1.77a14.21,14.21,0,0,0,1.83.2,16.56,16.56,0,0,0,1.69,0c.29,0,.46,0,.51.11s0,.25-.26.44a1.83,1.83,0,0,0-.53,1,6.68,6.68,0,0,0-.17,1.52ZM10.25,17.87c1.75,0,3.17,0,4.27-.05s2-.09,2.76-.17c-.08,1.41-.11,2.72-.11,3.92s0,2.52.11,3.85L16,25.35c-.41,0-.87-.05-1.39-.06l-1.83,0H10.21l-2.48,0-1.83,0-1.39.05-1.14.08c.14-1.41.22-2.7.22-3.89,0-.61,0-1.24,0-1.88s-.09-1.32-.18-2c.44.05.88.09,1.33.11s.93,0,1.46.06l1.78,0Zm-4,5.33H14.5V20H6.25Zm14.17-4.29c-.34,0-.68,0-1,0L18.5,19V16.21l2.83.13c1,0,1.92.05,2.9.05V11c-.54,0-1,0-1.46,0l-1.24.08c-.39,0-.78,0-1.16.09l-1.2.13v-3c.44.05.85.1,1.23.13l1.17.1,1.24.07c.43,0,.91,0,1.42,0V7.37c0-.84,0-1.69-.05-2.54a17.84,17.84,0,0,0-.17-2c.25,0,.54.09.87.13s.67.06,1,.08h1.68c.3,0,.47,0,.52.11s0,.25-.26.45a2.91,2.91,0,0,0-.7,2.29V8.59l2.22,0q.93,0,1.65-.06c.48,0,.92-.06,1.33-.11l1.27-.15v3c-.44-.08-.86-.13-1.27-.17S31.47,11.05,31,11s-1,0-1.65-.06H27.12v5.43l2.65-.07c.8,0,1.64-.06,2.53-.11-.27,1.43-.59,2.81-.94,4.14s-.76,2.57-1.19,3.72a27.92,27.92,0,0,1-1.38,3.13,18,18,0,0,1-1.49,2.4,13.88,13.88,0,0,0,3,2.07,29.57,29.57,0,0,0,3.79,1.63,15.61,15.61,0,0,0-1.4,2A7.64,7.64,0,0,0,32,36.82a33.91,33.91,0,0,1-3.7-2.44,23.51,23.51,0,0,1-2.92-2.67,23.57,23.57,0,0,1-3.61,2.65,34.79,34.79,0,0,1-5.05,2.42,4.46,4.46,0,0,0-.63-1.28A8.3,8.3,0,0,0,14.69,34a26.3,26.3,0,0,0,5.07-1.85,15.69,15.69,0,0,0,3.85-2.67,10.87,10.87,0,0,1-1.06-2c-.33-.82-.64-1.69-.92-2.63a29,29,0,0,1-.73-2.92Q20.62,20.39,20.42,18.91Zm2.85-.07A28.89,28.89,0,0,0,24,23.59a17.58,17.58,0,0,0,1.39,3.83,18.5,18.5,0,0,0,2-4,24.92,24.92,0,0,0,1.26-4.58Z"/></svg>