<svg xmlns="http://www.w3.org/2000/svg" width="0.51in" height="0.53in" viewBox="0 0 37 38"><title>Artboard 201</title><path d="M22.42,7.14c1,0,2,0,3,0S27.28,7,27.9,7l-5.52,6.18c1.51,0,2.9,0,4.18-.06s2.69-.09,4.22-.16c-.05.71-.09,1.73-.13,3.05s0,2.89,0,4.72,0,3.38,0,4.6.08,2.19.15,2.91l-2.27-.08-2.15-.05c-.78,0-1.7,0-2.77,0H15.11c-1.22,0-2.32,0-3.29,0l-2.7.05-2.5.08c0-.42.09-1,.13-1.65s.06-1.39.06-2.13V14.73C5.92,15.54,5,16.3,4.11,17a6,6,0,0,0-1.34-1.3A6.09,6.09,0,0,0,1.11,15,22.4,22.4,0,0,0,4.4,12.66,36.28,36.28,0,0,0,7.68,9.59a38.19,38.19,0,0,0,2.9-3.48A26.68,26.68,0,0,0,12.8,2.59c.77.35,1.41.61,1.94.8a12.39,12.39,0,0,0,1.8.46.51.51,0,0,1,.44.39c.05.21-.07.34-.37.39a3.5,3.5,0,0,0-.46.16,2.27,2.27,0,0,0-.48.34,7,7,0,0,0-.7.72c-.29.32-.65.75-1.1,1.29ZM9.32,30.34c-.88,1.19-1.67,2.25-2.35,3.2s-1.35,2-2,3.06L1.77,35.3a19.19,19.19,0,0,0,2.78-3A12.62,12.62,0,0,0,6.33,29ZM21.83,9.51H11.91q-1.66,1.89-3.4,3.63H18.83Zm-4.55,6H9.62v3.92h7.66Zm0,6.17H9.62v3.93h7.66ZM13.1,36q0-1,0-1.77c0-.52-.06-1-.11-1.43a9.71,9.71,0,0,0-.23-1.24c-.09-.39-.22-.81-.37-1.25l3-.26c.1.37.21.79.32,1.27s.21,1,.29,1.52.16,1.07.23,1.61.1,1,.13,1.52Zm8.25-.18a13.22,13.22,0,0,0-.48-2.65,18.82,18.82,0,0,0-1.15-3l3.11-.48c.39,1,.72,2,1,2.81s.52,1.75.79,2.74Zm6.47-20.31H20v3.92h7.8Zm0,6.17H20v3.93h7.8Zm2.81,14.8a12.07,12.07,0,0,0-.53-1.57,11.75,11.75,0,0,0-.76-1.5c-.3-.49-.63-1-1-1.55s-.8-1.13-1.29-1.78l2.73-1c.45.64.84,1.2,1.19,1.67s.66.92,1,1.37.6.9.91,1.38l1,1.65Z"/></svg>