<svg xmlns="http://www.w3.org/2000/svg" width="0.51in" height="0.53in" viewBox="0 0 37 38"><title>Artboard 119</title><path d="M12.47,20.68c.32.1.46.23.42.37s-.3.3-.79.45a1.81,1.81,0,0,0-.76.63,14.58,14.58,0,0,0-1.05,1.51l-.91,1.24C9,25.44,8.5,26.06,8,26.75s-1.1,1.42-1.72,2.18S5,30.43,4.44,31.12A4.73,4.73,0,0,0,3,30a6.65,6.65,0,0,0-1.89-.61A21.57,21.57,0,0,0,3.5,27.1a30.39,30.39,0,0,0,2.16-2.75,33.87,33.87,0,0,0,1.79-2.89c.53-1,1-1.84,1.32-2.63a9.43,9.43,0,0,0,1.72,1.06A13.16,13.16,0,0,0,12.47,20.68Zm3.85-5.1q-4.89,0-8.5.05t-6.3.21V12.4q2.88.13,6.73.2c2.57,0,5.62.05,9.18.05s6.63,0,9.25-.05,4.88-.11,6.8-.2v3.44q-2.55-.12-5.93-.19t-7.87-.07V31.15a4.84,4.84,0,0,1-.18,1.43,2,2,0,0,1-.91,1,7.81,7.81,0,0,1-2.11.79q-1.38.36-3.75.72a8.29,8.29,0,0,0-.5-2A8.17,8.17,0,0,0,11,30.9a9.12,9.12,0,0,0,4.12.14c.78-.27,1.17-.69,1.17-1.25ZM29.71,7c-1.43-.1-3.09-.17-5-.2s-4.17-.06-6.86-.06-5,0-6.86.06-3.57.1-5,.2V3.52c1.5.09,3.2.16,5.08.2s4.17,0,6.83,0,5,0,6.86,0,3.55-.11,5-.2Zm1,24.27c-.5-.79-1.06-1.63-1.71-2.53s-1.31-1.8-2-2.68-1.4-1.74-2.09-2.56S23.61,22,23,21.39l2.74-1.74c.62.59,1.28,1.27,2,2s1.43,1.56,2.14,2.39,1.42,1.66,2.11,2.52,1.32,1.67,1.89,2.46Z"/></svg>