<svg xmlns="http://www.w3.org/2000/svg" width="0.51in" height="0.53in" viewBox="0 0 37 38"><title>Artboard 70</title><path d="M16.58,8.45c-1.29.13-2.55.23-3.8.32L9.3,9l-2.88.15c-.85,0-1.54,0-2,0a10.65,10.65,0,0,0-.45-1.63,9,9,0,0,0-.74-1.44,13.13,13.13,0,0,0,2.07.11c.94,0,2,0,3.3-.05s2.62-.1,4.1-.17,3-.17,4.52-.3c.91-.07,1.9-.17,3-.31s2.12-.3,3.18-.48,2.08-.38,3.07-.59,1.89-.43,2.7-.65a9.3,9.3,0,0,0,.65,1.46,18.36,18.36,0,0,0,1.2,1.91c.35.47.2.64-.44.51a9,9,0,0,0-1.26-.12c-.42,0-1,0-1.74,0s-1.72.11-2.94.22l-4.79.47v5.29c2.19,0,4.06-.06,5.6-.11s2.89-.14,4.05-.26v3.14c-1.11-.1-2.45-.16-4-.2s-3.45,0-5.62,0v4.88c1.4,0,2.79-.05,4.16-.09l3.9-.11c1.24,0,2.37-.08,3.41-.13l2.7-.15v3.22c-.77-.05-1.67-.09-2.72-.13l-3.42-.09c-1.24,0-2.53,0-3.89,0H19.76V33a3,3,0,0,1-.21,1.19,1.75,1.75,0,0,1-.94.83,8.74,8.74,0,0,1-2.15.59c-.93.16-2.22.3-3.84.43a10,10,0,0,0-1.56-3.85c1.16.15,2.1.24,2.83.28a5.4,5.4,0,0,0,1.69-.13,1.2,1.2,0,0,0,.79-.65,3.15,3.15,0,0,0,.21-1.28v-7l-4.74.08c-1.55,0-3,0-4.39.09s-2.6.08-3.7.13-2,.1-2.68.15V20.63c.69.05,1.59.09,2.7.14s2.35.08,3.72.1l4.37,0c1.54,0,3.11,0,4.72,0V16Q13,16,10.21,16c-1.87,0-3.35.1-4.44.2V13.15c1.14.13,2.62.21,4.46.26s3.95.06,6.35,0Z"/></svg>