<svg xmlns="http://www.w3.org/2000/svg" width="0.51in" height="0.53in" viewBox="0 0 37 38"><title>Artboard 142</title><path d="M8.18,12q-.82,2.22-1.8,4.32a43.28,43.28,0,0,1-2.24,4.16,6.22,6.22,0,0,0-1.24-.83A6.38,6.38,0,0,0,1.4,19a24,24,0,0,0,2.1-3.7q1-2.1,1.79-4.35c.54-1.49,1-3,1.42-4.4s.73-2.73,1-3.87a7,7,0,0,0,.85.36l1,.31c.32.1.63.19.93.26l.7.15c.67.07.65.27,0,.59a3.66,3.66,0,0,0-.63,1.18Q10,6.65,9.14,9.2H13c.57,0,1.16,0,1.78,0s1.12-.06,1.52-.11c-.15,1.38-.29,2.62-.43,3.72s-.28,2.1-.43,3-.3,1.73-.48,2.47-.37,1.45-.59,2.11a26.12,26.12,0,0,1-4,7.74A34.28,34.28,0,0,1,4,34.54a10.43,10.43,0,0,0-1.4-1.2,11.11,11.11,0,0,0-1.74-1c1.06-.74,2-1.43,2.86-2.07S5.38,29,6.09,28.33a20.2,20.2,0,0,0,1.92-2A18.74,18.74,0,0,0,9.66,24c-.25-.37-.52-.74-.82-1.13s-.6-.76-.9-1.14S7.31,21,7,20.61s-.63-.62-.92-.87l2.29-1.92c.47.47.94,1,1.41,1.52s.93,1.1,1.4,1.66a34.67,34.67,0,0,0,1.89-9Zm18-.14h-2.6l-2,.06L19.9,12l-1.4.13V9l1.4.13,1.65.09,2,.05c.75,0,1.62,0,2.6,0V6.94c0-1.11,0-2-.07-2.75a14.8,14.8,0,0,0-.26-2c.72.2,1.42.36,2.11.48a10.32,10.32,0,0,0,1.55.19c.4,0,.62.06.65.18s-.09.25-.39.37a1.25,1.25,0,0,0-.59.48,1.77,1.77,0,0,0-.18.89V9.27c1.16,0,2.13,0,2.92-.09s1.52-.1,2.18-.2v3.14c-.69-.07-1.42-.13-2.2-.18s-1.74-.09-2.9-.11V22.56l1.5,0c.5,0,1,0,1.44-.08s.86-.08,1.22-.13a8,8,0,0,0,.87-.14v3.1c-.35,0-.95-.09-1.81-.12s-1.94-.06-3.22-.06v5.66c0,1,0,1.94,0,2.7s.11,1.57.21,2.41H25.94c.09-.84.16-1.64.2-2.39s.05-1.66.05-2.72V25.11H20.72l-.41,2.7-2.85-.52c.23-1.13.44-2.32.65-3.55s.4-2.45.57-3.66.32-2.38.45-3.52.21-2.18.26-3.14a13.5,13.5,0,0,0,1.64.29,9.05,9.05,0,0,0,1.58.08c.24,0,.37,0,.37.16a.78.78,0,0,1-.3.5,1.4,1.4,0,0,0-.39.67A11.79,11.79,0,0,0,22,16.56l-.92,6h5.1Z"/></svg>