<svg xmlns="http://www.w3.org/2000/svg" width="0.51in" height="0.53in" viewBox="0 0 37 38"><title>Artboard 187</title><path d="M15.39,30.54c.3.12.44.26.43.42s-.18.27-.5.32a4.32,4.32,0,0,0-1.15.38c-.37.19-.91.49-1.63.91-1.43.86-2.84,1.65-4.23,2.35s-2.76,1.31-4.09,1.83a5.25,5.25,0,0,0-.89-1.31,8.3,8.3,0,0,0-1.22-1,36.57,36.57,0,0,0,6-2.53,28.17,28.17,0,0,0,4.56-3,7.47,7.47,0,0,0,1.33.94A13.56,13.56,0,0,0,15.39,30.54Zm.15-22.87-4.16,0-3.46,0-3,.1c-.93,0-1.82.08-2.68.12V4.82l3,.13c1,0,2.15.07,3.37.09s2.56,0,4,.06l5,0,5,0c1.45,0,2.78,0,4-.06s2.3,0,3.31-.09l3-.13V8c-.94,0-1.88-.09-2.83-.12L27,7.74l-3.66,0-4.48,0A19.65,19.65,0,0,1,18,10.93l4.27,0c1.17,0,2.18,0,3-.06s1.59,0,2.21-.09l1.84-.13a12.43,12.43,0,0,0-.21,1.66q-.09,1.16-.09,2.22V25.1c0,.71,0,1.44.07,2.18a10,10,0,0,0,.23,1.7l-1.85-.13c-.65,0-1.4-.06-2.28-.07l-3.11,0-4.38,0-4.42,0-3.18,0c-.91,0-1.68,0-2.32.07L6,29a15.78,15.78,0,0,0,.18-1.72c0-.73.08-1.45.08-2.16V14.51c0-.71,0-1.44-.06-2.2A8.14,8.14,0,0,0,6,10.63l1.52.13c.54,0,1.15.06,1.83.07l2.37.06c.9,0,1.94,0,3.12,0,.13-.5.25-1,.37-1.6S15.46,8.21,15.54,7.67ZM26,13.4H9.25v2.67H26Zm0,5H9.25v2.77H26Zm0,4.92H9.25v2.77H26Zm4.07,13.21a35,35,0,0,0-4.37-2.65,43.21,43.21,0,0,0-6.17-2.61l2.21-2a58.36,58.36,0,0,1,5.61,2.22q2.76,1.26,5,2.52Z"/></svg>