<svg xmlns="http://www.w3.org/2000/svg" width="0.51in" height="0.53in" viewBox="0 0 37 38"><title>Artboard 34</title><path d="M5.29,28q3-5.4,6-11.89A143.27,143.27,0,0,0,16.76,2.33,17.76,17.76,0,0,0,19,3.14c.71.2,1.34.34,1.88.44s.77.24.82.48-.21.51-.78.78a2.74,2.74,0,0,0-.7.48,6.56,6.56,0,0,0-.72.76,8.63,8.63,0,0,0-.69.93,6.49,6.49,0,0,0-.55,1q-1.11,2.58-2.15,4.86c-.69,1.52-1.4,3-2.15,4.57s-1.54,3.13-2.4,4.79-1.85,3.51-3,5.53l18.17-1.4c-1.11-2-2.15-3.79-3.11-5.29a39.39,39.39,0,0,0-2.55-3.63L24,16c.51.69,1.13,1.58,1.85,2.68s1.49,2.31,2.33,3.65,1.7,2.75,2.59,4.27,1.76,3,2.62,4.53l-3.25,1.7c-.25-.54-.53-1.13-.85-1.77s-.72-1.38-1.19-2.22l-18.91,2A26.84,26.84,0,0,0,6,31.37a18.7,18.7,0,0,0-2.85.92c0-.29-.13-.63-.23-1s-.21-.78-.35-1.19-.28-.8-.44-1.18a6.83,6.83,0,0,0-.5-1c.62.07,1.22.12,1.81.13S4.62,28.05,5.29,28Z"/></svg>