<svg xmlns="http://www.w3.org/2000/svg" width="0.51in" height="0.53in" viewBox="0 0 37 38"><title>Artboard 165</title><path d="M19.05,6.75q4.59,0,7.89,0c2.19,0,4.13-.1,5.8-.17V9.34c-1.67-.1-3.61-.17-5.8-.2s-4.83-.06-7.89-.06v2.78h4.06c1.09,0,2,0,2.83,0l2-.07,1.76-.12c-.05.28-.1.68-.15,1.23s-.08,1.08-.08,1.62v7.63c0,.54,0,1.08.08,1.61s.1.93.15,1.2L28,24.84l-2-.07c-.79,0-1.74,0-2.83,0H19.05v2.59q5,0,8.59-.05c2.37,0,4.46-.1,6.29-.17v2.74c-1.83-.08-3.92-.13-6.29-.17s-5.23-.05-8.59-.05c0,1.33,0,2.56.08,3.7s.11,2.06.18,2.77h-3.4c.07-.71.13-1.61.18-2.68s.08-2.34.08-3.79q-5.12,0-8.73.05c-2.42,0-4.54.09-6.37.17V27.1q2.82.11,6.4.17c2.4,0,5.29.05,8.7.05V24.73H12.25c-1.11,0-2.09,0-2.95,0l-2.23.07-1.82.08q.07-.41.15-1.2c0-.53.08-1.07.08-1.61V14.48q0-.81-.06-1.62a6.56,6.56,0,0,0-.17-1.23c.57,0,1.17.09,1.82.12l2.23.07c.86,0,1.84,0,2.95,0h3.92V9.08q-4.44,0-7.68.06c-2.16,0-4,.1-5.68.2V6.53c1.68.07,3.58.13,5.72.17s4.68,0,7.64,0c-.05-1-.1-1.91-.15-2.63s-.1-1.24-.15-1.59c.59.1,1.16.17,1.7.21s1.1,0,1.67,0c.81,0,.89.24.22.71a.88.88,0,0,0-.33.38,2.71,2.71,0,0,0-.08.8Zm-2.88,7.44H8.1v2.88h8.07Zm0,5.29H8.1v2.81h8.07Zm2.88-2.41h7.74V14.19H19.05Zm0,5.22h7.74V19.48H19.05Z"/></svg>