<svg xmlns="http://www.w3.org/2000/svg" width="0.51in" height="0.53in" viewBox="0 0 37 38"><title>Artboard 193</title><path d="M8.55,26.17c-.23.57-.48,1.18-.76,1.83l-.87,2c-.3.66-.59,1.3-.89,1.93s-.58,1.19-.85,1.68L2.07,32a19.78,19.78,0,0,0,2.22-3.39,12.63,12.63,0,0,0,1.22-3.31Zm12.09-16c1.61,0,3.27,0,5-.08S29,10,30.45,9.93v2.85c-1.5-.08-3.09-.13-4.75-.17s-3.35-.06-5.06-.06v2.89c1.78,0,3.52,0,5.22-.07s3.33-.12,4.89-.19V18.1c-1.56-.07-3.19-.13-4.89-.16s-3.44-.06-5.22-.06v3H24c1.14,0,2.26,0,3.34,0l3.08-.05,2.51-.08a7,7,0,0,0-.2.84c-.06.33-.12.7-.17,1.11l-.15,1.22c0,.4-.08.79-.11,1.16q-.15,2.19-.27,3.54c-.09.9-.18,1.64-.26,2.22a11,11,0,0,1-.3,1.42A9,9,0,0,1,31,33.27a5.16,5.16,0,0,1-.76,1.39,3.35,3.35,0,0,1-1.12.89,7.74,7.74,0,0,1-1.76.57c-.71.15-1.59.3-2.65.45a4.64,4.64,0,0,0-.37-2,4.49,4.49,0,0,0-1.26-1.54,12,12,0,0,0,3.52-.22,2.34,2.34,0,0,0,1.59-1.15,6.78,6.78,0,0,0,.35-1,14.31,14.31,0,0,0,.3-1.59c.08-.65.16-1.42.22-2.34s.12-2,.17-3.25H14.76c-2.32,0-4.2,0-5.64,0s-2.63,0-3.57.09a34.57,34.57,0,0,0,.33-3.72c.08-1.54.11-3.56.11-6C6,12,6,10.4,5.92,8.91S5.78,6,5.66,4.64q4.59.21,13.32.22,7.85,0,13.28-.22V7.56c-1.75-.08-3.62-.12-5.62-.15s-4,0-6,0Zm-3.07,0V7.37H8.69v2.82ZM8.69,12.55v2.89h8.88V12.55Zm8.88,5.33H8.69v3h8.88ZM10.91,32.31q0-.71,0-1.5c0-.53-.06-1.06-.11-1.61s-.11-1.08-.19-1.62-.16-1-.26-1.52l2.93-.15c.19,1,.36,2,.49,2.9s.27,1.9.39,3Zm5.81-.48a12,12,0,0,0-.09-1.42c-.06-.51-.14-1-.24-1.54s-.2-1-.31-1.5-.23-.91-.36-1.27l2.85-.67c.27.94.53,1.92.78,3s.47,2,.67,3Zm5.89-.67a17.25,17.25,0,0,0-.41-2.83c-.22-1-.47-1.88-.74-2.72l3-.4c.29.94.56,1.83.79,2.7s.49,1.8.76,2.81Z"/></svg>