<svg xmlns="http://www.w3.org/2000/svg" width="0.51in" height="0.53in" viewBox="0 0 37 38"><title>Artboard 53</title><path d="M13.43,4.09c.72.1.69.41-.07.93a3.08,3.08,0,0,0-.26.2,2.78,2.78,0,0,0-.41.54C12.52,6,12.28,6.44,12,7L10.69,9.29c-.54,1-1.22,2.2-2,3.68s-1.8,3.3-3,5.44c1.4,2.52,2.75,5.08,4.05,7.7s2.5,5.23,3.61,7.84a8.37,8.37,0,0,0-2,.43,5.61,5.61,0,0,0-1.7.83A37.62,37.62,0,0,0,7,27a59.92,59.92,0,0,0-4.7-8.64q1.74-2.44,3.15-4.9c.93-1.64,1.74-3.17,2.42-4.57S9.11,6.24,9.49,5.2A11.57,11.57,0,0,0,10.14,3a9.17,9.17,0,0,0,1.74.74A8.48,8.48,0,0,0,13.43,4.09Zm9.66,29.05a18.69,18.69,0,0,0-1.95.5,6.86,6.86,0,0,0-1.64.72,42.88,42.88,0,0,0-2.85-8,61.75,61.75,0,0,0-4.37-7.8q1.89-3.56,3.15-6.07c.84-1.68,1.5-3.09,2-4.24s.85-2.06,1.07-2.75a7.56,7.56,0,0,0,.37-1.67,15,15,0,0,0,1.66.78,10,10,0,0,0,1.74.48c.37.07.56.18.56.31s-.21.36-.63.65a2.36,2.36,0,0,0-.52.61c-.22.34-.57.94-1,1.82s-1.11,2.1-1.93,3.68-1.87,3.67-3.18,6.29C16.3,19.77,17,21,17.69,22.22s1.3,2.41,1.92,3.59,1.21,2.38,1.77,3.59S22.52,31.86,23.09,33.14Zm9.58-.08a13.86,13.86,0,0,0-1.81.73,17.2,17.2,0,0,0-1.74,1c-.42-1.33-.88-2.63-1.39-3.9s-1.07-2.55-1.68-3.85-1.31-2.62-2.07-4-1.62-2.78-2.56-4.26a42.93,42.93,0,0,0,2.74-4.37q1.26-2.29,2.18-4.36a36.31,36.31,0,0,0,1.43-3.65,8.77,8.77,0,0,0,.5-2.2,13.53,13.53,0,0,0,2,.7,10.66,10.66,0,0,0,1.8.37c.39.05.59.15.59.28s-.22.35-.67.65a1.45,1.45,0,0,0-.31.24,3.85,3.85,0,0,0-.44.59l-.78,1.2c-.33.52-.75,1.24-1.26,2.15s-1.13,2.05-1.89,3.41-1.66,3-2.72,4.92q1.59,2.47,2.76,4.36c.78,1.26,1.47,2.43,2.07,3.52s1.17,2.13,1.69,3.14S32.15,31.88,32.67,33.06Z"/></svg>