<svg xmlns="http://www.w3.org/2000/svg" width="0.51in" height="0.53in" viewBox="0 0 37 38"><title>Artboard 162</title><path d="M19.79,22.29c1.48,0,2.75,0,3.81,0s2,0,2.82-.07l2.16-.11c.63,0,1.24-.09,1.83-.17v3.29l-1.85-.13L26.44,25l-2.82,0c-1.07,0-2.35,0-3.83,0v6.4a35.13,35.13,0,0,0,5.83.13q3.31-.16,7.79-.69a9.71,9.71,0,0,0-.59,1.91c-.13.63-.22,1.26-.3,1.91-2.22,0-4.16.06-5.83.05s-3.12-.05-4.36-.13-2.3-.17-3.16-.29-1.62-.26-2.26-.41a12.4,12.4,0,0,1-4.46-2,11.55,11.55,0,0,1-3.28-4c-.78,1.63-1.52,3-2.2,4.15a33,33,0,0,1-2.12,3.14,12.38,12.38,0,0,0-1.56-1,6.44,6.44,0,0,0-1.74-.66,11.29,11.29,0,0,0,2-2.13,21.82,21.82,0,0,0,1.92-3.07,33.61,33.61,0,0,0,1.67-3.72A37,37,0,0,0,8.44,20.4a16.82,16.82,0,0,0,2,.74,10.27,10.27,0,0,0,1.58.41c.51.07.56.25.14.52a1.51,1.51,0,0,0-.25.22,2.85,2.85,0,0,0-.36.5q-.19.36-.48,1c-.18.41-.42.93-.72,1.58a13.63,13.63,0,0,0,2.78,3.4,10.27,10.27,0,0,0,3.62,2V17.48c-3.13,0-5.91,0-8.32.07s-4.47.14-6.14.26V14.45q5,.33,14.35.33V9.6c-1.18,0-2.24,0-3.16,0l-2.59.07L8.62,9.8l-2.07.13V6.57l2.09.13,2.24.09,2.59.07c.93,0,2,0,3.14,0,0-1.23,0-2.25-.07-3.05A13,13,0,0,0,16.32,2c.64.08,1.26.13,1.86.17a9.91,9.91,0,0,0,1.65,0c.49-.05.76,0,.8.11s-.1.28-.39.45a1.13,1.13,0,0,0-.45.55,2.29,2.29,0,0,0-.14.78V6.9l3.33,0,2.7,0c.81,0,1.58-.07,2.29-.12l2.11-.14V9.93c-.69-.07-1.39-.13-2.09-.16l-2.29-.1L23,9.62l-3.33,0v5.18c5.94,0,10.54-.14,13.8-.33v3.36q-4.89-.33-13.66-.33Z"/></svg>