<svg xmlns="http://www.w3.org/2000/svg" width="0.51in" height="0.53in" viewBox="0 0 37 38"><title>Artboard 126</title><path d="M12.91,25.6c.25.12.36.28.34.46s-.25.3-.67.35a2.93,2.93,0,0,0-.56.3c-.27.17-.67.48-1.22.92s-.94.79-1.5,1.24-1.15.93-1.79,1.41l-2,1.44c-.67.48-1.33.93-2,1.35a8,8,0,0,0-1-1.39,5.82,5.82,0,0,0-1.37-1,23.79,23.79,0,0,0,2.68-1.33,24.13,24.13,0,0,0,2.53-1.68,21.56,21.56,0,0,0,2.19-1.93,12.31,12.31,0,0,0,1.62-2c.6.47,1.12.86,1.58,1.18A6,6,0,0,0,12.91,25.6ZM20,11q1.8-1.41,3.47-2.85c1.11-1,2.09-1.88,2.93-2.74a6.47,6.47,0,0,0,1.33,1.16,5.18,5.18,0,0,0,1.59.69c.42.12.61.29.57.52s-.34.35-.9.4a2.58,2.58,0,0,0-1,.37c-.37.23-.93.62-1.7,1.19q-3.51,2.7-7.06,5.1t-6.89,4.3l14.43-.34a34.9,34.9,0,0,0-2.47-2.7l2.47-1.66C27.93,15.5,29,16.61,30,17.74s2.12,2.39,3.33,3.83l-3,1.81c-.27-.42-.55-.84-.85-1.26s-.6-.84-.92-1.26l-9,.45v8.62q0,1.47.09,2.85c.06.91.15,1.83.27,2.77H16c.12-1,.21-1.89.26-2.79s.07-1.85.07-2.83V21.49c-2.07.1-3.85.2-5.33.3s-2.72.19-3.73.29-1.85.21-2.5.32a9.76,9.76,0,0,0-1.61.39c-.12-.65-.25-1.23-.39-1.76a16.09,16.09,0,0,0-.53-1.69l2.81-.05c.84,0,1.76,0,2.77-.09.79-.45,1.67-1,2.63-1.56S12.28,16.51,13,16l1.89-1.32,2.18-1.53-10,.66c-.56.05-1.16.13-1.79.22a7.85,7.85,0,0,0-1.69.45,9.75,9.75,0,0,0-.44-1.8,9.9,9.9,0,0,0-.66-1.57c.51,0,1.17,0,2,.06s1.66,0,2.62,0c.82-.67,1.69-1.43,2.63-2.3s1.86-1.75,2.77-2.66S14.26,4.42,15,3.56a23.91,23.91,0,0,0,1.85-2.27c.57.37,1.14.7,1.7,1s1.17.58,1.82.85c.32.12.46.27.44.44s-.23.29-.63.34a2.79,2.79,0,0,0-.72.27c-.33.16-.72.39-1.17.67s-.93.62-1.48,1-1.08.79-1.62,1.24S13.85,8.28,13.06,9s-1.57,1.45-2.33,2.17c1.7-.05,3.38-.09,5-.11S18.83,11,20,11ZM31.19,33.37q-2.37-2.29-4.55-4.09T22.35,26l2.4-2q2.19,1.59,4.35,3.2c1.44,1.07,3,2.26,4.72,3.57Z"/></svg>