<svg xmlns="http://www.w3.org/2000/svg" viewBox="0 0 37 38"><title>radical</title><g id="Layer_2" data-name="Layer 2"><path d="M15.43,29.36c.29.22.42.4.39.55s-.22.24-.54.26a3,3,0,0,0-.85.19,4.43,4.43,0,0,0-.89.52,42.4,42.4,0,0,1-4.22,2.57q-2.45,1.3-5.47,2.75a6.55,6.55,0,0,0-1-1.59,9.71,9.71,0,0,0-1.54-1.4,35.9,35.9,0,0,0,6.28-2.54,27.36,27.36,0,0,0,5.31-3.57,17.07,17.07,0,0,0,1.22,1.2A12.62,12.62,0,0,0,15.43,29.36ZM30,26.66l-1.91-.08-2.4-.07c-.93,0-2,0-3.26,0H13.6c-1.25,0-2.33,0-3.26,0L8,26.58l-1.81.08c.05-.57.09-1.25.13-2.06s.06-1.63.06-2.49V8.64c0-.64,0-1.2,0-1.67s0-.87,0-1.22,0-.65-.06-.92,0-.53-.07-.78L8,4.18q1,.06,2.37.09t3.24.06l4.42,0,4.42,0c1.24,0,2.33,0,3.26-.06s1.72,0,2.4-.09L30,4.05c-.05.49-.1,1.09-.13,1.78s-.06,1.62-.06,2.81V22.11c0,.88,0,1.69.06,2.4S30,25.94,30,26.66ZM26.71,7H9.32v3.74H26.71Zm0,6.33H9.32v3.92H26.71Zm0,6.44H9.32v3.95H26.71ZM31,36.46c-.78-.69-1.62-1.37-2.49-2a31.52,31.52,0,0,0-2.7-1.85C24.88,32,24,31.49,23,31s-1.85-.87-2.74-1.22l2-2.59q2.6,1.26,5.46,2.83t5.94,3.46Z"/></g></svg>