<svg xmlns="http://www.w3.org/2000/svg" viewBox="0 0 37 38"><title>radical</title><g id="Layer_2" data-name="Layer 2"><path d="M13.25,8.52c-.35,0-.88,0-1.6,0L9.3,8.63c-.85,0-1.69.06-2.53.11l-2.11.11V6c.59,0,1.27.08,2,.11l2.36.07,2.43.06,2.2,0c.12-.74.2-1.43.24-2.06A14.2,14.2,0,0,0,14,2.6a14.09,14.09,0,0,0,1.68.22c.63.05,1.24.09,1.83.11.35,0,.53.11.56.24s-.08.28-.3.43a.92.92,0,0,0-.29.26,2,2,0,0,0-.23.42c-.07.19-.14.44-.22.74s-.16.71-.26,1.21l4.39,0,3.48,0c1,0,1.94,0,2.75-.07S28.91,6,29.6,6l-1.07,4.92,1.16,0c.48,0,1,0,1.54-.07l1.64-.1c.56,0,1.07-.06,1.54-.11v3l-2.24-.15c-.8,0-1.83-.08-3.07-.11l-4.66-.06h-14l-4.64.06c-1.24,0-2.25.06-3,.11l-2.22.15v-3c1.39.13,2.82.21,4.3.26s3,.08,4.51.08H12.8ZM6.66,32c0,.19-.11.4-.19.62s-.13.46-.18.71L3.11,33.2a11.54,11.54,0,0,0,1.07-2.29c.34-1,.73-2.27,1.15-3.93A15.62,15.62,0,0,0,7,27.24a13.14,13.14,0,0,0,1.35.08c.32,0,.5.06.54.2s-.09.29-.39.46-.54.66-1,1.67h9.77V26.46q-5.52,0-9,.08c-2.33.05-4.16.13-5.5.26v-3q2,.19,5.46.24t9.05.06V22.17H12.93l-3.22,0c-.92,0-1.76,0-2.5.06L5,22.32a7.69,7.69,0,0,0,.11-.78c0-.24.05-.51.08-.79s0-.61,0-1V18.51c0-.69,0-1.36,0-2s-.07-1.22-.12-1.72c1.48.05,3.18.09,5.09.11s4.28,0,7.09,0h3.88c1.16,0,2.22,0,3.19,0L27,14.85l2.33-.08c0,.45,0,1-.06,1.74s0,1.4,0,2,0,1.46,0,2,0,1.13.06,1.72l-1.89-.05-2,0-2.34,0H20.31v1.89q4.41,0,7.12-.07c1.82,0,3.34-.13,4.57-.23v3c-1.25-.1-2.9-.18-4.94-.24s-4.28-.1-6.75-.1v3.19c3.36,0,6.06,0,8.12-.1s3.64-.15,4.72-.27V32.2c-1.06-.05-2.62-.09-4.68-.13s-4.78,0-8.16,0c0,.76,0,1.52.06,2.29s.1,1.57.2,2.4H16.94c.1-.86.18-1.71.25-2.55s.09-1.55.09-2.14ZM26.38,17.18H8.25v2.7H26.38ZM15.91,10.93h9.58l.37-2.41H16.32Z"/></g></svg>