<svg xmlns="http://www.w3.org/2000/svg" viewBox="0 0 37 38"><title>radical</title><g id="Layer_6" data-name="Layer 6"><path d="M22.39,26.92c0,1.83.07,3.45.13,4.86s.11,2.4.16,3H19.33q.11-.8.18-2.85c0-1.37.09-3,.11-5H11.74a20.42,20.42,0,0,1-1.61,4.83,21.86,21.86,0,0,1-2.46,3.92A6.92,6.92,0,0,0,6.48,34.5a7.83,7.83,0,0,0-1.73-.92A12.69,12.69,0,0,0,6.86,31.1a16.07,16.07,0,0,0,1.53-3,18.28,18.28,0,0,0,.92-3.34,21,21,0,0,0,.3-3.55V13.78c-.45.41-.91.8-1.37,1.17L7,16A5.52,5.52,0,0,0,6,15a10.43,10.43,0,0,0-1.75-1.06,19.53,19.53,0,0,0,3.67-2.32,32.13,32.13,0,0,0,3.32-3,23.81,23.81,0,0,0,2.57-3.24,11.9,11.9,0,0,0,1.46-3c.26.12.56.23.88.34l.95.33.85.27a5.16,5.16,0,0,0,.59.14c.34.07.52.17.54.29s-.16.3-.57.54a5.55,5.55,0,0,0-.83.72c-.36.36-.74.79-1.15,1.29h8.24l1.78-.06,1.77-.07c.56,0,1-.06,1.42-.11L24.91,12c1.51,0,2.93,0,4.25-.09s2.64-.09,4-.16c-.07.53-.13,1-.16,1.29a9.59,9.59,0,0,0-.06,1.12V31a11,11,0,0,1-.16,2.11A2,2,0,0,1,32,34.36a4,4,0,0,1-1.72.66,26.81,26.81,0,0,1-3.14.36,7.25,7.25,0,0,0-.45-1.85,8.35,8.35,0,0,0-1-1.78c.86.07,1.58.11,2.14.11a4.14,4.14,0,0,0,1.32-.17,1,1,0,0,0,.64-.5,1.89,1.89,0,0,0,.18-.88V26.92ZM21.64,12l2.8-3.53H14.76c-.48.55-1,1.13-1.55,1.73s-1.13,1.2-1.73,1.8Zm-2,8.5h-7.2c0,.72-.06,1.41-.11,2.08s-.11,1.32-.18,1.95h7.49Zm0-6.16H12.46v3.92h7.16Zm2.77,3.92H30V14.36H22.39Zm0,6.27H30v-4H22.39Z"/></g></svg>