<svg xmlns="http://www.w3.org/2000/svg" viewBox="0 0 37 38"><title>radical</title><g id="Layer_2" data-name="Layer 2"><path d="M16,18c-1.11-.08-2.23-.12-3.37-.12H6.33V28.29c0,1.35,0,2.66.07,3.92s.14,2.53.26,3.81H3.25c.13-1.33.21-2.62.25-3.85s0-2.53,0-3.88V7.49c0-.64,0-1.22,0-1.74s0-1,0-1.48c.56.05,1.17.08,1.81.09s1.25,0,1.81,0h5.55c1.14,0,2.26,0,3.37-.11,0,.47-.09,1-.11,1.54s0,1.15,0,1.79v7.11c0,.64,0,1.24,0,1.81S16,17.59,16,18ZM13.21,6.86H6.33V9.93h6.88Zm0,5.44H6.33v3.22h6.88Zm18.5-8c0,.47,0,1-.06,1.61s0,1.23,0,1.87V31.87a10.42,10.42,0,0,1-.14,1.89,1.9,1.9,0,0,1-.73,1.15,4.78,4.78,0,0,1-1.7.72c-.75.18-1.78.39-3.09.61,0-.4-.1-.75-.14-1.07a5,5,0,0,0-.23-.91,8.93,8.93,0,0,0-.37-.89,10,10,0,0,0-.59-1,14.05,14.05,0,0,0,2.18.22,3.2,3.2,0,0,0,1.26-.19,1,1,0,0,0,.58-.51,2.27,2.27,0,0,0,.13-.78v-13H22.68c-1.14,0-2.26,0-3.37.11a10.7,10.7,0,0,0,.15-1.51c0-.57,0-1.17,0-1.82V7.9c0-.64,0-1.28-.06-1.93s-.08-1.19-.13-1.66c1.11.07,2.23.11,3.37.11h5.7C29.49,4.42,30.6,4.38,31.71,4.31ZM28.79,6.94h-6.7v3.14h6.7Zm0,5.44h-6.7v3.25h6.7Z"/></g></svg>