<svg xmlns="http://www.w3.org/2000/svg" viewBox="0 0 37 38"><title>radical</title><g id="Layer_3" data-name="Layer 3"><path d="M18.55,15.45H15.81c-.14.67-.3,1.33-.47,2s-.36,1.36-.57,2.16a5.74,5.74,0,0,0-1.19-.4,6.43,6.43,0,0,0-1.22-.11c.33-.91.63-1.84.88-2.79a23.12,23.12,0,0,0,.56-2.72c.14-1,.24-1.92.3-2.73a17.66,17.66,0,0,0,0-2.41,6.88,6.88,0,0,0,.68.27l.81.21.8.15a5.6,5.6,0,0,0,.63,0c.33,0,.39.14.18.43a2.48,2.48,0,0,0-.38,1c-.13.53-.31,1.4-.52,2.6h2.23V7.27c0-.64,0-1.17,0-1.56s0-.7-.05-.9-.05-.38-.08-.52c.58.07,1.17.13,1.79.18s1.13.07,1.56.07q.33,0,.36.12c0,.09-.06.19-.25.31a1.39,1.39,0,0,0-.76,1.26v6.88c.8,0,1.48,0,2.06-.06s1.1-.09,1.58-.16v2.77l-1.66-.14c-.62,0-1.28-.07-2-.07v6.22c.65-.23,1.28-.47,1.88-.7s1.15-.46,1.65-.7a6.22,6.22,0,0,0-.09,1.21q0,.59.09,1.35L23,23.44c-.6.21-1.23.46-1.88.72v4.28c0,1.47,0,2.83.09,4.11s.15,2.55.27,3.85H18.22c.12-1.3.21-2.58.26-3.85s.07-2.64.07-4.11V25.2l-2.7,1.19a24,24,0,0,0-2.2,1.08,13.92,13.92,0,0,0-.39-1.55c-.15-.43-.36-1-.65-1.62q1.16-.29,2.73-.75c1.06-.32,2.13-.64,3.21-1Z"/></g></svg>