<svg xmlns="http://www.w3.org/2000/svg" viewBox="0 0 37 38"><title>radical</title><g id="Layer_3" data-name="Layer 3"><path d="M15.67,20.41c-.72.79-1.47,1.6-2.25,2.41s-1.5,1.56-2.18,2.23a7.7,7.7,0,0,0-.52-1.58A8.55,8.55,0,0,0,10,22.1,21.46,21.46,0,0,0,14.57,18a32.84,32.84,0,0,0,4.09-6.33h-4c-.93,0-1.68,0-2.25,0s-1.12.09-1.67.16v-3c.31,0,.7.08,1.15.11L13.35,9,15,9.05l1.6,0c1.51,0,2.84,0,4-.07s2-.11,2.65-.18A44.33,44.33,0,0,1,21.14,13a37.61,37.61,0,0,1-2.73,4.14v2.12l1,.54a25.28,25.28,0,0,0,2.05-2c.67-.72,1.29-1.44,1.84-2.16l2.27,1.91a23.5,23.5,0,0,0-4.32,3.31,42,42,0,0,1,4.93,3.6L24,26.85a35,35,0,0,0-5.61-5.79V34.41H15.35c.12-1.15.2-2.19.25-3.13s.07-1.87.07-2.81ZM17,7.85a12.87,12.87,0,0,0-.88-2.06q-.57-1-1.17-2l3.13-1.44a18.45,18.45,0,0,0,1,2.09A20.16,20.16,0,0,0,20.28,6.3Z"/></g></svg>