<svg xmlns="http://www.w3.org/2000/svg" viewBox="0 0 37 38"><title>radical</title><g id="Layer_2" data-name="Layer 2"><path d="M15,24A15.36,15.36,0,0,1,14,28.2a8.73,8.73,0,0,1-2.16,3.18A13.34,13.34,0,0,1,8,33.82a38.05,38.05,0,0,1-5.94,2,8,8,0,0,0-.52-1.59,6.68,6.68,0,0,0-1-1.48,27.58,27.58,0,0,0,4.64-.83,11,11,0,0,0,3.5-1.61,7.58,7.58,0,0,0,2.27-2.55A9.14,9.14,0,0,0,12,24q-2,0-3.57.09c-1.07,0-2,.09-2.76.17a5.54,5.54,0,0,0,.06-.69c0-.28,0-.6,0-1s0-.73,0-1.11,0-.76,0-1.13V7.76c0-.72,0-1.45,0-2.21a16.78,16.78,0,0,0-.11-1.68A14.09,14.09,0,0,0,7.23,4l2.69.1c1,0,2.16.06,3.38.07l3.72,0,3.9,0c1.25,0,2.37,0,3.37-.07L26.86,4a13.74,13.74,0,0,0,1.56-.11c-.05.4-.09,1-.12,1.7s0,1.47,0,2.19V20.41c0,.72,0,1.43,0,2.15s.07,1.29.12,1.74c-.87-.08-1.87-.13-3-.17s-2.32-.07-3.55-.09v4.84A11.93,11.93,0,0,0,22,30.53a1.31,1.31,0,0,0,.54.93,2.79,2.79,0,0,0,1.33.4c.59.06,1.42.09,2.48.09.88,0,1.59,0,2.12-.07a2.81,2.81,0,0,0,1.28-.39,1.86,1.86,0,0,0,.72-1,14.28,14.28,0,0,0,.5-1.89c.32.2.61.37.85.5a5.84,5.84,0,0,0,.76.36c.26.09.54.18.83.25s.66.15,1.08.23a18.25,18.25,0,0,1-1,2.49A3.11,3.11,0,0,1,32.1,33.8a5.57,5.57,0,0,1-2.21.56c-.91.07-2.14.11-3.69.11s-3,0-3.95-.15a4.55,4.55,0,0,1-2.14-.65,2.19,2.19,0,0,1-.91-1.42A13.89,13.89,0,0,1,19,29.73V24ZM25.27,6.65H8.69V10H25.27Zm0,5.73H8.69v3.41H25.27Zm0,5.77H8.69v3.56H25.27Z"/></g></svg>