<svg xmlns="http://www.w3.org/2000/svg" viewBox="0 0 37 38"><title>radical</title><g id="Layer_2" data-name="Layer 2"><path d="M20.24,16.1l6,0c.79,0,1.44,0,2,0S29.29,16,29.86,16c-.05.44-.09.93-.11,1.48s0,1.12,0,1.74v6.43c0,.62,0,1.21,0,1.76s.06,1,.11,1.46c-1.19-.07-2.38-.11-3.59-.11h-6v4.7h6.88a5.71,5.71,0,0,0,1.35-.13,1.66,1.66,0,0,0,.85-.48,2.11,2.11,0,0,0,.46-1A11.87,11.87,0,0,0,30,30.05a6.37,6.37,0,0,0,1.48,1.4,5.84,5.84,0,0,0,1.7.74c-.42.77-.79,1.38-1.09,1.83a5.18,5.18,0,0,1-.93,1.08,2.9,2.9,0,0,1-1.07.57,10.25,10.25,0,0,1-1.54.3,17,17,0,0,1-1.9.09l-3.18,0q-1.8,0-3.72-.06c-1.29,0-2.46-.09-3.52-.16A14,14,0,0,1,14,35.58,3.39,3.39,0,0,1,12.62,35,1.71,1.71,0,0,1,12,34a6.19,6.19,0,0,1-.15-1.48V28.75H5.4c-1.21,0-2.4,0-3.59.11.05-.42.09-.9.13-1.46S2,26.26,2,25.64V19.21q0-.93-.06-1.74c0-.55-.08-1-.13-1.48.59,0,1.19.08,1.8.11l1.79,0,6.44,0v-3H6.7c-1.14,0-2.08,0-2.82,0s-1.29,0-1.66.05a14.45,14.45,0,0,0,.22-1.81c.05-.72.07-1.44.07-2.18s0-1.47-.07-2.17a14.32,14.32,0,0,0-.22-1.79c1,0,1.91.08,2.77.09l2.82.05c1,0,2.17,0,3.47,0h9.44c1.28,0,2.42,0,3.42,0l2.76-.05q1.26,0,2.7-.09c-.05.49-.09,1.09-.11,1.79s0,1.44,0,2.2,0,1.47,0,2.19.06,1.32.11,1.81c-.37,0-.93-.05-1.68-.08s-1.69,0-2.8,0H20.24ZM4.59,18.39v2.7h7.25v-2.7Zm0,7.92h7.25v-3H4.59ZM5.14,7.7v3.14h6.7V7.7Zm12.43,0H14.5V31.49a4.85,4.85,0,0,0,.08,1A.87.87,0,0,0,15,33a2.14,2.14,0,0,0,.92.27c.42.05,1,.09,1.7.11Zm2.67,3.14h6.55V7.7H20.24Zm0,10.25h6.84v-2.7H20.24Zm0,5.22h6.84v-3H20.24Z"/></g></svg>