<svg xmlns="http://www.w3.org/2000/svg" viewBox="0 0 37 38"><title>radical</title><g id="Layer_2" data-name="Layer 2"><path d="M22.87,30.5c1.18-.79,2.28-1.56,3.29-2.3A22.25,22.25,0,0,0,28.75,26a7.34,7.34,0,0,0,2,1.89c.2.12.26.27.19.44s-.27.26-.59.26a1.27,1.27,0,0,0-.47.15,8,8,0,0,0-.88.52l-1.47.94c-.59.38-1.3.87-2.14,1.46a21.49,21.49,0,0,0,3.2,1,34.39,34.39,0,0,0,3.5.6,6.75,6.75,0,0,0-1.24,1.46,6.44,6.44,0,0,0-.8,1.68,46.42,46.42,0,0,1-5-1.74A23.46,23.46,0,0,1,21,32.51a20.53,20.53,0,0,1-3.35-2.72,28.75,28.75,0,0,1-3-3.51h-5V32.9c.93-.19,1.9-.43,2.9-.72s2.11-.62,3.35-1a4.47,4.47,0,0,0-.3,2.67l-6.1,1.26a27.24,27.24,0,0,0-2.89.85,6.65,6.65,0,0,0-1.74.85,15.53,15.53,0,0,0-.51-1.63,7.5,7.5,0,0,0-.6-1.26c1-.12,2.06-.27,3.07-.44V15.37c-.66.44-1.35.87-2,1.29s-1.41.8-2.13,1.15a7.64,7.64,0,0,0-1.14-1.26,15.73,15.73,0,0,0-1.26-1A26.94,26.94,0,0,0,5,13.11,37.82,37.82,0,0,0,9.42,9.8,35.5,35.5,0,0,0,13,6.15a16.89,16.89,0,0,0,2.35-3.44h3.55a14.42,14.42,0,0,0,2.69,3.83,21.82,21.82,0,0,0,3.86,3.2A22.9,22.9,0,0,0,30,12.05a19.24,19.24,0,0,0,4.7,1.17,5.52,5.52,0,0,0-1.29,1.55,7.77,7.77,0,0,0-.71,2,23.8,23.8,0,0,1-2.51-1c-.87-.39-1.72-.81-2.56-1.26a7.87,7.87,0,0,0-.07,1.11v7.29c0,.55,0,1.1.06,1.67a17.85,17.85,0,0,0,.2,1.81l-1.22-.05c-.44,0-1,0-1.78,0l-2.81,0H17.68a18.25,18.25,0,0,0,2.41,2.33A21.89,21.89,0,0,0,22.87,30.5Zm-5.55-25a45.81,45.81,0,0,1-7.92,8c1.13.05,2.39.09,3.77.11s2.74,0,4.07,0c1.48,0,3,0,4.51-.06s2.87-.08,4-.13a39,39,0,0,1-5-3.77A18.58,18.58,0,0,1,17.32,5.49Zm7.21,10.43H9.66v2.85H24.53Zm0,5H9.66V24H24.53Zm-9.21-8A6.94,6.94,0,0,0,15,11.39a7,7,0,0,0-.55-1.32l4-.88c.15.54.28,1,.4,1.49a13.48,13.48,0,0,0,.49,1.43Z"/></g></svg>