<svg xmlns="http://www.w3.org/2000/svg" viewBox="0 0 37 38"><title>radical</title><g id="Layer_2" data-name="Layer 2"><path d="M16.28,6.05c-.17-.49-.4-1.07-.67-1.75a13.23,13.23,0,0,0-.77-1.65l3.95-.74c.2.49.45,1.14.75,1.94s.55,1.54.77,2.2q4.29,0,7.48-.07c2.12-.05,4-.13,5.66-.26V8.87c-1,0-2-.1-3.13-.13l-3.57-.1-4.22-.05-5,0-5,0-4.22.05-3.57.1c-1.1,0-2.14.08-3.13.13V5.72c1.78.13,3.85.21,6.22.26S13,6.05,16.28,6.05ZM9.66,34.73H6.25c.08-.57.13-1.09.15-1.57s0-1,0-1.69V25.52c0-.67,0-1.29-.06-1.85a9.5,9.5,0,0,0-.13-1.19,9.5,9.5,0,0,0,1.09.1l1.85.05c.81,0,1.86,0,3.17,0H22.42c1.31,0,2.37,0,3.18,0l1.89-.05a9.68,9.68,0,0,0,1.11-.1,9.73,9.73,0,0,0-.13,1.2c0,.58,0,1.2,0,1.84v5.55c0,.61,0,1.17,0,1.66s.08,1,.13,1.59H25.2V32.1H9.66ZM28.34,19.78l-2.18-.09c-.77,0-1.59-.07-2.48-.09s-1.85-.05-2.89-.06l-3.44,0q-3.74,0-6.32.08c-1.73,0-3.27.11-4.63.18v-3c.69,0,1.42.1,2.18.13s1.59.07,2.48.08L14,17h6.84l2.89,0c.89,0,1.71,0,2.48-.08s1.49-.08,2.18-.13Zm.08-5.44-2.19-.09c-.76,0-1.59-.07-2.48-.09s-1.85,0-2.88-.06l-3.44,0c-2.5,0-4.6,0-6.33.08s-3.27.11-4.63.18v-3q1,.08,2.19.12c.76,0,1.59.07,2.48.08l2.88,0h6.85l2.88,0c.89,0,1.72,0,2.48-.08s1.49-.07,2.19-.12ZM25.2,25.11H9.66v4.51H25.2Z"/><path d="M54.61,12.49a13.84,13.84,0,0,1-2.07,2.43,34.32,34.32,0,0,1-3.28,2.73,47.64,47.64,0,0,1-4.32,2.85q-2.43,1.42-5.28,2.76c-.12-.2-.28-.43-.48-.7s-.42-.55-.66-.84-.51-.56-.78-.83a5.48,5.48,0,0,0-.78-.66,19.9,19.9,0,0,0,5.4-1.78,27.64,27.64,0,0,0,4.83-3A25.32,25.32,0,0,0,51,11.81a18,18,0,0,0,2.5-3.72,14.37,14.37,0,0,0,1.87,1A7,7,0,0,0,57,9.68c.27.05.42.15.46.3s-.14.29-.54.44l-.2.11-.28.15A18.41,18.41,0,0,0,59.55,14a19.32,19.32,0,0,0,3.57,2.35A22.49,22.49,0,0,0,67.26,18a39.91,39.91,0,0,0,4.78,1,11.33,11.33,0,0,0-1.15,1.87,13.56,13.56,0,0,0-.78,1.94,38.13,38.13,0,0,1-4.82-1.85A32.49,32.49,0,0,1,61,18.5a25.9,25.9,0,0,1-3.62-2.83A17.82,17.82,0,0,1,54.61,12.49ZM52.39,4.76c.22,0,.31.17.26.35s-.22.33-.52.43a2.81,2.81,0,0,0-.76.44c-.33.25-.83.67-1.49,1.26S48.35,8.65,47.29,9.7s-2.41,2.4-4,4.05A4.79,4.79,0,0,0,42.6,13a7.13,7.13,0,0,0-.83-.7,8.06,8.06,0,0,0-.89-.59,3.51,3.51,0,0,0-.77-.37,18.82,18.82,0,0,0,2.77-1.82,29.34,29.34,0,0,0,2.57-2.25A30.21,30.21,0,0,0,47.6,4.93a19.56,19.56,0,0,0,1.5-2.09A10.74,10.74,0,0,0,51,4.13,6.51,6.51,0,0,0,52.39,4.76ZM47.88,35.84H44.55c.12-.86.21-1.67.26-2.41s.07-1.52.07-2.36V21.26H64.23c0,.37-.09.78-.11,1.24s0,.93,0,1.43V31c0,.84,0,1.56.08,2.15s.13,1.28.26,2.07H61V33H47.88ZM61,23.78H47.88V30.4H61Zm5.55-11.44a46.44,46.44,0,0,0-4.2-3.83,32.42,32.42,0,0,0-4.35-3l2.08-2.37c.88.57,1.71,1.11,2.48,1.63s1.51,1,2.23,1.55L67,7.94c.74.54,1.51,1.14,2.33,1.78Z"/></g></svg>