<svg xmlns="http://www.w3.org/2000/svg" viewBox="0 0 37 38"><title>radical</title><g id="Layer_2" data-name="Layer 2"><path d="M10.21,22a34.41,34.41,0,0,1-1.48,7.9,22.82,22.82,0,0,1-3.11,6.46,7.33,7.33,0,0,0-1.46-1.11,9.53,9.53,0,0,0-1.61-.71,16,16,0,0,0,2.22-2.79,13.58,13.58,0,0,0,1.5-3.29,22.88,22.88,0,0,0,.85-4.11,42,42,0,0,0,.28-5.16V10.08c0-1.11,0-2.27-.07-3.48q3.28-.1,6.64-.44t6.29-.8c2-.3,3.71-.65,5.25-1A15.9,15.9,0,0,0,29,3.12a7.59,7.59,0,0,0,1,1.63A9.7,9.7,0,0,0,31.6,6.34a.67.67,0,0,1,.24.74c-.09.3-.35.39-.8.26a6.28,6.28,0,0,0-1.14-.2,12.3,12.3,0,0,0-1.52,0c-.59,0-1.29.08-2.09.17s-1.76.2-2.87.35c-1.58.2-3.4.38-5.48.55s-4.58.35-7.54.52v2.74c1,0,2.3,0,3.88,0l6.14,0h5.09l3.26,0c.85,0,1.54,0,2.09,0l1.59-.08a6.34,6.34,0,0,0-.22,1.15,15.37,15.37,0,0,0-.08,1.74v5.7c0,.79,0,1.51,0,2.16a22.2,22.2,0,0,0,.22,2.28H29.34V22Zm19.13-2.66V13.93h-19v5.44Z"/></g></svg>