<svg xmlns="http://www.w3.org/2000/svg" viewBox="0 0 37 38"><title>radical</title><g id="Layer_6" data-name="Layer 6"><path d="M17.79,6.67a14,14,0,0,0-.56-1.85,13.26,13.26,0,0,0-.81-1.75l3.67-.75c.2.72.4,1.44.62,2.18s.42,1.45.61,2.17c2.52,0,4.74-.06,6.68-.1s3.63-.12,5.09-.22V9.48q-2.78-.21-6.69-.32a23.12,23.12,0,0,1-2.51,4.19,19.06,19.06,0,0,1-3.15,3.26,23.62,23.62,0,0,0,5.89,1.46,43.63,43.63,0,0,0,7.47.2,7,7,0,0,0-1.15,2,6.28,6.28,0,0,0-.47,1.86,50.47,50.47,0,0,1-8.16-1.48,33,33,0,0,1-6.13-2.27A27.5,27.5,0,0,1,11.91,21,69.64,69.64,0,0,1,4,22.73,9.13,9.13,0,0,0,3.28,21a8.66,8.66,0,0,0-.9-1.44,57.83,57.83,0,0,0,7.2-1,27.13,27.13,0,0,0,5.87-1.91,25,25,0,0,1-5.25-5.11L13,10.17A16.61,16.61,0,0,0,15.18,13,13.23,13.23,0,0,0,18,15.24a15.78,15.78,0,0,0,5.33-6.12h-10c-1.1,0-2.47,0-4.1.09s-3.31.15-5,.27V6.35c1.65.12,3.6.2,5.83.25S14.81,6.67,17.79,6.67ZM15.56,22.26a1.55,1.55,0,0,0-.27.69A14.77,14.77,0,0,0,15,24.6a32.13,32.13,0,0,1-.63,3.76,10.07,10.07,0,0,1-1.12,2.81,9.71,9.71,0,0,1-2,2.34,23,23,0,0,1-3.22,2.32,15.75,15.75,0,0,0-1.73-1.26,13,13,0,0,0-2-1,16.17,16.17,0,0,0,4-2A8.47,8.47,0,0,0,10.74,29a8.45,8.45,0,0,0,1-3.26,20.19,20.19,0,0,0,0-4.12,13.49,13.49,0,0,0,1.64.21,11.06,11.06,0,0,0,1.82,0c.33,0,.52,0,.55.08S15.75,22.07,15.56,22.26Zm10.51.4a.69.69,0,0,0-.29.38,2.61,2.61,0,0,0-.07.73V33c0,.48,0,1,.05,1.55A12.32,12.32,0,0,0,26,36h-3.7a10.4,10.4,0,0,0,.21-1.45c.05-.59.07-1.13.07-1.61V26c0-.79,0-1.59-.07-2.39s-.1-1.39-.14-1.75c.5.05,1.1.09,1.78.13s1.26,0,1.75,0c.33,0,.53,0,.59.14S26.38,22.47,26.07,22.66Z"/></g></svg>