<svg xmlns="http://www.w3.org/2000/svg" viewBox="0 0 37 38"><title>radical</title><g id="Layer_2" data-name="Layer 2"><path d="M11.84,20.2c0,.56,0,1.11.05,1.63s0,1,.1,1.4a14.41,14.41,0,0,0-1.67-.07H4.92c-.54,0-1,0-1.31,0l-.8,0-.63.06V21.08l.63.06.65,0,.85,0H9.47v-1H4.4l-1.85,0A14.8,14.8,0,0,0,1,20.31v-2c.54.05,1.07.08,1.59.1H9.47v-1H3.81l-.89,0-.77.06V15.17c.29,0,.56.08.81.09l.87.05c.33,0,.75,0,1.26,0H8.75c.48,0,.91,0,1.28,0l1-.05c.31,0,.63,0,1-.09-.05.41-.08.9-.1,1.46s0,1.14-.05,1.75H14V14H8.62C7,14,5.7,14,4.81,14.09c.05-.42.09-.93.13-1.53s0-1.42,0-2.43c-.34.3-.7.59-1.07.87l-1.07.83A9.22,9.22,0,0,0,1.15,10a22.47,22.47,0,0,0,4-3.09A20.21,20.21,0,0,0,8.69,1.92a9.44,9.44,0,0,0,2.93,1c.27.05.4.17.4.35a.47.47,0,0,1-.33.43,4.47,4.47,0,0,0-1.22.92h9.21l1.59,0L23,4.47c.57,0,1.09,0,1.58-.09l1.12-.09L22.87,8.06h1.88c.69,0,1.4,0,2.11,0L29,8,30.93,8c-.05.39-.09.82-.11,1.28s0,1,0,1.53c0,.84,0,1.51,0,2s.06,1,.11,1.35c-.39-.05-.81-.09-1.26-.11s-.92,0-1.44,0h-7v1.33h7.25q1.08,0,1.8,0l1.35-.11a3.88,3.88,0,0,0-.1.61c0,.21,0,.58,0,1.12V27.82c0,.39,0,.79,0,1.2a5.16,5.16,0,0,0,.1.91c-.45-.05-1-.09-1.52-.13s-1.09-.06-1.55-.06H21.2v3.59H28a3,3,0,0,0,2.18-.66,4.94,4.94,0,0,0,1-2.45,4.49,4.49,0,0,0,1.44,1.15A7.09,7.09,0,0,0,34.3,32a12,12,0,0,1-1,1.8,5,5,0,0,1-1.09,1.14,3.32,3.32,0,0,1-1.29.6,7.51,7.51,0,0,1-1.65.16H18.68a13.86,13.86,0,0,1-2.38-.16,3.37,3.37,0,0,1-1.43-.56,1.93,1.93,0,0,1-.7-1A5.86,5.86,0,0,1,14,32.33V29.45H11.62c0,.61,0,1.21.05,1.79s.05,1.15.1,1.72l-.87-.11L10,32.78c-.34,0-.74,0-1.22,0H5.33c-.45,0-.85,0-1.22,0l-1,.07c-.31,0-.62.06-.94.11v-2.4l.61.07c.18,0,.38,0,.61.06l.79,0H9.4V29.45H3.92c-.69,0-1.29,0-1.79,0s-1,0-1.43.09V27.34c.5.05,1,.08,1.5.09l1.72,0H9.4v-1H3.75l-.83,0-.7.06V24.27c.3.05.57.08.83.11l.89.07c.33,0,.73,0,1.2,0H8.82c.48,0,.89,0,1.22,0l.89-.07c.26,0,.54-.06.84-.11,0,.47-.09,1-.1,1.5s0,1.09-.05,1.68H14V20.2Zm-3-13.73c-.28.27-.54.54-.78.8s-.5.52-.74.79H19.87L21,6.47ZM14,10.13H7.69v1.52H14Zm4.67,8.25V10.13h-2v8.25Zm-2,1.82v7.25h2V20.2Zm0,9.25c0,.91,0,1.62,0,2.12A3.51,3.51,0,0,0,17,32.72a.82.82,0,0,0,.59.48,6.5,6.5,0,0,0,1.08.13V29.45ZM21.2,11.69H28V10.13H21.2Zm5.4,10.25,1.15,1.35,1.11,1.31-2.15,1.92c-.24-.46-.5-.91-.76-1.35s-.54-.88-.87-1.35c-.46.57-.92,1.14-1.36,1.72s-.84,1.13-1.19,1.65a7.1,7.1,0,0,0-.63-1,3.23,3.23,0,0,0-.7-.68V27.3H29V17.61H26.6a9.41,9.41,0,0,0,1,.9,8.32,8.32,0,0,0,1,.65c.2.13.3.25.3.39s-.15.3-.45.5a6.12,6.12,0,0,0-.74.68C27.39,21.07,27,21.47,26.6,21.94Zm-5.4,2.7c.49-.42.95-.84,1.37-1.26s.81-.84,1.18-1.26c-.34-.47-.7-.91-1.07-1.33s-.81-.9-1.33-1.44l1.52-1.6c.41.47.8.91,1.16,1.3l1,1.18A13.63,13.63,0,0,0,25.83,19c.22-.43.43-.88.62-1.35H21.2Z"/></g></svg>