<svg xmlns="http://www.w3.org/2000/svg" viewBox="0 0 37 38"><title>radical</title><g id="Layer_2" data-name="Layer 2"><path d="M7.14,15.27v19.9h-3c.09-1.33.17-2.78.22-4.36s.07-3.23.07-5V17.19c0-.32,0-.69,0-1.11s0-.84,0-1.28-.06-.83-.09-1.22-.07-.7-.1-1c.72.08,1.67.14,2.85.19s2.39.07,3.63.07h1.44V7.94c-.81,0-1.69,0-2.64,0L6.66,8,4.2,8.09l-1.8.07V4.91q.83.11,2.46.18c1.1,0,2.35.09,3.76.13s2.88.06,4.42.08h9.2c1.57,0,3,0,4.4-.08s2.55-.08,3.59-.13S32,5,32.56,4.91V8.16c-.35,0-.88-.05-1.61-.07L28.51,8,25.64,8c-1,0-2,0-2.89,0v4.92h1.59c1.21,0,2.35,0,3.41-.07s2-.11,2.7-.19a9.25,9.25,0,0,0-.11,1c0,.39,0,.81-.06,1.24s0,.85,0,1.26,0,.77,0,1.09v8.21c0,1.73,0,3.38.09,4.94s.14,3,.24,4.39H27.49V15.27H22.75v11c0,1.09,0,1.95,0,2.58s.08,1.17.15,1.64H20.13V27.22H14.69v4H11.88C12,30.66,12,30,12,29.4s0-1.43,0-2.37V15.27Zm13-2.41V7.94H14.69v4.92Zm-5.44,2.41v9.8h5.44v-9.8Z"/></g></svg>