<svg xmlns="http://www.w3.org/2000/svg" viewBox="0 0 37 38"><title>radical</title><g id="Layer_2" data-name="Layer 2"><path d="M13.69,12.35c0,.4-.1.81-.15,1.24s-.09.92-.13,1.46-.07,1.15-.11,1.82-.07,1.42-.09,2.25a4,4,0,0,1-.5,1.89A2.79,2.79,0,0,1,11,22a1,1,0,0,1-.22.48,2.11,2.11,0,0,0-.24.78c-.06.37-.12.8-.17,1.29h15a12,12,0,0,0-.11-1.62,2.91,2.91,0,0,0-.26-1c.59.07,1.16.12,1.72.14s1.08,0,1.57,0,.54.06.59.19-.06.31-.33.55a1.05,1.05,0,0,0-.22.54,9,9,0,0,0-.08,1.46V32q0,1.08.06,2.13t.24,2.31H25.12c0-.39.05-.74.08-1s.05-.63.07-1,0-.72,0-1.17V31.56H9.36a9.39,9.39,0,0,1-1.63,2.36,18.16,18.16,0,0,1-3,2.56,6,6,0,0,0-1.29-1.24A4.72,4.72,0,0,0,2,34.52a12.87,12.87,0,0,0,2.82-1.85A7.86,7.86,0,0,0,6.6,30.41a8.45,8.45,0,0,0,.84-2.81,21.12,21.12,0,0,0,.07-3.52q-.07-1-.15-1.5t-.15-.87l1.06.12.76,0a4.75,4.75,0,0,0-.47-1.29,5.25,5.25,0,0,0-.68-.93,13.14,13.14,0,0,0,1.41.06,1.64,1.64,0,0,0,.79-.19.77.77,0,0,0,.37-.5,4.24,4.24,0,0,0,.13-.89c.05-.69.09-1.28.11-1.79s.05-1.18.08-2H8a16.77,16.77,0,0,1-.46,3.06,10.67,10.67,0,0,1-1,2.4,9.21,9.21,0,0,1-1.46,2,25.21,25.21,0,0,1-1.89,1.78,6.37,6.37,0,0,0-1.14-1.21A6.32,6.32,0,0,0,.7,21.53a8.92,8.92,0,0,0,2.5-1.76,7.87,7.87,0,0,0,1.46-2,7.58,7.58,0,0,0,.59-1.53,10.12,10.12,0,0,0,.26-1.91c-.39,0-.86,0-1.4,0s-1.07.06-1.56.11V12l.83.07,1,.06h7.1l1,0c.28,0,.56,0,.83-.06a9,9,0,0,0-1.74-1.62L14,9.06a9.91,9.91,0,0,1,1.46,1.28c.48.5,1,1.09,1.57,1.75l-2.55,1.52L14.06,13C13.94,12.75,13.81,12.55,13.69,12.35ZM16.24,14a12,12,0,0,0,1-1.07c.35-.42.68-.87,1-1.33s.62-.93.89-1.39.51-.9.7-1.31H14.17q-3.7,0-6.64.07c-2,.05-3.88.13-5.76.26v-3c1,.07,2,.13,3.06.17l3.49.11c1.26,0,2.63.06,4.11.07l4.88,0,4.89,0c1.48,0,2.85,0,4.11-.07l3.47-.11c1.06,0,2.08-.1,3-.17v3C31.09,9.08,29.25,9,27.31,9s-4.24-.07-6.85-.07c.32.19.63.39.94.59s.58.36.8.48c.42.22.64.4.67.53s-.17.33-.56.58c-.17.1-.34.2-.5.31a7.28,7.28,0,0,0-.61.5c-.25.22-.56.51-.94.87s-.87.83-1.47,1.43a1.76,1.76,0,0,0-.22.48,4.34,4.34,0,0,0-.07,1v4.18c0,.47,0,1,0,1.57s0,1.15.09,1.72H15.39a14.58,14.58,0,0,0,.26-1.68c0-.56.07-1.07.07-1.54V16.72c0-1,0-1.63-.05-2a2.56,2.56,0,0,0-.21-.85Zm9.07,12.73h-15c0,.49-.06,1-.1,1.39a8.66,8.66,0,0,1-.2,1.31H25.31ZM16.17,6.43A10.23,10.23,0,0,0,14.76,3l3.41-.74c.32.59.59,1.17.83,1.74s.44,1.1.61,1.59ZM28,13.61a8.79,8.79,0,0,0,.68,2.24,6.92,6.92,0,0,0,1.21,1.78,8.63,8.63,0,0,0,1.83,1.46,19.78,19.78,0,0,0,2.57,1.29,6.08,6.08,0,0,0-1.39,1,12.42,12.42,0,0,0-1.24,1.44A16.08,16.08,0,0,1,29.32,21a11.92,11.92,0,0,1-1.68-2,10.76,10.76,0,0,1-1.15-2.27,15.42,15.42,0,0,1-.7-2.74c-.42.07-.83.15-1.24.24s-.76.16-1.06.24v4.4c.6-.27,1.11-.52,1.54-.76s.73-.41.91-.53a5.06,5.06,0,0,0,.31,1.2,3.78,3.78,0,0,0,.57,1L23.2,21.57a11,11,0,0,0-2,1.33,8.3,8.3,0,0,0-1.78-2.3c.27-.09.53-.19.78-.29L21,20V15.5c0-.57,0-1.12,0-1.65a7.33,7.33,0,0,0-.1-1.13c.87-.12,1.66-.25,2.39-.39s1.45-.29,2.17-.48,1.44-.4,2.18-.64,1.54-.53,2.4-.85c.25.32.55.69.91,1.12a10.92,10.92,0,0,0,.8.91c.27.27.37.47.29.59s-.34.21-.81.26L30,13.35C29.37,13.4,28.72,13.49,28,13.61Z"/></g></svg>