<svg xmlns="http://www.w3.org/2000/svg" viewBox="0 0 37 38"><title>radical</title><g id="Layer_2" data-name="Layer 2"><path d="M9.77,28.44a18.75,18.75,0,0,1-1.48,4A25,25,0,0,1,6,36a6.13,6.13,0,0,0-1.29-1.2,10,10,0,0,0-1.86-.94,13.06,13.06,0,0,0,2.17-2.55,16.62,16.62,0,0,0,1.57-3.09,18.68,18.68,0,0,0,1-3.45,22,22,0,0,0,.31-3.64V13.2c-.49.46-1,.92-1.5,1.35s-1,.82-1.46,1.16A5.63,5.63,0,0,0,4,14.6a8.27,8.27,0,0,0-1.72-1.07A22.07,22.07,0,0,0,6,11.2a27.09,27.09,0,0,0,3.35-3,21,21,0,0,0,2.57-3.33,11.31,11.31,0,0,0,1.43-3.22,8,8,0,0,0,.88.36l1,.31.9.28a4.9,4.9,0,0,0,.69.16c.34.08.53.18.55.3s-.17.31-.59.56a4.84,4.84,0,0,0-1.07.85A16.87,16.87,0,0,0,14.5,5.76H22l1.56,0,1.83-.06,1.81-.07c.58,0,1.07-.06,1.46-.11l-4.92,6.22q2.49,0,4.68-.06c1.47,0,2.9-.1,4.28-.2-.1.54-.16,1-.19,1.33s0,.73,0,1.15V31.21a10.56,10.56,0,0,1-.19,2.17,2.07,2.07,0,0,1-.81,1.29,4.48,4.48,0,0,1-1.84.69,30.92,30.92,0,0,1-3.23.37A7.63,7.63,0,0,0,26,33.82,9.1,9.1,0,0,0,25,32a19.62,19.62,0,0,0,2.3.26,4.28,4.28,0,0,0,1.4-.13,1.17,1.17,0,0,0,.73-.55,2.38,2.38,0,0,0,.2-1.06V28.44ZM20.46,11.72,23.24,8H12.76c-.49.59-1,1.19-1.59,1.81S10,11.07,9.4,11.72Zm-2.11,9.47H10.69c0,.91-.07,1.77-.13,2.57s-.15,1.56-.27,2.27h8.06Zm0-7H10.73v4.63h7.62Zm2.81,4.63H29.6V14.23H21.16Zm0,7.17H29.6V21.19H21.16Z"/></g></svg>