<svg xmlns="http://www.w3.org/2000/svg" viewBox="0 0 37 38"><title>radical</title><g id="Layer_2" data-name="Layer 2"><path d="M34.93,31c-.18.39-.37.85-.6,1.37s-.46,1.07-.74,1.66a4.57,4.57,0,0,1-1.14,1.63,1.54,1.54,0,0,1-1.33.37A2.76,2.76,0,0,1,29.67,35a11.7,11.7,0,0,1-1.51-2.64,12.09,12.09,0,0,1-.73-2.78A42.63,42.63,0,0,1,27,25q-.13-2.85-.15-7.11t.05-10.36H7.55c0,2,0,3.94,0,5.83s-.06,3.58-.1,5.09-.08,2.76-.14,3.77-.11,1.64-.13,1.89c-.18,1.33-.38,2.52-.61,3.57a26.44,26.44,0,0,1-.85,3,18,18,0,0,1-1.23,2.68A22.84,22.84,0,0,1,2.74,36a4.44,4.44,0,0,0-1-1.59A6.55,6.55,0,0,0,0,33.27a7.19,7.19,0,0,0,1.64-1.66A12,12,0,0,0,3,29.31a18.6,18.6,0,0,0,.92-2.6A14.15,14.15,0,0,0,4.4,24.1c.1-1,.18-2.38.24-4s.11-3.4.13-5.25,0-3.67,0-5.46S4.65,6,4.55,4.71c.52,0,1.23.09,2.13.13s1.91.07,3.05.09,2.35,0,3.66.06h8c1.31,0,2.52,0,3.65-.06s2.12,0,3-.09,1.61-.08,2.15-.13a14.26,14.26,0,0,0-.17,1.44c0,.52-.07,1.2-.11,2s-.07,1.9-.09,3.18-.05,2.9-.08,4.85c0,2.46,0,4.52,0,6.16s0,3,.11,4.1a22,22,0,0,0,.31,2.67A8.36,8.36,0,0,0,30.75,31a5.1,5.1,0,0,0,.37.67c.09.14.18.17.26.07A2.38,2.38,0,0,0,31.6,31c.07-.36.15-.9.22-1.61a7.25,7.25,0,0,0,1.39,1A8.68,8.68,0,0,0,34.93,31ZM22,29.13a9.3,9.3,0,0,0-1.22-1.48l2.33-1.41c.72,1,1.4,2.08,2,3.11s1.32,2.22,2,3.55l-3,1.41a11.54,11.54,0,0,0-1-3L13,32.42a18.51,18.51,0,0,0-2,.3,11.61,11.61,0,0,0-2,.55,9.75,9.75,0,0,0-1.11-3.33L9.6,30c.56,0,1.14,0,1.76,0s1.28-.06,2-.11l2.47-.19V25.17q-1.74,0-3.36.06c-1.09,0-2,.08-2.59.13,0-.69.09-1.45.13-2.28s0-1.66,0-2.5,0-1.62,0-2.42-.06-1.56-.11-2.28c.64,0,1.5.1,2.59.15s2.2.08,3.36.08V13c-1.55,0-2.84,0-3.88.05s-1.9.1-2.59.17V10.44c.81.1,1.83.17,3.05.21s2.73,0,4.54,0c.71,0,1.43,0,2.16,0l2.11,0,1.87-.07q.84,0,1.44-.12v2.78a57.32,57.32,0,0,0-6-.22v3.11q1.89,0,3.48-.06c1.06,0,1.94-.09,2.66-.17-.05.72-.09,1.47-.11,2.26s0,1.6,0,2.44,0,1.64,0,2.46.06,1.6.11,2.32c-.72-.05-1.61-.1-2.68-.13s-2.23-.06-3.46-.06v4.29ZM15.83,18.44H12.69v4.47h3.14Zm2.67,4.47h3.33V18.44H18.5Z"/></g></svg>