<svg xmlns="http://www.w3.org/2000/svg" viewBox="0 0 37 38"><title>radical</title><g id="Layer_2" data-name="Layer 2"><path d="M24.49,6.21c1.43,0,2.59,0,3.48,0s1.76-.1,2.63-.17V8.76c-.87-.07-1.68-.13-2.44-.16s-1.74-.06-2.93-.06H20.09v3.15c1,0,2.13,0,3.44,0l3.94-.07,3.7-.1c1.15,0,2.06-.08,2.72-.13v2.93l-2.57-.11c-1-.05-2.16-.09-3.4-.12L24,14c-1.4,0-2.81,0-4.24,0H13.58a8.49,8.49,0,0,0,1.92.6c.32.05.5.12.52.22s-.1.2-.37.29a4.4,4.4,0,0,0-.61.37,4.51,4.51,0,0,0-.72.63,13.55,13.55,0,0,1,1.79,1.5c.56.56,1.12,1.16,1.69,1.8l-2.15,1.51a12.61,12.61,0,0,0-1.05-1.64,16.17,16.17,0,0,0-1.35-1.54c-.55.84-1,1.55-1.45,2.13s-.78,1.05-1.07,1.42a3.88,3.88,0,0,0-1-.48,7.59,7.59,0,0,0-1.59-.26,26.2,26.2,0,0,0,2.77-3.22,16.74,16.74,0,0,0,1.89-3.33L8.58,14c-1.21,0-2.27,0-3.2.06s-1.73.06-2.42.11l-1.89.15V11.35a57.84,57.84,0,0,0,6.7.34V8c0-.59,0-1.07,0-1.46s0-.69,0-.94a3.2,3.2,0,0,0-.24-1.18c.64.12,1.2.2,1.67.24a15,15,0,0,0,1.66,0c.35,0,.54.08.58.23s-.1.32-.39.51a1.15,1.15,0,0,0-.45,1.08v5.18h6.77V6.06c0-.52,0-.95,0-1.31s0-.67,0-.94a7,7,0,0,0-.07-.73A4.63,4.63,0,0,0,17,2.47a12.73,12.73,0,0,0,1.66.24,12.85,12.85,0,0,0,1.67,0c.34,0,.54.08.57.23s-.09.32-.39.51a1.17,1.17,0,0,0-.44,1.08V6.21Zm4,15.84V19.68a16.76,16.76,0,0,0-.33-4c.71.1,1.32.17,1.83.2a11.66,11.66,0,0,0,1.57,0c.35,0,.55.05.61.21s-.07.32-.39.5a.73.73,0,0,0-.35.42,2.88,2.88,0,0,0-.09.83V31.52c0,.35,0,.73,0,1.16s.05.87.09,1.3.07.84.11,1.24.08.73.13,1H28.49V34.89H7.29v1.77H4.14a21.69,21.69,0,0,0,.28-2.22q.09-1.14.09-2.7V20c0-1.19,0-2.1,0-2.74a8,8,0,0,0-.21-1.52l.93.2a4.64,4.64,0,0,0,.79.13c.26,0,.53.05.8.06l.92,0c.5,0,.75.08.76.24s-.16.31-.53.46a1.12,1.12,0,0,0-.63,1.11v4.11ZM7.29,24.27v8.14h21.2V24.27Zm6.88,2.51a15.78,15.78,0,0,1,1.7,1.43c.5.48,1,1,1.56,1.68l-2,1.48a9.18,9.18,0,0,0-.94-1.44,18.86,18.86,0,0,0-1.35-1.52c-.84,1.26-1.67,2.42-2.48,3.48a4.07,4.07,0,0,0-1.09-.74,7.4,7.4,0,0,0-1.24-.48c.56-.52,1.07-1,1.51-1.48A10.86,10.86,0,0,0,11,27.75a11.92,11.92,0,0,0,.87-1.56,18.67,18.67,0,0,0,.7-1.77,11,11,0,0,0,1.37.66,6.15,6.15,0,0,0,1,.3c.35.07.51.17.5.29s-.12.23-.31.3a2.92,2.92,0,0,0-.43.29A3.08,3.08,0,0,0,14.17,26.78Zm7.77,1.89-1,1.72c-.33.58-.75,1.22-1.24,1.91a6,6,0,0,0-1.26-.52c-.49-.15-1-.27-1.44-.37a22.55,22.55,0,0,0,2.68-3.68,12.13,12.13,0,0,0,1.35-3.28,7.89,7.89,0,0,0,1.46.5c.48.11.9.19,1.24.24s.5.13.52.22-.1.21-.37.34a1.23,1.23,0,0,0-.42.35,5.43,5.43,0,0,0-.54.83,26.13,26.13,0,0,1,2.63,1.76c.78.6,1.39,1.1,1.81,1.5L25.27,32a12.43,12.43,0,0,0-1.42-1.67C23.31,29.82,22.68,29.26,21.94,28.67Zm0-10.21c-.37.64-.74,1.23-1.09,1.76s-.76,1.1-1.21,1.72a6,6,0,0,0-1.13-.54,6.56,6.56,0,0,0-1.42-.35,17.79,17.79,0,0,0,2.66-3.22,16.09,16.09,0,0,0,1.71-3.74,10.74,10.74,0,0,0,1.57.56c.48.12.89.21,1.24.26s.49.13.52.24-.1.2-.37.27a1.88,1.88,0,0,0-.78.49,5.87,5.87,0,0,0-.74,1,30.62,30.62,0,0,1,2.48,1.83,13.09,13.09,0,0,1,1.7,1.61l-2.33,1.44a6.47,6.47,0,0,0-.48-.74c-.2-.27-.43-.55-.69-.85s-.53-.59-.81-.89S22.25,18.71,22,18.46Z"/></g></svg>