<svg xmlns="http://www.w3.org/2000/svg" viewBox="0 0 37 38"><title>radical</title><g id="Layer_2" data-name="Layer 2"><path d="M6.51,8.19c0-1.68,0-3-.11-3.92a10.16,10.16,0,0,0,1.2.09l1.87,0c.79,0,1.8,0,3,0h9.69c1.32,0,2.39,0,3.22,0l1.89,0a7.84,7.84,0,0,0,1.09-.09c-.08.86-.11,2.17-.11,3.92v6.14c1.55,0,2.72,0,3.49,0s1.38-.06,1.8-.11V20.1h-2.7V16.55H4.22V20H1.44V14.18c.42.05,1.07.09,2,.11s1.93,0,3.11,0Zm2.63,28H6c.07-.84.13-1.61.16-2.32s.06-1.53.06-2.49v-9c0-1.48,0-2.59-.11-3.33.24,0,.63,0,1.14.06l2.11,0c.89,0,2,0,3.3,0h9.65c1.36,0,2.49,0,3.39,0l2.13,0q.77,0,1.11-.06c0,.42-.08.9-.1,1.43s0,1.16,0,1.9V32.57a10.57,10.57,0,0,1-.15,2,1.77,1.77,0,0,1-.78,1.16,4.92,4.92,0,0,1-1.89.65q-1.26.23-3.51.45c-.08-.33-.16-.63-.24-.93a6.49,6.49,0,0,0-.34-.89c-.13-.29-.29-.6-.46-.9s-.39-.66-.66-1.06a23.06,23.06,0,0,0,2.51.54,3.77,3.77,0,0,0,1.5,0,1,1,0,0,0,.72-.65,3.51,3.51,0,0,0,.19-1.29v-.93H9.14ZM25.68,23.73V21.51H9.14v2.22ZM9.14,25.91v2.55H25.68V25.91ZM25.42,6.74H9.32v7.59h5.15V9.22h11Zm0,4.67h-8.1v2.92h8.1Z"/></g></svg>