<svg xmlns="http://www.w3.org/2000/svg" viewBox="0 0 37 38"><title>radical</title><g id="Layer_6" data-name="Layer 6"><path d="M22.77,7.3c1.16,0,2.15,0,3-.1s1.43-.15,1.77-.22v3.13a13.24,13.24,0,0,0-1.75-.18c-.85,0-1.85-.07-3-.07H16.94a36,36,0,0,1-2.09,3.44c-.79,1.16-1.62,2.32-2.48,3.47a7,7,0,0,0-2-2c.67-.75,1.29-1.52,1.87-2.31a23.31,23.31,0,0,0,1.64-2.61q.76-1.42,1.53-3.15c.5-1.15,1-2.46,1.51-3.92a16.41,16.41,0,0,0,1.55.66,8.27,8.27,0,0,0,1.51.45c.55.1.83.21.85.35s-.19.37-.6.73a5.59,5.59,0,0,0-.88,1c-.32.43-.65.88-1,1.36Zm-5.43,9.18a17.77,17.77,0,0,0-2.38.26V13.6a22.38,22.38,0,0,0,2.47.26c.92,0,2,.07,3.36.07s2.45,0,3.39-.07a22.58,22.58,0,0,0,2.48-.26v3.14a21.09,21.09,0,0,0-2.48-.26c-1,0-2.27-.07-3.93-.07V20.8h2.9c.78,0,1.45,0,2-.06s1-.06,1.4-.11.75-.09,1.08-.14v3.13q-.49-.08-1.08-.12c-.38,0-.85-.07-1.4-.09s-1.22,0-2-.06l-2.88,0v7.17l2.06-1.28,1.45-.94c.42-.27.8-.53,1.12-.77l1.1-.83a9.36,9.36,0,0,0,.27,1.6,9.07,9.07,0,0,0,.48,1.39l-6,3.71a11.92,11.92,0,0,0-1.26.93,18.15,18.15,0,0,0-1.59,1.55,10.3,10.3,0,0,0-.79-1.78,8.76,8.76,0,0,0-1-1.35A4.46,4.46,0,0,0,17,31a8.08,8.08,0,0,0,.31-2.47V23.32l-1.84.06-1.4.05L13,23.52l-.9.09V20.48l.88.13,1,.09,1.41.05,1.89.05Z"/></g></svg>