<svg xmlns="http://www.w3.org/2000/svg" viewBox="0 0 37 38"><title>radical</title><g id="Layer_2" data-name="Layer 2"><path d="M5.92,37H2.7q.18-1.11.3-2.4c.07-.87.11-1.65.11-2.37V15q0-.91-.06-1.92a14.54,14.54,0,0,0-.17-1.66c.94.05,2.34.09,4.19.13l6.77.09V6.81q0-1.14-.06-2a12.58,12.58,0,0,0-.24-1.68c.64.1,1.22.16,1.74.2a17.58,17.58,0,0,0,1.81,0c.3,0,.45,0,.47.17s-.13.3-.43.5c-.12.07-.21.26-.26.57a15.26,15.26,0,0,0-.07,1.9h8.47c1.28,0,2.49,0,3.63,0s2.25-.09,3.36-.17V9.14q-3.28-.23-7-.22H16.8v2.74q5.07,0,8.47-.06c2.27,0,4-.09,5.07-.16A22.51,22.51,0,0,0,30.12,15v16.4q0,1.11.09,2.55c.06,1,.15,1.84.28,2.63h-3.3V33.86H5.92ZM27.19,14.06H5.92V31.34H27.19ZM17.5,20.91a29.45,29.45,0,0,0,2.61-3,33.1,33.1,0,0,0,2.24-3.35,14.8,14.8,0,0,0,1.27.87,10.29,10.29,0,0,0,1.28.61c.42.2.62.38.61.54s-.23.28-.65.35a2.34,2.34,0,0,0-.35.18,6.3,6.3,0,0,0-.81.71c-.39.37-.92.91-1.61,1.62l-2.81,3Q21.05,24,22.7,25.59c1.1,1.07,2.21,2.2,3.35,3.38l-2.22,1.67a41.37,41.37,0,0,0-2.93-3.22q-1.66-1.67-3.36-3.22c-.52.47-1.11,1-1.76,1.52s-1.33,1.08-2,1.63-1.4,1.06-2.1,1.57-1.35.95-2,1.35a8.69,8.69,0,0,0-1.22-.87A10,10,0,0,0,7,28.71q2.43-1.37,4.64-2.86a37.69,37.69,0,0,0,4.12-3.24c-1.4-1.23-2.71-2.29-3.92-3.16s-2.45-1.72-3.74-2.54l2.11-1.7c1.39,1,2.67,1.95,3.87,2.89S16.39,20,17.5,20.91ZM9,24.53c-.05-.29-.12-.61-.2-1a8.27,8.27,0,0,0-.34-1c-.13-.35-.27-.69-.4-1a7.06,7.06,0,0,0-.43-.87l3-.44a35.39,35.39,0,0,1,1.44,3.92Zm7.07-5.92a8,8,0,0,0-.43-1.77,6.57,6.57,0,0,0-.76-1.63l3-.48a12.78,12.78,0,0,1,.63,1.63q.22.74.45,1.74Zm-.23,12a14.11,14.11,0,0,0-.22-2,15.53,15.53,0,0,0-.48-1.76L18,26.57a13.29,13.29,0,0,1,.61,1.76q.2.8.39,1.83Zm7.11-5.81a10.31,10.31,0,0,0-.41-2,15.84,15.84,0,0,0-.66-1.85l3-.4a16.48,16.48,0,0,1,.56,1.75c.17.66.32,1.34.44,2.06Z"/></g></svg>