<svg xmlns="http://www.w3.org/2000/svg" viewBox="0 0 37 38"><title>radical</title><g id="Layer_2" data-name="Layer 2"><path d="M17.46,7.81l-4.77,0-3.94,0Q7,7.93,5.42,8l-2.9.14V5c1,.07,1.94.13,3,.16l3.31.12c1.19,0,2.5.06,3.92.07l4.75,0,4.76,0c1.44,0,2.77,0,4-.07l3.35-.12c1,0,2-.09,2.91-.16V8l-2.91-.09c-1,0-2.14-.06-3.35-.07l-4,0ZM6,22.35V36.3H2.7c.12-1,.2-1.87.24-2.5S3,32.54,3,31.9V22.72a13.2,13.2,0,0,0-.3-3.14c1.18.07,2.33.13,3.44.16l3.37.11c1.13,0,2.28.07,3.44.08l3.66,0,4.41,0c1.45,0,2.84,0,4.18-.08s2.58-.08,3.75-.13,2.23-.11,3.17-.18A9.72,9.72,0,0,0,31.86,21a16.15,16.15,0,0,0-.08,1.72V33.6a6.53,6.53,0,0,1-.15,1.53,1.59,1.59,0,0,1-.74,1,4.77,4.77,0,0,1-1.75.61c-.78.15-1.85.3-3.2.45a5.5,5.5,0,0,0-.36-1.74,8.31,8.31,0,0,0-1.12-1.89q1.44.15,2.31.15a3.57,3.57,0,0,0,1.33-.19.91.91,0,0,0,.59-.57,3.2,3.2,0,0,0,.13-1V22.35H21.5v1.41a.72.72,0,0,0,.37.66,2.53,2.53,0,0,0,1.25.22,21.65,21.65,0,0,0,2.24-.11,16.34,16.34,0,0,0,2.31-.37,3.25,3.25,0,0,0-.36,1.17,4.27,4.27,0,0,0,0,1.13,33.09,33.09,0,0,1-4.15.22A17.19,17.19,0,0,1,21,26.57a3.09,3.09,0,0,1-1.21-.37,1.11,1.11,0,0,1-.51-.72,4.84,4.84,0,0,1-.11-1.17v-2h-3a5.06,5.06,0,0,1-.65,1.76,4.64,4.64,0,0,1-1.31,1.35,9.22,9.22,0,0,1-2.11,1.05,25.39,25.39,0,0,1-3,.87,4.44,4.44,0,0,0-.55-1.24,3.48,3.48,0,0,0-1.07-1,11.85,11.85,0,0,0,4.4-.93,3.07,3.07,0,0,0,1.74-1.85Zm11.47-12.1c1.33,0,2.54,0,3.61,0s2.05,0,2.94-.07l2.46-.11c.75,0,1.46-.09,2.13-.17a16.58,16.58,0,0,0-.26,1.91c-.05.65-.07,1.37-.07,2.16s0,1.59.09,2.31.14,1.38.24,1.95C27.27,18.11,25.73,18,24,18s-3.91-.1-6.53-.1-4.75,0-6.47.08-3.26.12-4.59.22A23.39,23.39,0,0,0,6.73,14c0-.79,0-1.54-.07-2.26A11.19,11.19,0,0,0,6.4,9.88c1.28.13,2.8.22,4.55.28S14.87,10.25,17.46,10.25ZM16,30.27l-1.85,0c-.66,0-1.34,0-2,.07l-2,.13-1.74.15v-3l1.87.15c.63.05,1.3.08,2,.11l2.33,0c.84,0,1.77,0,2.78,0q6,0,9-.33v3c-.42-.05-1-.1-1.63-.15L22.7,30.4l-2.13-.09c-.69,0-1.27,0-1.74,0v2.11c0,.64,0,1.19,0,1.64s.06,1,.11,1.65H15.76c.1-.64.16-1.2.19-1.68s0-1,0-1.61ZM9.58,15.62h15.8V12.51H9.58Z"/></g></svg>