<svg xmlns="http://www.w3.org/2000/svg" viewBox="0 0 37 38"><title>radical</title><g id="Layer_2" data-name="Layer 2"><path d="M23.53,28.29a21.81,21.81,0,0,0,4.74,2.34A26.2,26.2,0,0,0,34.15,32a9.18,9.18,0,0,0-1.41,1.85,6.5,6.5,0,0,0-.7,1.77,53.51,53.51,0,0,1-7-3,28.57,28.57,0,0,1-5-3.3,17.58,17.58,0,0,1-3.35-3.68,18.57,18.57,0,0,1-2.07-4.16H9.88v10l6.25-3.11a8.33,8.33,0,0,0,.46,1.5,3,3,0,0,0,.58.94l-6.63,3.41c-.74.39-1.36.76-1.86,1.09a15.51,15.51,0,0,0-1.47,1.09A6,6,0,0,0,6.29,35a10.77,10.77,0,0,0-1.41-1.37l1.06-.39,1.16-.46V21.44c-1.11,0-2.19,0-3.23.07s-2.07.13-3.06.23V18.67c1,.09,2.11.16,3.22.2s2.26.07,3.44.09V8.86c0-1.09,0-2,0-2.74s0-1.43-.09-2.07l5.35.15c1.93,0,4,.07,6.12.07s4.22,0,6.22-.07l5.4-.15V6.9l-2.29-.07-2.41-.08c-.86,0-1.83,0-2.9,0H10.25V9.12H23c1.06,0,2.07,0,3-.06s1.76-.09,2.4-.16v2.77c-.57-.05-1.35-.09-2.35-.13s-2,0-3.09,0H10.25v2.62H23c1.24,0,2.29,0,3.17,0s1.63-.09,2.27-.17V16.7c-.57-.05-1.34-.09-2.31-.13s-2-.05-3.13-.05H10.25V19H24.94c1,0,1.82,0,2.59,0l2.14-.05,1.91-.1,1.87-.12v3.07c-.64,0-1.27-.1-1.89-.13l-1.92-.1-2.19-.05-2.62,0H17.32a20.91,20.91,0,0,0,1.86,2.83,19,19,0,0,0,2.39,2.53c.54-.49,1-.95,1.48-1.38s.86-.85,1.24-1.24S25,23.39,25.38,23s.69-.81,1-1.25c.34.29.76.62,1.24,1s.93.67,1.35.94c.59.39.58.63,0,.7a2.15,2.15,0,0,0-.55.17,6.2,6.2,0,0,0-.87.52c-.39.26-.89.65-1.52,1.16Z"/></g></svg>