<svg xmlns="http://www.w3.org/2000/svg" viewBox="0 0 37 38"><title>radical</title><g id="Layer_2" data-name="Layer 2"><path d="M16.06,7.18c0-1,0-1.72,0-2.27a13.09,13.09,0,0,0-.11-1.36,16.12,16.12,0,0,0,1.63.17,14.46,14.46,0,0,0,1.59,0c.54,0,.58.21.11.7a2,2,0,0,0-.3.8,12.1,12.1,0,0,0-.11,1.94l6.55,0c1.68,0,3,0,4,0s1.78-.06,2.3-.1,1-.08,1.33-.13V9.7c-.79,0-1.72-.1-2.79-.13s-2.4-.06-4-.06H18.83V14.1c.27.37.56.73.85,1.07s.61.69.93,1a11.91,11.91,0,0,0,1.18-1.31,16.4,16.4,0,0,0,1.11-1.61c.35-.57.66-1.14,1-1.71A9.11,9.11,0,0,0,24.49,10a24.9,24.9,0,0,0,3.18,1.19q.52.15.54.33t-.54.3a2.08,2.08,0,0,0-.75.46,5.81,5.81,0,0,0-.91,1,14.14,14.14,0,0,1,1.46.85c.53.35,1.07.72,1.61,1.11s1.07.8,1.57,1.22,1,.82,1.39,1.18L29.6,19.39a8.22,8.22,0,0,0-.89-1q-.55-.54-1.2-1.11c-.43-.38-.89-.77-1.37-1.17s-1-.76-1.43-1.11a16.64,16.64,0,0,1-1.14,1.47c-.42.48-.82.92-1.19,1.31a20.54,20.54,0,0,0,5.26,3,27,27,0,0,0,6.73,1.61,7.57,7.57,0,0,0-1.13,1.48,11.74,11.74,0,0,0-.68,1.48,28.32,28.32,0,0,1-3.74-1.19,29.36,29.36,0,0,1-3.68-1.74,26.91,26.91,0,0,1-3.4-2.23,21,21,0,0,1-2.91-2.72c0,.42,0,.87,0,1.35s.06.94.11,1.39H15.87A12.56,12.56,0,0,0,16,18.8c0-.45,0-.88,0-1.3a31.36,31.36,0,0,1-5.63,3.93,60.12,60.12,0,0,1-8,3.58,8.7,8.7,0,0,0-.78-1.42A6.65,6.65,0,0,0,.59,22.28a32.58,32.58,0,0,0,9.29-3,21.28,21.28,0,0,0,6.18-4.77v-5H9.25c.37.25.74.47,1.11.67a6.33,6.33,0,0,0,.85.4c.35.13.52.24.52.34s-.16.25-.48.44A6.68,6.68,0,0,0,10,12.66c.69.44,1.36.91,2,1.4s1.24,1,1.81,1.48l-1.89,1.89a10.6,10.6,0,0,0-1.5-1.5c-.6-.5-1.22-1-1.86-1.42-.92,1.18-1.65,2.09-2.21,2.74A18,18,0,0,1,5,18.72a4.23,4.23,0,0,0-1.11-.94,6.22,6.22,0,0,0-1.52-.65A8.93,8.93,0,0,0,4,15.8a18,18,0,0,0,1.67-1.88,26.39,26.39,0,0,0,1.5-2.19A14.64,14.64,0,0,0,8.32,9.51c-1.5,0-2.74,0-3.71.06s-1.81.08-2.5.13V7a12.3,12.3,0,0,0,1.27.11c.51,0,1.26,0,2.24,0l4,0ZM13.21,26c-.77.69-1.61,1.42-2.54,2.17s-1.74,1.37-2.46,1.87a6,6,0,0,0-1.05-1,5.14,5.14,0,0,0-1.39-.7,19.46,19.46,0,0,0,4.94-3.37,25.06,25.06,0,0,0,4-4.7c.5.18,1,.34,1.41.48s.91.29,1.4.41.79.25.82.37-.19.28-.63.48a3.07,3.07,0,0,0-.35.26l-.63.5c-.24.18-.48.39-.72.61l-.67.59H25.1c.39,0,.73,0,1,0l.85-.05A27.74,27.74,0,0,1,24.62,28a15.6,15.6,0,0,1-2.9,3.12l2.85,1.32c.93.43,1.81.84,2.62,1.24L25,36.26c-.94-.56-1.91-1.13-2.92-1.7s-2-1.11-3.07-1.63a27.18,27.18,0,0,1-5.83,2.26A79.92,79.92,0,0,1,5,36.89a9.54,9.54,0,0,0-.57-1.66,7.74,7.74,0,0,0-.91-1.52,34.42,34.42,0,0,0,6.68-.43,24.4,24.4,0,0,0,6-1.72c-.79-.37-1.53-.69-2.2-1l-1.8-.7,1.67-2.22,2.46,1.05,2.83,1.21a12,12,0,0,0,2.05-1.78A8,8,0,0,0,22.57,26Z"/></g></svg>