<svg xmlns="http://www.w3.org/2000/svg" viewBox="0 0 37 38"><title>radical</title><g id="Layer_6" data-name="Layer 6"><path d="M20.63,17.69a1.07,1.07,0,0,0-.25.68c-.05.36-.1.8-.15,1.33,0,.82-.1,1.54-.16,2.18a14.83,14.83,0,0,1-.27,1.78,13.44,13.44,0,0,1-.45,1.6,17.15,17.15,0,0,1-.66,1.61,11.64,11.64,0,0,1-5,5,30.43,30.43,0,0,1-8.27,3,6.76,6.76,0,0,0-2.16-3.17A25.68,25.68,0,0,0,7.76,31a18.91,18.91,0,0,0,3.85-1.42,11,11,0,0,0,2.88-2.05,6.1,6.1,0,0,0,1.57-2.59A27.1,27.1,0,0,0,16.8,21a25.52,25.52,0,0,0,.12-4.09,13.89,13.89,0,0,0,1.89.26,8.1,8.1,0,0,0,1.57,0q.5-.07.54.09C20.94,17.34,20.85,17.49,20.63,17.69ZM17.46,7.21q-4.68,0-8,.07T3.6,7.5V4.26c1.82.12,3.93.2,6.3.23s5.28.06,8.71.06l4.74,0c1.43,0,2.75,0,4-.06s2.35,0,3.38-.09,2-.07,2.91-.12V7.5c-1.6-.1-3.42-.17-5.45-.22s-4.44-.07-7.25-.07c-.19.67-.37,1.4-.52,2.18s-.29,1.52-.38,2.21c1.32,0,2.46,0,3.42,0l2.52,0c.72,0,1.35,0,1.9-.07l1.59-.13a14.52,14.52,0,0,0-.22,2.77V22.8c0,.62,0,1.23.06,1.82a13.55,13.55,0,0,0,.2,1.71H26V14.27H11.45V26.69H8a25.81,25.81,0,0,0,.22-3.53v-9c0-.55,0-1.07,0-1.55A7.62,7.62,0,0,0,8,11.35c.48.05,1.45.1,2.9.14s3.47.09,6.06.11c.12-.65.22-1.35.29-2.12S17.41,8,17.46,7.21Zm12.6,27.94a13,13,0,0,0-1.85-1.62c-.81-.6-1.68-1.21-2.61-1.82S23.71,30.52,22.74,30s-1.85-1-2.61-1.35l2-2.59,2.53,1.35q1.39.73,2.79,1.53c.94.53,1.86,1,2.76,1.58s1.71,1,2.43,1.48Z"/></g></svg>