<svg xmlns="http://www.w3.org/2000/svg" viewBox="0 0 37 38"><title>radical</title><g id="Layer_2" data-name="Layer 2"><path d="M18.83,29.65q0,1.63.06,3.3c0,1.11.09,2.11.16,3H15.5c.1-1,.17-2,.22-3.07s.08-2.11.08-3.22v-9.1a27.17,27.17,0,0,1-2.41,3.85,44.51,44.51,0,0,1-3.16,3.83,44.19,44.19,0,0,1-3.61,3.51,38.81,38.81,0,0,1-3.74,2.91,5.47,5.47,0,0,0-1.09-1.54A5.48,5.48,0,0,0,.26,32a42.12,42.12,0,0,0,7.38-5.1,29.53,29.53,0,0,0,5.61-6.41c-1.61,0-3,0-4.28.06l-3.29.11c-.95,0-1.77.08-2.46.13l-1.74.11V17.67c.52,0,1.17.09,2,.13l2.9.09,4.06.05c1.55,0,3.35,0,5.4,0V7.71c-2,.2-3.94.38-5.9.54s-3.78.29-5.46.39a5.42,5.42,0,0,0-.32-1.59A5.71,5.71,0,0,0,3.37,5.6c2.78,0,5.3-.06,7.54-.18s4.43-.32,6.55-.59q3.73-.45,6.29-1a43.9,43.9,0,0,0,4.44-1.12,6.64,6.64,0,0,0,1,1.61,9,9,0,0,0,1.26,1.28q.4.33.33.57c-.05.17-.24.22-.59.17a11.62,11.62,0,0,0-1.31-.07q-.64,0-1.8.09c-.76.06-1.79.17-3.07.33s-3,.37-5.18.61V18c2.07,0,3.89,0,5.46,0l4.07-.05,2.9-.09c.79,0,1.45-.08,2-.13v3.14c-.46,0-1-.09-1.7-.13s-1.47-.07-2.4-.09l-3.26-.08c-1.23,0-2.65,0-4.25,0a23.62,23.62,0,0,0,5.86,6.07,27.18,27.18,0,0,0,7.24,3.58A10.28,10.28,0,0,0,33.34,32a11.18,11.18,0,0,0-.85,1.83,31.71,31.71,0,0,1-3.72-2.34,35.24,35.24,0,0,1-3.65-3.06,39.75,39.75,0,0,1-3.38-3.68,30.55,30.55,0,0,1-2.91-4.27ZM8,17a19.13,19.13,0,0,0-.76-3.3,19.59,19.59,0,0,0-1.2-3l2.89-.92c.54,1.31,1,2.44,1.29,3.4s.59,1.94.82,2.93Zm21.72-6.22a3.27,3.27,0,0,0-.8.61,11.76,11.76,0,0,0-1,1.17c-.39.49-.83,1.13-1.34,1.9s-1.09,1.72-1.75,2.83a7.8,7.8,0,0,0-1.22-.68,13.31,13.31,0,0,0-1.56-.57,25.12,25.12,0,0,0,2.44-3.56,24.56,24.56,0,0,0,1.74-3.81A11.12,11.12,0,0,0,28,9.58,6.64,6.64,0,0,0,29.6,10c.34.05.55.15.61.28S30.1,10.62,29.71,10.82Z"/></g></svg>