<?xml version="1.0" encoding="UTF-8"?>
<svg width="20px" height="19px" viewBox="0 0 20 19" version="1.1" xmlns="http://www.w3.org/2000/svg" xmlns:xlink="http://www.w3.org/1999/xlink">
    <!-- Generator: Sketch 63.1 (92452) - https://sketch.com -->
    <title>download</title>
    <desc>Created with Sketch.</desc>
    <g id="download" stroke="none" stroke-width="1" fill="none" fill-rule="evenodd">
        <path d="M4.30894669,7.12445177 C4.06188649,7.35554123 4.05290811,7.73816972 4.28913234,7.97984574 L10,13.8181818 L15.7108677,7.97984574 C15.9470919,7.73816972 15.9381135,7.35554123 15.6910533,7.12445177 C15.4439931,6.89366478 15.0517309,6.90273897 14.8155066,7.14381005 L10.6191985,11.4340887 L10.6191985,0.604946231 C10.6191985,0.271015912 10.3417976,0 10,0 C9.65820243,0 9.38080151,0.271015912 9.38080151,0.604946231 L9.38080151,11.4340887 L5.18449335,7.14381005 C4.94857873,6.90213403 4.55631648,6.89366478 4.30894669,7.12445177 Z" id="Path" stroke="#CDCDCD" stroke-width="0.4" fill="#CDCDCD" fill-rule="nonzero" stroke-linejoin="round"></path>
        <path d="M0.625,11.5151515 C0.28,11.5151515 0,11.7945859 0,12.1388889 L0,14.9740871 C0,17.2317045 1.7096875,19 3.8921875,19 L16.108125,19 C18.2903125,19 20,17.2317045 20,14.9740871 L20,12.2804773 C20,11.9361742 19.72,11.6567399 19.375,11.6567399 C19.03,11.6567399 18.75,11.9361742 18.75,12.2804773 L18.75,14.9740871 C18.75,16.5580682 17.6140625,17.7525253 16.1078125,17.7525253 L3.8921875,17.7525253 C2.3859375,17.7525253 1.25,16.5580682 1.25,14.9740871 L1.25,12.1388889 C1.25,11.7945859 0.97,11.5151515 0.625,11.5151515 Z" id="Path" stroke="#CDCDCD" stroke-width="0.4" fill="#CDCDCD" fill-rule="nonzero"></path>
    </g>
</svg>