<?xml version="1.0" encoding="UTF-8"?>
<svg width="19px" height="19px" viewBox="0 0 19 19" version="1.1" xmlns="http://www.w3.org/2000/svg" xmlns:xlink="http://www.w3.org/1999/xlink">
    <!-- Generator: Sketch 52.6 (67491) - http://www.bohemiancoding.com/sketch -->
    <title>Shape</title>
    <desc>Created with Sketch.</desc>
    <g id="Page-1" stroke="none" stroke-width="1" fill="none" fill-rule="evenodd" opacity="0.519159226">
        <g id="info" fill="#484848" fill-rule="nonzero">
            <g id="Page-1">
                <g id="icons">
                    <g id="np_question_3325507_000000-copy">
                        <path d="M10.5559557,10.7786708 L10.3805711,10.9357873 C10.2800897,11.1139126 10.2289359,11.3157873 10.2307646,11.5204027 C10.2307646,11.7140554 10.154035,11.9004027 10.0170151,12.0374132 C9.87999532,12.174433 9.69365268,12.2511626 9.50000468,12.2511626 C9.09624591,12.2511626 8.76923545,11.9241521 8.76923545,11.5203934 C8.76192775,10.931218 8.96836948,10.3584586 9.35020283,9.90905305 C9.40501169,9.85059151 9.48174129,9.78116726 9.57308628,9.69712997 C10.0261632,9.2915472 10.9615478,8.44385489 10.9615478,7.50482228 C10.9880379,7.11020689 10.8418841,6.72288751 10.5623724,6.4424592 C10.2819441,6.16294289 9.89462474,6.01678905 9.50000935,6.04328382 C9.10539397,6.01679372 8.71807458,6.16294757 8.43764628,6.4424592 C8.15812997,6.72288751 8.01197612,7.11020689 8.03847089,7.50482228 C8.03847089,7.90858105 7.71146043,8.23559151 7.30770166,8.23559151 C6.90394289,8.23559151 6.57693243,7.90858105 6.57693243,7.50482228 C6.55135434,6.72197551 6.85097674,5.96382289 7.40453735,5.40935028 C7.95900997,4.85578966 8.71718597,4.55618597 9.50000935,4.58174535 C10.2800967,4.55616726 11.0364487,4.85396566 11.5900094,5.40476689 C12.14357,5.95556812 12.4449977,6.71009612 12.4230863,7.49020689 C12.4230769,9.07975508 11.1625058,10.22352 10.5559557,10.7786708 Z M9.78125846,13.0259604 C9.73649797,13.0086045 9.68991348,12.9949033 9.64241231,12.9857669 C9.42500788,12.9428351 9.20030277,13.0003823 9.03039015,13.1419691 C8.86139889,13.2844703 8.76457723,13.4954743 8.76913723,13.7165291 C8.76365634,13.7640279 8.76365634,13.8115291 8.76913723,13.8590303 C8.77827173,13.9065291 8.79197371,13.9531159 8.80933071,13.9978764 C8.82851334,14.0408082 8.85226252,14.0828281 8.87875495,14.1221072 C8.90433305,14.1623007 8.93447582,14.1997511 8.96644726,14.2353776 C9.11077477,14.3705687 9.30260111,14.4418193 9.49989711,14.4326853 C9.54739594,14.4381662 9.59489711,14.4381662 9.64239828,14.4326853 C9.68989711,14.4244642 9.73648394,14.4116756 9.78124443,14.3924918 C9.82509058,14.3742226 9.8671104,14.3513863 9.9054752,14.3230676 C9.98860049,14.2746544 10.0580224,14.2052302 10.1064379,14.1221049 C10.1347543,14.0837401 10.1575918,14.0417202 10.1758622,13.9978741 C10.1950448,13.9531136 10.2078336,13.9065291 10.2160556,13.8590279 C10.2215365,13.8115291 10.2215365,13.7640279 10.2160556,13.7165268 C10.216969,13.5219598 10.1411524,13.3356148 10.0041326,13.1976689 C9.97398745,13.1611305 9.941104,13.1264183 9.90547754,13.0953612 C9.86621009,13.0688945 9.82419028,13.0451451 9.78125846,13.0259604 Z M19,9.5 C19,12.0192246 17.9988578,14.4362585 16.2176985,16.2176985 C14.4364455,17.9989514 12.0194585,19 9.5,19 C6.98054154,19 4.56374154,17.9988578 2.78230154,16.2176985 C1.00104862,14.4364455 0,12.0194585 0,9.5 C0,6.98054154 1.00114215,4.56374154 2.78230154,2.78230154 C4.56355446,1.00104862 6.98054154,0 9.5,0 C12.0194585,0 14.4362585,1.00114215 16.2176985,2.78230154 C17.9989514,4.56355446 19,6.98054154 19,9.5 Z M17.5384615,9.5 C17.5384615,7.36797785 16.6916812,5.32374154 15.1845662,3.81543385 C13.6764455,2.30822523 11.6322092,1.46153846 9.5,1.46153846 C7.36779077,1.46153846 5.32374154,2.30831877 3.81543385,3.81543385 C2.30822523,5.32355446 1.46153846,7.36779077 1.46153846,9.5 C1.46153846,11.6322092 2.30831877,13.6762585 3.81543385,15.1845662 C5.32355446,16.6917748 7.36779077,17.5384615 9.5,17.5384615 C11.6322092,17.5384615 13.6762585,16.6916812 15.1845662,15.1845662 C16.6917748,13.6764455 17.5384615,11.6322092 17.5384615,9.5 Z" id="Shape"></path>
                    </g>
                </g>
            </g>
        </g>
    </g>
</svg>