<svg xmlns="http://www.w3.org/2000/svg" width="1.65in" height="0.54in" viewBox="0 0 119 39"><title>Artboard 222 copy 3</title><path d="M2.41,35.09a30.67,30.67,0,0,0,11-10Q9.2,20,6.52,17.23a10.94,10.94,0,0,0,2.92-1.88L15,22.24a24.28,24.28,0,0,0,1.84-9.46H8.45c-1.26,0-2.73.05-4.4.15.07-.86.11-1.51.11-1.94s0-1.08-.11-2a19.4,19.4,0,0,0,3,.27H20.35A18.49,18.49,0,0,0,23.62,9c-.07.83-.11,1.43-.11,1.81s0,1.2.13,2.12a14.6,14.6,0,0,0-2.21-.18H20.25a30.36,30.36,0,0,1-3.27,12q4.31,5.73,6.24,8.59l.42.65a14.58,14.58,0,0,0-3.71,1.88,29.25,29.25,0,0,0-4.57-8.3,35.49,35.49,0,0,1-9.48,10A8.82,8.82,0,0,0,2.41,35.09ZM11.34,3.22A23.64,23.64,0,0,0,15,1.94a39,39,0,0,0,2.19,5.52,13.67,13.67,0,0,0-3.83,1.09A10.53,10.53,0,0,0,11.34,3.22Z"/><path d="M25,28.73c.11-1.35.16-2.34.16-3V10.09a15.9,15.9,0,0,0-.23-2.57,16.64,16.64,0,0,0,2.44.29c.39,0,.9,0,1.54-.1a5,5,0,0,0-.61,2.74V25.76c0,.28,0,.84.1,1.68q0,.43.09,1.35a15.54,15.54,0,0,0-1.94-.19A15.29,15.29,0,0,0,25,28.73Zm2.9,5.89a16,16,0,0,0,2.65.28,2.12,2.12,0,0,0,1.61-.44,3.85,3.85,0,0,0,.35-2.05V4.4a8.43,8.43,0,0,0-.23-2.23,18.09,18.09,0,0,0,3.1.4c.3,0,.7,0,1.22-.06A4.21,4.21,0,0,0,36,4.68V35.53a2.07,2.07,0,0,1-1.16,2,16.19,16.19,0,0,1-4.72,1l-.8.1A9.2,9.2,0,0,0,27.87,34.62Z"/><path d="M41.81,29.9q4.86-6.72,7.08-19a20.43,20.43,0,0,0,4.84,1.5,4.19,4.19,0,0,0-1.39,1.83L49.2,23.14,46.06,31s-.09.28-.21.71A12.29,12.29,0,0,0,41.81,29.9Zm10.57,3.94a20.81,20.81,0,0,0,3.46.47c.91,0,1.47-.14,1.7-.42a4.06,4.06,0,0,0,.34-2.13V6a21.94,21.94,0,0,0-.3-4.25,25.45,25.45,0,0,0,5,.53c-.74,1.06-1.12,2.78-1.12,5.18V33.27a9.19,9.19,0,0,1-.38,3.54Q60,38.52,55.46,38.52H54.28A8,8,0,0,0,52.38,33.84ZM65.44,12.62a10.32,10.32,0,0,0,3.7-1.86q2.16,5.4,8,16.57l.73,1.37a12.58,12.58,0,0,0-4.4,1.77,70.22,70.22,0,0,0-3.53-9A72.48,72.48,0,0,0,65.44,12.62Z"/><path d="M80.73,15a20.17,20.17,0,0,0,1.7-3c.66.38,1.16.66,1.5.82l2.15,1,1.79.82,1.51.67a21.37,21.37,0,0,0-1.83,3A26.17,26.17,0,0,0,80.73,15ZM81.82,35a77.61,77.61,0,0,0,4.34-13.88,15.53,15.53,0,0,0,3.09,2,50.44,50.44,0,0,0-2.12,6.53l-1.2,5.31c-.06.3-.21.92-.44,1.87A31.92,31.92,0,0,0,81.82,35Zm.91-30.11c.69-.87,1.36-1.74,2-2.6A45.47,45.47,0,0,0,90.29,6l1.11.64a8.9,8.9,0,0,0-2.52,2.63A40,40,0,0,0,82.73,4.85Z"/><path d="M87.21,36a20.16,20.16,0,0,0,4.7-7.92q1.2-4.12,1.2-12.29,0-6.87-.15-9.21c1.07,0,1.74.07,2,.07h7V4.19a12.6,12.6,0,0,0-.38-3.13c1.18.11,2,.16,2.57.16l1.56,0a8.14,8.14,0,0,0-.53,3V6.66h5.67c.38,0,1.21,0,2.48-.15l1.79-.11q-1,3.62-1.76,7.75a13.18,13.18,0,0,0-3.71-.61,26.79,26.79,0,0,0,1.5-4h-6v7.39h4.32c.24,0,.77-.05,1.58-.15l1.49-.16q-2.49,9-6,14.13A21.82,21.82,0,0,0,116.17,34,16.84,16.84,0,0,0,114,37.8,21,21,0,0,1,104.38,33l-1.1.89a52.61,52.61,0,0,1-6.87,4.63,33.71,33.71,0,0,0-3-2.7,21.68,21.68,0,0,0,8.73-4.92q-2.18-3.5-4.82-8.77A14.4,14.4,0,0,0,101,20.93a21.48,21.48,0,0,0,3.07,8,55.74,55.74,0,0,0,4.19-9.19H96.48a52.33,52.33,0,0,1-1.83,10.32,29.08,29.08,0,0,1-4,7.6A18.47,18.47,0,0,0,87.21,36Zm9.27-19.12h5.45V9.5H96.48Z"/></svg>