<svg xmlns="http://www.w3.org/2000/svg" width="1.6in" height="0.54in" viewBox="0 0 115 39"><title>Artboard 222 copy 4</title><path d="M.77,34.9q6.8-1,10.48-4.48t5.16-10.08h-10a24.86,24.86,0,0,0-3.35.19,17.17,17.17,0,0,0,.15-1.89,16.5,16.5,0,0,0-.19-2A20.31,20.31,0,0,0,6.9,17h10V8.09H8.71a24,24,0,0,0-3.39.29,14.13,14.13,0,0,0,.21-2,13.57,13.57,0,0,0-.21-2,15,15,0,0,0,2.86.24H28.12a34.19,34.19,0,0,0,3.71-.2c-.09,1-.13,1.68-.13,2.15s0,.94.07,1.67a28.18,28.18,0,0,0-3.23-.19H20.18V17H31.37a15.47,15.47,0,0,0,3.13-.32c-.08.85-.12,1.49-.12,1.9s0,1.08.12,2c-1.45-.13-2.48-.19-3.09-.19H21q2,6.43,5.49,9.39t9.87,3.59a11.94,11.94,0,0,0-2.91,4.29q-6.48-2.52-9.56-5.7t-5.14-9.46c-1.25,4.47-2.8,7.74-4.68,9.81s-5.13,4.12-9.77,6.17A9.5,9.5,0,0,0,.77,34.9Z"/><path d="M42.57,14.38,42.65,10l-.08-4.19C44,6,45,6,45.33,6H57.06L56.7,4.74a10.66,10.66,0,0,0-1.31-3A12,12,0,0,0,59.21,1l1.43,5h7.47a36.19,36.19,0,0,0,5-.29l-.07,4.38.06,4.11c-.72-.06-1.25-.09-1.6-.09s-1.14,0-2,.13c0-.37,0-.89.07-1.58s.08-1.19.08-1.35V9H46.07v2.21c0,.21,0,.68.08,1.43s.06,1.32.06,1.58c-.64,0-1.16,0-1.58,0A18.56,18.56,0,0,0,42.57,14.38Z"/><path d="M40.84,21.55c0-.78.07-1.36.07-1.73s0-1-.07-1.83l2.72.1,3.22.08h5.6a69.33,69.33,0,0,0,2.82-7.34,14.35,14.35,0,0,0,4.22,1.79,9.8,9.8,0,0,0-1.29,1.68l-2.42,3.85H67.82q3.53,0,6.53-.23c0,.75-.07,1.32-.07,1.71s0,1,.07,1.77l-2.59-.07-2.85-.1h-2q-1.58,5.65-4.25,8.32a56.33,56.33,0,0,1,11.09,5.39,10.47,10.47,0,0,0-3.13,3.26q-1.86-2-9.61-6.09l-.48-.25q-5.55,4.32-15.9,6.62l-.63.14a7.63,7.63,0,0,0-2.51-3.91,35.91,35.91,0,0,0,16.11-4.36L47.39,27.17,51,21.25H46.36c-.64,0-1.71.05-3.24.15Zm10.78,4.29,1.2.34,6,2,.82.23a28.25,28.25,0,0,0,3.81-7.14H54.55Z"/><path d="M80.6,38.45c.08-1.37.11-2.27.11-2.69V12.89a10,10,0,0,0-.34-2.44,34.37,34.37,0,0,0,4.19.5A6.74,6.74,0,0,0,84,13.67v22q0,.93.15,2.76c-.77-.08-1.35-.12-1.73-.12S81.39,38.37,80.6,38.45ZM83.68,3.94a11.93,11.93,0,0,0,3.11-1.68,50.78,50.78,0,0,0,3.9,5.85A14.24,14.24,0,0,0,87.3,9.73,28,28,0,0,0,83.68,3.94Zm9.68,3.58a11.79,11.79,0,0,0,.19-1.62,11.59,11.59,0,0,0-.19-1.69c1.31.09,2.19.13,2.66.13H107.7c.82,0,2-.07,3.58-.21A21.05,21.05,0,0,0,111,7V33.36c0,2-.39,3.3-1.18,3.93s-2.6,1.07-5.44,1.35a9.47,9.47,0,0,0-1.91-4.12c1.66.11,2.77.16,3.33.16a2.06,2.06,0,0,0,1.51-.39,2.83,2.83,0,0,0,.34-1.71V7.35H95.81C95.26,7.35,94.44,7.41,93.36,7.52Z"/></svg>