<svg xmlns="http://www.w3.org/2000/svg" width="0.51in" height="0.53in" viewBox="0 0 37 38"><title>word1</title><path d="M4,31.9c.35-.25.67-.5,1-.76a13.07,13.07,0,0,0,1-.91,5.07,5.07,0,0,0,.48,2.19L4,34.34a12,12,0,0,0-1,.89,9.66,9.66,0,0,0-.8.85A8.18,8.18,0,0,0,1.37,35a13,13,0,0,0-1-.92,6.42,6.42,0,0,0,.74-.39l.66-.39V22.24c0-1.33,0-2.32,0-3s-.07-1.18-.12-1.63A10.16,10.16,0,0,0,4,17.91c.39,0,.62.08.68.24s-.06.38-.35.65a.92.92,0,0,0-.3.74ZM12.69,7.48H9.1V5.29c1.23,0,2.37.08,3.4.08s1.92,0,2.63-.08C15.06,6,15,7,15,8.18V14c0,.64,0,1.17,0,1.6s.06.86.11,1.28c-.2,0-.53-.05-1-.07s-1-.05-1.61-.06l-2,0c-.73,0-1.44,0-2.13,0s-1.43,0-2.16,0l-2,.05-1.61.06c-.45,0-.78,0-1,.05a10.05,10.05,0,0,0,.17-1.24c0-.45.06-1,.06-1.64V8.33c0-.67,0-1.26-.06-1.78a6.17,6.17,0,0,0-.17-1.18A7,7,0,0,0,3,5.39a14.72,14.72,0,0,0,1.55-.21,13.51,13.51,0,0,0,1.52-.37,4.18,4.18,0,0,0,1.2-.55,7.67,7.67,0,0,0,.39,1.22,3.26,3.26,0,0,0,.54.89c.41.56.33.82-.26.77a4.75,4.75,0,0,0-.54,0l-.7,0-1,.11-1.43.19V10c.92,0,1.61,0,2.09,0a9,9,0,0,0,1.24-.15v2.41A6.13,6.13,0,0,0,6.36,12c-.49,0-1.19,0-2.11,0v2.63h8.44v-2.7c-1,0-1.82,0-2.35,0s-1,.07-1.28.11V9.66a9.56,9.56,0,0,0,1.3.15c.52,0,1.29,0,2.33,0ZM5,28.57c0-.37,0-.69,0-1a6.85,6.85,0,0,0-.13-.79,7.14,7.14,0,0,0-.24-.8l-.37-1L6,24.61c.19.52.36,1,.5,1.53s.3,1.14.5,1.91Zm0-4.92c0-.74-.13-1.4-.22-2a13.15,13.15,0,0,0-.45-1.8l1.63-.41c.17.62.33,1.24.46,1.85s.27,1.27.39,2ZM9.25,31.9c.29-.27.6-.56.91-.87s.64-.67,1-1.09a11,11,0,0,0,.26,1.12,5.31,5.31,0,0,0,.33.87L9.4,34.34c-.35.34-.65.64-.89.89s-.51.52-.78.81a9.14,9.14,0,0,0-.72-1,7.34,7.34,0,0,0-.91-.93l.58-.35.53-.35V22.24q0-2,0-2.94c0-.63-.06-1.17-.11-1.61.34.07.7.13,1.07.17s.69.05,1,.05.48.05.54.15,0,.29-.21.59A.81.81,0,0,0,9.3,19a3.68,3.68,0,0,0-.05.58Zm1.07-3.33c0-.35-.05-.66-.07-.93a6.85,6.85,0,0,0-.13-.79c-.06-.26-.14-.53-.22-.82s-.21-.62-.36-1l1.74-.4a15.94,15.94,0,0,1,.56,1.64c.15.54.28,1.16.41,1.87Zm0-4.92a19.39,19.39,0,0,0-.23-2,13.07,13.07,0,0,0-.44-1.8l1.63-.41c.17.62.32,1.23.44,1.84s.23,1.26.33,2ZM14.54,25c0,.87,0,1.61,0,2.22s0,1.16.05,1.63,0,.89.06,1.24.06.7.11,1a3,3,0,0,0,.61,1.52,3.63,3.63,0,0,0,2,1,22.88,22.88,0,0,0,4.22.56c1.82.11,4.28.14,7.36.09a7.65,7.65,0,0,0,1.31-.09,1.73,1.73,0,0,0,.8-.33,1.44,1.44,0,0,0,.44-.71,10.94,10.94,0,0,0,.3-1.2,4.41,4.41,0,0,0,1.37.59,3.65,3.65,0,0,0,1.37.11,9.23,9.23,0,0,1-.69,2,3.1,3.1,0,0,1-1,1.18,3.62,3.62,0,0,1-1.56.56,16.11,16.11,0,0,1-2.26.13q-5.47,0-8.71-.24a20.46,20.46,0,0,1-4.92-.82A3.79,3.79,0,0,1,13.19,34a5.26,5.26,0,0,1-.57-2.46q0-.7-.06-1.41c0-.46,0-1,0-1.74s0-1.53,0-2.53-.05-2.27-.08-3.83c0-1.26-.05-2.23-.09-2.9s-.09-1.27-.17-1.76a7.74,7.74,0,0,0,2.26.26c.37,0,.59,0,.65.09s0,.25-.24.43a.67.67,0,0,0-.2.48c0,.24-.07.64-.1,1.18s0,1.24,0,2.09S14.52,23.76,14.54,25Zm13.21-.37c.39.35.82.74,1.28,1.19s.91.89,1.38,1.33.91.88,1.32,1.3.74.79,1,1.11l-1.88,1.62c-.65-.93-1.24-1.74-1.78-2.42a21.79,21.79,0,0,0-1.78-2c0,1.06.07,2.18.12,3.35s.11,2.16.18,3H24.94c.07-1.11.13-2.34.16-3.68s.06-2.94.06-4.8H22.53q0,3.22.06,5.28c0,1.37.08,2.48.13,3.35H20.09c.05-.82.1-1.64.15-2.48s.08-1.64.11-2.41c-.3.45-.59.85-.87,1.22s-.57.72-.87,1.06-.61.65-.93,1l-1,1a5.62,5.62,0,0,0-.8-1.26A4.59,4.59,0,0,0,15,30.6a11.44,11.44,0,0,0,2.69-2.09,22,22,0,0,0,2.72-3.64v-.23l-.73,0-1,.06-1,.05-.72.06V22.39c.35.05.85.08,1.52.11s1.33,0,2,0V20.09c-1,0-1.9,0-2.65.06a16.91,16.91,0,0,0-2,.2V17.8a19.5,19.5,0,0,0,2,.2c.71,0,1.56.06,2.58.06V15.54l-1.74,0a15.18,15.18,0,0,0-1.52.09v-2.4c.42.05.92.09,1.52.13s1.17,0,1.74,0V11l-1.22,0-1.28,0c-.41,0-.78,0-1.13.08a5.38,5.38,0,0,0-.78.13V8.81a10.17,10.17,0,0,0,1.87.2c.83,0,1.67.06,2.54.06h5.1a30.36,30.36,0,0,0,1.43-3,16.7,16.7,0,0,0,.79-2.37,8,8,0,0,0,1.43.59c.6.2,1.12.36,1.57.48.25.05.37.17.37.35s-.14.32-.41.39a3.42,3.42,0,0,0-1.05,1,24.21,24.21,0,0,0-1.76,2.54q1,0,2.4-.09c.94-.07,1.78-.16,2.52-.28v2.59q-1.19-.15-2.64-.21c-1,0-1.93-.05-2.87-.05v2.4c.94,0,1.82,0,2.66,0a12.09,12.09,0,0,0,1.93-.21c-.05.57-.09,1.31-.11,2.21s0,1.78,0,2.64c.37,0,.73,0,1.09-.05a3.83,3.83,0,0,0,.83-.17v2.48a6.79,6.79,0,0,0-.85-.13,10,10,0,0,0-1.07-.06c0,.77,0,1.59.05,2.46s0,1.63.1,2.24c-.42-.05-1-.08-1.85-.11S28.44,24.64,27.75,24.64ZM20.94,8.81c-.32-.67-.66-1.3-1-1.91s-.71-1.17-1.05-1.72L21.27,4q.53.74,1.08,1.68a16.12,16.12,0,0,1,1,1.9ZM22.53,11v2.4h2.63V11Zm2.63,7V15.54H22.53v2.52Zm-2.63,2v2.45h2.63V20.09Zm7.11-2V15.54H27.27v2.52Zm-2.37,2v2.45h2.37V20.09Z"/></svg>